<?xml version="1.0" encoding="UTF-8"?>
<svg version="1.1" xmlns="http://www.w3.org/2000/svg" width="1200" height="1200">
<path d="M0 0 C4.14250971 0.55718632 7.52694655 1.48853565 11.30859375 3.2578125 C12.30439453 3.71929687 13.30019531 4.18078125 14.32617188 4.65625 C15.35291016 5.1409375 16.37964844 5.625625 17.4375 6.125 C18.92540039 6.81722656 18.92540039 6.81722656 20.44335938 7.5234375 C22.52211982 8.49166374 24.59920741 9.46348786 26.67480469 10.43847656 C29.56898891 11.79759567 32.46638556 13.14958239 35.36521912 14.49874878 C41.31407829 17.26846901 47.25176238 20.06075483 53.1796875 22.875 C71.49329382 31.56686632 89.87133579 40.09416307 108.34460449 48.44110107 C121.92699959 54.57973758 135.4712954 60.80186812 148.96875 67.125 C154.29906815 69.6124818 159.65127761 72.05242595 165 74.5 C176.67784172 79.84706623 188.33143681 85.23397171 199.90966797 90.79394531 C217.01843353 99.00730392 234.18829358 107.10321126 251.60620117 114.64306641 C256.92422267 116.94966131 262.17696878 119.3845165 267.421875 121.8515625 C272.98190779 124.46637829 278.55745616 127.0478244 284.1312561 129.63311768 C306.0760468 139.81297763 306.0760468 139.81297763 315 144 C315.8038916 144.37672852 316.6077832 144.75345703 317.43603516 145.14160156 C320.08355856 146.38352895 322.72946965 147.62883338 325.375 148.875 C326.21554932 149.26913086 327.05609863 149.66326172 327.92211914 150.06933594 C328.6980542 150.43575195 329.47398926 150.80216797 330.2734375 151.1796875 C331.31636963 151.67057861 331.31636963 151.67057861 332.38037109 152.17138672 C334 153 334 153 335 154 C335.30649689 163.23820378 334.52497257 172.4447699 333.8984375 181.65625 C333.78018713 183.43315879 333.6622923 185.21009127 333.54472351 186.98704529 C333.29129674 190.81071818 333.03611843 194.63426835 332.77957153 198.45773315 C332.07946207 208.89959432 331.39305443 219.34236169 330.70703125 229.78515625 C330.60018037 231.40993487 330.60018037 231.40993487 330.49117088 233.06753731 C329.00540176 255.68248402 327.61436215 278.30277672 326.24493027 300.92502213 C324.08701522 336.55875455 321.8585525 372.18739893 319.5625 407.8125 C319.48981777 408.94042591 319.41713554 410.06835182 319.34225082 411.23045731 C318.60384249 422.68778455 317.86420009 434.14503189 317.12374783 445.60222721 C315.60902555 469.04040214 314.10258277 492.47910874 312.59707642 515.9178772 C312.37645699 519.35231869 312.15576632 522.78675559 311.93505859 526.22119141 C309.26248795 567.81238996 306.62005561 609.4054617 304 651 C303.01 651 302.02 651 301 651 C300.62415771 650.16791016 300.24831543 649.33582031 299.86108398 648.47851562 C292.53455097 632.27264546 285.14537878 616.10118016 277.56359863 600.01300049 C272.84987937 590.00589611 268.24001971 579.95635528 263.6875 569.875 C257.47144916 556.11477212 251.04664325 542.45986941 244.5625 528.82421875 C238.47031924 516.01182256 232.47063842 503.1596983 226.51806641 490.28173828 C223.9771624 484.78884158 221.425226 479.3010731 218.875 473.8125 C212.58616475 460.27045717 206.30871313 446.72313996 200.03344727 433.17480469 C196.42053684 425.37530659 192.80591224 417.57665691 189.17578125 409.78515625 C178.88142085 387.68239024 178.88142085 387.68239024 174.79614258 378.20141602 C172.90768185 373.8670133 170.83149165 369.64981712 168.69921875 365.4296875 C165.30721697 358.70905739 162.17043194 351.88608999 159.09237671 345.01727295 C153.28070224 332.06110602 147.29243823 319.19528766 141.1875 306.375 C134.95764745 293.28796765 128.8095241 280.16680314 122.75 267 C122.37423828 266.18355011 121.99847656 265.36710022 121.61132812 264.52590942 C120.86123519 262.89599164 120.11114362 261.26607323 119.36105347 259.63615417 C118.99569489 258.84227798 118.6303363 258.04840179 118.25390625 257.23046875 C117.89265656 256.44541458 117.53140686 255.66036041 117.15921021 254.85151672 C113.6942997 247.32650027 110.1961305 239.81721184 106.6875 232.3125 C100.63085033 219.35521833 94.60140855 206.38550605 88.58251953 193.41064453 C87.04408416 190.09501015 85.5046734 186.77983081 83.96484375 183.46484375 C77.59464924 169.75059588 71.23271068 156.03253879 64.875 142.3125 C64.27454361 141.01675049 64.27454361 141.01675049 63.66195679 139.69482422 C59.53427983 130.78744377 55.40719967 121.8797876 51.28198242 112.9712677 C43.87323468 96.97214454 36.46345838 80.97368819 29 65 C27.6146641 62.03130446 26.22946603 59.06254478 24.84460449 56.09362793 C23.1001702 52.35473413 21.35308733 48.61709245 19.60400391 44.88037109 C17.43276572 40.24093828 15.26687383 35.59903631 13.10375977 30.95581055 C12.25232994 29.13044417 11.39917836 27.30587977 10.54418945 25.48217773 C9.34386938 22.92122653 8.14981493 20.35743702 6.95703125 17.79296875 C6.60139603 17.0379155 6.2457608 16.28286224 5.87934875 15.50492859 C3.53505813 10.44284112 1.65932487 5.32520342 0 0 Z " fill="#AD23F2" transform="translate(703,137)"/>
<path d="M0 0 C-2.37642005 8.11638849 -5.9799878 15.57670105 -9.63256836 23.17456055 C-11.56399053 27.19396106 -13.47733355 31.22194473 -15.390625 35.25 C-15.78072754 36.0706897 -16.17083008 36.89137939 -16.57275391 37.73693848 C-20.30918225 45.61591176 -23.91676872 53.55047597 -27.5 61.5 C-33.06112484 73.82585986 -38.78356269 86.06787692 -44.58401489 98.28277588 C-49.63960975 108.93455201 -54.58945876 119.6272535 -59.4375 130.375 C-65.19226317 143.13221322 -71.13696492 155.79100424 -77.15548706 168.42572021 C-82.38138679 179.40208784 -87.50353456 190.41737149 -92.5 201.5 C-98.23299363 214.21631704 -104.15705993 226.8333041 -110.15576172 239.42626953 C-115.38157025 250.4024595 -120.5034215 261.41764443 -125.5 272.5 C-130.93048497 284.54323235 -136.5137044 296.5069785 -142.1875 308.4375 C-151.09098229 327.16239764 -159.9034771 345.92137611 -168.28466797 364.88745117 C-172.21877894 373.78067183 -176.33985777 382.58022471 -180.578125 391.33203125 C-186.2482661 403.05109986 -191.77050694 414.82180947 -197.125 426.6875 C-202.66321034 438.95817074 -208.34319002 451.15473022 -214.125 463.3125 C-214.50741852 464.11672394 -214.88983704 464.92094788 -215.28384399 465.74954224 C-215.66430878 466.54963715 -216.04477356 467.34973206 -216.43676758 468.17407227 C-217.19357824 469.76576109 -217.95033342 471.35747628 -218.70703125 472.94921875 C-219.07544632 473.72417191 -219.44386139 474.49912506 -219.82344055 475.29756165 C-224.78168248 485.73765967 -229.6326476 496.22718138 -234.48193359 506.71826172 C-237.0228376 512.21115842 -239.574774 517.6989269 -242.125 523.1875 C-248.00646852 535.852341 -253.87705286 548.52222014 -259.74737549 561.19223022 C-264.6607686 571.79675127 -269.5766486 582.40009792 -274.5 593 C-275.50523062 595.16535423 -276.51043819 597.33071917 -277.515625 599.49609375 C-279.46958084 603.70511262 -281.42457709 607.91364394 -283.38085938 612.12158203 C-285.56822661 616.82673686 -287.75390789 621.53267221 -289.9387207 626.23901367 C-290.80842104 628.1116788 -291.67869506 629.9840776 -292.54956055 631.85620117 C-293.76890549 634.47766375 -294.98623666 637.10005261 -296.203125 639.72265625 C-296.57226013 640.51503189 -296.94139526 641.30740753 -297.32171631 642.12379456 C-297.66059875 642.85517136 -297.9994812 643.58654816 -298.34863281 644.34008789 C-298.6447345 644.97733292 -298.94083618 645.61457794 -299.24591064 646.27113342 C-300.11130312 648.18486259 -300.11130312 648.18486259 -301 651 C-301.99 651 -302.98 651 -304 651 C-304.07215225 649.87648636 -304.1443045 648.75297272 -304.21864319 647.59541321 C-304.26740884 646.83606381 -304.31617449 646.07671442 -304.36641788 645.29435444 C-304.47920841 643.5380418 -304.59199817 641.78172911 -304.70478725 640.02541637 C-305.03588047 634.869767 -305.36698891 629.71411861 -305.69812012 624.55847168 C-306.39100378 613.7701698 -307.08376998 602.98186042 -307.77609158 592.19352245 C-308.18399255 585.8373439 -308.5919758 579.48117064 -309 573.125 C-309.12426455 571.18919036 -309.12426455 571.18919036 -309.25103951 569.21427345 C-310.36086098 551.92758914 -311.47440113 534.64114927 -312.59166145 517.35494423 C-315.52833111 471.91041064 -318.4219754 426.46406294 -321.18162155 381.00841141 C-323.2616186 346.7511676 -325.41983993 312.49941303 -327.625 278.25 C-327.77516039 275.91620914 -327.92531708 273.58241805 -328.07546997 271.24862671 C-329.43193059 250.17193095 -330.79360939 229.09559171 -332.179039 208.02077866 C-332.46881907 203.60875317 -332.75720511 199.19663627 -333.04561615 194.7845211 C-333.33815664 190.31411006 -333.63554536 185.84403743 -333.93408203 181.37402344 C-334.07991034 179.15170305 -334.22559212 176.92937305 -334.37109375 174.70703125 C-334.43633743 173.74898087 -334.50158112 172.79093048 -334.56880188 171.80384827 C-334.95322557 165.86074175 -335.07269994 159.95502316 -335 154 C-326.75856675 149.77823038 -318.48737439 145.70654659 -310 142 C-303.52275571 139.17123346 -297.19428521 136.13982329 -290.8984375 132.9296875 C-285.68087171 130.28984766 -280.36951082 127.94184864 -274.99511719 125.64208984 C-270.28392614 123.60807733 -265.69633649 121.39241062 -261.125 119.0625 C-254.32450452 115.60752238 -247.42320225 112.46706125 -240.44140625 109.3984375 C-233.4021309 106.30392269 -226.38642468 103.15698742 -219.375 100 C-218.35363953 99.54022766 -218.35363953 99.54022766 -217.31164551 99.07116699 C-209.24838692 95.43609534 -201.24190638 91.7286354 -193.36962891 87.69311523 C-186.50583494 84.19154462 -179.44557857 81.14305202 -172.39013672 78.05175781 C-156.8921725 71.23202034 -141.52154486 64.14856188 -126.26977539 56.7956543 C-115.22963311 51.47517468 -104.14478264 46.27537033 -92.9921875 41.1953125 C-87.44685926 38.66746607 -81.91341089 36.11458643 -76.3828125 33.5546875 C-75.53129608 33.16074799 -74.67977966 32.76680847 -73.80245972 32.3609314 C-70.36862248 30.77222757 -66.93479607 29.18350908 -63.50238037 27.59173584 C-54.50828614 23.42127989 -45.50242474 19.29256696 -36.40283203 15.35650635 C-26.24951532 10.96277128 -16.26595597 6.24600434 -6.48828125 1.06640625 C-4 0 -4 0 0 0 Z " fill="#F42DB1" transform="translate(497,137)"/>
<path d="M0 0 C120.78 0 241.56 0 366 0 C369.96 9.9 369.96 9.9 374 20 C376.88293361 27.00648175 376.88293361 27.00648175 379.78491211 34.00488281 C381.94026547 39.18172824 384.09153078 44.36026433 386.2421875 49.5390625 C386.81298286 50.91306213 386.81298286 50.91306213 387.39530945 52.31481934 C391.66440134 62.59379786 395.91560344 72.88015966 400.16439819 83.1675415 C401.00932576 85.21329633 401.85439688 87.25899187 402.69961548 89.30462646 C403.8820831 92.16649879 405.06416017 95.02853208 406.24609375 97.890625 C406.59741364 98.7408725 406.94873352 99.59112 407.31069946 100.46713257 C407.94243514 101.99755621 408.57250203 103.52867045 409.20040894 105.06066895 C409.86527311 106.67323291 410.54773865 108.2785262 411.23461914 109.88183594 C412 112 412 112 412 115 C409.76171875 116.61328125 409.76171875 116.61328125 406.6875 118.3125 C405.70136719 118.86550781 404.71523438 119.41851563 403.69921875 119.98828125 C402.46705125 120.66051641 401.23385192 121.33086154 400 122 C392.4555365 126.10422997 384.93227029 130.24313468 377.4375 134.4375 C376.36177734 135.03949219 375.28605469 135.64148438 374.17773438 136.26171875 C365.32697376 141.22840645 356.53468807 146.29224531 347.75390625 151.38134766 C340.18578652 155.76007798 332.57541451 160.05682501 324.9375 164.3125 C318.07893361 168.13406282 311.24805035 171.98625899 304.5 176 C296.69888318 180.64010505 288.78026505 185.05886692 280.8515625 189.4765625 C273.19479468 193.75074862 265.58668414 198.10275696 258 202.5 C248.35563751 208.0889515 238.65803439 213.57305239 228.92211914 219.00073242 C222.56198445 222.55122186 216.23484515 226.15188498 209.9375 229.8125 C209.17808105 230.25142578 208.41866211 230.69035156 207.63623047 231.14257812 C203.90015258 233.30347553 200.18185806 235.48849716 196.484375 237.71484375 C195.05224439 238.56016876 193.61995986 239.40523305 192.1875 240.25 C191.22734985 240.84325073 191.22734985 240.84325073 190.24780273 241.44848633 C185.96813377 243.9443413 183.74464948 244.16390792 179 243 C176.32543945 241.77587891 176.32543945 241.77587891 173.61328125 240.2265625 C172.60249512 239.65478271 171.59170898 239.08300293 170.55029297 238.49389648 C169.48182129 237.87716064 168.41334961 237.2604248 167.3125 236.625 C166.19762207 235.99086182 165.08274414 235.35672363 163.93408203 234.70336914 C160.61664223 232.81261389 157.30693951 230.90905018 154 229 C153.1248877 228.49549316 152.24977539 227.99098633 151.34814453 227.47119141 C148.26264936 225.69025536 145.17934128 223.90567031 142.1003418 222.11352539 C134.99784837 217.98150775 127.84461474 213.94159972 120.68701172 209.90600586 C113.41691832 205.80559562 106.16611482 201.67260414 98.92333984 197.52416992 C92.38093044 193.78028691 85.81756571 190.0745338 79.25 186.375 C72.70985405 182.68981693 66.2007609 178.96443404 59.75 175.125 C51.83306567 170.41589017 43.77526834 165.96686231 35.71307373 161.51278687 C28.22274937 157.37267984 20.78721241 153.16763282 13.43847656 148.78173828 C7.11095275 145.02273651 0.68144767 141.45248097 -5.75 137.875 C-13.36908237 133.63531276 -20.88815461 129.32168685 -28.26953125 124.6796875 C-34.00819191 121.14946706 -39.96118146 117.98454311 -46 115 C-45.40417106 110.21500707 -43.97964198 106.1091331 -42.0703125 101.71875 C-41.76826904 101.00897507 -41.46622559 100.29920013 -41.1550293 99.56791687 C-40.49692278 98.02288888 -39.83594213 96.47908268 -39.17242432 94.93637085 C-37.3508428 90.6992646 -35.55220265 86.45240711 -33.75 82.20703125 C-33.17622116 80.85778313 -33.17622116 80.85778313 -32.59085083 79.48127747 C-28.44427793 69.71932377 -24.38250627 59.92267137 -20.33538818 50.11914062 C-19.166673 47.28843478 -17.9957501 44.45864967 -16.82470703 41.62890625 C-11.11226133 27.79135097 -5.56072956 13.90182391 0 0 Z " fill="#EA075D" transform="translate(417,819)"/>
<path d="M0 0 C0.66 0 1.32 0 2 0 C9.0175995 16.63397221 15.96788442 33.29406867 22.8125 50 C23.14669952 50.81568451 23.48089905 51.63136902 23.82522583 52.47177124 C25.87861515 57.48463931 27.93039603 62.49816474 29.98181152 67.51184082 C32.96447547 74.80061186 35.95013938 82.0881528 38.9375 89.375 C39.26395508 90.17143921 39.59041016 90.96787842 39.92675781 91.78845215 C45.55111725 105.50648648 51.22501284 119.20367132 56.91140747 132.89608765 C61.52155386 143.99860813 66.09971755 155.11280013 70.6184082 166.25292969 C75.19682335 177.5220878 79.85139327 188.75966063 84.5 200 C90.00087545 213.30245695 95.49664123 226.60625333 100.90771484 239.94555664 C103.64564352 246.69110841 106.40852335 253.42590246 109.18359375 260.15625 C109.92428037 261.95448979 110.6649215 263.75274831 111.40551758 265.55102539 C112.50802579 268.22803607 113.61141926 270.90466176 114.71786499 273.58004761 C115.74403805 276.06148111 116.76685525 278.54427447 117.7890625 281.02734375 C118.09891586 281.77395264 118.40876923 282.52056152 118.72801208 283.28979492 C120.05689017 286.52559346 121.14919634 289.59678537 122 293 C42.14 293 -37.72 293 -120 293 C-116.74605612 283.88895713 -113.4272777 274.96198818 -109.6875 266.0625 C-108.62465443 263.51631102 -107.56446303 260.96901801 -106.50390625 258.421875 C-106.22488464 257.75271561 -105.94586304 257.08355621 -105.65838623 256.39411926 C-102.11140698 247.8816569 -98.62073276 239.34609897 -95.125 230.8125 C-93.75289537 227.46472433 -92.38042539 224.11709856 -91.0078125 220.76953125 C-90.66972061 219.94493912 -90.33162872 219.12034698 -89.98329163 218.27076721 C-86.37951179 209.48340377 -82.76191977 200.70174456 -79.14303589 191.92059326 C-75.81068288 183.83417157 -72.48368537 175.745603 -69.16796875 167.65234375 C-62.35519049 151.0244117 -55.51868943 134.40707217 -48.625 117.8125 C-42.6869693 103.51713338 -36.79313282 89.20431683 -30.9375 74.875 C-30.56542419 73.96454926 -30.19334839 73.05409851 -29.80999756 72.11605835 C-28.31835859 68.46576267 -26.82695474 64.81537103 -25.33581543 61.16487122 C-21.6557856 52.15587978 -17.971891 43.1484783 -14.2817688 34.14361572 C-13.60739866 32.49743372 -12.9334508 30.85107864 -12.25997925 29.20452881 C-8.2619804 19.43022976 -4.1957455 9.69128104 0 0 Z " fill="#DB1CA7" transform="translate(599,383)"/>
</svg>
