<?xml version="1.0" encoding="UTF-8"?>
<svg version="1.1" xmlns="http://www.w3.org/2000/svg" width="512" height="512">
<path d="M0 0 C6.80929814 4.04037192 8.78418905 8.96617079 11.5625 16.375 C11.5625 24.625 11.5625 32.875 11.5625 41.375 C81.5225 41.375 151.4825 41.375 223.5625 41.375 C223.5625 32.795 223.5625 24.215 223.5625 15.375 C227.08970359 7.43879192 229.35098637 2.88584514 236.921875 -0.76171875 C242.96542242 -2.73749387 250.09805821 -2.68406057 255.9375 -0.0625 C262.1842034 3.62045221 265.58867015 8.47895771 267.5625 15.375 C267.78955078 18.44287109 267.78955078 18.44287109 267.7578125 21.6484375 C267.75136719 22.80214844 267.74492187 23.95585938 267.73828125 25.14453125 C267.72152344 26.33433594 267.70476562 27.52414063 267.6875 28.75 C267.67847656 29.96300781 267.66945313 31.17601562 267.66015625 32.42578125 C267.63666588 35.40905773 267.60381682 38.39192594 267.5625 41.375 C268.44023071 41.34672119 268.44023071 41.34672119 269.33569336 41.31787109 C279.74440208 41.12347551 287.76421911 44.52246806 295.5625 51.375 C296.16835938 51.87644531 296.77421875 52.37789062 297.3984375 52.89453125 C303.51861104 58.38665205 307.95033913 66.28287156 309.5625 74.375 C309.65539337 76.29185655 309.69336357 78.21165036 309.69672108 80.13075352 C309.70117892 81.31280512 309.70563676 82.49485673 309.71022969 83.71272808 C309.70995315 85.66254327 309.70995315 85.66254327 309.70967102 87.65174866 C309.71297082 89.04566962 309.71669663 90.43958964 309.7208125 91.83350843 C309.73082759 95.66836926 309.73454851 99.50321443 309.73720181 103.33808649 C309.74110635 107.47255962 309.75068463 111.60702037 309.75941467 115.7414856 C309.77917546 125.72883224 309.78924508 135.71617989 309.79814246 145.70354119 C309.80252624 150.40765665 309.80789284 155.11177098 309.81313133 159.81588554 C309.83014368 175.45522992 309.84463743 191.09457361 309.85188007 206.73392582 C309.85378995 210.7922624 309.85571028 214.85059898 309.85766602 218.90893555 C309.85814976 219.91760653 309.8586335 220.92627752 309.8591319 221.96551429 C309.86743058 238.30200948 309.89276475 254.63843139 309.92524669 270.97489459 C309.95832884 287.7501099 309.9763299 304.525288 309.97952431 321.3005361 C309.9816884 330.7180078 309.99042222 340.13537268 310.01598549 349.55281258 C310.03770831 357.5739429 310.04573515 365.59494046 310.03601871 373.61609686 C310.0314785 377.70660445 310.03334375 381.79683821 310.05278015 385.88730812 C310.07044506 389.63745366 310.06938756 393.38712627 310.05388286 397.13727706 C310.05039482 399.12522883 310.06650826 401.11318576 310.08348733 403.10106808 C309.99089526 416.05296127 306.05760055 425.61500397 297.5625 435.375 C289.64654501 443.17551398 278.16536736 447.48808412 267.14218903 447.50922108 C265.51950285 447.51590784 265.51950285 447.51590784 263.86403513 447.52272969 C262.68127292 447.52254533 261.49851071 447.52236097 260.27990723 447.52217102 C259.01890623 447.52584771 257.75790523 447.5295244 256.45869207 447.5333125 C252.96059731 447.54331044 249.46251971 447.54704574 245.96441269 447.54970181 C242.19052149 447.55361146 238.41664379 447.56318938 234.64276123 447.57191467 C225.52939294 447.59166118 216.41602357 447.60174332 207.30263925 447.61064246 C203.00772292 447.61502863 198.71280782 447.62039462 194.41789246 447.62563133 C180.13475043 447.64264235 165.85160916 447.65713538 151.56845856 447.66438007 C147.86334736 447.66628987 144.15823617 447.66821022 140.453125 447.67016602 C139.07184545 447.67089163 139.07184545 447.67089163 137.66266125 447.6716319 C122.75344648 447.67992795 107.84431204 447.70525826 92.93513232 447.73774669 C77.61759156 447.77085199 62.30009158 447.788832 46.98251486 447.79202431 C38.38659272 447.79418628 29.79078771 447.8028888 21.19490051 447.82848549 C13.87250024 447.85024002 6.55024557 447.85821964 -0.77218336 447.84851871 C-4.50448359 447.84398761 -8.23648371 447.84579012 -11.96874237 447.86528015 C-16.02571641 447.88628173 -20.08203096 447.87588293 -24.13903809 447.86274719 C-25.88641274 447.87920106 -25.88641274 447.87920106 -27.66908789 447.89598733 C-40.407855 447.79685368 -52.73924786 444.21448298 -62.3984375 435.6328125 C-69.65176681 427.99939606 -74.55324659 418.17898632 -74.57172108 407.61924648 C-74.57617892 406.43719488 -74.58063676 405.25514327 -74.58522969 404.03727192 C-74.58504533 402.73739513 -74.58486097 401.43751834 -74.58467102 400.09825134 C-74.58797082 398.70433038 -74.59169663 397.31041036 -74.5958125 395.91649157 C-74.60582759 392.08163074 -74.60954851 388.24678557 -74.61220181 384.41191351 C-74.61610635 380.27744038 -74.62568463 376.14297963 -74.63441467 372.0085144 C-74.65417546 362.02116776 -74.66424508 352.03382011 -74.67314246 342.04645881 C-74.67752624 337.34234335 -74.68289284 332.63822902 -74.68813133 327.93411446 C-74.70514368 312.29477008 -74.71963743 296.65542639 -74.72688007 281.01607418 C-74.72878995 276.9577376 -74.73071028 272.89940102 -74.73266602 268.84106445 C-74.73314976 267.83239347 -74.7336335 266.82372248 -74.7341319 265.78448571 C-74.74243058 249.44799052 -74.76776475 233.11156861 -74.80024669 216.77510541 C-74.83332884 199.9998901 -74.8513299 183.224712 -74.85452431 166.4494639 C-74.8566884 157.0319922 -74.86542222 147.61462732 -74.89098549 138.19718742 C-74.91270831 130.1760571 -74.92073515 122.15505954 -74.91101871 114.13390314 C-74.9064785 110.04339555 -74.90834375 105.95316179 -74.92778015 101.86269188 C-74.94544506 98.11254634 -74.94438756 94.36287373 -74.92888286 90.61272294 C-74.92539482 88.62477117 -74.94150826 86.63681424 -74.95848733 84.64893192 C-74.87592854 73.1005067 -72.09725928 64.09191734 -64.4375 55.375 C-63.93605469 54.76914063 -63.43460938 54.16328125 -62.91796875 53.5390625 C-57.41355507 47.40519032 -49.53586019 43.01906301 -41.4375 41.375 C-39.85538427 41.30951508 -38.27079919 41.28921619 -36.6875 41.3125 C-35.88828125 41.32152344 -35.0890625 41.33054688 -34.265625 41.33984375 C-33.66234375 41.35144531 -33.0590625 41.36304688 -32.4375 41.375 C-32.45844727 40.67004395 -32.47939453 39.96508789 -32.50097656 39.23876953 C-32.58498719 35.99266269 -32.63642697 32.74678561 -32.6875 29.5 C-32.72101563 28.39140625 -32.75453125 27.2828125 -32.7890625 26.140625 C-32.88220386 18.22360981 -32.21089325 10.55772118 -26.68652344 4.43408203 C-19.42976976 -2.27431823 -9.16273101 -4.18071377 0 0 Z " fill="#EBEFF0" transform="translate(138.4375,22.625)"/>
<path d="M0 0 C6.80929814 4.04037192 8.78418905 8.96617079 11.5625 16.375 C11.5625 24.625 11.5625 32.875 11.5625 41.375 C81.5225 41.375 151.4825 41.375 223.5625 41.375 C223.5625 32.795 223.5625 24.215 223.5625 15.375 C227.08970359 7.43879192 229.35098637 2.88584514 236.921875 -0.76171875 C242.96542242 -2.73749387 250.09805821 -2.68406057 255.9375 -0.0625 C262.1842034 3.62045221 265.58867015 8.47895771 267.5625 15.375 C267.78955078 18.44287109 267.78955078 18.44287109 267.7578125 21.6484375 C267.75136719 22.80214844 267.74492187 23.95585938 267.73828125 25.14453125 C267.72152344 26.33433594 267.70476562 27.52414063 267.6875 28.75 C267.67847656 29.96300781 267.66945313 31.17601562 267.66015625 32.42578125 C267.63666588 35.40905773 267.60381682 38.39192594 267.5625 41.375 C268.44023071 41.34672119 268.44023071 41.34672119 269.33569336 41.31787109 C279.74440208 41.12347551 287.76421911 44.52246806 295.5625 51.375 C296.16835938 51.87644531 296.77421875 52.37789062 297.3984375 52.89453125 C303.70237869 58.55156145 307.52341254 66.21865016 309.5625 74.375 C309.5625 105.725 309.5625 137.075 309.5625 169.375 C182.8425 169.375 56.1225 169.375 -74.4375 169.375 C-74.4375 66.75514528 -74.4375 66.75514528 -64.4375 55.375 C-63.93605469 54.76914063 -63.43460938 54.16328125 -62.91796875 53.5390625 C-57.41355507 47.40519032 -49.53586019 43.01906301 -41.4375 41.375 C-39.85538427 41.30951508 -38.27079919 41.28921619 -36.6875 41.3125 C-35.88828125 41.32152344 -35.0890625 41.33054688 -34.265625 41.33984375 C-33.66234375 41.35144531 -33.0590625 41.36304688 -32.4375 41.375 C-32.45844727 40.67004395 -32.47939453 39.96508789 -32.50097656 39.23876953 C-32.58498719 35.99266269 -32.63642697 32.74678561 -32.6875 29.5 C-32.72101563 28.39140625 -32.75453125 27.2828125 -32.7890625 26.140625 C-32.88220386 18.22360981 -32.21089325 10.55772118 -26.68652344 4.43408203 C-19.42976976 -2.27431823 -9.16273101 -4.18071377 0 0 Z " fill="#E64C3C" transform="translate(138.4375,22.625)"/>
<path d="M0 0 C1.64688303 3.22980945 2.99312097 6.49704588 4.3125 9.875 C6.31595096 14.76437436 8.44772979 18.14324949 12 22 C12 22.66 12 23.32 12 24 C12.58136719 24.27972656 13.16273437 24.55945313 13.76171875 24.84765625 C15.87710447 25.93672918 17.82249501 27.13649877 19.8125 28.4375 C26.73480581 32.79932467 33.21098036 35.12049454 41.45992565 35.13142776 C43.09583716 35.13718948 43.09583716 35.13718948 44.76479739 35.1430676 C45.95738785 35.14220112 47.14997832 35.14133463 48.37870789 35.14044189 C49.64999269 35.14341302 50.92127749 35.14638414 52.23108608 35.1494453 C55.75777828 35.15750302 59.28445011 35.15930418 62.81115043 35.16004276 C66.61565754 35.16189546 70.42015413 35.1694439 74.22465515 35.17617798 C82.54294558 35.18975319 90.86123119 35.19578478 99.17953086 35.20018864 C104.37495065 35.20295248 109.57036859 35.2071901 114.76578712 35.21169281 C129.1544505 35.22388451 143.54311239 35.23418396 157.93178082 35.2375679 C158.8524843 35.23778747 159.77318778 35.23800703 160.72179138 35.23823325 C161.64468005 35.23845153 162.56756873 35.23866981 163.51842374 35.2388947 C165.38850319 35.23933816 167.25858265 35.23978473 169.12866211 35.24023438 C170.5200939 35.24056652 170.5200939 35.24056652 171.93963543 35.24090537 C186.96725833 35.2448526 201.99483272 35.26230477 217.02243688 35.2855939 C232.45635476 35.30931936 247.89024831 35.3217703 263.32418472 35.32293582 C271.98761596 35.32385192 280.650984 35.32958781 289.31439781 35.34775543 C296.6921308 35.36317255 304.06978104 35.36826739 311.44752707 35.36001733 C315.20978309 35.3561165 318.97187255 35.35701256 322.73410797 35.37107468 C326.81831629 35.38620023 330.90215097 35.37793035 334.9863739 35.36749268 C336.16781076 35.37554908 337.34924761 35.38360548 338.56648558 35.39190602 C347.64704105 35.33768626 355.65199415 33.95360513 363.375 28.9375 C367.89072362 26.0471427 367.89072362 26.0471427 370.1640625 25.06640625 C372.5146633 23.70105728 372.93374064 22.47158028 374 20 C374.97331181 18.45463027 375.9529357 16.91322515 376.9375 15.375 C379.93679759 10.44705873 381.64529611 5.5851827 383 0 C383.33 0 383.66 0 384 0 C384.11798604 3.77056169 384.18783864 7.54063765 384.25 11.3125 C384.28351563 12.36501953 384.31703125 13.41753906 384.3515625 14.50195312 C384.50695162 27.12731953 380.24223865 36.53051626 372 46 C364.08404501 53.80051398 352.60286736 58.11308412 341.57968903 58.13422108 C339.95700285 58.14090784 339.95700285 58.14090784 338.30153513 58.14772969 C337.11877292 58.14754533 335.93601071 58.14736097 334.71740723 58.14717102 C333.45640623 58.15084771 332.19540523 58.1545244 330.89619207 58.1583125 C327.39809731 58.16831044 323.90001971 58.17204574 320.40191269 58.17470181 C316.62802149 58.17861146 312.85414379 58.18818938 309.08026123 58.19691467 C299.96689294 58.21666118 290.85352357 58.22674332 281.74013925 58.23564246 C277.44522292 58.24002863 273.15030782 58.24539462 268.85539246 58.25063133 C254.57225043 58.26764235 240.28910916 58.28213538 226.00595856 58.28938007 C222.30084736 58.29128987 218.59573617 58.29321022 214.890625 58.29516602 C213.50934545 58.29589163 213.50934545 58.29589163 212.10016125 58.2966319 C197.19094648 58.30492795 182.28181204 58.33025826 167.37263232 58.36274669 C152.05509156 58.39585199 136.73759158 58.413832 121.42001486 58.41702431 C112.82409272 58.41918628 104.22828771 58.4278888 95.63240051 58.45348549 C88.31000024 58.47524002 80.98774557 58.48321964 73.66531664 58.47351871 C69.93301641 58.46898761 66.20101629 58.47079012 62.46875763 58.49028015 C58.41178359 58.51128173 54.35546904 58.50088293 50.29846191 58.48774719 C49.13354548 58.49871644 47.96862905 58.50968568 46.76841211 58.52098733 C34.029645 58.42185368 21.69825214 54.83948298 12.0390625 46.2578125 C4.8418707 38.68347528 -0.15350505 28.85894876 -0.09765625 18.359375 C-0.09443359 17.28945313 -0.09121094 16.21953125 -0.08789062 15.1171875 C-0.07951172 14.00601562 -0.07113281 12.89484375 -0.0625 11.75 C-0.05798828 10.62335938 -0.05347656 9.49671875 -0.04882812 8.3359375 C-0.03705397 5.55723783 -0.0206084 2.77864591 0 0 Z " fill="#BDC3C7" transform="translate(64,412)"/>
<path d="M0 0 C4.9118053 2.89591854 8.45909809 6.82508929 10.77734375 12.01953125 C11.92659701 16.653617 11.87619542 20.99241224 11.8125 25.75 C11.79630615 27.36152954 11.79630615 27.36152954 11.77978516 29.00561523 C11.75848507 30.87112652 11.73684711 32.73664123 11.70898438 34.60206604 C11.63144515 39.89315644 11.61620886 45.18293883 11.61256409 50.4745636 C11.60298735 54.87440321 11.56599378 59.27379045 11.52432251 63.6734314 C11.50817987 65.8812465 11.50188521 68.08915678 11.50570679 70.29702759 C11.50846779 73.45023907 11.47308187 76.60103421 11.4296875 79.75390625 C11.43876633 80.69687561 11.44784515 81.63984497 11.4571991 82.61138916 C11.30366704 89.65686164 9.13346633 94.05717209 4.625 99.4375 C0.06347826 103.77650848 -3.93707269 105.52578315 -10.1875 105.8125 C-16.26257162 105.65904351 -20.72451141 103.97607907 -25.1328125 99.75390625 C-28.95239332 95.46379735 -31.59363503 91.78852768 -31.69384766 85.89794922 C-31.72361443 84.55148819 -31.72361443 84.55148819 -31.75398254 83.17782593 C-31.76555893 82.20906525 -31.77713531 81.24030457 -31.7890625 80.2421875 C-31.80865524 79.22951813 -31.82824799 78.21684875 -31.84843445 77.17349243 C-31.90916951 73.88657816 -31.95551829 70.59967162 -32 67.3125 C-32.03506223 65.06705199 -32.07046277 62.82160923 -32.10620117 60.57617188 C-32.17416888 56.17551847 -32.23518758 51.77484037 -32.29150391 47.37402344 C-32.34734696 43.13415032 -32.42498515 38.89571863 -32.52868652 34.6567688 C-32.59724092 31.75060469 -32.64098396 28.84408801 -32.6875 25.9375 C-32.71730957 24.96409668 -32.74711914 23.99069336 -32.77783203 22.98779297 C-32.83671385 16.04349712 -31.47216034 9.77522907 -26.62426758 4.55078125 C-19.34881875 -2.13812466 -9.23090624 -4.14412554 0 0 Z " fill="#BDC2C6" transform="translate(394.375,22.5625)"/>
<path d="M0 0 C6.35985161 3.77368789 9.67860679 9.34119414 11.5625 16.375 C11.94716693 19.71884154 11.88985538 23.01321604 11.8125 26.375 C11.79864258 27.3952124 11.78478516 28.4154248 11.77050781 29.46655273 C11.73395388 31.91514897 11.68994384 34.36363933 11.640625 36.81201172 C11.55604153 41.27819519 11.52512687 45.74425925 11.49395752 50.21109009 C11.45992348 54.53032276 11.40712453 58.84921701 11.35095215 63.16821289 C11.32541958 65.33904831 11.30592072 67.50996349 11.29260254 69.6809082 C11.27113444 72.77871905 11.22430917 75.87523388 11.171875 78.97265625 C11.17062622 79.90207535 11.16937744 80.83149445 11.16809082 81.78907776 C11.01280576 88.73018493 9.40127095 94.08532807 4.81640625 99.3984375 C4.25824219 99.84445313 3.70007813 100.29046875 3.125 100.75 C2.29162109 101.44222656 2.29162109 101.44222656 1.44140625 102.1484375 C-4.19725256 105.82939149 -9.87507927 106.26778375 -16.4375 105.375 C-22.73346405 102.90120637 -27.35976188 98.23352558 -30.54443359 92.31933594 C-31.85921058 87.98466931 -31.7963369 83.77327346 -31.8515625 79.265625 C-31.87115524 78.27392303 -31.89074799 77.28222107 -31.91093445 76.26046753 C-31.97156728 73.04872951 -32.01797931 69.83699894 -32.0625 66.625 C-32.09756695 64.42821731 -32.13296758 62.23143992 -32.16870117 60.03466797 C-32.23656438 55.73834472 -32.29758403 51.44199555 -32.35400391 47.14550781 C-32.41787184 42.42657996 -32.51850241 37.71003974 -32.63671875 32.9921875 C-32.67579083 30.82814828 -32.713713 28.66408771 -32.75 26.5 C-32.77980957 25.57864258 -32.80961914 24.65728516 -32.84033203 23.70800781 C-32.90243377 16.73939965 -31.46057742 9.74671569 -26.68676758 4.42236328 C-19.4043828 -2.25816281 -9.17499537 -4.18630967 0 0 Z " fill="#BCC2C6" transform="translate(138.4375,22.625)"/>
<path d="M0 0 C13.86 0 27.72 0 42 0 C42 13.86 42 27.72 42 42 C28.14 42 14.28 42 0 42 C0 28.14 0 14.28 0 0 Z " fill="#BDC3C7" transform="translate(363,363)"/>
<path d="M0 0 C13.86 0 27.72 0 42 0 C42 13.86 42 27.72 42 42 C28.14 42 14.28 42 0 42 C0 28.14 0 14.28 0 0 Z " fill="#BDC3C7" transform="translate(299,363)"/>
<path d="M0 0 C13.86 0 27.72 0 42 0 C42 13.86 42 27.72 42 42 C28.14 42 14.28 42 0 42 C0 28.14 0 14.28 0 0 Z " fill="#BDC3C7" transform="translate(235,363)"/>
<path d="M0 0 C13.86 0 27.72 0 42 0 C42 13.86 42 27.72 42 42 C28.14 42 14.28 42 0 42 C0 28.14 0 14.28 0 0 Z " fill="#BDC3C7" transform="translate(171,363)"/>
<path d="M0 0 C13.86 0 27.72 0 42 0 C42 13.86 42 27.72 42 42 C28.14 42 14.28 42 0 42 C0 28.14 0 14.28 0 0 Z " fill="#BDC3C7" transform="translate(107,363)"/>
<path d="M0 0 C13.86 0 27.72 0 42 0 C42 13.86 42 27.72 42 42 C28.14 42 14.28 42 0 42 C0 28.14 0 14.28 0 0 Z " fill="#BDC3C7" transform="translate(363,299)"/>
<path d="M0 0 C13.86 0 27.72 0 42 0 C42 13.86 42 27.72 42 42 C28.14 42 14.28 42 0 42 C0 28.14 0 14.28 0 0 Z " fill="#BDC3C7" transform="translate(299,299)"/>
<path d="M0 0 C13.86 0 27.72 0 42 0 C42 13.86 42 27.72 42 42 C28.14 42 14.28 42 0 42 C0 28.14 0 14.28 0 0 Z " fill="#BDC3C7" transform="translate(235,299)"/>
<path d="M0 0 C13.86 0 27.72 0 42 0 C42 13.86 42 27.72 42 42 C28.14 42 14.28 42 0 42 C0 28.14 0 14.28 0 0 Z " fill="#BDC3C7" transform="translate(171,299)"/>
<path d="M0 0 C13.86 0 27.72 0 42 0 C42 13.86 42 27.72 42 42 C28.14 42 14.28 42 0 42 C0 28.14 0 14.28 0 0 Z " fill="#BDC3C7" transform="translate(107,299)"/>
<path d="M0 0 C13.86 0 27.72 0 42 0 C42 13.86 42 27.72 42 42 C28.14 42 14.28 42 0 42 C0 28.14 0 14.28 0 0 Z " fill="#BDC3C7" transform="translate(363,235)"/>
<path d="M0 0 C13.86 0 27.72 0 42 0 C42 13.86 42 27.72 42 42 C28.14 42 14.28 42 0 42 C0 28.14 0 14.28 0 0 Z " fill="#BDC3C7" transform="translate(299,235)"/>
<path d="M0 0 C13.86 0 27.72 0 42 0 C42 13.86 42 27.72 42 42 C28.14 42 14.28 42 0 42 C0 28.14 0 14.28 0 0 Z " fill="#BDC3C7" transform="translate(235,235)"/>
<path d="M0 0 C13.86 0 27.72 0 42 0 C42 13.86 42 27.72 42 42 C28.14 42 14.28 42 0 42 C0 28.14 0 14.28 0 0 Z " fill="#BDC3C7" transform="translate(171,235)"/>
<path d="M0 0 C13.86 0 27.72 0 42 0 C42 13.86 42 27.72 42 42 C28.14 42 14.28 42 0 42 C0 28.14 0 14.28 0 0 Z " fill="#BDC3C7" transform="translate(107,235)"/>
<path d="M0 0 C0.33 0 0.66 0 1 0 C1.03738281 0.9178125 1.07476562 1.835625 1.11328125 2.78125 C1.65440496 12.88222601 2.43598381 20.60407306 10 28 C15.60989979 32.03211547 21.20471571 33.03876957 28 32 C34.61907128 30.12224928 38.69058939 25.92321263 42 20 C43.8051156 15.51228204 44.35240108 11.44091431 44.625 6.625 C44.69976562 5.37976563 44.77453125 4.13453125 44.8515625 2.8515625 C44.90054688 1.91054687 44.94953125 0.96953125 45 0 C50.52053095 4.11297836 52.98906342 8.20898784 54.75 14.8125 C55.64193346 26.18465157 54.86036878 34.58020723 47.5 43.75 C40.63213821 50.85773196 32.93860462 54.55198226 23 54.75 C13.06139538 54.55198226 5.36786179 50.85773196 -1.5 43.75 C-7.39866831 36.3889535 -9.67495781 29.31610803 -9.32421875 19.89453125 C-8.45319724 12.11830307 -5.55941616 5.55941616 0 0 Z " fill="#C0392B" transform="translate(361,95)"/>
<path d="M0 0 C0.33 0 0.66 0 1 0 C1.03867188 1.34191406 1.03867188 1.34191406 1.078125 2.7109375 C1.66138357 15.21872063 1.66138357 15.21872063 7.6796875 25.875 C13.28741922 30.88104376 17.65489282 32.47302895 25.1796875 32.3125 C31.01069299 31.66640521 34.67509301 29.29546462 38.8125 25.25 C44.26101744 17.1550598 44.61031039 9.56755178 45 0 C50.52053095 4.11297836 52.98906342 8.20898784 54.75 14.8125 C55.64193346 26.18465157 54.86036878 34.58020723 47.5 43.75 C40.63213821 50.85773196 32.93860462 54.55198226 23 54.75 C13.06139538 54.55198226 5.36786179 50.85773196 -1.5 43.75 C-7.39866831 36.3889535 -9.67495781 29.31610803 -9.32421875 19.89453125 C-8.45319724 12.11830307 -5.55941616 5.55941616 0 0 Z " fill="#C0392B" transform="translate(105,95)"/>
</svg>
