<?xml version="1.0" encoding="UTF-8"?>
<svg version="1.1" xmlns="http://www.w3.org/2000/svg" width="512" height="512">
<path d="M0 0 C1.55835571 -0.00861053 1.55835571 -0.00861053 3.14819336 -0.01739502 C5.33677358 -0.02146378 7.52542757 -0.01049122 9.71386719 0.01464844 C13.0530953 0.04678449 16.38748392 0.0149201 19.7265625 -0.0234375 C21.85938562 -0.0194724 23.99220575 -0.01178454 26.125 0 C27.11685303 -0.01214539 28.10870605 -0.02429077 29.13061523 -0.0368042 C35.10284632 0.08363058 38.43436164 1.03553522 42.78530884 5.20683289 C47.07499283 10.54728497 46.88619051 19.14810163 47.6875 25.734375 C47.88859375 27.33249023 47.88859375 27.33249023 48.09375 28.96289062 C48.4215583 31.57364959 48.74433513 34.18492631 49.0625 36.796875 C49.62155029 36.96123047 50.18060059 37.12558594 50.7565918 37.29492188 C56.28370496 39.01366601 60.98360902 41.22518284 65.875 44.296875 C66.51630859 44.68746094 67.15761719 45.07804687 67.81835938 45.48046875 C70.42271617 47.08024945 72.90816902 48.66707162 75.25 50.63671875 C76.98371499 52.00285605 76.98371499 52.00285605 79.04296875 51.64453125 C79.77128906 51.38542969 80.49960937 51.12632812 81.25 50.859375 C82.11625 50.56675781 82.9825 50.27414063 83.875 49.97265625 C85.61004942 49.33264415 87.34430167 48.69037859 89.07421875 48.03662109 C90.54598799 47.48074416 92.01977501 46.93018519 93.49536133 46.38452148 C94.97241677 45.8357638 96.44399012 45.27196294 97.90893555 44.69165039 C103.66371869 42.54220915 107.89935268 42.49056047 113.7109375 44.890625 C116.98832557 47.54737812 118.66906964 50.6335671 120.6875 54.296875 C121.55332741 55.82034547 122.41921523 57.3437816 123.28515625 58.8671875 C123.73391113 59.66672852 124.18266602 60.46626953 124.64501953 61.29003906 C126.1136271 63.88729405 127.61253526 66.46482507 129.12109375 69.0390625 C129.62237793 69.89564453 130.12366211 70.75222656 130.64013672 71.63476562 C131.61650625 73.30303793 132.59337979 74.97101539 133.57080078 76.63867188 C134.01278809 77.39986328 134.45477539 78.16105469 134.91015625 78.9453125 C135.30211182 79.61739746 135.69406738 80.28948242 136.09790039 80.98193359 C138.23207745 84.99749226 138.43629048 88.31138922 138.0625 92.796875 C135.36060088 98.55338421 132.20660881 101.76285959 127.125 105.484375 C125.90752153 106.4049075 124.69007308 107.32547973 123.47265625 108.24609375 C122.93777588 108.64143311 122.40289551 109.03677246 121.85180664 109.4440918 C121.26133545 109.89051025 120.67086426 110.33692871 120.0625 110.796875 C119.18956299 111.35818115 118.31662598 111.9194873 117.41723633 112.49780273 C113.05773597 116.75424802 113.82786814 123.0457441 113.71273804 128.8331604 C113.70024521 129.99082413 113.70024521 129.99082413 113.6875 131.171875 C113.66763535 132.33304337 113.66763535 132.33304337 113.64736938 133.51766968 C113.53738963 144.55997159 113.53738963 144.55997159 118.69140625 153.98046875 C122.17760342 157.06302522 125.97378875 159.42575749 130.06005859 161.63134766 C134.00459071 163.92727503 136.62399341 166.48135524 138.0625 170.796875 C138.45660397 176.14906117 137.67267169 179.44203211 135.1875 184.171875 C134.88013916 184.76057373 134.57277832 185.34927246 134.25610352 185.95581055 C130.47638506 193.08744235 126.37572199 200.04499208 122.18457031 206.94091797 C121.2177262 208.54012358 120.27451078 210.15357137 119.3359375 211.76953125 C117.04564977 215.5356461 115.4745479 217.53743744 111.6875 219.921875 C102.63003513 222.10815962 94.76719714 217.90849046 86.57617188 214.41601562 C85.68091797 214.05314453 84.78566406 213.69027344 83.86328125 213.31640625 C83.06059814 212.97714111 82.25791504 212.63787598 81.4309082 212.28833008 C77.48510993 211.46955965 74.89516195 213.28649137 71.58984375 215.3125 C70.73519531 215.88484375 69.88054687 216.4571875 69 217.046875 C53.95597484 226.796875 53.95597484 226.796875 49.0625 226.796875 C48.98209473 227.45695557 48.90168945 228.11703613 48.81884766 228.79711914 C48.44748531 231.81861007 48.06756347 234.83896673 47.6875 237.859375 C47.56117188 238.89771484 47.43484375 239.93605469 47.3046875 241.00585938 C45.33639825 256.50613721 45.33639825 256.50613721 39.24942017 261.51783752 C35.11780289 263.93424641 30.8001002 263.65099729 26.125 263.59375 C24.56664429 263.60236053 24.56664429 263.60236053 22.97680664 263.61114502 C20.78822642 263.61521378 18.59957243 263.60424122 16.41113281 263.57910156 C13.0719047 263.54696551 9.73751608 263.5788299 6.3984375 263.6171875 C4.26561438 263.6132224 2.13279425 263.60553454 0 263.59375 C-0.99185303 263.60589539 -1.98370605 263.61804077 -3.00561523 263.6305542 C-8.97784632 263.51011942 -12.30936164 262.55821478 -16.66030884 258.38691711 C-20.94999283 253.04646503 -20.76119051 244.44564837 -21.5625 237.859375 C-21.6965625 236.79396484 -21.830625 235.72855469 -21.96875 234.63085938 C-22.2965583 232.02010041 -22.61933513 229.40882369 -22.9375 226.796875 C-23.49655029 226.63251953 -24.05560059 226.46816406 -24.6315918 226.29882812 C-30.15870496 224.58008399 -34.85860902 222.36856716 -39.75 219.296875 C-40.39130859 218.90628906 -41.03261719 218.51570312 -41.69335938 218.11328125 C-44.29771617 216.51350055 -46.78316902 214.92667838 -49.125 212.95703125 C-50.85871499 211.59089395 -50.85871499 211.59089395 -52.91796875 211.94921875 C-54.01044922 212.33787109 -54.01044922 212.33787109 -55.125 212.734375 C-55.99125 213.02699219 -56.8575 213.31960938 -57.75 213.62109375 C-59.48504942 214.26110585 -61.21930167 214.90337141 -62.94921875 215.55712891 C-64.42098799 216.11300584 -65.89477501 216.66356481 -67.37036133 217.20922852 C-68.84741677 217.7579862 -70.31899012 218.32178706 -71.78393555 218.90209961 C-77.53871869 221.05154085 -81.77435268 221.10318953 -87.5859375 218.703125 C-90.86332557 216.04637188 -92.54406964 212.9601829 -94.5625 209.296875 C-95.42832741 207.77340453 -96.29421523 206.2499684 -97.16015625 204.7265625 C-97.60891113 203.92702148 -98.05766602 203.12748047 -98.52001953 202.30371094 C-99.9886271 199.70645595 -101.48753526 197.12892493 -102.99609375 194.5546875 C-103.49737793 193.69810547 -103.99866211 192.84152344 -104.51513672 191.95898438 C-105.49150625 190.29071207 -106.46837979 188.62273461 -107.44580078 186.95507812 C-107.88778809 186.19388672 -108.32977539 185.43269531 -108.78515625 184.6484375 C-109.17711182 183.97635254 -109.56906738 183.30426758 -109.97290039 182.61181641 C-112.10707745 178.59625774 -112.31129048 175.28236078 -111.9375 170.796875 C-109.23560088 165.04036579 -106.08160881 161.83089041 -101 158.109375 C-99.78252153 157.1888425 -98.56507308 156.26827027 -97.34765625 155.34765625 C-96.81277588 154.95231689 -96.27789551 154.55697754 -95.72680664 154.1496582 C-94.84109985 153.48003052 -94.84109985 153.48003052 -93.9375 152.796875 C-92.62809448 151.95491577 -92.62809448 151.95491577 -91.29223633 151.09594727 C-86.93273597 146.83950198 -87.70286814 140.5480059 -87.58773804 134.7605896 C-87.57940948 133.98881378 -87.57108093 133.21703796 -87.5625 132.421875 C-87.5492569 131.64776276 -87.53601379 130.87365051 -87.52236938 130.07608032 C-87.41238963 119.03377841 -87.41238963 119.03377841 -92.56640625 109.61328125 C-96.05260342 106.53072478 -99.84878875 104.16799251 -103.93505859 101.96240234 C-107.87959071 99.66647497 -110.49899341 97.11239476 -111.9375 92.796875 C-113.5693934 81.83987643 -104.15630774 70.42857627 -98.875 61.359375 C-98.27623047 60.31072266 -97.67746094 59.26207031 -97.06054688 58.18164062 C-90.51972912 46.92684907 -90.51972912 46.92684907 -84.625 43.421875 C-76.16525847 41.45449325 -68.04249374 45.94096002 -60.45117188 49.17773438 C-59.55591797 49.54060547 -58.66066406 49.90347656 -57.73828125 50.27734375 C-56.53425659 50.78624146 -56.53425659 50.78624146 -55.3059082 51.30541992 C-51.36010993 52.12419035 -48.77016195 50.30725863 -45.46484375 48.28125 C-44.61019531 47.70890625 -43.75554687 47.1365625 -42.875 46.546875 C-27.83097484 36.796875 -27.83097484 36.796875 -22.9375 36.796875 C-22.85709473 36.13679443 -22.77668945 35.47671387 -22.69384766 34.79663086 C-22.32248531 31.77513993 -21.94256347 28.75478327 -21.5625 25.734375 C-21.43617188 24.69603516 -21.30984375 23.65769531 -21.1796875 22.58789062 C-19.21139825 7.08761279 -19.21139825 7.08761279 -13.12442017 2.07591248 C-8.99280289 -0.34049641 -4.6751002 -0.05724729 0 0 Z " fill="#F3C64B" transform="translate(242.9375,124.203125)"/>
<path d="M0 0 C4.11928118 3.67153323 6.34223792 7.69000389 8.875 12.5625 C9.20902832 13.20074707 9.54305664 13.83899414 9.88720703 14.49658203 C18.50549783 31.17877065 24.5119665 48.78638369 28.75 67.0625 C29.03665527 68.29577026 29.03665527 68.29577026 29.32910156 69.55395508 C32.53278764 84.30341179 33.28512662 98.90008088 33.25 113.9375 C33.24912384 114.85836395 33.24824768 115.77922791 33.24734497 116.72799683 C33.06732283 174.30082229 10.45802109 227.1160842 -29.125 268.5625 C-30.43404297 269.95082031 -30.43404297 269.95082031 -31.76953125 271.3671875 C-38.17526108 277.98863005 -44.9973533 283.72335636 -52.36181641 289.23925781 C-54.03769686 290.49698034 -55.69649506 291.7748063 -57.35546875 293.0546875 C-89.82335476 317.62603877 -133.45900004 333.40882271 -174.27734375 333.80078125 C-175.12652374 333.81062042 -175.97570374 333.82045959 -176.85061646 333.83059692 C-224.77292923 334.27115269 -270.05397107 324.05854561 -310.125 296.5625 C-310.57939453 297.57570313 -310.57939453 297.57570313 -311.04296875 298.609375 C-315.27934887 307.62960589 -315.27934887 307.62960589 -320.125 310.5625 C-324.47750507 312.01333502 -328.70613755 312.41592929 -333.0625 310.87890625 C-337.32641811 308.66424189 -339.92891221 305.87016153 -342.125 301.5625 C-343.00706747 298.53240821 -343.46120672 295.48128939 -343.8984375 292.359375 C-344.03069733 291.48154358 -344.16295715 290.60371216 -344.29922485 289.69927979 C-344.57375253 287.8479899 -344.84056923 285.99554195 -345.10009766 284.14208984 C-345.49731319 281.33151105 -345.92852551 278.52764317 -346.36328125 275.72265625 C-346.62707323 273.91436373 -346.888857 272.10577688 -347.1484375 270.296875 C-347.27745453 269.47048523 -347.40647156 268.64409546 -347.53939819 267.79266357 C-348.39465249 261.41415603 -348.53460554 254.20507915 -344.85507202 248.64276123 C-340.01393093 243.22039537 -332.32815421 242.85293099 -325.52441406 241.90234375 C-322.95607992 241.53857481 -320.39693458 241.13088581 -317.8359375 240.71875 C-293.66776091 236.91764672 -293.66776091 236.91764672 -286.625 240.1875 C-282.02565543 244.55687735 -279.88572824 247.65727633 -279.625 254.0625 C-279.81808199 258.96278768 -280.71386411 261.87478553 -284.125 265.5625 C-287.11393229 267.74952362 -288.40444454 268.5625 -292.125 268.5625 C-288.87447203 272.19785118 -285.16828514 274.49033973 -280.9375 276.8125 C-280.23189941 277.20163574 -279.52629883 277.59077148 -278.79931641 277.99169922 C-234.65307063 302.04042758 -184.0500107 309.04641168 -135.29443359 295.54443359 C-107.31223765 287.29235574 -81.38512256 273.64586301 -60.125 253.5625 C-58.8162398 252.45390313 -57.50383641 251.34959026 -56.1875 250.25 C-23.48605992 221.47273273 -3.37937006 176.49095162 0.875 133.5625 C1.0309774 130.81231941 1.08403838 128.06669304 1.11328125 125.3125 C1.1230751 124.54517548 1.13286896 123.77785095 1.14295959 122.98727417 C1.48295847 89.41349586 -3.53757489 58.14308888 -19.46826172 28.1940918 C-25.95817104 15.92234225 -25.95817104 15.92234225 -24.125 8.5625 C-22.73845989 4.74407017 -20.91845817 2.15759363 -17.625 -0.3125 C-11.48648087 -3.07483361 -6.12162512 -2.81594755 0 0 Z " fill="#010203" transform="translate(442.125,141.4375)"/>
<path d="M0 0 C1.27397392 -0.01469078 1.27397392 -0.01469078 2.57368469 -0.02967834 C50.9652637 -0.47256573 95.21767672 10.05334574 135.84765625 37.23828125 C136.30205078 36.22507812 136.30205078 36.22507812 136.765625 35.19140625 C141.00200512 26.17117536 141.00200512 26.17117536 145.84765625 23.23828125 C150.20016132 21.78744623 154.4287938 21.38485196 158.78515625 22.921875 C163.04907436 25.13653936 165.65156846 27.93061972 167.84765625 32.23828125 C168.72972372 35.26837304 169.18386297 38.31949186 169.62109375 41.44140625 C169.75335358 42.31923767 169.8856134 43.19706909 170.0218811 44.10150146 C170.29640878 45.95279135 170.56322548 47.8052393 170.82275391 49.65869141 C171.21996944 52.4692702 171.65118176 55.27313808 172.0859375 58.078125 C172.34972948 59.88641752 172.61151325 61.69500437 172.87109375 63.50390625 C173.00011078 64.33029602 173.12912781 65.15668579 173.26205444 66.00811768 C174.11730874 72.38662522 174.25726179 79.5957021 170.57772827 85.15802002 C165.73658718 90.58038588 158.05081046 90.94785026 151.24707031 91.8984375 C148.67873617 92.26220644 146.11959083 92.66989544 143.55859375 93.08203125 C119.39041716 96.88313453 119.39041716 96.88313453 112.34765625 93.61328125 C107.74831168 89.2439039 105.60838449 86.14350492 105.34765625 79.73828125 C105.54073824 74.83799357 106.43652036 71.92599572 109.84765625 68.23828125 C112.83658854 66.05125763 114.12710079 65.23828125 117.84765625 65.23828125 C114.59712828 61.60293007 110.89094139 59.31044152 106.66015625 56.98828125 C105.95455566 56.59914551 105.24895508 56.21000977 104.52197266 55.80908203 C60.3766335 31.76084755 9.771202 24.75278869 -38.98339844 38.2565918 C-87.61989469 52.59775465 -128.52252567 84.61118054 -153.00439453 129.11181641 C-166.02302701 153.2275733 -175.09760971 180.89110869 -175.390625 208.48828125 C-175.40041885 209.25560577 -175.41021271 210.0229303 -175.42030334 210.81350708 C-175.76671162 245.02019243 -170.43745073 276.57200655 -154.09667969 307.03149414 C-150.81520666 313.17959005 -148.57889942 318.24519533 -150.15234375 325.23828125 C-151.48838945 328.95108194 -153.34107572 331.56222456 -156.40234375 334.11328125 C-161.5060332 336.20115421 -165.99572437 336.86607954 -171.27734375 335.30078125 C-179.26283229 331.68842156 -182.97780761 322.24731268 -186.52734375 314.73828125 C-187.23624756 313.24083374 -187.23624756 313.24083374 -187.95947266 311.71313477 C-201.40311936 282.57613467 -207.6019932 251.82009692 -207.52734375 219.86328125 C-207.52646759 218.9424173 -207.52559143 218.02155334 -207.52468872 217.07278442 C-207.38324644 171.83817211 -193.66203227 128.07235673 -167.15234375 91.23828125 C-166.75047852 90.67947266 -166.34861328 90.12066406 -165.93457031 89.54492188 C-159.62036145 80.86479269 -152.57544682 72.97814922 -145.15234375 65.23828125 C-144.25644531 64.28953125 -143.36054688 63.34078125 -142.4375 62.36328125 C-136.05675844 55.7670374 -129.2446564 50.05096008 -121.91552734 44.56152344 C-120.23964689 43.30380091 -118.58084869 42.02597495 -116.921875 40.74609375 C-84.40379373 16.13675524 -40.89220235 0.39239953 0 0 Z " fill="#020103" transform="translate(244.15234375,36.76171875)"/>
<path d="M0 0 C1.55835571 -0.00861053 1.55835571 -0.00861053 3.14819336 -0.01739502 C5.33677358 -0.02146378 7.52542757 -0.01049122 9.71386719 0.01464844 C13.0530953 0.04678449 16.38748392 0.0149201 19.7265625 -0.0234375 C21.85938562 -0.0194724 23.99220575 -0.01178454 26.125 0 C27.11685303 -0.01214539 28.10870605 -0.02429077 29.13061523 -0.0368042 C35.10284632 0.08363058 38.43436164 1.03553522 42.78530884 5.20683289 C47.07499283 10.54728497 46.88619051 19.14810163 47.6875 25.734375 C47.88859375 27.33249023 47.88859375 27.33249023 48.09375 28.96289062 C48.4215583 31.57364959 48.74433513 34.18492631 49.0625 36.796875 C49.62155029 36.96123047 50.18060059 37.12558594 50.7565918 37.29492188 C56.28370496 39.01366601 60.98360902 41.22518284 65.875 44.296875 C66.51630859 44.68746094 67.15761719 45.07804687 67.81835938 45.48046875 C70.42271617 47.08024945 72.90816902 48.66707162 75.25 50.63671875 C76.98371499 52.00285605 76.98371499 52.00285605 79.04296875 51.64453125 C79.77128906 51.38542969 80.49960937 51.12632812 81.25 50.859375 C82.11625 50.56675781 82.9825 50.27414063 83.875 49.97265625 C85.61004942 49.33264415 87.34430167 48.69037859 89.07421875 48.03662109 C90.54598799 47.48074416 92.01977501 46.93018519 93.49536133 46.38452148 C94.97241677 45.8357638 96.44399012 45.27196294 97.90893555 44.69165039 C103.66371869 42.54220915 107.89935268 42.49056047 113.7109375 44.890625 C116.98832557 47.54737812 118.66906964 50.6335671 120.6875 54.296875 C121.55332741 55.82034547 122.41921523 57.3437816 123.28515625 58.8671875 C123.73391113 59.66672852 124.18266602 60.46626953 124.64501953 61.29003906 C126.1136271 63.88729405 127.61253526 66.46482507 129.12109375 69.0390625 C129.62237793 69.89564453 130.12366211 70.75222656 130.64013672 71.63476562 C131.61650625 73.30303793 132.59337979 74.97101539 133.57080078 76.63867188 C134.01278809 77.39986328 134.45477539 78.16105469 134.91015625 78.9453125 C135.30211182 79.61739746 135.69406738 80.28948242 136.09790039 80.98193359 C138.23207745 84.99749226 138.43629048 88.31138922 138.0625 92.796875 C135.36060088 98.55338421 132.20660881 101.76285959 127.125 105.484375 C125.90752153 106.4049075 124.69007308 107.32547973 123.47265625 108.24609375 C122.93777588 108.64143311 122.40289551 109.03677246 121.85180664 109.4440918 C121.26133545 109.89051025 120.67086426 110.33692871 120.0625 110.796875 C119.18956299 111.35818115 118.31662598 111.9194873 117.41723633 112.49780273 C113.05773597 116.75424802 113.82786814 123.0457441 113.71273804 128.8331604 C113.70024521 129.99082413 113.70024521 129.99082413 113.6875 131.171875 C113.66763535 132.33304337 113.66763535 132.33304337 113.64736938 133.51766968 C113.53738963 144.55997159 113.53738963 144.55997159 118.69140625 153.98046875 C122.17760342 157.06302522 125.97378875 159.42575749 130.06005859 161.63134766 C134.00459071 163.92727503 136.62399341 166.48135524 138.0625 170.796875 C138.45660397 176.14906117 137.67267169 179.44203211 135.1875 184.171875 C134.88013916 184.76057373 134.57277832 185.34927246 134.25610352 185.95581055 C130.47638506 193.08744235 126.37572199 200.04499208 122.18457031 206.94091797 C121.2177262 208.54012358 120.27451078 210.15357137 119.3359375 211.76953125 C117.04564977 215.5356461 115.4745479 217.53743744 111.6875 219.921875 C102.63003513 222.10815962 94.76719714 217.90849046 86.57617188 214.41601562 C85.68091797 214.05314453 84.78566406 213.69027344 83.86328125 213.31640625 C83.06059814 212.97714111 82.25791504 212.63787598 81.4309082 212.28833008 C77.48510993 211.46955965 74.89516195 213.28649137 71.58984375 215.3125 C70.73519531 215.88484375 69.88054687 216.4571875 69 217.046875 C53.95597484 226.796875 53.95597484 226.796875 49.0625 226.796875 C48.98209473 227.45695557 48.90168945 228.11703613 48.81884766 228.79711914 C48.44748531 231.81861007 48.06756347 234.83896673 47.6875 237.859375 C47.56117188 238.89771484 47.43484375 239.93605469 47.3046875 241.00585938 C45.33639825 256.50613721 45.33639825 256.50613721 39.24942017 261.51783752 C35.11780289 263.93424641 30.8001002 263.65099729 26.125 263.59375 C24.56664429 263.60236053 24.56664429 263.60236053 22.97680664 263.61114502 C20.78822642 263.61521378 18.59957243 263.60424122 16.41113281 263.57910156 C13.0719047 263.54696551 9.73751608 263.5788299 6.3984375 263.6171875 C4.26561438 263.6132224 2.13279425 263.60553454 0 263.59375 C-0.99185303 263.60589539 -1.98370605 263.61804077 -3.00561523 263.6305542 C-8.97784632 263.51011942 -12.30936164 262.55821478 -16.66030884 258.38691711 C-20.94999283 253.04646503 -20.76119051 244.44564837 -21.5625 237.859375 C-21.6965625 236.79396484 -21.830625 235.72855469 -21.96875 234.63085938 C-22.2965583 232.02010041 -22.61933513 229.40882369 -22.9375 226.796875 C-23.49655029 226.63251953 -24.05560059 226.46816406 -24.6315918 226.29882812 C-30.15870496 224.58008399 -34.85860902 222.36856716 -39.75 219.296875 C-40.39130859 218.90628906 -41.03261719 218.51570312 -41.69335938 218.11328125 C-44.29771617 216.51350055 -46.78316902 214.92667838 -49.125 212.95703125 C-50.85871499 211.59089395 -50.85871499 211.59089395 -52.91796875 211.94921875 C-54.01044922 212.33787109 -54.01044922 212.33787109 -55.125 212.734375 C-55.99125 213.02699219 -56.8575 213.31960938 -57.75 213.62109375 C-59.48504942 214.26110585 -61.21930167 214.90337141 -62.94921875 215.55712891 C-64.42098799 216.11300584 -65.89477501 216.66356481 -67.37036133 217.20922852 C-68.84741677 217.7579862 -70.31899012 218.32178706 -71.78393555 218.90209961 C-77.53871869 221.05154085 -81.77435268 221.10318953 -87.5859375 218.703125 C-90.86332557 216.04637188 -92.54406964 212.9601829 -94.5625 209.296875 C-95.42832741 207.77340453 -96.29421523 206.2499684 -97.16015625 204.7265625 C-97.60891113 203.92702148 -98.05766602 203.12748047 -98.52001953 202.30371094 C-99.9886271 199.70645595 -101.48753526 197.12892493 -102.99609375 194.5546875 C-103.49737793 193.69810547 -103.99866211 192.84152344 -104.51513672 191.95898438 C-105.49150625 190.29071207 -106.46837979 188.62273461 -107.44580078 186.95507812 C-107.88778809 186.19388672 -108.32977539 185.43269531 -108.78515625 184.6484375 C-109.17711182 183.97635254 -109.56906738 183.30426758 -109.97290039 182.61181641 C-112.10707745 178.59625774 -112.31129048 175.28236078 -111.9375 170.796875 C-109.23560088 165.04036579 -106.08160881 161.83089041 -101 158.109375 C-99.78252153 157.1888425 -98.56507308 156.26827027 -97.34765625 155.34765625 C-96.81277588 154.95231689 -96.27789551 154.55697754 -95.72680664 154.1496582 C-94.84109985 153.48003052 -94.84109985 153.48003052 -93.9375 152.796875 C-92.62809448 151.95491577 -92.62809448 151.95491577 -91.29223633 151.09594727 C-86.93273597 146.83950198 -87.70286814 140.5480059 -87.58773804 134.7605896 C-87.57940948 133.98881378 -87.57108093 133.21703796 -87.5625 132.421875 C-87.5492569 131.64776276 -87.53601379 130.87365051 -87.52236938 130.07608032 C-87.41238963 119.03377841 -87.41238963 119.03377841 -92.56640625 109.61328125 C-96.05260342 106.53072478 -99.84878875 104.16799251 -103.93505859 101.96240234 C-107.87959071 99.66647497 -110.49899341 97.11239476 -111.9375 92.796875 C-113.5693934 81.83987643 -104.15630774 70.42857627 -98.875 61.359375 C-98.27623047 60.31072266 -97.67746094 59.26207031 -97.06054688 58.18164062 C-90.51972912 46.92684907 -90.51972912 46.92684907 -84.625 43.421875 C-76.16525847 41.45449325 -68.04249374 45.94096002 -60.45117188 49.17773438 C-59.55591797 49.54060547 -58.66066406 49.90347656 -57.73828125 50.27734375 C-56.53425659 50.78624146 -56.53425659 50.78624146 -55.3059082 51.30541992 C-51.36010993 52.12419035 -48.77016195 50.30725863 -45.46484375 48.28125 C-44.61019531 47.70890625 -43.75554687 47.1365625 -42.875 46.546875 C-27.83097484 36.796875 -27.83097484 36.796875 -22.9375 36.796875 C-22.85709473 36.13679443 -22.77668945 35.47671387 -22.69384766 34.79663086 C-22.32248531 31.77513993 -21.94256347 28.75478327 -21.5625 25.734375 C-21.43617188 24.69603516 -21.30984375 23.65769531 -21.1796875 22.58789062 C-19.21139825 7.08761279 -19.21139825 7.08761279 -13.12442017 2.07591248 C-8.99280289 -0.34049641 -4.6751002 -0.05724729 0 0 Z M-8.9375 12.796875 C-9.53926947 15.30968399 -9.53926947 15.30968399 -9.90234375 18.25 C-10.06283203 19.34441406 -10.22332031 20.43882812 -10.38867188 21.56640625 C-10.71067442 23.87085823 -11.03101052 26.17554373 -11.34960938 28.48046875 C-13.06588294 40.14565877 -13.06588294 40.14565877 -15.9375 43.796875 C-19.14296618 45.93232331 -22.52724777 47.57967381 -26 49.234375 C-32.67560712 52.53300974 -38.88950852 55.68198398 -44.51171875 60.65234375 C-49.36647236 62.94291188 -54.5740305 62.47394488 -59.65014648 61.01977539 C-62.40725882 59.99685178 -65.11010572 58.8939267 -67.8125 57.734375 C-69.63904803 56.96268397 -71.46965746 56.20051728 -73.3046875 55.44921875 C-74.09987793 55.10882568 -74.89506836 54.76843262 -75.71435547 54.41772461 C-78.3122996 53.69220606 -79.47891015 53.69883002 -81.9375 54.796875 C-83.48487902 56.45872939 -83.48487902 56.45872939 -84.75390625 58.625 C-85.2658252 59.43904297 -85.77774414 60.25308594 -86.30517578 61.09179688 C-87.11317627 62.43081055 -87.11317627 62.43081055 -87.9375 63.796875 C-88.5032373 64.72564453 -89.06897461 65.65441406 -89.65185547 66.61132812 C-91.42646572 69.57148692 -93.15498614 72.55470723 -94.875 75.546875 C-95.77702148 77.06861328 -95.77702148 77.06861328 -96.69726562 78.62109375 C-97.25994141 79.60207031 -97.82261719 80.58304687 -98.40234375 81.59375 C-98.914021 82.47385742 -99.42569824 83.35396484 -99.95288086 84.26074219 C-101.12561445 87.2814108 -100.95194528 88.75321566 -99.9375 91.796875 C-98.237553 93.83892252 -98.237553 93.83892252 -96 95.609375 C-95.19433594 96.29257813 -94.38867188 96.97578125 -93.55859375 97.6796875 C-90.11808047 100.45876082 -86.63300175 103.17725066 -83.1015625 105.83984375 C-79.4315522 109.15875199 -78.04944876 111.68111904 -77.54931641 116.66577148 C-77.52963542 118.16637874 -77.52714513 119.66727975 -77.5390625 121.16796875 C-77.53619232 121.96791763 -77.53332214 122.76786652 -77.53036499 123.59205627 C-77.52832941 125.27890737 -77.53382386 126.96578235 -77.54638672 128.65258789 C-77.5624272 131.22271014 -77.54653258 133.79125495 -77.52734375 136.36132812 C-77.52932669 138.00521178 -77.5331714 139.64909446 -77.5390625 141.29296875 C-77.52995346 142.43698402 -77.52995346 142.43698402 -77.5206604 143.60411072 C-77.59178076 149.05049907 -78.61212025 153.18900231 -82.36035156 157.39257812 C-82.8447168 157.78380859 -83.32908203 158.17503906 -83.828125 158.578125 C-84.37001465 159.02454346 -84.9119043 159.47096191 -85.47021484 159.9309082 C-86.320271 160.60706177 -86.320271 160.60706177 -87.1875 161.296875 C-88.0549585 162.01460083 -88.0549585 162.01460083 -88.93994141 162.74682617 C-91.38300452 164.76442741 -93.84675462 166.72888844 -96.3828125 168.62890625 C-98.52602627 170.20051273 -98.52602627 170.20051273 -100.9375 172.796875 C-100.71106004 177.52230855 -99.05307496 180.85404617 -96.69921875 184.89453125 C-96.04373047 186.02568359 -95.38824219 187.15683594 -94.71289062 188.32226562 C-94.3697583 188.90339111 -94.02662598 189.4845166 -93.6730957 190.08325195 C-92.62911493 191.85240175 -91.59965489 193.62937728 -90.57226562 195.40820312 C-87.61140931 200.48188945 -84.70582453 205.27498936 -80.9375 209.796875 C-75.7829982 208.89257644 -71.26525384 207.5856561 -66.44750977 205.50634766 C-53.14642148 199.80707227 -53.14642148 199.80707227 -46.9375 201.796875 C-43.8019639 203.62171356 -40.85370929 205.54701695 -37.91308594 207.66479492 C-32.59860575 211.48985385 -27.1121499 214.37459971 -21.12841797 217.01953125 C-16.84550452 219.00077247 -15.01182446 220.59552362 -12.9375 224.796875 C-12.26147461 227.71948242 -12.26147461 227.71948242 -11.83984375 230.90234375 C-11.67806641 232.05025391 -11.51628906 233.19816406 -11.34960938 234.38085938 C-11.19298828 235.57001953 -11.03636719 236.75917969 -10.875 237.984375 C-10.55830261 240.35388201 -10.23444621 242.72244673 -9.90234375 245.08984375 C-9.7643335 246.1368042 -9.62632324 247.18376465 -9.48413086 248.26245117 C-9.14366473 250.95213021 -9.14366473 250.95213021 -6.9375 252.796875 C-3.94787897 252.99693802 -1.0528765 253.07660423 1.9375 253.0625 C2.81776855 253.06441345 3.69803711 253.0663269 4.60498047 253.06829834 C6.46777634 253.06966052 8.33058169 253.06596182 10.19335938 253.05761719 C13.05099736 253.04691807 15.90800666 253.05751132 18.765625 253.0703125 C20.57291806 253.06899091 22.38021073 253.06642853 24.1875 253.0625 C25.47503174 253.06857269 25.47503174 253.06857269 26.78857422 253.07476807 C31.40475058 253.25180875 31.40475058 253.25180875 35.0625 250.796875 C35.64865968 248.18555021 35.64865968 248.18555021 35.9921875 245.125 C36.22615234 243.41570312 36.22615234 243.41570312 36.46484375 241.671875 C36.77781494 239.27156704 37.08518627 236.87052173 37.38671875 234.46875 C38.97075318 223.03279411 38.97075318 223.03279411 43.0625 218.796875 C45.54507552 217.32159736 47.81812791 216.13255864 50.4375 214.984375 C57.39651096 211.76651941 63.48522075 207.98675146 69.68359375 203.484375 C74.8897668 200.88429782 79.11584524 200.91268528 84.66772461 202.57861328 C87.41668647 203.60339634 90.11472954 204.70676123 92.8125 205.859375 C94.63566952 206.6328796 96.46368919 207.39507395 98.296875 208.14453125 C99.49135254 208.65512085 99.49135254 208.65512085 100.70996094 209.17602539 C103.53422456 209.92136603 105.28575112 209.63602028 108.0625 208.796875 C109.61223772 207.37619624 109.61223772 207.37619624 110.75 205.359375 C111.245 204.56144531 111.74 203.76351562 112.25 202.94140625 C115.91227224 196.58767963 119.47790708 190.18109635 122.97021484 183.73242188 C124.0625 181.796875 124.0625 181.796875 125.92578125 179.0625 C127.26585828 176.83559573 127.26585828 176.83559573 126.99609375 174.22265625 C125.85600498 171.26033355 124.55539438 170.0132631 122.125 167.984375 C120.91650391 166.95957031 120.91650391 166.95957031 119.68359375 165.9140625 C116.24308047 163.13498918 112.75800175 160.41649934 109.2265625 157.75390625 C105.51692339 154.39916042 104.17249142 151.8750568 103.65844727 146.83618164 C103.63203881 145.29332609 103.62314723 143.75010205 103.62890625 142.20703125 C103.6236644 141.38488632 103.61842255 140.56274139 103.61302185 139.71568298 C103.60661599 137.98177212 103.60792004 136.24781771 103.61645508 134.51391602 C103.62496221 131.87111466 103.59619075 129.23047854 103.56445312 126.58789062 C103.56284076 124.89843814 103.56341933 123.20898186 103.56640625 121.51953125 C103.55517227 120.73498062 103.54393829 119.95042999 103.53236389 119.1421051 C103.61109343 112.8964399 105.50550179 109.29153812 110.04541016 104.86230469 C111.06320557 104.04874512 111.06320557 104.04874512 112.1015625 103.21875 C112.84664062 102.61546875 113.59171875 102.0121875 114.359375 101.390625 C115.12765625 100.7821875 115.8959375 100.17375 116.6875 99.546875 C118.22192892 98.31321454 119.75580893 97.07887093 121.2890625 95.84375 C121.96533691 95.30588867 122.64161133 94.76802734 123.33837891 94.21386719 C125.16368123 92.76056912 125.16368123 92.76056912 127.0625 90.796875 C126.76513622 86.06975824 125.18478005 82.75121338 122.82421875 78.69921875 C122.16873047 77.56806641 121.51324219 76.43691406 120.83789062 75.27148438 C120.4947583 74.69035889 120.15162598 74.1092334 119.7980957 73.51049805 C118.75411493 71.74134825 117.72465489 69.96437272 116.69726562 68.18554688 C112.39982344 60.62363119 112.39982344 60.62363119 107.0625 53.796875 C100.60260751 53.72580039 94.73087544 56.8064892 88.91015625 59.35742188 C83.61099007 61.55253102 78.8031618 62.8745706 73.0625 61.796875 C70.4275544 60.62952476 68.27404139 59.05287681 66 57.296875 C60.03413095 52.96785089 54.02928859 49.57386917 47.25366211 46.66210938 C44.22168272 45.2750951 42.2465629 44.04281771 40.23828125 41.359375 C38.47661662 36.02170676 37.76804427 30.60334346 37 25.046875 C36.6832747 22.7801903 36.35941522 20.51448735 36.02734375 18.25 C35.8893335 17.25129883 35.75132324 16.25259766 35.60913086 15.22363281 C35.25207272 12.63015479 35.25207272 12.63015479 33.0625 10.796875 C30.07287897 10.59681198 27.1778765 10.51714577 24.1875 10.53125 C23.30723145 10.52933655 22.42696289 10.5274231 21.52001953 10.52545166 C19.65722366 10.52408948 17.79441831 10.52778818 15.93164062 10.53613281 C13.07400264 10.54683193 10.21699334 10.53623868 7.359375 10.5234375 C5.55208194 10.52475909 3.74478927 10.52732147 1.9375 10.53125 C0.64996826 10.52517731 0.64996826 10.52517731 -0.66357422 10.51898193 C-5.27975058 10.34194125 -5.27975058 10.34194125 -8.9375 12.796875 Z " fill="#020200" transform="translate(242.9375,124.203125)"/>
<path d="M0 0 C0.95986816 0.00241699 1.91973633 0.00483398 2.90869141 0.00732422 C14.92349806 0.31477788 25.40524967 4.37956987 34.375 12.5625 C35.6434375 13.7071875 35.6434375 13.7071875 36.9375 14.875 C49.60840253 28.84548228 53.49905279 42.20407374 52.64453125 60.78076172 C51.64702254 71.0757022 46.30004375 80.07308044 39.375 87.5625 C38.83101563 88.18511719 38.28703125 88.80773437 37.7265625 89.44921875 C33.25939216 94.28341013 28.20146354 97.55389457 22.375 100.5625 C21.2303125 101.18705078 21.2303125 101.18705078 20.0625 101.82421875 C9.03656177 106.860104 -6.55240478 106.56107335 -17.875 102.5 C-30.90694556 96.45127429 -41.09096706 87.37925692 -47.625 74.5625 C-48.04007813 73.80066406 -48.45515625 73.03882813 -48.8828125 72.25390625 C-53.94236387 61.19719435 -53.62512707 45.58408699 -49.5 34.25 C-48.6034534 32.32417784 -47.64904475 30.4236607 -46.625 28.5625 C-46.17898437 27.74910156 -45.73296875 26.93570313 -45.2734375 26.09765625 C-35.38001933 9.93103717 -18.92095443 -0.04999371 0 0 Z " fill="#D7E3EE" transform="translate(255.625,203.4375)"/>
<path d="M0 0 C0.54422607 0.41934814 1.08845215 0.83869629 1.64916992 1.27075195 C3.13059667 2.42682608 4.59155706 3.60899351 6.05078125 4.79296875 C8.94220444 6.61572882 10.32392847 6.98899612 13.671875 6.4453125 C15.86359559 4.69788908 15.86359559 4.69788908 15.77539062 2.59765625 C15.71029297 1.86675781 15.64519531 1.13585937 15.578125 0.3828125 C15.51753906 -0.41382813 15.45695312 -1.21046875 15.39453125 -2.03125 C15.28431641 -3.28035156 15.28431641 -3.28035156 15.171875 -4.5546875 C15.02672761 -6.19969123 14.89085488 -7.84554774 14.765625 -9.4921875 C14.70052734 -10.22308594 14.63542969 -10.95398438 14.56835938 -11.70703125 C14.671875 -13.5546875 14.671875 -13.5546875 16.671875 -15.5546875 C19.671875 -15.8046875 19.671875 -15.8046875 22.671875 -15.5546875 C25.42673513 -12.79982737 25.44226499 -9.91220039 25.9609375 -6.203125 C26.06908783 -5.47026276 26.17723816 -4.73740051 26.28866577 -3.98233032 C26.51611806 -2.42776689 26.73944664 -0.8725954 26.95898438 0.68310547 C27.29282635 3.0417087 27.64141012 5.3977692 27.9921875 7.75390625 C28.21182911 9.2681001 28.43060588 10.7824197 28.6484375 12.296875 C28.75153229 12.9930191 28.85462708 13.68916321 28.96084595 14.40640259 C30.65516429 26.5942344 30.65516429 26.5942344 28.65551758 30.35864258 C25.58171684 32.04251791 22.35956357 32.39218737 18.93359375 32.83203125 C17.79601372 32.99213432 17.79601372 32.99213432 16.63545227 33.1554718 C15.03162298 33.37883336 13.42694239 33.59615372 11.8215332 33.80786133 C9.37711028 34.13047183 6.93567529 34.47073117 4.49414062 34.81445312 C2.932435 35.02968842 1.37058981 35.24391391 -0.19140625 35.45703125 C-0.91660965 35.55698898 -1.64181305 35.65694672 -2.38899231 35.75993347 C-13.09446978 37.16162843 -13.09446978 37.16162843 -16.265625 35.3203125 C-17.328125 33.4453125 -17.328125 33.4453125 -17.328125 30.3828125 C-16.328125 27.4453125 -16.328125 27.4453125 -14.18359375 26.328125 C-11.00327886 25.34488127 -7.93845595 24.83029469 -4.640625 24.3828125 C-0.33894755 23.88685061 -0.33894755 23.88685061 3.671875 22.4453125 C4.11843713 18.10825362 4.11843713 18.10825362 2.046875 14.4609375 C-40.88399947 -17.45477839 -93.11716574 -33.43678729 -146.67626953 -26.7277832 C-150.59188755 -26.13992309 -154.45680511 -25.3818926 -158.328125 -24.5546875 C-159.17197754 -24.38308105 -160.01583008 -24.21147461 -160.88525391 -24.03466797 C-208.47984377 -14.22107924 -251.1852282 12.49765973 -280.328125 51.4453125 C-280.95460938 52.27675781 -281.58109375 53.10820312 -282.2265625 53.96484375 C-300.16405261 78.68152614 -311.96494162 107.42902188 -317.328125 137.4453125 C-317.66457031 139.23195312 -317.66457031 139.23195312 -318.0078125 141.0546875 C-321.08532034 160.70014851 -320.4776249 181.82898287 -317.328125 201.4453125 C-317.22628906 202.11626953 -317.12445313 202.78722656 -317.01953125 203.47851562 C-315.42370689 213.79226939 -312.74185633 223.59226169 -309.328125 233.4453125 C-309.10253906 234.09999512 -308.87695312 234.75467773 -308.64453125 235.42919922 C-304.61360812 246.97824947 -300.13454598 259.23568102 -293.328125 269.4453125 C-293.703125 272.6328125 -293.703125 272.6328125 -294.328125 275.4453125 C-296.638125 275.7753125 -298.948125 276.1053125 -301.328125 276.4453125 C-326.78192053 237.23894799 -336.74617139 184.41765322 -328.328125 138.4453125 C-328.09416016 137.11790039 -328.09416016 137.11790039 -327.85546875 135.76367188 C-317.76444488 79.73980231 -286.78222481 30.45578728 -239.96484375 -2.08984375 C-169.82036926 -50.00662133 -68.77563002 -53.20303393 0 0 Z " fill="#B094F3" transform="translate(377.328125,85.5546875)"/>
<path d="M0 0 C4.31063307 5.29133553 7.10668584 11.99263327 10 18.125 C10.43787842 19.05296387 10.87575684 19.98092773 11.3269043 20.93701172 C18.82201953 37.03369723 24.25238197 54.42057981 27 72 C27.27650391 73.66095703 27.27650391 73.66095703 27.55859375 75.35546875 C30.81558865 98.10950902 29.53895415 121.36404798 26 144 C25.8767334 144.79841309 25.7534668 145.59682617 25.62646484 146.41943359 C17.12575899 198.09507653 -15.78020562 245.48888487 -57.625 275.9375 C-101.44171762 307.09203118 -157.96717288 321.70421944 -211.41943359 313.4453125 C-244.06057159 307.81263173 -274.73365355 296.01866053 -301.5625 276.40625 C-302.1495874 275.9829541 -302.7366748 275.5596582 -303.34155273 275.12353516 C-304.959396 273.94980123 -306.56041698 272.75297896 -308.16015625 271.5546875 C-310.87329521 269.73724067 -310.87329521 269.73724067 -313.80859375 270.1953125 C-315.94613624 270.80612512 -315.94613624 270.80612512 -317 272 C-316.81491381 275.83392817 -316.54358301 279.64963248 -316.22851562 283.47460938 C-316.1444043 284.67633789 -316.1444043 284.67633789 -316.05859375 285.90234375 C-315.99986084 286.63960693 -315.94112793 287.37687012 -315.88061523 288.13647461 C-316 290 -316 290 -318 292 C-321 292.3125 -321 292.3125 -324 292 C-326.32009367 288.51985949 -326.64238763 286.14278262 -327.2890625 282.0234375 C-327.39721283 281.33875397 -327.50536316 280.65407043 -327.61679077 279.94863892 C-327.84388593 278.4983908 -328.06723549 277.0475519 -328.28710938 275.59619141 C-328.6208681 273.40216186 -328.96965159 271.21091502 -329.3203125 269.01953125 C-332.32734738 249.85029905 -332.32734738 249.85029905 -329.79907227 246.32592773 C-327.46502865 244.60572271 -325.75493622 244.42729188 -322.87890625 244.12109375 C-321.86610596 244.00548096 -320.85330566 243.88986816 -319.80981445 243.77075195 C-318.73820068 243.66077881 -317.66658691 243.55080566 -316.5625 243.4375 C-314.37999667 243.19197849 -312.19770096 242.94460375 -310.015625 242.6953125 C-308.97212891 242.57833008 -307.92863281 242.46134766 -306.85351562 242.34082031 C-302.62406678 241.83566027 -298.45494659 241.12282401 -294.26953125 240.33203125 C-287.98016605 239.41190037 -287.98016605 239.41190037 -285.125 241.125 C-284 243 -284 243 -284.0625 246.0625 C-285 249 -285 249 -286.58203125 250.12109375 C-290.49579247 251.54370486 -294.57157861 251.78999099 -298.6875 252.2109375 C-302.7833196 252.59330247 -302.7833196 252.59330247 -306 255 C-305.83396657 258.00325173 -305.39494067 259.55640722 -303.3828125 261.81640625 C-276.57478554 282.54856551 -245.48402313 296.48940068 -212 302 C-211.31486328 302.11569336 -210.62972656 302.23138672 -209.92382812 302.35058594 C-159.18151812 310.56391854 -106.66229203 296.98256139 -64.83203125 267.7890625 C-19.16963896 234.37167105 8.32638279 186.6717727 17 131 C22.68735336 90.38989861 15.17471607 44.08269099 -7.1015625 9.25390625 C-8.3293549 6.1737488 -7.87708012 4.14951498 -7 1 C-4.25345395 -0.37327303 -3.04670253 -0.63768192 0 0 Z " fill="#6DD1F3" transform="translate(436,150)"/>
<path d="M0 0 C1.42602539 -0.01160156 1.42602539 -0.01160156 2.88085938 -0.0234375 C17.34918885 0.01644763 29.7113484 5.45630023 41.0625 14.25 C41.89007813 14.86875 42.71765625 15.4875 43.5703125 16.125 C53.46415801 24.5611316 60.23468799 37.69916314 63.0625 50.25 C63.33734491 53.90038473 63.34214895 57.5283258 63.3125 61.1875 C63.32410156 62.61352539 63.32410156 62.61352539 63.3359375 64.06835938 C63.29618986 78.48681572 57.90325842 90.97428693 49.0625 102.25 C48.28777344 103.24257813 47.51304687 104.23515625 46.71484375 105.2578125 C38.21228333 114.84980261 23.86149454 122.82106063 11.0625 124.25 C-0.62898574 124.93593955 -12.18325798 125.47302554 -22.9375 120.25 C-24.32775391 119.59644531 -24.32775391 119.59644531 -25.74609375 118.9296875 C-41.23803375 111.06554043 -51.58186896 99.40708614 -57.9375 83.25 C-58.28941406 82.44433594 -58.64132813 81.63867188 -59.00390625 80.80859375 C-63.65554119 68.06038921 -62.34581013 50.95522538 -57.4921875 38.51953125 C-55.0673895 33.42014451 -52.28726664 28.79180071 -48.9375 24.25 C-48.48890625 23.61835938 -48.0403125 22.98671875 -47.578125 22.3359375 C-36.314968 7.82634113 -17.97726224 -0.14566316 0 0 Z M-40.9375 30.25 C-43.24357565 33.45288285 -45.14604135 36.73598496 -46.9375 40.25 C-47.35257813 41.01183594 -47.76765625 41.77367187 -48.1953125 42.55859375 C-53.12862186 53.33942714 -53.01425267 68.55582092 -49.13842773 79.68261719 C-46.43323788 86.34394174 -42.7943051 91.98487942 -37.9375 97.25 C-37.41671875 97.86101562 -36.8959375 98.47203125 -36.359375 99.1015625 C-28.42257524 107.8474535 -16.59935515 113.97724598 -4.7734375 114.75390625 C11.3251835 115.15004956 23.86699898 112.52649178 36.0625 101.25 C36.68511719 100.70601563 37.30773437 100.16203125 37.94921875 99.6015625 C42.78341013 95.13439216 46.05389457 90.07646354 49.0625 84.25 C49.47886719 83.486875 49.89523437 82.72375 50.32421875 81.9375 C55.360104 70.91156177 55.06107335 55.32259522 51 44 C47.37261773 36.14923498 42.51479577 29.04052184 36.0625 23.25 C34.7940625 22.0434375 34.7940625 22.0434375 33.5 20.8125 C10.14948651 1.64688373 -22.39157454 8.18674385 -40.9375 30.25 Z " fill="#050503" transform="translate(254.9375,193.75)"/>
<path d="M0 0 C5.1328118 2.37630176 8.05212479 5.76164633 10 11 C10.65823054 16.35987723 9.68288853 19.39091706 7 24 C5.05476425 26.35379737 2.92717359 28.4939268 0.7578125 30.640625 C0.15242645 31.24888123 -0.45295959 31.85713745 -1.07669067 32.48382568 C-2.35229313 33.76146083 -3.63165679 35.03535063 -4.91455078 36.30566406 C-6.87239965 38.24742102 -8.81369494 40.20469953 -10.75390625 42.1640625 C-11.99903903 43.40721325 -13.24510189 44.64943328 -14.4921875 45.890625 C-15.35805984 46.76560638 -15.35805984 46.76560638 -16.24142456 47.65826416 C-20.3081092 51.65509392 -23.5104147 53.61698688 -29.25 54.5 C-37.75495838 53.36600555 -43.42815474 46.84385205 -49.3125 41.0625 C-49.9113501 40.47774902 -50.5102002 39.89299805 -51.12719727 39.29052734 C-55.30824106 35.06303404 -59.1130742 30.71074103 -60.53125 24.77734375 C-60.44472193 19.68300335 -59.25113483 16.86621439 -56 13 C-51.77395369 9.27705445 -49.05222671 7.5427474 -43.29296875 7.57421875 C-39.61439707 8.25729254 -37.03726166 10.28880157 -34.078125 12.4921875 C-32.11171152 13.91894615 -30.17991717 14.94419155 -28 16 C-27.39526855 15.37955811 -27.39526855 15.37955811 -26.77832031 14.74658203 C-24.94086325 12.86743654 -23.0955569 10.99618964 -21.25 9.125 C-20.61578125 8.47402344 -19.9815625 7.82304687 -19.328125 7.15234375 C-18.709375 6.52714844 -18.090625 5.90195313 -17.453125 5.2578125 C-16.60476074 4.39373779 -16.60476074 4.39373779 -15.73925781 3.51220703 C-10.98511067 -0.62131169 -6.05583338 -0.75697917 0 0 Z " fill="#040504" transform="translate(280,233)"/>
<path d="M0 0 C1.9375 1.5625 1.9375 1.5625 3 4 C3.1875 7.75 3.1875 7.75 3 11 C4.8871875 10.87625 4.8871875 10.87625 6.8125 10.75 C10.69727609 10.7706637 10.69727609 10.7706637 13.0625 12.5625 C14.39274773 16.0211441 13.85607025 18.4440159 13 22 C11 24 11 24 9.0546875 24.1953125 C7.03645833 24.13020833 5.01822917 24.06510417 3 24 C3.0928125 25.60875 3.0928125 25.60875 3.1875 27.25 C3 31 3 31 2 33.4375 C-0.71070476 35.5552381 -2.74871362 35.57130492 -6.125 35.37890625 C-8 35 -8 35 -10 33.4375 C-11.32761013 30.2014503 -11.19966912 27.46093134 -11 24 C-12.8871875 24.12375 -12.8871875 24.12375 -14.8125 24.25 C-18.69727609 24.2293363 -18.69727609 24.2293363 -21.0625 22.4375 C-22.40411569 18.9492992 -21.92678615 16.57474656 -21 13 C-17.3558226 10.5705484 -15.28758728 10.83820425 -11 11 C-11.0825 9.9275 -11.165 8.855 -11.25 7.75 C-11 4 -11 4 -9.4375 1.5625 C-6.07240983 -0.59460908 -3.91795996 -0.56988508 0 0 Z " fill="#6FD6F9" transform="translate(87,25)"/>
<path d="M0 0 C0.96808594 0.34933594 1.93617188 0.69867188 2.93359375 1.05859375 C3.78344727 3.65063477 3.78344727 3.65063477 3.93359375 7.05859375 C2.140065 9.56783635 0.51445083 11.46092918 -1.6640625 13.5859375 C-2.25054062 14.1791127 -2.83701874 14.7722879 -3.44126892 15.38343811 C-4.68458982 16.63151753 -5.93677524 17.87081984 -7.19702148 19.10180664 C-9.12267535 20.98998411 -11.00814778 22.91257532 -12.89257812 24.84179688 C-14.10583486 26.05042787 -15.32126131 27.25688556 -16.5390625 28.4609375 C-17.10182388 29.0378685 -17.66458527 29.6147995 -18.24440002 30.20921326 C-20.94570476 32.80081652 -22.41044048 34.04580135 -26.22119141 34.12011719 C-29.23241729 32.99665656 -30.84642662 31.92238963 -33.1171875 29.671875 C-33.81521484 28.98029297 -34.51324219 28.28871094 -35.23242188 27.57617188 C-35.94076172 26.84849609 -36.64910156 26.12082031 -37.37890625 25.37109375 C-38.10658203 24.66275391 -38.83425781 23.95441406 -39.58398438 23.22460938 C-42.69245372 20.08717014 -44.79795598 17.93005544 -46.11328125 13.66015625 C-46.06640625 11.05859375 -46.06640625 11.05859375 -45.00390625 9.12109375 C-42.06265376 7.50814884 -40.24962672 8.20081617 -37.06640625 9.05859375 C-34.58839492 11.24337374 -32.56389919 13.62400503 -30.41015625 16.125 C-28.19551688 18.30206763 -28.19551688 18.30206763 -25.18725586 18.42773438 C-21.30614109 17.968668 -20.35788095 16.96666429 -17.7890625 14.0859375 C-16.64727539 12.86100586 -16.64727539 12.86100586 -15.48242188 11.61132812 C-13.91321274 9.86761773 -12.34810099 8.12021128 -10.78710938 6.36914062 C-4.26226449 -0.60797584 -4.26226449 -0.60797584 0 0 Z " fill="#81C844" transform="translate(276.06640625,242.94140625)"/>
<path d="M0 0 C0.66 0 1.32 0 2 0 C2.20753906 0.58007812 2.41507812 1.16015625 2.62890625 1.7578125 C5.57870569 9.23722028 9.53467116 13.63813557 16.9375 16.875 C17.948125 17.24625 18.95875 17.6175 20 18 C20 18.66 20 19.32 20 20 C19.33613281 20.21914063 18.67226563 20.43828125 17.98828125 20.6640625 C11.1489658 23.12022542 7.34823175 25.25580821 4.0390625 31.94140625 C3.30630784 33.6052299 2.64579708 35.30053401 2 37 C1.34 37 0.68 37 0 37 C-0.81567174 35.56429734 -1.62742093 34.12636566 -2.4375 32.6875 C-2.88996094 31.88699219 -3.34242188 31.08648437 -3.80859375 30.26171875 C-5 28 -5 28 -6 25 C-9.60132709 22.69515066 -14.00536651 21.46469895 -18 20 C-18 19.34 -18 18.68 -18 18 C-17.33613281 17.70867187 -16.67226563 17.41734375 -15.98828125 17.1171875 C-7.31086639 13.08884016 -3.40367489 8.95703918 0 0 Z " fill="#F5C84C" transform="translate(429,436)"/>
<path d="M0 0 C3 1 3 1 4.6875 4.3125 C7.02343781 8.76452265 10.45500204 10.2239207 15 12 C14 14 14 14 11.1875 15.3125 C7.71385004 17.15149116 6.24659417 18.82378065 4 22 C3.00270658 23.33535898 2.00316209 24.6690441 1 26 C0.64808594 25.38511719 0.29617188 24.77023438 -0.06640625 24.13671875 C-3.45164707 18.59482321 -5.73353153 15.87994054 -12 14 C-12 13.34 -12 12.68 -12 12 C-10.35546875 10.8515625 -10.35546875 10.8515625 -8.1875 9.625 C-3.8257467 7.00486551 -1.63097275 4.89291826 0 0 Z " fill="#87D047" transform="translate(460,86)"/>
<path d="M0 0 C2.375 1.625 2.375 1.625 4 4 C4.48288863 7.31123632 4.29618989 9.296549 3 12.375 C0.2897489 14.57707902 -1.70878117 14.51582761 -5.125 14.30859375 C-7 14 -7 14 -9 13 C-10.63041883 9.73916234 -10.65964122 6.55761554 -10 3 C-7.21052771 -0.43319666 -4.246332 -0.61925675 0 0 Z " fill="#FC647D" transform="translate(358,498)"/>
<path d="M0 0 C2.6923481 2.18753283 2.93936827 3.58423955 3.4375 7 C3 10 3 10 1.375 12.375 C-1.69477548 14.4753727 -3.34556561 14.53293835 -7 14 C-9.375 13 -9.375 13 -11 11 C-11.65964122 7.44238446 -11.63041883 4.26083766 -10 1 C-6.73916234 -0.63041883 -3.55761554 -0.65964122 0 0 Z " fill="#F5C84C" transform="translate(175,0)"/>
</svg>
