<?xml version="1.0" encoding="UTF-8"?>
<svg version="1.1" xmlns="http://www.w3.org/2000/svg" width="512" height="512">
<path d="M0 0 C1.28471191 0.00491455 2.56942383 0.0098291 3.89306641 0.01489258 C12.89693105 0.12625587 21.08070035 0.73457876 29.75 3.3125 C30.96945312 3.6528125 32.18890625 3.993125 33.4453125 4.34375 C61.59341927 12.89800011 84.93778414 32.68394393 98.765625 58.5078125 C101.16243494 63.07544744 103.52386172 67.65886419 105.75 72.3125 C106.76578125 71.84199219 107.7815625 71.37148437 108.828125 70.88671875 C134.94551841 58.99519979 163.56409094 57.54160962 190.66455078 67.33300781 C206.77798152 73.52633571 224.84028036 85.17547015 234.375 100 C235.94140763 103.77361838 235.86911241 105.43864934 234.75 109.3125 C234.49476563 109.88226563 234.23953125 110.45203125 233.9765625 111.0390625 C233.61028888 114.71442879 235.53612193 117.41736878 237.3125 120.5 C237.81620117 121.46196289 237.81620117 121.46196289 238.33007812 122.44335938 C239.47566913 124.5708593 239.47566913 124.5708593 241.75 127.3125 C244.74982528 128.04080779 244.74982528 128.04080779 247.75 128.3125 C252.15743846 131.36380355 252.99317778 135.55323592 254 140.5625 C254.25148804 141.79867065 254.25148804 141.79867065 254.50805664 143.05981445 C259.56862992 170.7913444 253.88771487 197.76494353 238.75 221.3125 C236.55808841 224.44928376 234.22582488 227.39652848 231.75 230.3125 C230.87988281 231.39917969 230.87988281 231.39917969 229.9921875 232.5078125 C214.03854383 251.66553524 189.15146919 263.51395469 164.56884766 266.11474609 C154.32850584 266.83314873 144.00573792 266.52620687 133.75 266.3125 C133.976875 267.34375 134.20375 268.375 134.4375 269.4375 C135.08294443 277.44101098 129.2851103 282.51720587 124.41796875 288.3125 C122.39100443 291.18410594 122.39100443 291.18410594 123.3671875 294.20703125 C123.82351563 295.23183594 124.27984375 296.25664062 124.75 297.3125 C125.16572266 299.17455078 125.16572266 299.17455078 125.58984375 301.07421875 C126.66204254 305.21763102 127.73753721 309.15341292 130.75 312.3125 C135.36928798 314.39873604 140.31929236 314.59445931 145.31640625 314.890625 C149.20576769 315.14619543 151.68417709 315.73195632 154.75 318.3125 C157.53259951 322.15820953 158.13068544 324.8540409 158.15405273 329.56811523 C158.17307899 331.43046059 158.17307899 331.43046059 158.19248962 333.33042908 C158.19043796 334.677319 158.18744975 336.02420778 158.18359375 337.37109375 C158.18815857 338.76205194 158.19346504 340.15300788 158.19947815 341.54396057 C158.20839777 344.45493753 158.20599967 347.36563999 158.19604492 350.27661133 C158.18455896 353.99684323 158.20476536 357.71612539 158.23396206 361.43623257 C158.25235802 364.30770328 158.25202492 367.17894784 158.24632454 370.05046272 C158.24617172 371.42152297 158.25218322 372.79259894 158.26461601 374.16360283 C158.36848179 387.49489035 158.36848179 387.49489035 153.75 392.3125 C150.7006239 394.18112301 148.0941745 394.38947928 144.60546875 394.49609375 C139.73093417 394.69495898 135.0958103 394.91396472 130.75 397.3125 C126.51968271 402.27607229 123.42020691 409.81045961 122.75 416.3125 C124.20000503 420.09082383 126.77225497 422.88075852 129.3125 426 C132.59868424 430.2326778 134.75764424 433.75412673 135.140625 439.1796875 C133.75550058 446.74246686 128.08813553 451.39463285 122.84765625 456.578125 C121.97354599 457.45273376 121.09943573 458.32734253 120.19883728 459.22845459 C117.88296025 461.54139969 115.560214 463.8471648 113.23468018 466.15039062 C111.81147208 467.56352064 110.39324196 468.98145048 108.97680664 470.40136719 C106.25190196 473.13268006 103.51995308 475.85672023 100.78515625 478.578125 C99.94026138 479.42393127 99.09536652 480.26973755 98.22486877 481.14117432 C97.4340239 481.92248718 96.64317902 482.70380005 95.82836914 483.50878906 C95.1357045 484.19684631 94.44303986 484.88490356 93.72938538 485.59381104 C90.06641977 488.77434306 86.88139346 489.88558242 81.953125 489.7578125 C76.83779241 488.72386229 72.38639853 484.92661295 68.7421875 481.33203125 C66.34363569 479.19339855 64.89411388 478.0805621 61.75 477.3125 C56.68282108 478.37535255 52.05040406 480.89709522 47.5300293 483.34765625 C45.75 484.3125 45.75 484.3125 43.58105469 485.15893555 C41.56797224 486.15520109 41.56797224 486.15520109 41.09985352 488.29614258 C41.02694092 489.09173584 40.95402832 489.8873291 40.87890625 490.70703125 C40.77900391 491.58037109 40.67910156 492.45371094 40.57617188 493.35351562 C40.40153036 495.18919203 40.22961862 497.02513035 40.06054688 498.86132812 C39.53117946 503.45030295 39.23031333 505.73005534 36.21484375 509.38671875 C35.40144531 510.02222656 34.58804687 510.65773438 33.75 511.3125 C33.42 511.6425 33.09 511.9725 32.75 512.3125 C30.72162984 512.43292418 28.68904246 512.48275128 26.65722656 512.50537109 C25.35207092 512.52143402 24.04691528 512.53749695 22.70220947 512.55404663 C21.26502125 512.56553426 19.82782576 512.57614278 18.390625 512.5859375 C17.30913807 512.59392302 17.30913807 512.59392302 16.20580292 512.60206985 C12.38753827 512.62882395 8.56930653 512.64818902 4.75097656 512.66259766 C0.80854535 512.67922554 -3.1330466 512.72397958 -7.07516098 512.7749691 C-10.10696353 512.80865314 -13.13856753 512.82017641 -16.17053986 512.82582474 C-17.62341962 512.83253727 -19.07628631 512.84775976 -20.52898407 512.87171555 C-22.56564219 512.90337677 -24.602749 512.90040146 -26.63964844 512.89599609 C-27.79801208 512.90408295 -28.95637573 512.9121698 -30.14984131 512.92050171 C-34.19309562 512.12754052 -35.65687063 510.43558186 -38.25 507.3125 C-40.51944779 503.1232992 -40.86605752 498.66808714 -41.375 494 C-41.46136719 493.25943359 -41.54773438 492.51886719 -41.63671875 491.75585938 C-41.84734705 489.94211565 -42.04952986 488.12739457 -42.25 486.3125 C-43.01183594 485.99796875 -43.77367187 485.6834375 -44.55859375 485.359375 C-50.82837779 482.76066301 -57.06538334 480.10807167 -63.25 477.3125 C-64.14203125 478.01117188 -65.0340625 478.70984375 -65.953125 479.4296875 C-67.13527646 480.34913863 -68.31757592 481.26839949 -69.5 482.1875 C-70.37978516 482.87779297 -70.37978516 482.87779297 -71.27734375 483.58203125 C-76.25827709 487.44365373 -79.55585304 489.48401572 -86.0546875 489.7734375 C-93.08474616 488.29737536 -98.4542141 481.41447711 -103.296875 476.56640625 C-104.14928772 475.71827866 -105.00170044 474.87015106 -105.87994385 473.99632263 C-107.67429615 472.20769707 -109.46605543 470.41646687 -111.25537109 468.62280273 C-113.99578949 465.87921538 -116.74928597 463.14924111 -119.50390625 460.41992188 C-121.24820608 458.67789426 -122.99172285 456.93508213 -124.734375 455.19140625 C-125.5583075 454.3766835 -126.38223999 453.56196075 -127.23114014 452.72254944 C-127.99243225 451.95502853 -128.75372437 451.18750763 -129.53808594 450.39672852 C-130.2083783 449.72706558 -130.87867065 449.05740265 -131.5692749 448.3674469 C-134.45563025 444.83843018 -135.20392359 441.89306276 -135.5625 437.375 C-134.85748592 431.53905013 -130.78396609 427.5346185 -126.93676758 423.36157227 C-125.19604128 421.46579733 -125.19604128 421.46579733 -123.25 418.3125 C-123.69455039 415.26233555 -123.69455039 415.26233555 -125.25 412.3125 C-125.50394531 411.08273437 -125.75789062 409.85296875 -126.01953125 408.5859375 C-127.05295177 404.36369178 -128.12460169 400.46583929 -131.25 397.3125 C-136.37521099 395.04941982 -141.86030068 394.67984052 -147.37890625 394.1484375 C-151.22935475 393.70569036 -152.15531058 393.38791636 -155.33984375 390.8515625 C-158.20351776 387.04504285 -158.38174593 385.11441912 -158.41113281 380.3815918 C-158.42074036 379.13657394 -158.4303479 377.89155609 -158.44024658 376.60881042 C-158.4450949 375.24311506 -158.44937364 373.87741757 -158.453125 372.51171875 C-158.45887724 371.11407977 -158.46463496 369.71644081 -158.47039795 368.31880188 C-158.48090901 365.38578931 -158.48675068 362.45280415 -158.49023438 359.51977539 C-158.4957131 355.76704847 -158.51972693 352.01468549 -158.54820633 348.26207256 C-158.56686124 345.3735296 -158.57203986 342.48507371 -158.57357025 339.5964756 C-158.57659194 338.21341784 -158.58460418 336.83036143 -158.59775543 335.4473629 C-158.61487018 333.50884592 -158.61108302 331.57017878 -158.60644531 329.6315918 C-158.61191376 327.97851265 -158.61191376 327.97851265 -158.61749268 326.29203796 C-158.08450811 321.97073348 -156.45910072 319.33021606 -153.15234375 316.546875 C-149.7741609 315.11012428 -146.9878321 314.9600523 -143.35717773 314.74487305 C-135.94984449 314.40874412 -135.94984449 314.40874412 -129.81542969 310.80810547 C-127.32606783 306.60518379 -126.30580656 302.04153124 -125.25 297.3125 C-124.77046875 296.32378906 -124.2909375 295.33507812 -123.796875 294.31640625 C-123.15771943 290.80561602 -123.50979408 290.36139294 -125.42578125 287.515625 C-126.45069204 286.18178249 -127.49723895 284.86434364 -128.5625 283.5625 C-129.60090094 282.23487573 -130.63869037 280.90677288 -131.67578125 279.578125 C-132.14411377 278.99836914 -132.61244629 278.41861328 -133.0949707 277.82128906 C-135.52331059 274.64920272 -135.4137233 272.24185923 -135.25 268.3125 C-134.92 267.6525 -134.59 266.9925 -134.25 266.3125 C-134.82834595 266.31916183 -135.40669189 266.32582367 -136.00256348 266.33268738 C-142.10370233 266.39983099 -148.20473378 266.44462275 -154.30615234 266.47729492 C-156.57344842 266.49224307 -158.84071629 266.51260898 -161.10791016 266.53881836 C-189.08672374 266.85381162 -210.42374059 262.50710227 -232.25 244.3125 C-237.94848379 238.56478524 -244.68860826 231.66328596 -245.75 223.4375 C-245.25 220.3125 -245.25 220.3125 -243.25 217.3125 C-242.59 217.3125 -241.93 217.3125 -241.25 217.3125 C-241.77400391 215.99185547 -241.77400391 215.99185547 -242.30859375 214.64453125 C-242.76363281 213.48308594 -243.21867188 212.32164062 -243.6875 211.125 C-244.13996094 209.97644531 -244.59242188 208.82789063 -245.05859375 207.64453125 C-246.06093301 204.84126767 -246.77012795 202.24137424 -247.25 199.3125 C-248.6421875 198.94125 -248.6421875 198.94125 -250.0625 198.5625 C-253.64499443 197.15760022 -254.45782485 196.64383735 -256.25 193.3125 C-256.72352582 190.39030152 -256.72423237 187.51783976 -256.6875 184.5625 C-256.68065186 183.72066162 -256.67380371 182.87882324 -256.66674805 182.01147461 C-256.10662284 159.72604345 -245.94695365 140.31920411 -230.3046875 124.83203125 C-227.95922961 122.89747838 -226.14246028 121.62597021 -223.5078125 120.26171875 C-216.8248196 117.09491407 -216.8248196 117.09491407 -212.51953125 111.42578125 C-211.6019336 106.87146632 -211.58089371 102.26002908 -211.42236328 97.63037109 C-210.12597365 80.19705211 -199.23121702 65.15213691 -187.25 53.3125 C-186.59386719 52.64605469 -185.93773437 51.97960938 -185.26171875 51.29296875 C-169.14005758 35.99982979 -147.86735435 31.7676414 -126.421875 32.0390625 C-112.82171535 32.4575927 -101.22734825 37.1861552 -89.25 43.3125 C-88.8782666 42.9 -88.5065332 42.4875 -88.12353516 42.0625 C-80.97569211 34.16793313 -73.97676873 26.50667501 -65.25 20.3125 C-64.55390625 19.78914063 -63.8578125 19.26578125 -63.140625 18.7265625 C-58.35148489 15.3667394 -55.08618791 14.60813249 -49.25 15.3125 C-48.26 16.3025 -48.26 16.3025 -47.25 17.3125 C-42.69542114 16.82616361 -38.72779988 14.93447837 -34.5546875 13.15234375 C-32.25 12.3125 -32.25 12.3125 -29.25 12.3125 C-29.0953125 10.6728125 -29.0953125 10.6728125 -28.9375 9 C-28.09618279 4.48748043 -28.09618279 4.48748043 -25.25 2.3125 C-17.20505705 -0.32060161 -8.36473451 -0.03774798 0 0 Z " fill="#010202" transform="translate(256.25,-0.3125)"/>
<path d="M0 0 C1.28471191 0.00491455 2.56942383 0.0098291 3.89306641 0.01489258 C12.89693105 0.12625587 21.08070035 0.73457876 29.75 3.3125 C30.96945312 3.6528125 32.18890625 3.993125 33.4453125 4.34375 C61.59341927 12.89800011 84.93778414 32.68394393 98.765625 58.5078125 C101.16243494 63.07544744 103.52386172 67.65886419 105.75 72.3125 C106.76578125 71.84199219 107.7815625 71.37148437 108.828125 70.88671875 C134.94551841 58.99519979 163.56409094 57.54160962 190.66455078 67.33300781 C206.77798152 73.52633571 224.84028036 85.17547015 234.375 100 C235.94140763 103.77361838 235.86911241 105.43864934 234.75 109.3125 C234.49734375 109.89515625 234.2446875 110.4778125 233.984375 111.078125 C233.61045726 114.64280745 235.41542672 116.83864053 237.1875 119.875 C240.75 126.01700098 240.75 126.01700098 240.75 129.3125 C240.26273437 129.78945312 239.77546875 130.26640625 239.2734375 130.7578125 C237.33081918 132.41484834 237.33081918 132.41484834 237.375 136.1875 C237.48843461 140.10099421 238.26351604 143.59347814 239.25 147.375 C244.31404514 168.11347056 238.55077195 190.16683367 228.5625 208.5625 C224.44154779 215.2522396 219.27065564 220.78417678 213.75 226.3125 C212.945625 227.12847656 212.14125 227.94445312 211.3125 228.78515625 C191.11345589 248.15364756 166.64697552 250.87765855 139.8828125 250.36010742 C139.17898438 250.34439697 138.47515625 250.32868652 137.75 250.3125 C141.10176034 246.30516119 144.48900538 242.50791895 148.3125 238.9375 C156.63098999 230.71720467 158.82152745 223.2109977 159.06640625 211.73046875 C159.08718735 210.91628983 159.10796844 210.1021109 159.12937927 209.26325989 C159.19449463 206.67558821 159.25358208 204.08781947 159.3125 201.5 C159.35572142 199.74022455 159.39933685 197.98045872 159.44335938 196.22070312 C159.5501368 191.91806691 159.65151018 187.61533357 159.75 183.3125 C161.41289063 183.27382813 161.41289063 183.27382813 163.109375 183.234375 C164.57295547 183.17808344 166.03649562 183.12073633 167.5 183.0625 C168.22960937 183.04832031 168.95921875 183.03414062 169.7109375 183.01953125 C173.24450902 182.85891436 175.37262695 182.59765853 178.2277832 180.44018555 C179.93476532 178.35124871 179.93476532 178.35124871 180.35546875 175.51953125 C179.48978329 170.93419083 177.09491503 168.44405508 174.0625 165 C172.8583268 163.57881097 171.65657483 162.15556753 170.45703125 160.73046875 C169.83908691 160.00134277 169.22114258 159.2722168 168.58447266 158.52099609 C165.69134447 155.03799935 162.97320263 151.42883634 160.25 147.8125 C155.77286643 141.90889584 151.21896296 136.0759123 146.5625 130.3125 C146.00949219 129.62349609 145.45648438 128.93449219 144.88671875 128.22460938 C142.23745079 124.78177572 142.23745079 124.78177572 138.75 122.3125 C134.44847284 121.85503527 134.44847284 121.85503527 130.765625 123.82421875 C129.89164062 124.90123047 129.89164062 124.90123047 129 126 C127.98099609 127.2375 127.98099609 127.2375 126.94140625 128.5 C126.21824219 129.428125 125.49507813 130.35625 124.75 131.3125 C123.97527344 132.3025 123.20054687 133.2925 122.40234375 134.3125 C120.71618606 136.48509477 119.04577851 138.66898867 117.3828125 140.859375 C114.72886978 144.35171784 112.02554144 147.80348255 109.3125 151.25 C108.86310059 151.82516357 108.41370117 152.40032715 107.95068359 152.99291992 C105.54564477 156.06488431 103.10624649 159.09971715 100.609375 162.09765625 C100.09947021 162.71970947 99.58956543 163.3417627 99.06420898 163.98266602 C98.08863651 165.17140211 97.10170006 166.35093429 96.10180664 167.51928711 C93.94485947 170.16952182 92.79052921 172.0802475 92.19921875 175.46875 C92.57796323 178.35721735 92.57796323 178.35721735 94.234375 180.640625 C97.70030097 182.94406648 100.96496046 182.9840805 105 183.0625 C105.74507813 183.09214844 106.49015625 183.12179688 107.2578125 183.15234375 C109.08796672 183.2227343 110.91898769 183.26991832 112.75 183.3125 C115.46253404 205.52091221 115.46253404 205.52091221 111.08154297 213.25976562 C106.68382298 218.72572071 101.41548725 223.20253999 95.75 227.3125 C94.83420166 226.67803955 94.83420166 226.67803955 93.89990234 226.03076172 C92.69261475 225.20729248 92.69261475 225.20729248 91.4609375 224.3671875 C90.66478027 223.82046387 89.86862305 223.27374023 89.04833984 222.71044922 C85.50881821 220.55755981 83.80561942 220.33355738 79.75 221.3125 C74.86962957 224.31688989 70.42321783 227.80862597 66.1640625 231.63671875 C63.75 233.3125 63.75 233.3125 61.75 233.22265625 C61.09 232.94292969 60.43 232.66320312 59.75 232.375 C58.98558594 232.06433594 58.22117187 231.75367188 57.43359375 231.43359375 C56.54800781 231.06363281 55.66242188 230.69367188 54.75 230.3125 C53.62722656 229.93222656 52.50445312 229.55195313 51.34765625 229.16015625 C50.18105469 228.75667969 49.01445312 228.35320312 47.8125 227.9375 C46.71035156 227.55851563 45.60820312 227.17953125 44.47265625 226.7890625 C41.75 225.3125 41.75 225.3125 40.42578125 223.1484375 C39.40736036 218.87460186 39.04541461 214.56529796 38.71484375 210.1953125 C38.2356334 205.40320905 37.15224451 202.7276808 33.75 199.3125 C30.77050148 197.67870684 30.77050148 197.67870684 22.75 197.3125 C22.75 173.2225 22.75 149.1325 22.75 124.3125 C28.69 123.9825 34.63 123.6525 40.75 123.3125 C43.00583393 121.41964674 43.00583393 121.41964674 43.375 118.375 C43.13823231 112.29380869 38.41443405 107.81557386 34.75 103.3125 C34.01064209 102.39621826 34.01064209 102.39621826 33.25634766 101.46142578 C30.51721329 98.0690286 27.76261849 94.68969197 25 91.31640625 C19.72297593 84.84894764 14.69372782 78.19187365 9.6484375 71.54296875 C9.02195312 70.72441406 8.39546875 69.90585938 7.75 69.0625 C6.945625 68.00289062 6.945625 68.00289062 6.125 66.921875 C3.98390728 64.4158233 2.75751237 64.31337394 -0.57421875 63.92578125 C-4.33399474 63.96867424 -4.33399474 63.96867424 -6.76953125 66.48046875 C-7.52621094 67.47691406 -8.28289062 68.47335938 -9.0625 69.5 C-9.48281494 70.04027832 -9.90312988 70.58055664 -10.33618164 71.13720703 C-11.66078461 72.84797797 -12.95505059 74.57922243 -14.25 76.3125 C-15.07306215 77.38080503 -15.89853731 78.44725587 -16.7265625 79.51171875 C-18.38655508 81.64990256 -20.03549446 83.79588226 -21.67578125 85.94921875 C-24.37821741 89.49037787 -27.12326101 92.99709521 -29.875 96.5 C-30.33229492 97.08716797 -30.78958984 97.67433594 -31.26074219 98.27929688 C-33.35739744 100.96145026 -35.47873734 103.57375924 -37.72265625 106.13671875 C-42.35241996 111.28235743 -42.35241996 111.28235743 -43.875 117.8125 C-43.58613536 121.35755975 -43.58613536 121.35755975 -41.25 123.3125 C-35.31 123.6425 -29.37 123.9725 -23.25 124.3125 C-23.25 148.4025 -23.25 172.4925 -23.25 197.3125 C-26.22 197.6425 -29.19 197.9725 -32.25 198.3125 C-36.04497311 200.33110272 -37.009378 201.62862695 -38.4375 205.6875 C-39.08601698 208.48030699 -39.2348701 210.77612323 -39.140625 213.6640625 C-39.19447698 217.85554131 -39.41876805 220.51324528 -41.25 224.3125 C-46.76561833 228.39745575 -53.71913102 230.42624609 -60.25 232.3125 C-60.93328369 232.55234619 -61.61656738 232.79219238 -62.32055664 233.03930664 C-64.25 233.3125 -64.25 233.3125 -65.94165039 232.43212891 C-66.48813232 231.97241699 -67.03461426 231.51270508 -67.59765625 231.0390625 C-68.20287109 230.5440625 -68.80808594 230.0490625 -69.43164062 229.5390625 C-70.05232422 229.01054687 -70.67300781 228.48203125 -71.3125 227.9375 C-72.55040715 226.90527195 -73.79118676 225.87647653 -75.03515625 224.8515625 C-75.58051025 224.38959473 -76.12586426 223.92762695 -76.68774414 223.45166016 C-80.293439 220.82247243 -83.96256745 220.87648991 -88.25 221.3125 C-89.93641988 222.43771527 -89.93641988 222.43771527 -91.4375 223.875 C-92.8296875 225.0815625 -92.8296875 225.0815625 -94.25 226.3125 C-100.62269206 225.67139375 -105.90936625 219.85944499 -110.05078125 215.41015625 C-116.74207599 206.58508804 -114.35311939 193.69539915 -113.25 183.3125 C-111.58710938 183.27382813 -111.58710938 183.27382813 -109.890625 183.234375 C-108.42704453 183.17808344 -106.96350438 183.12073633 -105.5 183.0625 C-104.77039063 183.04832031 -104.04078125 183.03414062 -103.2890625 183.01953125 C-99.87786957 182.86447703 -97.60192686 182.54638928 -94.734375 180.640625 C-92.70363354 177.45556734 -92.53557325 176.04289283 -93.25 172.3125 C-94.92839257 169.54445039 -96.99399677 167.1787647 -99.125 164.75 C-100.32955319 163.32542513 -101.53266296 161.89962861 -102.734375 160.47265625 C-103.33314453 159.76898926 -103.93191406 159.06532227 -104.54882812 158.34033203 C-106.91330877 155.52182224 -109.15364307 152.61927246 -111.375 149.6875 C-114.90795608 145.05950044 -118.46727191 140.45482343 -122.0625 135.875 C-122.50674316 135.30765137 -122.95098633 134.74030273 -123.40869141 134.15576172 C-124.68211945 132.5356011 -125.96298466 130.92188533 -127.25 129.3125 C-127.70036621 128.74901855 -128.15073242 128.18553711 -128.61474609 127.60498047 C-131.30256431 124.30151124 -132.72976632 122.63068844 -136.9375 121.75 C-140.76077599 122.39923555 -141.17623823 122.98474341 -143.57421875 125.84765625 C-144.18595947 126.57605713 -144.7977002 127.30445801 -145.42797852 128.05493164 C-148.14684932 131.42373753 -150.77874011 134.84863543 -153.375 138.3125 C-157.85526501 144.23373991 -162.42600953 150.06329165 -167.125 155.8125 C-167.93771362 156.81192627 -167.93771362 156.81192627 -168.7668457 157.83154297 C-171.02839195 160.6096648 -173.30069577 163.37213226 -175.62109375 166.1015625 C-179.19748587 170.39789401 -179.19748587 170.39789401 -180.9375 175.625 C-180.04778954 179.10295908 -179.1292205 180.15196168 -176.25 182.3125 C-173.34009175 182.93856108 -170.46933888 183.00833296 -167.5 183.0625 C-166.70722656 183.09214844 -165.91445312 183.12179688 -165.09765625 183.15234375 C-163.14897906 183.22277787 -161.19948505 183.26993482 -159.25 183.3125 C-159.25112793 184.53243652 -159.25225586 185.75237305 -159.25341797 187.00927734 C-159.2497211 191.5758202 -159.20669426 196.14132199 -159.15234375 200.70751953 C-159.13427949 202.67620089 -159.12659771 204.64500804 -159.12988281 206.61376953 C-159.48572466 222.11939566 -159.48572466 222.11939566 -152.25 235.3125 C-151.35692139 236.32086914 -151.35692139 236.32086914 -150.44580078 237.34960938 C-148.64827607 239.26658834 -146.79096638 241.07703155 -144.875 242.875 C-143.6153354 244.0827066 -142.35741506 245.29223613 -141.1015625 246.50390625 C-140.55322754 247.02154541 -140.00489258 247.53918457 -139.43994141 248.07250977 C-138.25 249.3125 -138.25 249.3125 -138.25 250.3125 C-144.54467823 250.38941467 -150.83923256 250.44145703 -157.13427734 250.47729492 C-159.26974007 250.49225635 -161.40517275 250.51263284 -163.54052734 250.53881836 C-185.10396937 250.79636767 -203.67537601 249.03727369 -220.05639648 233.66015625 C-223.33823992 230.43627641 -226.1406049 226.97072266 -228.9375 223.3125 C-231.79580023 219.61230043 -233.4759433 217.82841484 -238.0625 216.8125 C-240.30078125 216.3046875 -240.30078125 216.3046875 -242.25 215.3125 C-245.13344179 210.37172647 -246.19689188 204.88182178 -247.25 199.3125 C-248.6421875 198.94125 -248.6421875 198.94125 -250.0625 198.5625 C-253.64499443 197.15760022 -254.45782485 196.64383735 -256.25 193.3125 C-256.72352582 190.39030152 -256.72423237 187.51783976 -256.6875 184.5625 C-256.68065186 183.72066162 -256.67380371 182.87882324 -256.66674805 182.01147461 C-256.10662284 159.72604345 -245.94695365 140.31920411 -230.3046875 124.83203125 C-227.95922961 122.89747838 -226.14246028 121.62597021 -223.5078125 120.26171875 C-216.8248196 117.09491407 -216.8248196 117.09491407 -212.51953125 111.42578125 C-211.6019336 106.87146632 -211.58089371 102.26002908 -211.42236328 97.63037109 C-210.12597365 80.19705211 -199.23121702 65.15213691 -187.25 53.3125 C-186.59386719 52.64605469 -185.93773437 51.97960938 -185.26171875 51.29296875 C-169.14005758 35.99982979 -147.86735435 31.7676414 -126.421875 32.0390625 C-112.82171535 32.4575927 -101.22734825 37.1861552 -89.25 43.3125 C-88.8782666 42.9 -88.5065332 42.4875 -88.12353516 42.0625 C-80.97569211 34.16793313 -73.97676873 26.50667501 -65.25 20.3125 C-64.55390625 19.78914063 -63.8578125 19.26578125 -63.140625 18.7265625 C-58.35148489 15.3667394 -55.08618791 14.60813249 -49.25 15.3125 C-48.26 16.3025 -48.26 16.3025 -47.25 17.3125 C-42.69542114 16.82616361 -38.72779988 14.93447837 -34.5546875 13.15234375 C-32.25 12.3125 -32.25 12.3125 -29.25 12.3125 C-29.0953125 10.6728125 -29.0953125 10.6728125 -28.9375 9 C-28.09618279 4.48748043 -28.09618279 4.48748043 -25.25 2.3125 C-17.20505705 -0.32060161 -8.36473451 -0.03774798 0 0 Z " fill="#EBE9EB" transform="translate(256.25,-0.3125)"/>
<path d="M0 0 C17.27448949 13.71177253 29.70860701 33.65077062 32.6875 55.75 C34.18301212 75.88522839 31.06518208 95.68347688 19.6875 112.75 C19.31483469 117.82352836 19.31483469 117.82352836 20.4921875 122.6484375 C20.6875 124.75 20.6875 124.75 18.73828125 127.51171875 C17.83862554 128.49908092 16.92519163 129.47402457 16 130.4375 C15.10925781 131.41074219 14.21851563 132.38398438 13.30078125 133.38671875 C9.78306988 136.56790765 9.78306988 136.56790765 6.6875 136.75 C6.0275 136.42 5.3675 136.09 4.6875 135.75 C-1.39894192 134.86239389 -4.45285397 136.79216074 -9.53125 140.02734375 C-27.20204152 150.97231434 -49.39896458 153.83103748 -69.73608398 149.71948242 C-82.13138026 146.73735372 -94.16457416 140.39801926 -104.3125 132.75 C-105.19228516 132.09837891 -105.19228516 132.09837891 -106.08984375 131.43359375 C-122.25945712 118.56390148 -132.24997109 97.87252875 -135.3125 77.75 C-137.50639035 54.12730824 -131.56353633 32.46813479 -116.875 13.75 C-86.53092409 -20.8915098 -37.4576014 -26.63114628 0 0 Z " fill="#F7F5F6" transform="translate(307.3125,287.25)"/>
<path d="M0 0 C16.5 0 33 0 50 0 C50.99 8.415 50.99 8.415 52 17 C53.20283502 22.84628874 53.20283502 22.84628874 56.00390625 24.12890625 C57.48697266 24.56009766 57.48697266 24.56009766 59 25 C60.55562568 25.60088695 62.10590181 26.21570137 63.65234375 26.83984375 C64.94108398 27.3512793 64.94108398 27.3512793 66.25585938 27.87304688 C67.58327148 28.39995117 67.58327148 28.39995117 68.9375 28.9375 C69.81857422 29.28490234 70.69964844 29.63230469 71.60742188 29.99023438 C75.26759251 31.44607753 78.78186533 32.88242201 82.25390625 34.75390625 C85.50252872 36.22803223 87.46786781 36.46071289 91 36 C93.81074673 34.69156028 93.81074673 34.69156028 96.4375 32.8125 C97.76587891 31.92498047 97.76587891 31.92498047 99.12109375 31.01953125 C102.42815705 28.69965102 105.71282779 26.34798015 109 24 C120.22 35.22 131.44 46.44 143 58 C141.10092284 61.79815431 139.05788433 64.42971189 136.375 67.6875 C133.16990739 71.85140796 130.7287118 75.18745701 131.28515625 80.60546875 C132.51937149 84.73975259 134.55267324 88.46717817 136.6875 92.203125 C140.75581878 101.58906759 137.48219223 112.90976263 134.875 122.25 C134.56167725 123.41571533 134.24835449 124.58143066 133.92553711 125.7824707 C131.3933078 135.02220331 128.44178961 144.06143286 125 153 C124.67 153 124.34 153 124 153 C123.9906543 152.39752441 123.98130859 151.79504883 123.97167969 151.17431641 C123.3599531 119.57443983 115.41032582 92.30969609 91.96484375 69.71484375 C68.08127801 48.87014124 40.90236059 43.05116194 10 45 C-0.74809623 46.20076684 -10.47729765 49.92772832 -20 55 C-21.01707031 55.53625 -22.03414063 56.0725 -23.08203125 56.625 C-30.38633417 60.67565322 -36.74918945 65.47464123 -43 71 C-43.63550781 71.55171875 -44.27101563 72.1034375 -44.92578125 72.671875 C-56.6276606 83.53982732 -66.02510555 100.55091024 -70 116 C-70.27585938 116.92683594 -70.55171875 117.85367188 -70.8359375 118.80859375 C-77.67035816 144.92360479 -71.64790459 170.98934002 -58.78125 194.0703125 C-56.17744272 198.35289027 -53.24532287 202.18904351 -50 206 C-49.41863281 206.72574219 -48.83726562 207.45148438 -48.23828125 208.19921875 C-33.76863246 225.58099811 -10.72976534 237.68601736 11.78173828 239.83691406 C20.83708668 240.50266057 29.92564149 240.73906579 39 241 C35.71108352 243.19261099 32.36568493 244.51009258 28.6875 245.875 C27.9754541 246.13966064 27.2634082 246.40432129 26.52978516 246.67700195 C-10.15818051 260.08958749 -10.15818051 260.08958749 -25.12353516 253.48974609 C-26.5106477 252.84412563 -27.88869711 252.178552 -29.25537109 251.49072266 C-33.67691101 249.31265148 -36.95536926 248.50047055 -42 249 C-45.05064588 250.65795972 -47.57131907 252.64326552 -50.234375 254.859375 C-51.02328125 255.50390625 -51.8121875 256.1484375 -52.625 256.8125 C-53.35976562 257.43769531 -54.09453125 258.06289063 -54.8515625 258.70703125 C-57 260 -57 260 -58.92230225 259.77149963 C-61.35857127 258.86685378 -62.56872765 257.7935494 -64.39160156 255.94897461 C-65.0319635 255.30838608 -65.67232544 254.66779755 -66.33209229 254.00779724 C-67.01140808 253.31299759 -67.69072388 252.61819794 -68.390625 251.90234375 C-69.09523865 251.19348526 -69.79985229 250.48462677 -70.52581787 249.75428772 C-72.77434785 247.4889672 -75.01222238 245.21343792 -77.25 242.9375 C-78.77274708 241.39970665 -80.29617654 239.86258869 -81.8203125 238.32617188 C-85.5548281 234.55858198 -89.2806485 230.78255735 -93 227 C-91.4805136 222.96727383 -89.70619878 220.13393356 -86.9375 216.8125 C-83.23970193 212.35240721 -81.47133861 209.88370975 -81.51953125 203.87890625 C-82.36464106 198.81511822 -84.84791161 194.42156944 -87.12890625 189.875 C-89.42501533 185.26658762 -91.04716966 180.49652478 -92.6640625 175.609375 C-94.02392788 172.38632866 -94.02392788 172.38632866 -99 170 C-105.27 169.01 -111.54 168.02 -118 167 C-118 150.83 -118 134.66 -118 118 C-111.73 117.01 -105.46 116.02 -99 115 C-96.525 114.01 -96.525 114.01 -94 113 C-92.64903516 109.66366372 -92.64903516 109.66366372 -91.94921875 107.046875 C-90.68503263 102.98899363 -89.06924444 99.109434 -87.4375 95.1875 C-87.13215332 94.4462085 -86.82680664 93.70491699 -86.51220703 92.94116211 C-85.35753284 90.15760644 -84.21175227 87.41284587 -82.8359375 84.73046875 C-81.02494235 80.98153953 -80.88362847 77.89368607 -82 74 C-85.09765793 68.92617807 -89.09326268 64.45850055 -93 60 C-91.65427113 57.00056095 -90.16462899 54.91923821 -87.83544922 52.60839844 C-87.19493622 51.9680365 -86.55442322 51.32767456 -85.89450073 50.66790771 C-85.20486237 49.98859192 -84.515224 49.30927612 -83.8046875 48.609375 C-83.09724396 47.90476135 -82.38980042 47.20014771 -81.66091919 46.47418213 C-79.40360138 44.2280461 -77.13942367 41.98896991 -74.875 39.75 C-73.34199047 38.22702283 -71.80943285 36.70359061 -70.27734375 35.1796875 C-66.52345427 31.44783185 -62.76391086 27.72174649 -59 24 C-57.58409436 24.92687799 -56.17048461 25.85726364 -54.7578125 26.7890625 C-53.97035645 27.30678223 -53.18290039 27.82450195 -52.37158203 28.35791016 C-49.4639224 30.37118159 -46.78751157 32.58415664 -44.1171875 34.8984375 C-40.88785971 36.57864126 -38.60506027 36.38065854 -35 36 C-32.12160595 34.98798137 -29.45816709 33.64827024 -26.75 32.25 C-21.79141687 29.78175385 -16.97043717 27.5260772 -11.6875 25.8125 C-7.4481075 24.31586598 -5.09278226 23.18556452 -3 19 C-1.22530582 12.75570567 -0.71742991 6.45686916 0 0 Z " fill="#8F808F" transform="translate(231,212)"/>
<path d="M0 0 C1.90894043 0.0163147 1.90894043 0.0163147 3.85644531 0.03295898 C31.27667107 0.49839325 52.85724809 11.47278285 72.6875 30.125 C83.55514176 41.39186125 92.69458816 57.13698491 96.5625 72.375 C96.95888672 73.83486328 96.95888672 73.83486328 97.36328125 75.32421875 C99.88329727 85.60731728 100.25484115 95.82972763 100.5625 106.375 C104.22181907 95.91255155 107.72076307 85.43897353 110.4375 74.6875 C110.64012451 73.90020508 110.84274902 73.11291016 111.05151367 72.30175781 C112.42361018 66.69019697 113.1167595 61.13109635 113.5625 55.375 C115.81847827 57.63097827 116.52824192 59.42103867 117.6875 62.375 C118.04070312 63.261875 118.39390625 64.14875 118.7578125 65.0625 C119.5625 67.375 119.5625 67.375 119.5625 69.375 C124.05387497 71.51759205 128.36679026 71.96119031 133.25 72.4375 C141.31878272 73.25314136 141.31878272 73.25314136 143.5625 74.375 C143.5625 90.545 143.5625 106.715 143.5625 123.375 C136.9625 124.365 130.3625 125.355 123.5625 126.375 C118.89600069 130.85052933 118.89600069 130.85052933 116.4296875 136.02734375 C116.09839844 136.88650391 115.76710938 137.74566406 115.42578125 138.63085938 C115.09964844 139.51580078 114.77351562 140.40074219 114.4375 141.3125 C113.77057739 143.07250619 113.10135914 144.83164445 112.4296875 146.58984375 C112.11523682 147.4187915 111.80078613 148.24773926 111.47680664 149.10180664 C110.5625 151.375 110.5625 151.375 108.86328125 154.7421875 C106.85877618 158.79935393 106.46440975 161.96891286 107.5625 166.375 C109.88384421 170.34062969 112.64586453 173.83376956 115.5625 177.375 C116.56927328 178.70322639 117.57202395 180.03457657 118.5625 181.375 C117.23874661 184.29793008 115.79593726 186.40329096 113.55322266 188.69067383 C112.94564117 189.31424271 112.33805969 189.93781158 111.71206665 190.58027649 C111.05685028 191.24085556 110.40163391 191.90143463 109.7265625 192.58203125 C108.7129213 193.60921516 108.7129213 193.60921516 107.67880249 194.65715027 C106.25084807 196.09959077 104.82008369 197.53925421 103.38671875 198.97631836 C101.1902252 201.18475997 99.0130715 203.41116401 96.8359375 205.63867188 C95.44646432 207.03760331 94.05587666 208.43542886 92.6640625 209.83203125 C92.01289459 210.50273148 91.36172668 211.1734317 90.69082642 211.86445618 C90.07694061 212.47226425 89.46305481 213.08007233 88.83056641 213.70629883 C88.29476959 214.24716629 87.75897278 214.78803375 87.2069397 215.34529114 C85.5625 216.375 85.5625 216.375 83.54013062 216.16874695 C80.485709 214.94281637 78.05708703 212.90184445 75.5 210.875 C71.10210586 207.41453762 67.60091051 204.87951797 61.75 204.96484375 C57.8312083 205.69961719 54.52498886 207.78532244 51.0390625 209.65625 C46.46557556 211.91729972 41.74514389 213.59018088 36.90649414 215.19384766 C32.5440878 216.71726192 31.48198789 217.48234947 28.5625 221.375 C27.5725 227.975 26.5825 234.575 25.5625 241.375 C9.0625 241.375 -7.4375 241.375 -24.4375 241.375 C-25.9225 231.475 -25.9225 231.475 -27.4375 221.375 C-31.93572302 216.61138922 -31.93572302 216.61138922 -37.25 214.5625 C-38.04019531 214.32917969 -38.83039063 214.09585938 -39.64453125 213.85546875 C-40.23621094 213.69691406 -40.82789063 213.53835938 -41.4375 213.375 C-41.4375 213.045 -41.4375 212.715 -41.4375 212.375 C-40.32181641 212.26285156 -40.32181641 212.26285156 -39.18359375 212.1484375 C-21.69734046 210.04265493 -4.70680402 205.03384432 11.5625 198.375 C10.9641333 198.35518066 10.3657666 198.33536133 9.74926758 198.31494141 C-17.88241111 197.35434718 -42.14840101 193.12798149 -63.4375 174.375 C-64.26765625 173.68792969 -65.0978125 173.00085938 -65.953125 172.29296875 C-84.03636886 156.90002344 -95.24222372 133.73276277 -98.4375 110.375 C-100.60320166 82.60053291 -93.82859815 56.76065555 -75.83984375 35.1875 C-56.13204641 12.50939727 -30.17733142 -0.35253892 0 0 Z M-30.4375 20.375 C-31.0960498 20.65375977 -31.75459961 20.93251953 -32.43310547 21.21972656 C-54.18242212 30.51659423 -68.76977949 46.97927633 -78.25 68.4375 C-86.7037205 90.22867817 -85.14300791 112.4071846 -76.1875 133.6875 C-73.12464928 140.58579739 -69.195343 146.50665403 -64.4375 152.375 C-63.674375 153.40625 -62.91125 154.4375 -62.125 155.5 C-47.97139067 170.64107045 -27.1463669 181.91137287 -6.2109375 182.67578125 C13.04301406 182.88953739 32.0142876 180.6498188 47.890625 168.609375 C50.63264652 166.58489182 53.27367527 167.14008395 56.5625 167.375 C57.2121875 167.60960937 57.861875 167.84421875 58.53125 168.0859375 C60.66288072 168.612525 60.66288072 168.612525 62.5625 167.1171875 C68.05339519 162.1670437 68.05339519 162.1670437 72.5625 156.375 C72.35873822 154.46915804 72.35873822 154.46915804 71.5625 152.375 C71.05317033 145.8723253 72.22864954 142.06607809 75.375 136.4375 C76.11723561 135.02942111 76.85556757 133.6192771 77.58984375 132.20703125 C77.93772949 131.5413916 78.28561523 130.87575195 78.64404297 130.18994141 C80.4161621 126.68809833 81.64662637 123.18310615 82.5625 119.375 C82.76488281 118.54871094 82.96726562 117.72242188 83.17578125 116.87109375 C87.73969455 94.54827971 83.78746251 72.65008711 71.85107422 53.32226562 C58.77189082 33.55728518 39.74829319 21.5753532 16.86547852 16.0012207 C11.1878301 14.92477986 5.57763259 14.84329732 -0.1875 14.875 C-1.41887695 14.88144531 -2.65025391 14.88789063 -3.91894531 14.89453125 C-13.69806284 15.09037128 -21.49266443 16.38437695 -30.4375 20.375 Z " fill="#786C77" transform="translate(255.4375,255.625)"/>
<path d="M0 0 C1.90894043 0.0163147 1.90894043 0.0163147 3.85644531 0.03295898 C31.27667107 0.49839325 52.85724809 11.47278285 72.6875 30.125 C83.56844653 41.40565477 92.66688713 57.13016831 96.5625 72.375 C96.83835937 73.34824219 97.11421875 74.32148438 97.3984375 75.32421875 C104.0937828 101.76776141 97.72707756 127.40534125 85.17578125 150.86328125 C83.5625 153.375 83.5625 153.375 80.5625 155.375 C74.59485014 155.90782588 74.59485014 155.90782588 71.625 154.375 C69.92063862 151.16679034 70.12546963 147.8922578 70.5625 144.375 C71.55146045 141.56239784 72.92266472 139.03561571 74.375 136.4375 C75.11723561 135.02942111 75.85556757 133.6192771 76.58984375 132.20703125 C76.93772949 131.5413916 77.28561523 130.87575195 77.64404297 130.18994141 C79.4161621 126.68809833 80.64662637 123.18310615 81.5625 119.375 C81.76488281 118.54871094 81.96726562 117.72242188 82.17578125 116.87109375 C86.89981462 93.7651074 82.49335619 71.02871327 69.5625 51.375 C57.06501873 33.65622424 38.25503363 20.91102616 16.78125 16.84887695 C1.04709415 14.53243304 -15.81574217 14.85169128 -30.4375 21.375 C-31.0960498 21.65375977 -31.75459961 21.93251953 -32.43310547 22.21972656 C-53.53534867 31.23999904 -68.4741633 47.28400393 -77.4375 68.375 C-85.84207777 90.09033365 -84.09675458 112.51615301 -75.1875 133.6875 C-71.73966482 141.45501507 -67.33270805 148.59535659 -61.19921875 154.546875 C-59.4375 156.375 -59.4375 156.375 -59.4375 158.375 C-58.84324219 158.64183594 -58.24898437 158.90867187 -57.63671875 159.18359375 C-55.39846546 160.3961466 -54.03665857 161.64235374 -52.25 163.4375 C-34.67732549 179.10865376 -12.05489897 182.35555806 10.5625 181.375 C23.55081975 180.49872655 37.42837627 175.50288852 47.890625 167.62109375 C50.72196447 165.51081971 53.17863401 165.95201675 56.5625 166.375 C59 168 59 168 60.5625 170.375 C61.125 173.3125 61.125 173.3125 60.5625 176.375 C50.03678484 188.37699944 30.82646119 195.2151029 15.26953125 197.1328125 C-12.47673353 198.94552948 -39.35512562 194.97452037 -61.109375 176.42578125 C-61.87765625 175.74902344 -62.6459375 175.07226562 -63.4375 174.375 C-64.26765625 173.68792969 -65.0978125 173.00085938 -65.953125 172.29296875 C-84.03636886 156.90002344 -95.24222372 133.73276277 -98.4375 110.375 C-100.60320166 82.60053291 -93.82859815 56.76065555 -75.83984375 35.1875 C-56.13204641 12.50939727 -30.17733142 -0.35253892 0 0 Z " fill="#030303" transform="translate(255.4375,255.625)"/>
<path d="M0 0 C2 1 2 1 3 3 C3.53064628 6.23694232 3.80523389 7.93661019 3 11 C1.030288 13.512875 -1.38737772 15.19355831 -4 17 C-5.2743226 17.93275159 -6.54511177 18.87034785 -7.8125 19.8125 C-8.47378906 20.30363281 -9.13507813 20.79476562 -9.81640625 21.30078125 C-16.04130787 26.14484602 -22.08887927 31.06664961 -26 38 C-24.51296093 41.32307711 -22.58709958 43.84403267 -20.25 46.625 C-10.64702788 58.50604945 -10.64702788 58.50604945 -9.375 65.375 C-10.19313868 68.81118244 -11.05340855 70.0356057 -14 72 C-17.5 72.5 -17.5 72.5 -21 72 C-24.19204355 69.29856236 -26.22896784 66.24910737 -28.375 62.6875 C-37.94740986 47.46050203 -51.71264262 38.76318325 -69 34 C-86.20238015 30.28968271 -103.11280613 34.08551265 -118 43 C-134.1902093 54.07401457 -143.35299534 69.66811511 -147.25 88.75 C-147.50812001 90.1652097 -147.76146719 91.5813575 -148 93 C-147.51015625 92.7834375 -147.0203125 92.566875 -146.515625 92.34375 C-140.22138579 89.9996885 -134.26659497 89.69705969 -127.625 89.6875 C-126.74489258 89.68234375 -125.86478516 89.6771875 -124.95800781 89.671875 C-117.55771122 89.75141754 -117.55771122 89.75141754 -114 92 C-112 95 -112 95 -112.125 98.5 C-113 102 -113 102 -114.46875 103.69140625 C-118.33428196 105.68979083 -122.08532586 105.39997284 -126.375 105.4375 C-145.13607747 106.02879915 -161.57700708 112.56040444 -174.62304688 126.41845703 C-181.35960606 134.1559447 -186.21181305 143.1329162 -189 153 C-189.31710938 154.03060547 -189.31710938 154.03060547 -189.640625 155.08203125 C-190.63508628 158.79705446 -191.04412373 162.36371203 -191.1640625 166.19921875 C-191.19089111 166.95638184 -191.21771973 167.71354492 -191.24536133 168.49365234 C-191.28942744 170.0156158 -191.31084477 171.53843786 -191.30737305 173.06103516 C-191.4077595 176.91429702 -191.65524156 178.63691553 -194.3515625 181.4765625 C-197.6123558 183.35224006 -199.30078141 183.70836101 -203 183 C-206.04530549 180.19234993 -207.25139674 177.97468835 -207.53125 173.91796875 C-207.5481505 172.341202 -207.53627095 170.76394011 -207.5 169.1875 C-207.48864014 168.35017334 -207.47728027 167.51284668 -207.46557617 166.65014648 C-206.78480844 144.37871426 -196.70070374 125.01041702 -181.0546875 109.51953125 C-178.70922961 107.58497838 -176.89246028 106.31347021 -174.2578125 104.94921875 C-167.5748196 101.78241407 -167.5748196 101.78241407 -163.26953125 96.11328125 C-162.3519336 91.55896632 -162.33089371 86.94752908 -162.17236328 82.31787109 C-160.87597365 64.88455211 -149.98121702 49.83963691 -138 38 C-137.34386719 37.33355469 -136.68773437 36.66710938 -136.01171875 35.98046875 C-119.89005758 20.68732979 -98.61735435 16.4551414 -77.171875 16.7265625 C-63.57171535 17.1450927 -51.97734825 21.8736552 -40 28 C-39.6282666 27.5875 -39.2565332 27.175 -38.87353516 26.75 C-31.72569211 18.85543313 -24.72676873 11.19417501 -16 5 C-15.30390625 4.47664063 -14.6078125 3.95328125 -13.890625 3.4140625 C-9.10754122 0.05848822 -5.83216087 -0.79080147 0 0 Z " fill="#010101" transform="translate(207,15)"/>
<path d="M0 0 C1.28471191 0.00491455 2.56942383 0.0098291 3.89306641 0.01489258 C12.89693105 0.12625587 21.08070035 0.73457876 29.75 3.3125 C30.96945312 3.6528125 32.18890625 3.993125 33.4453125 4.34375 C61.59341927 12.89800011 84.93778414 32.68394393 98.765625 58.5078125 C101.16243494 63.07544744 103.52386172 67.65886419 105.75 72.3125 C106.76578125 71.84199219 107.7815625 71.37148437 108.828125 70.88671875 C134.94551841 58.99519979 163.56409094 57.54160962 190.66455078 67.33300781 C206.77798152 73.52633571 224.84028036 85.17547015 234.375 100 C235.9470189 103.78713645 236.22745757 105.48849218 234.75 109.3125 C231.87381053 111.93490804 230.31118897 112.32302641 226.41796875 112.25 C221.87276502 111.08828659 220.00798185 108.88700904 217.1875 105.375 C207.54293318 94.23354482 196.5380189 87.41101804 182.75 82.3125 C181.92757812 81.99667969 181.10515625 81.68085937 180.2578125 81.35546875 C160.90358701 74.36452965 138.66353153 75.47582214 119.875 83.6875 C118.15825243 84.54587379 116.44963276 85.42071738 114.75 86.3125 C113.8734375 86.73015625 112.996875 87.1478125 112.09375 87.578125 C99.61534001 93.81732999 90.3903669 102.86612035 82.32666016 114.09326172 C79.63700908 117.67917253 78.47257762 119.10896767 74.01953125 120.36328125 C70.75 120.3125 70.75 120.3125 68.3125 118.875 C66.19033059 115.39464217 66.13326174 112.24943007 66.75 108.3125 C68.16077483 105.81787311 69.36811185 104.00663405 71.1875 101.875 C71.63762451 101.32005859 72.08774902 100.76511719 72.55151367 100.19335938 C76.63252832 95.24667496 81.09573315 90.7193944 85.75 86.3125 C86.77441727 85.29526323 87.79595883 84.27510753 88.8125 83.25 C89.451875 82.610625 90.09125 81.97125 90.75 81.3125 C85.87908851 68.96279962 80.36392611 58.45336485 71.75 48.3125 C70.97398437 47.33667969 70.19796875 46.36085937 69.3984375 45.35546875 C56.6008915 30.04268561 33.87920235 19.36348647 14.41015625 16.5859375 C3.2228782 15.750175 -8.24395391 15.68873599 -19.375 17.125 C-23.34201556 17.52459719 -23.9645684 17.48483606 -27.5625 15.3125 C-29.25 12.3125 -29.25 12.3125 -29.25 8.6875 C-28.25443385 5.32746423 -27.89577625 4.3868094 -25.25 2.3125 C-17.20505705 -0.32060161 -8.36473451 -0.03774798 0 0 Z " fill="#010101" transform="translate(256.25,-0.3125)"/>
<path d="M0 0 C8.07046095 7.86941744 15.43048259 16.84183169 22 26 C22 26.33 22 26.66 22 27 C21.07767578 27.05607422 21.07767578 27.05607422 20.13671875 27.11328125 C18.92435547 27.21189453 18.92435547 27.21189453 17.6875 27.3125 C16.88699219 27.37050781 16.08648437 27.42851562 15.26171875 27.48828125 C12.5259553 28.10725364 11.72336359 28.81474961 10 31 C9.55662629 33.14426186 9.55662629 33.14426186 9.63110352 35.54394531 C9.62422012 36.46210022 9.61733673 37.38025513 9.61024475 38.32623291 C9.61640305 39.3168573 9.62256134 40.30748169 9.62890625 41.328125 C9.61151751 43.42838699 9.5939332 45.52864737 9.57617188 47.62890625 C9.56611453 50.93801931 9.56249846 54.24702466 9.56420898 57.55615234 C9.56062858 60.75130197 9.53323876 63.94562328 9.50390625 67.140625 C9.51208878 68.12315247 9.5202713 69.10567993 9.52870178 70.11798096 C9.43730675 78.59456052 7.14292688 83.19996771 1.0401001 89.29978943 C0.55764832 89.76675735 0.07519653 90.23372528 -0.421875 90.71484375 C-0.92672424 91.21544815 -1.43157349 91.71605255 -1.95172119 92.23182678 C-3.544162 93.80765846 -5.14677264 95.37265161 -6.75 96.9375 C-7.8405381 98.01296825 -8.9303885 99.08913431 -10.01953125 100.16601562 C-12.6717959 102.78544757 -15.33328089 105.39527543 -18 108 C-22.52615993 104.32167983 -26.39424999 100.58913637 -30 96 C-29.39937744 95.40461426 -28.79875488 94.80922852 -28.17993164 94.19580078 C-25.95461906 91.98752141 -23.73155962 89.77700557 -21.51000977 87.56494141 C-20.54769305 86.60765619 -19.58448108 85.65127006 -18.62036133 84.69580078 C-17.23544555 83.32300212 -15.85400009 81.94670528 -14.47265625 80.5703125 C-13.64000244 79.74289551 -12.80734863 78.91547852 -11.94946289 78.06298828 C-9.2575287 75.21429149 -8.87352491 73.68219052 -8.83886719 69.87329102 C-8.82925964 69.02223282 -8.8196521 68.17117462 -8.80975342 67.29432678 C-8.8033786 65.91306862 -8.8033786 65.91306862 -8.796875 64.50390625 C-8.78832489 63.08717873 -8.78832489 63.08717873 -8.77960205 61.64183044 C-8.77014707 59.64200971 -8.7636161 57.64217336 -8.75976562 55.64233398 C-8.75005022 52.57833823 -8.71902756 49.51501038 -8.6875 46.45117188 C-8.68097105 44.51042066 -8.67572015 42.56966464 -8.671875 40.62890625 C-8.6595282 39.71009171 -8.6471814 38.79127716 -8.63446045 37.84461975 C-8.63746155 36.99040939 -8.64046265 36.13619904 -8.64355469 35.25610352 C-8.63990906 34.50490738 -8.63626343 33.75371124 -8.63250732 32.97975159 C-9.10272291 30.44661253 -9.99378285 29.56868302 -12 28 C-14.27161255 27.42676193 -14.27161255 27.42676193 -16.6875 27.3125 C-17.49574219 27.24675781 -18.30398438 27.18101562 -19.13671875 27.11328125 C-19.75160156 27.07589844 -20.36648438 27.03851563 -21 27 C-16.30382876 19.4403097 -10.75635932 12.7598451 -5 6 C-3.32873376 4.00378128 -1.66407361 2.0022276 0 0 Z " fill="#85B5CE" transform="translate(392,141)"/>
<path d="M0 0 C3.99749539 2.9376612 6.94670304 6.22670894 9.875 10.1875 C10.74448558 11.34267837 11.61427915 12.49762498 12.484375 13.65234375 C12.90783203 14.21808105 13.33128906 14.78381836 13.76757812 15.36669922 C16.06729814 18.41446604 18.44999109 21.3976846 20.8203125 24.390625 C22 26 22 26 22 27 C21.07767578 27.05607422 21.07767578 27.05607422 20.13671875 27.11328125 C18.92435547 27.21189453 18.92435547 27.21189453 17.6875 27.3125 C16.88699219 27.37050781 16.08648437 27.42851562 15.26171875 27.48828125 C12.53521421 28.10515879 11.73385768 28.83957403 10 31 C9.5224275 32.97153698 9.5224275 32.97153698 9.54833984 35.16088867 C9.5259726 35.99573288 9.50360535 36.83057709 9.4805603 37.6907196 C9.47408478 38.59071182 9.46760925 39.49070404 9.4609375 40.41796875 C9.44858063 41.34918045 9.43622375 42.28039215 9.42349243 43.23982239 C9.40391482 45.2126334 9.39269209 47.18554228 9.38916016 49.15844727 C9.3751283 52.16005503 9.30787707 55.1574385 9.23828125 58.15820312 C9.22587532 60.07810655 9.21665962 61.99803377 9.2109375 63.91796875 C9.18421967 64.80783981 9.15750183 65.69771088 9.12997437 66.61454773 C9.19710582 72.85227078 10.86422772 75.90992553 15.23480225 80.33222961 C15.8173175 80.88259384 16.39983276 81.43295807 17 82 C17.68634521 82.72380859 18.37269043 83.44761719 19.07983398 84.19335938 C19.62969971 84.73798828 20.17956543 85.28261719 20.74609375 85.84375 C21.35517578 86.44960937 21.96425781 87.05546875 22.59179688 87.6796875 C23.20087891 88.28039062 23.80996094 88.88109375 24.4375 89.5 C25.39172852 90.44746094 25.39172852 90.44746094 26.36523438 91.4140625 C27.90782806 92.94505774 29.45357314 94.47287667 31 96 C30.13192399 97.06816445 29.25505217 98.12918085 28.375 99.1875 C27.88773438 99.77917969 27.40046875 100.37085938 26.8984375 100.98046875 C24.44967273 103.58543045 21.77690625 105.74813905 19 108 C15.62719454 104.70168735 12.26462247 101.39338673 8.91088867 98.07568359 C7.77005134 96.94987642 6.62652862 95.82678344 5.48022461 94.70654297 C3.827226 93.09018188 2.18432507 91.46410967 0.54296875 89.8359375 C0.0334819 89.34193451 -0.47600494 88.84793152 -1.00093079 88.33895874 C-6.69641336 82.6461633 -8.32995144 78.09826419 -8.41540527 70.23127747 C-8.41238403 69.24358871 -8.40936279 68.25589996 -8.40625 67.23828125 C-8.41708618 66.21067184 -8.42792236 65.18306244 -8.43908691 64.12431335 C-8.48488435 59.74201919 -8.49647353 55.35978577 -8.51123047 50.97729492 C-8.52688142 47.77240691 -8.55986125 44.56801974 -8.59375 41.36328125 C-8.59072876 40.36951981 -8.58770752 39.37575836 -8.58459473 38.35188293 C-8.59470581 37.43050034 -8.60481689 36.50911774 -8.61523438 35.55981445 C-8.61728882 34.74962357 -8.61934326 33.93943268 -8.62145996 33.10469055 C-9.09242091 30.48613778 -9.91605448 29.60678428 -12 28 C-14.27161255 27.42676193 -14.27161255 27.42676193 -16.6875 27.3125 C-17.89986328 27.21388672 -17.89986328 27.21388672 -19.13671875 27.11328125 C-19.75160156 27.07589844 -20.36648437 27.03851563 -21 27 C-17.34748512 22.09794056 -13.6574761 17.22596548 -9.9375 12.375 C-9.5264502 11.83721924 -9.11540039 11.29943848 -8.69189453 10.74536133 C-5.88003361 7.085914 -2.97239449 3.52872502 0 0 Z " fill="#85B5CE" transform="translate(119,141)"/>
<path d="M0 0 C4.16394633 1.5280537 6.2256336 4.54344586 8.75 8 C9.62657075 9.17394943 10.50418918 10.34711724 11.3828125 11.51953125 C11.81883789 12.10428223 12.25486328 12.6890332 12.70410156 13.29150391 C15.23743109 16.63141349 17.92823057 19.84614402 20.6015625 23.07421875 C22 25 22 25 22 27 C21.07767578 27.05607422 21.07767578 27.05607422 20.13671875 27.11328125 C18.92435547 27.21189453 18.92435547 27.21189453 17.6875 27.3125 C16.88699219 27.37050781 16.08648437 27.42851563 15.26171875 27.48828125 C12.41420577 28.13253721 11.68768231 28.60610447 10 31 C9.69039144 33.72685626 9.56250904 36.23035894 9.56762695 38.9597168 C9.5574353 39.76970123 9.54724365 40.57968567 9.53674316 41.41421509 C9.50653875 44.09261932 9.49733598 46.77066637 9.48828125 49.44921875 C9.47144006 51.30582373 9.45329058 53.16241726 9.43388367 55.01899719 C9.38631663 59.90650864 9.35655069 64.79397371 9.33044434 69.68164062 C9.30067258 74.66871299 9.25413067 79.65562543 9.20898438 84.64257812 C9.12287487 94.42832032 9.0571134 104.21404557 9 114 C3.72 114 -1.56 114 -7 114 C-7.01458252 111.50139404 -7.02916504 109.00278809 -7.04418945 106.4284668 C-7.09447875 98.18214176 -7.16106359 89.93600668 -7.23571491 81.68986797 C-7.28048298 76.68917635 -7.3197248 71.68856741 -7.34643555 66.68774414 C-7.37240445 61.86357122 -7.412761 57.03971542 -7.46318626 52.2157383 C-7.4798985 50.37334951 -7.49138557 48.53090582 -7.49761391 46.68845177 C-7.50720783 44.11186689 -7.53520953 41.5361013 -7.56762695 38.9597168 C-7.56619186 38.19439133 -7.56475677 37.42906586 -7.5632782 36.64054871 C-7.62013953 32.58608887 -7.62013953 32.58608887 -9.38566589 29.03450012 C-11.5085845 27.67408808 -13.18365984 27.49393769 -15.6875 27.3125 C-16.89986328 27.21388672 -16.89986328 27.21388672 -18.13671875 27.11328125 C-18.75160156 27.07589844 -19.36648437 27.03851563 -20 27 C-18.27279473 22.95654258 -15.53987811 19.71245129 -12.8125 16.3125 C-11.8227404 15.06654625 -10.83315728 13.82045229 -9.84375 12.57421875 C-9.36035156 11.96755371 -8.87695312 11.36088867 -8.37890625 10.73583984 C-6.50644929 8.37869236 -4.65778576 6.00345235 -2.8125 3.625 C-2.26207031 2.91601562 -1.71164063 2.20703125 -1.14453125 1.4765625 C-0.76683594 0.98929687 -0.38914063 0.50203125 0 0 Z " fill="#88B8D2" transform="translate(255,83)"/>
<path d="M0 0 C3.00339193 2.00226129 3.81463343 3.25853373 4.6875 6.75 C3.62253931 11.78435962 0.56457 14.41769582 -3 18 C-3.49806152 18.50499023 -3.99612305 19.00998047 -4.50927734 19.53027344 C-7.97961499 23.04746533 -11.48026469 26.53228048 -15 30 C-12.1433017 33.49152015 -9.25239606 36.80002283 -5.96484375 39.890625 C-5.42698242 40.40270508 -4.88912109 40.91478516 -4.33496094 41.44238281 C-3.25293639 42.4653995 -2.15874181 43.47572453 -1.05175781 44.47167969 C1.76023837 47.14815799 2.97388123 48.898427 3.94921875 52.69140625 C4 56 4 56 2.5 58.9375 C0 61 0 61 -3.24438477 61.48266602 C-8.25079014 60.83925033 -10.15985318 58.85748967 -13.58984375 55.33984375 C-14.17923233 54.75715225 -14.76862091 54.17446075 -15.37586975 53.57411194 C-16.61377273 52.34095941 -17.84293155 51.09897406 -19.0637207 49.84887695 C-20.93204571 47.94306373 -22.83477969 46.07748746 -24.74414062 44.21289062 C-25.94495909 43.00744627 -27.14360416 41.79983215 -28.33984375 40.58984375 C-28.90847641 40.03538071 -29.47710907 39.48091766 -30.06297302 38.90965271 C-32.91450684 35.93664491 -33.92202613 34.53146001 -34.53833008 30.33081055 C-33.97247673 26.82970523 -33.48509922 25.60015609 -31.046875 23.1171875 C-30.0868457 22.11510254 -30.0868457 22.11510254 -29.10742188 21.09277344 C-28.41197266 20.4021582 -27.71652344 19.71154297 -27 19 C-26.29939453 18.27586914 -25.59878906 17.55173828 -24.87695312 16.80566406 C-22.68948016 14.55628148 -20.47443815 12.33779188 -18.25 10.125 C-17.11884766 8.98804688 -17.11884766 8.98804688 -15.96484375 7.828125 C-15.23910156 7.10367187 -14.51335937 6.37921875 -13.765625 5.6328125 C-13.11368164 4.98199707 -12.46173828 4.33118164 -11.79003906 3.66064453 C-7.84022549 -0.00365333 -5.31367544 -0.55933426 0 0 Z " fill="#050505" transform="translate(223,324)"/>
<path d="M0 0 C5.55307753 1.16435497 8.37081956 4.27196807 12.3046875 8.23193359 C14.11396307 10.05302346 15.94735092 11.84824834 17.78125 13.64453125 C20.44698598 16.27183133 23.10873379 18.90277102 25.75 21.5546875 C26.30429687 22.1101123 26.85859375 22.66553711 27.4296875 23.23779297 C29.82883772 25.85173197 30.83940181 27.56637962 31.35107422 31.10400391 C30.7391714 35.87056997 28.61413752 37.98898835 25.2578125 41.1484375 C24.68545868 41.71325836 24.11310486 42.27807922 23.52340698 42.86001587 C21.69807817 44.65290876 19.84961319 46.4197068 18 48.1875 C16.762782 49.39816687 15.52708636 50.61039159 14.29296875 51.82421875 C4.26262215 61.63150581 4.26262215 61.63150581 0 62.1875 C-3.125 61.8125 -3.125 61.8125 -5.5625 59.75 C-7.14388829 56.77699001 -7.53791003 55.16525942 -6.96948242 51.86108398 C-5.02466251 47.14325112 -0.71025994 43.80704707 2.9375 40.375 C4.21850586 39.13459961 4.21850586 39.13459961 5.52539062 37.86914062 C7.62901417 35.8360296 9.74533353 33.8182563 11.875 31.8125 C7.98067183 27.13703952 3.9179029 22.74692462 -0.4375 18.5 C-6.98388097 12.11079504 -6.98388097 12.11079504 -7.4375 7.9375 C-7.125 4.8125 -7.125 4.8125 -5.5625 2.4375 C-3.125 0.8125 -3.125 0.8125 0 0 Z " fill="#050505" transform="translate(292.125,323.1875)"/>
<path d="M0 0 C3.97724872 0.46791161 5.52534846 1.39965416 8.1875 4.375 C8.56503287 8.69124949 7.87826513 11.97017922 6.39916992 16.00976562 C6.00843796 17.09108765 5.61770599 18.17240967 5.21513367 19.28649902 C4.78706924 20.43976685 4.35900482 21.59303467 3.91796875 22.78125 C3.48116287 23.97931274 3.04435699 25.17737549 2.59431458 26.41174316 C1.66980748 28.9418018 0.7418493 31.47022537 -0.19262695 33.99658203 C-1.38519221 37.22103053 -2.56622318 40.44954466 -3.74307728 43.67975616 C-4.87251729 46.77769438 -6.00850588 49.87322171 -7.14453125 52.96875 C-7.56652298 54.12201782 -7.98851471 55.27528564 -8.42329407 56.46350098 C-13.6567663 70.60451087 -13.6567663 70.60451087 -17.8125 73.375 C-23.91456897 73.15706897 -23.91456897 73.15706897 -26.75 70.6875 C-28.94445157 65.91134071 -27.75796118 61.4746603 -26.02416992 56.72436523 C-25.63343796 55.63981552 -25.24270599 54.55526581 -24.84013367 53.43785095 C-24.41206924 52.28144608 -23.98400482 51.1250412 -23.54296875 49.93359375 C-22.88775993 48.13294212 -22.88775993 48.13294212 -22.21931458 46.2959137 C-21.29486556 43.76163711 -20.3668853 41.22903159 -19.43237305 38.69848633 C-18.23866942 35.46536523 -17.05808832 32.22764909 -15.88192272 28.98811245 C-14.75381973 25.88451179 -13.61698642 22.78412101 -12.48046875 19.68359375 C-12.05847702 18.52516464 -11.63648529 17.36673553 -11.20170593 16.17320251 C-10.60142326 14.55110619 -10.60142326 14.55110619 -9.98901367 12.89624023 C-9.64037766 11.94837143 -9.29174164 11.00050262 -8.93254089 10.02391052 C-4.97457692 0.66327692 -4.97457692 0.66327692 0 0 Z " fill="#040404" transform="translate(265.8125,317.625)"/>
</svg>
