<?xml version="1.0" encoding="UTF-8"?>
<svg version="1.1" xmlns="http://www.w3.org/2000/svg" width="512" height="512">
<path d="M0 0 C0.55929199 0.45246094 1.11858398 0.90492187 1.69482422 1.37109375 C16.32457668 13.28475699 30.7486354 27.54907378 38.8125 44.88671875 C41.083794 48.11925681 41.32805681 48.45736709 44.87890625 49.3125 C46.43635234 49.56591268 47.99812332 49.79364616 49.5625 50 C81.69737908 55.53537223 111.11194828 74.37511039 130.3125 100.75 C139.72986215 114.33041874 146.63524003 129.0856438 151 145 C151.33902344 146.17433594 151.67804688 147.34867188 152.02734375 148.55859375 C159.62512423 180.52529227 153.10515947 216.45563048 136.30859375 244.359375 C118.43368483 272.98920815 91.33357611 293.56147541 58.875 302.8125 C58.19590576 303.0074707 57.51681152 303.20244141 56.81713867 303.40332031 C45.79487698 306.34466512 34.58383198 307.29951851 23.2137146 307.26742554 C22.00713247 307.27195665 20.80055034 307.27648776 19.55740511 307.28115618 C16.25273976 307.29152608 12.94821347 307.29314344 9.64353728 307.29076743 C6.06189318 307.29035548 2.48028028 307.30143411 -1.10134888 307.31088257 C-8.10193146 307.3274123 -15.10248034 307.33298846 -22.10308082 307.33410732 C-27.80052037 307.33506162 -33.49794892 307.33919085 -39.19538498 307.34550858 C-55.39127164 307.36309903 -71.58713192 307.37235088 -87.7830282 307.37084763 C-88.65400878 307.37076772 -89.52498935 307.3706878 -90.42236328 307.37060547 C-91.73045139 307.37048283 -91.73045139 307.37048283 -93.06496553 307.37035771 C-107.1864369 307.36954542 -121.30780147 307.38867447 -135.42924197 307.4168822 C-149.97078891 307.44569714 -164.5122839 307.45941778 -179.05386007 307.45769465 C-187.20105914 307.45703372 -195.34814621 307.4623949 -203.49531937 307.48405075 C-210.43340101 307.50237635 -217.37131989 307.50651752 -224.30941541 307.4930319 C-227.84011896 307.48655903 -231.37051131 307.48617521 -234.90118408 307.5037384 C-266.05077153 307.63016377 -294.67761533 302.80964539 -319 282 C-319.79792969 281.33484375 -320.59585938 280.6696875 -321.41796875 279.984375 C-336.69078535 266.8189703 -347.78143124 250.15913705 -354 231 C-354.21027832 230.36384766 -354.42055664 229.72769531 -354.63720703 229.07226562 C-360.90179884 209.13270974 -360.58110692 184.81844754 -354 165 C-353.78569336 164.3507959 -353.57138672 163.7015918 -353.35058594 163.03271484 C-343.90658056 135.46364237 -324.01279797 112.92310581 -298.125 99.6875 C-285.90248705 93.70564097 -273.51871183 90.41524014 -260 89 C-259.7215625 87.1128125 -259.7215625 87.1128125 -259.4375 85.1875 C-254.03234443 58.61215179 -238.734673 34.18073664 -220 15 C-219.08943496 14.01851155 -218.18059179 13.03542299 -217.2734375 12.05078125 C-161.66096615 -47.22844645 -62.0311787 -50.46604369 0 0 Z " fill="#2196F3" transform="translate(358,120)"/>
<path d="M0 0 C5.01282004 2.84840615 7.57738463 5.80843214 9.77734375 11.125 C10.43277191 17.96147982 8.44453796 24.22576737 6.77734375 30.8125 C4.22458753 41.01893085 1.81430967 51.24706684 -0.44243622 61.52292633 C-1.30139158 65.43207961 -2.16781796 69.33958049 -3.03320312 73.24731445 C-3.21262829 74.05815428 -3.39205345 74.8689941 -3.57691574 75.70440483 C-6.45032799 88.68170241 -9.37009701 101.64852832 -12.32112885 114.60838604 C-13.25233876 118.69856528 -14.17923038 122.78963223 -15.09716797 126.8828125 C-16.01151192 130.95941652 -16.93596873 135.03360469 -17.86756134 139.10630035 C-18.21395251 140.62838844 -18.55684705 142.15127728 -18.89592743 143.67501068 C-23.12695046 162.6610709 -23.12695046 162.6610709 -29.28515625 167.5625 C-33.82768612 169.97873929 -37.09679801 170.47251581 -42.22265625 170.125 C-47.89815178 168.08182161 -51.52139346 164.52752559 -54.22265625 159.125 C-55.08614294 149.74833208 -53.19600345 141.0784848 -51.00390625 132.01953125 C-50.66322011 130.56900513 -50.32368877 129.11820737 -49.98522949 127.66716003 C-49.09261885 123.85483004 -48.18402508 120.04648796 -47.27197266 116.23876953 C-46.37565938 112.48381443 -45.49532926 108.7251231 -44.61328125 104.96679688 C-41.80767476 93.03815095 -38.96095225 81.11971932 -36.04907227 69.21655273 C-35.34757136 66.34755395 -34.64625218 63.47851095 -33.9453125 60.609375 C-33.77624956 59.91757015 -33.60718662 59.2257653 -33.43300056 58.51299667 C-31.47118229 50.47041937 -29.58388186 42.42239059 -27.9375 34.30859375 C-27.78233917 33.55262405 -27.62717834 32.79665436 -27.46731567 32.01777649 C-26.87341124 29.11331904 -26.28310864 26.20902757 -25.72924805 23.29663086 C-22.55195839 6.7446333 -22.55195839 6.7446333 -15.22265625 1.125 C-10.28848367 -1.63933602 -5.33487924 -2.1001985 0 0 Z " fill="#D8D9DA" transform="translate(289.22265625,192.875)"/>
<path d="M0 0 C5.42518811 2.5940559 9.40398941 5.92549256 13.671875 10.12207031 C14.99008435 11.38592719 16.30908537 12.64895891 17.62890625 13.91113281 C18.24717285 14.50700195 18.86543945 15.10287109 19.50244141 15.71679688 C21.40755294 17.53442596 23.36263285 19.28079299 25.359375 20.99707031 C28.69362866 23.86641714 31.93671375 26.82959356 35.171875 29.80957031 C38.47210284 32.84851523 41.78136974 35.87113242 45.171875 38.80957031 C48.63249527 41.82577409 52.07123599 44.864789 55.484375 47.93457031 C56.2587793 48.6180957 56.2587793 48.6180957 57.04882812 49.31542969 C60.87237184 52.77721894 63.76573515 55.79589396 64.60546875 60.99316406 C64.60675781 61.90195312 64.60804688 62.81074219 64.609375 63.74707031 C64.63837891 65.10638672 64.63837891 65.10638672 64.66796875 66.49316406 C63.45482551 73.38037883 57.86470521 77.76443675 52.921875 82.24707031 C51.91000122 83.17773315 51.91000122 83.17773315 50.87768555 84.12719727 C47.03088555 87.65447554 43.14750087 91.13555676 39.19140625 94.54003906 C36.47701264 96.9184149 33.82616743 99.3646766 31.171875 101.80957031 C27.24377547 105.42624418 23.28256968 108.99439374 19.2421875 112.48535156 C15.69341516 115.6122887 12.245126 118.85056359 8.78515625 122.07519531 C3.18699232 126.86166732 -0.57686097 127.92122813 -7.87890625 127.72363281 C-12.25081809 127.10982797 -14.88829409 125.55885711 -17.828125 122.30957031 C-21.09428527 117.67372993 -21.76829504 112.83998233 -20.828125 107.30957031 C-18.65164569 101.43226101 -14.68013596 97.96971886 -10.140625 93.87207031 C-9.45806641 93.24236328 -8.77550781 92.61265625 -8.07226562 91.96386719 C-4.00732284 88.22903307 0.13214492 84.58452853 4.29467773 80.95922852 C7.53761834 78.10937162 10.69562981 75.1686809 13.85742188 72.22949219 C16.17021739 70.09343204 18.49883776 68.05192184 20.97265625 66.10253906 C23.24922951 64.49706651 23.24922951 64.49706651 24.171875 62.30957031 C23.58180664 62.04168701 22.99173828 61.77380371 22.38378906 61.49780273 C20.15003042 60.29783548 18.60914075 59.04345019 16.78125 57.29785156 C16.15839111 56.7085083 15.53553223 56.11916504 14.89379883 55.51196289 C14.24306396 54.88829834 13.5923291 54.26463379 12.921875 53.62207031 C11.56725166 52.33992652 10.21179257 51.05866511 8.85546875 49.77832031 C8.21206543 49.16988281 7.56866211 48.56144531 6.90576172 47.93457031 C4.96880399 46.119252 2.99449213 44.3559557 0.984375 42.62207031 C-2.3887954 39.70753273 -5.713039 36.74118126 -9.015625 33.74707031 C-9.76525513 33.07575073 -9.76525513 33.07575073 -10.5300293 32.39086914 C-20.44955481 23.35675007 -20.44955481 23.35675007 -21.06640625 18.39160156 C-21.25111269 12.74347295 -20.65419057 8.62863032 -16.828125 4.30957031 C-11.76632327 -0.0275483 -6.65377898 -2.51293896 0 0 Z " fill="#D9D9DA" transform="translate(340.828125,213.6904296875)"/>
<path d="M0 0 C4.79296738 2.44170037 7.6602877 5.14059753 10 10 C11.08479297 16.6969362 9.9840953 21.45634108 6 27 C4.04860255 29.16071574 1.9386887 31.08303248 -0.25 33 C-0.83064209 33.52198975 -1.41128418 34.04397949 -2.00952148 34.58178711 C-3.66417144 36.06490863 -5.32922722 37.53508935 -7 39 C-8.09248047 39.96099609 -8.09248047 39.96099609 -9.20703125 40.94140625 C-10.43728334 42.01625807 -11.67033391 43.08791576 -12.90625 44.15625 C-15.66297026 46.58380963 -18.36143316 49.07348496 -21.0625 51.5625 C-25.30097308 55.46728205 -29.58897723 59.29073086 -34 63 C-30.15498513 66.89570245 -26.20283765 70.65556369 -22.1875 74.375 C-21.56439941 74.9529834 -20.94129883 75.5309668 -20.29931641 76.12646484 C-16.60772614 79.54096937 -12.87621838 82.89667504 -9.0703125 86.18359375 C-6.26220353 88.647312 -3.50504937 91.16473423 -0.75 93.6875 C-0.24194824 94.15172363 0.26610352 94.61594727 0.78955078 95.09423828 C9.74267675 103.31287029 9.74267675 103.31287029 10.23828125 108.48828125 C10.39682895 114.52143861 10.29537816 118.36551304 6 123 C2.40065249 126.33598062 -0.51666903 127.33028413 -5.3125 127.625 C-14.0467506 127.2813185 -19.51102494 121.80822387 -25.2734375 115.76953125 C-27.62118956 113.36335097 -30.15451033 111.20950954 -32.69921875 109.015625 C-35.5077302 106.55519731 -38.25461879 104.03025008 -41 101.5 C-44.90557812 97.9034094 -48.8494283 94.36202539 -52.86328125 90.88671875 C-56.19201581 87.94745222 -59.44788872 84.928655 -62.70117188 81.90625 C-64.99183238 79.78944788 -67.2980193 77.76547913 -69.75 75.8359375 C-73.14810321 73.06317967 -74.6687028 70.21403495 -75.3203125 65.859375 C-75.63820101 59.62876019 -73.77267548 55.0733788 -69.58178711 50.42797852 C-68.01004984 48.90174088 -66.39802055 47.4434222 -64.75 46 C-64.16935791 45.47801025 -63.58871582 44.95602051 -62.99047852 44.41821289 C-61.33582856 42.93509137 -59.67077278 41.46491065 -58 40 C-57.27167969 39.35933594 -56.54335937 38.71867187 -55.79296875 38.05859375 C-54.56133333 36.98253333 -53.32697406 35.90958222 -52.08984375 34.83984375 C-49.35629441 32.43329844 -46.67885994 29.96696804 -44 27.5 C-40.09352439 23.90290034 -36.15107296 20.35856304 -32.1328125 16.88671875 C-30.41684209 15.36874492 -28.73111804 13.83047435 -27.0546875 12.26953125 C-26.53003906 11.78226563 -26.00539062 11.295 -25.46484375 10.79296875 C-24.43541149 9.83435739 -23.4091491 8.87232592 -22.38671875 7.90625 C-15.16136114 1.18453662 -9.76075465 -2.13934349 0 0 Z " fill="#D9D9DA" transform="translate(203,214)"/>
<path d="M0 0 C5.01282004 2.84840615 7.57738463 5.80843214 9.77734375 11.125 C10.43224322 17.9559653 8.45944575 24.2328554 6.77734375 30.8125 C6.1361287 33.38338102 5.49731666 35.95469764 4.86328125 38.52734375 C4.69597504 39.20459503 4.52866882 39.88184631 4.35629272 40.57962036 C2.01866504 50.11805127 -0.04715616 59.72011792 -2.12695312 69.31747437 C-2.622227 71.60288879 -3.12152346 73.88739668 -3.62109375 76.171875 C-3.76872162 76.862173 -3.91634949 77.55247101 -4.06845093 78.26368713 C-5.10976514 83.01210889 -5.10976514 83.01210889 -6.22265625 84.125 C-8.59834145 84.2133967 -10.94474299 84.24030305 -13.3203125 84.22265625 C-14.38360023 84.22053383 -14.38360023 84.22053383 -15.46836853 84.21836853 C-17.74067337 84.21275443 -20.012881 84.20019963 -22.28515625 84.1875 C-23.82226421 84.18248681 -25.3593737 84.17792359 -26.89648438 84.17382812 C-30.67191267 84.16278042 -34.44726796 84.14550641 -38.22265625 84.125 C-37.64642085 78.16629368 -36.76018493 72.48132087 -35.3671875 66.6640625 C-35.18515274 65.8835704 -35.00311798 65.10307831 -34.81556702 64.29893494 C-34.22739125 61.78134565 -33.63192604 59.26556499 -33.03515625 56.75 C-32.20847849 53.25187756 -31.38431809 49.75317354 -30.5625 46.25390625 C-30.35892883 45.38855759 -30.15535767 44.52320892 -29.94561768 43.63163757 C-28.72049397 38.38346159 -27.58496239 33.12645731 -26.5390625 27.83984375 C-26.29115967 26.61765137 -26.04325684 25.39545898 -25.7878418 24.13623047 C-25.34260693 21.91147359 -24.91680385 19.68269709 -24.51489258 17.44970703 C-23.09730349 10.48775695 -20.71341329 5.76541856 -15.22265625 1.125 C-10.31418136 -1.66414039 -5.31371418 -2.09186639 0 0 Z " fill="#F7F8F9" transform="translate(289.22265625,192.875)"/>
<path d="M0 0 C5.42518811 2.5940559 9.40398941 5.92549256 13.671875 10.12207031 C14.99008435 11.38592719 16.30908537 12.64895891 17.62890625 13.91113281 C18.24717285 14.50700195 18.86543945 15.10287109 19.50244141 15.71679688 C21.40755294 17.53442596 23.36263285 19.28079299 25.359375 20.99707031 C28.69362866 23.86641714 31.93671375 26.82959356 35.171875 29.80957031 C38.47210284 32.84851523 41.78136974 35.87113242 45.171875 38.80957031 C48.63249527 41.82577409 52.07123599 44.864789 55.484375 47.93457031 C56.2587793 48.6180957 56.2587793 48.6180957 57.04882812 49.31542969 C60.07268402 52.05319146 62.45361838 54.59156792 64.171875 58.30957031 C64.21676705 59.97563228 64.22268765 61.6436784 64.171875 63.30957031 C58.6219053 63.48348465 53.0735436 63.61004246 47.52148438 63.6940918 C45.63578644 63.72914975 43.75027681 63.77681222 41.86523438 63.83764648 C24.162002 64.39438133 24.162002 64.39438133 19.1953125 60.05566406 C18.14936711 58.83872907 17.135802 57.59244882 16.171875 56.30957031 C15.30820312 55.53871094 14.44453125 54.76785156 13.5546875 53.97363281 C12.43707031 52.96429688 12.43707031 52.96429688 11.296875 51.93457031 C10.45382812 51.17402344 9.61078125 50.41347656 8.7421875 49.62988281 C7.89398438 48.86417969 7.04578125 48.09847656 6.171875 47.30957031 C4.50546649 45.80928352 2.83880147 44.30928159 1.171875 42.80957031 C0.35203125 42.06964844 -0.4678125 41.32972656 -1.3125 40.56738281 C-3.0230412 39.03214552 -4.742153 37.50641553 -6.46875 35.98925781 C-20.40989611 23.67597008 -20.40989611 23.67597008 -21.06640625 18.39160156 C-21.25111269 12.74347295 -20.65419057 8.62863032 -16.828125 4.30957031 C-11.76632327 -0.0275483 -6.65377898 -2.51293896 0 0 Z " fill="#F7F8F9" transform="translate(340.828125,213.6904296875)"/>
<path d="M0 0 C4.79296738 2.44170037 7.6602877 5.14059753 10 10 C11.08479297 16.6969362 9.9840953 21.45634108 6 27 C4.04860255 29.16071574 1.9386887 31.08303248 -0.25 33 C-0.83064209 33.52198975 -1.41128418 34.04397949 -2.00952148 34.58178711 C-3.66417144 36.06490863 -5.32922722 37.53508935 -7 39 C-8.09248047 39.96099609 -8.09248047 39.96099609 -9.20703125 40.94140625 C-10.43728334 42.01625807 -11.67033391 43.08791576 -12.90625 44.15625 C-16.65421949 47.45670074 -20.30641833 50.86325132 -23.97265625 54.25390625 C-24.4682605 54.6978624 -24.96386475 55.14181854 -25.4744873 55.59922791 C-26.51302617 56.55284583 -27.51963217 57.54216377 -28.49523926 58.56007385 C-32.48881351 62.48038092 -35.30929721 63.6829402 -40.89170837 63.67977905 C-41.73053055 63.64881134 -42.56935272 63.61784363 -43.43359375 63.5859375 C-44.31153091 63.57744781 -45.18946808 63.56895813 -46.0940094 63.56021118 C-48.87646337 63.52683419 -51.65593403 63.45159001 -54.4375 63.375 C-56.3326402 63.34487985 -58.22782619 63.31750765 -60.12304688 63.29296875 C-64.74983357 63.22709507 -69.37441243 63.12368729 -74 63 C-74.14771959 55.26038851 -74.14771959 55.26038851 -71.5 52.5 C-70.94570312 51.91734375 -70.39140625 51.3346875 -69.8203125 50.734375 C-67.38773626 48.41664142 -64.89525987 46.19251989 -62.3359375 44.015625 C-59.50168075 41.57001215 -56.75057588 39.03859702 -54 36.5 C-50.09064715 32.89937585 -46.14132314 29.35581339 -42.125 25.875 C-39.38175942 23.45449361 -36.69143082 20.97769955 -34 18.5 C-11.19756431 -2.45426067 -11.19756431 -2.45426067 0 0 Z " fill="#F8F9F9" transform="translate(203,214)"/>
</svg>
