<?xml version="1.0" encoding="UTF-8"?>
<svg version="1.1" xmlns="http://www.w3.org/2000/svg" width="512" height="512">
<path d="M0 0 C2.45480032 0.00564413 4.90959372 0.00846221 7.36439896 0.0110817 C31.03202864 0.04779325 54.52662781 0.39658293 78.04234695 3.31805801 C79.52850678 3.49681498 81.01467231 3.67552461 82.50084305 3.85419083 C125.6904188 9.13019997 181.24443613 16.12155801 212.31578445 49.81415176 C217.958319 57.99710345 217.46760421 66.57358626 217.42329788 76.10809708 C217.42675676 77.72622493 217.43152286 79.34435042 217.43747962 80.96247101 C217.4499877 85.39843264 217.44382009 89.83420031 217.43452096 94.27016258 C217.42773004 99.05823573 217.43821192 103.84627566 217.44646072 108.63434219 C217.45979977 118.01001091 217.45691954 127.38560757 217.4482228 136.76127911 C217.44144735 144.38116357 217.44052894 152.00102785 217.44379425 159.62091446 C217.44425395 160.70546236 217.44471365 161.79001027 217.44518728 162.90742326 C217.44614646 165.11066914 217.44711909 167.31391502 217.44810505 169.51716089 C217.45665945 190.17645907 217.44682402 210.83571732 217.43070395 231.49500895 C217.41730073 249.22120155 217.41962881 266.94733522 217.43346024 284.67352676 C217.44951515 305.25895915 217.45583547 325.84435654 217.44662344 346.42979431 C217.4456678 348.62493006 217.44472469 350.82006581 217.44379425 353.01520157 C217.44333142 354.09524719 217.4428686 355.17529282 217.44239175 356.2880671 C217.4398016 363.89869925 217.4441734 371.50930919 217.45123291 379.1199379 C217.45964711 388.39489047 217.45736941 397.66976688 217.44139068 406.94471073 C217.43350693 411.67682271 217.43041818 416.4088077 217.44033813 421.14091873 C217.44928331 425.4735639 217.44435507 429.80596446 217.42840548 434.13858747 C217.42505694 435.70509967 217.42675341 437.27163257 217.43403284 438.83813143 C217.48657892 451.08623054 216.31308286 458.76773515 207.58922195 467.88055801 C174.89005784 499.17546355 117.14276215 505.06708227 74.22984695 509.56805801 C73.43841293 509.65114212 72.64697891 509.73422623 71.83156204 509.81982803 C69.520835 510.05917471 67.20956043 510.2918877 64.8978157 510.52118301 C63.91299713 510.62083862 63.91299713 510.62083862 62.90828323 510.72250748 C49.80687976 511.98104445 36.74582267 512.48378667 23.5931282 512.52118301 C22.05730027 512.5282043 20.52147264 512.53529113 18.98564529 512.54243851 C14.10870821 512.56182784 9.2318187 512.5668719 4.35484695 512.56805801 C3.10960314 512.5687208 3.10960314 512.5687208 1.83920288 512.56939697 C-21.83682432 512.57600872 -45.41519369 512.56790002 -68.94074631 509.57452774 C-71.07718539 509.30285829 -73.21480821 509.04212599 -75.35267258 508.7819252 C-175.2038105 496.46677205 -175.2038105 496.46677205 -206.23109055 462.82196426 C-211.87134922 454.64231311 -211.38530835 446.06587969 -211.3453331 436.53474808 C-211.34950857 434.91733237 -211.35498726 433.29991959 -211.36165291 431.68251222 C-211.37609819 427.24848702 -211.37186567 422.81464784 -211.3644861 418.38061249 C-211.35975449 413.59456078 -211.37226419 408.80854932 -211.38250351 404.02251053 C-211.39969672 394.65052145 -211.40053046 385.27859939 -211.39529061 375.90659864 C-211.3912488 368.28910554 -211.39269259 360.67163224 -211.39803886 353.05414009 C-211.3991615 351.42775132 -211.3991615 351.42775132 -211.40030681 349.76850621 C-211.40183829 347.56582606 -211.40337664 345.36314591 -211.40492178 343.16046577 C-211.4186486 322.5059088 -211.41320774 301.85138971 -211.40173656 281.1968336 C-211.39180305 262.30172779 -211.4047466 243.40671988 -211.42867076 224.51162917 C-211.45305379 205.10787932 -211.46267164 185.70417508 -211.45601803 166.30041021 C-211.45252417 155.40754724 -211.45476899 144.51475958 -211.47226906 133.62190819 C-211.48698102 124.34953072 -211.48763955 115.0772816 -211.47019815 105.80490667 C-211.4616777 101.07465828 -211.45956416 96.34463928 -211.4748497 91.61440277 C-211.48867548 87.28226061 -211.48396087 82.95054481 -211.46461046 78.61842745 C-211.46084368 77.05324215 -211.463792 75.48802286 -211.47422212 73.92286778 C-211.54654992 62.23609893 -210.07815228 53.89778676 -201.9068718 45.21258926 C-171.26673326 15.43209389 -118.29096707 9.32908513 -77.95765305 4.13055801 C-76.18321823 3.89816422 -76.18321823 3.89816422 -74.37293625 3.66107559 C-49.61865512 0.63212639 -24.90440735 -0.05817087 0 0 Z " fill="#3870CF" transform="translate(252.9576530456543,-0.3180580139160156)"/>
<path d="M0 0 C2.45480032 0.00564413 4.90959372 0.00846221 7.36439896 0.0110817 C31.03202864 0.04779325 54.52662781 0.39658293 78.04234695 3.31805801 C79.52850678 3.49681498 81.01467231 3.67552461 82.50084305 3.85419083 C125.6904188 9.13019997 181.24443613 16.12155801 212.31578445 49.81415176 C217.45455536 57.26653219 217.4793603 64.49194558 217.44639969 73.26068497 C217.45669456 75.18177078 217.45669456 75.18177078 217.46719742 77.14166641 C217.48505672 80.6356949 217.4839738 84.12947125 217.47825503 87.62353158 C217.47515157 90.55063097 217.48126869 93.47768273 217.48729378 96.40477532 C217.5013147 103.31690966 217.49979907 110.22892034 217.48839188 117.14105606 C217.47692273 124.24729247 217.49097136 131.35315093 217.51778835 138.45933753 C217.54001962 144.58193994 217.54656581 150.70442436 217.54071194 156.82706422 C217.53735765 160.47429882 217.5396542 164.12129147 217.55696297 167.76849174 C217.57545124 171.8416496 217.56116913 175.91408351 217.54405594 179.98724747 C217.55372391 181.1787793 217.56339188 182.37031113 217.57335281 183.59794998 C217.47212668 195.15369324 214.60667989 203.72196875 206.5071907 212.04462051 C168.24120385 247.33908066 96.94481448 252.39331093 48.04234695 255.31805801 C47.33935471 255.36075821 46.63636246 255.4034584 45.91206741 255.44745255 C32.96917735 256.21700683 20.06898975 256.484477 7.10484695 256.44305801 C6.17047806 256.44084244 5.23610916 256.43862686 4.27342606 256.43634415 C-2.13716071 256.41864963 -8.54732281 256.37744674 -14.95765305 256.31805801 C-15.67406967 256.31181412 -16.3904863 256.30557022 -17.12861252 256.29913712 C-70.60215445 255.78558177 -131.67172434 249.75505035 -179.95765305 225.31805801 C-180.92058273 224.83594864 -181.88351242 224.35383926 -182.8756218 223.85712051 C-195.05674883 217.5061329 -205.53386777 209.7568143 -210.14477158 196.43746185 C-211.56713425 190.97919547 -211.51341472 185.61474438 -211.47523117 180.00311661 C-211.48224045 178.71874207 -211.48924973 177.43436752 -211.49647141 176.11107254 C-211.51454526 172.62140445 -211.50770527 169.13221484 -211.49495506 165.6425395 C-211.48474813 161.97256888 -211.4942415 158.30263615 -211.50049973 154.63266373 C-211.50775211 148.47466126 -211.49825021 142.31685146 -211.47913742 136.15887833 C-211.45735377 129.05877374 -211.4644403 121.95912845 -211.48644304 114.8590349 C-211.50464299 108.73893813 -211.50713361 102.61897893 -211.49668837 96.49886382 C-211.49048103 92.85398882 -211.48954139 89.20932919 -211.50283432 85.56446838 C-211.5166231 81.50077584 -211.49746862 77.43786546 -211.47523117 73.37421036 C-211.48332809 72.18020111 -211.49142502 70.98619186 -211.4997673 69.75600052 C-211.39777094 59.66824118 -208.83168863 52.57292917 -201.9068718 45.21258926 C-171.26673326 15.43209389 -118.29096707 9.32908513 -77.95765305 4.13055801 C-76.18321823 3.89816422 -76.18321823 3.89816422 -74.37293625 3.66107559 C-49.61865512 0.63212639 -24.90440735 -0.05817087 0 0 Z " fill="#61C5F9" transform="translate(252.9576530456543,-0.3180580139160156)"/>
<path d="M0 0 C1.05688501 2.09638069 2.08426347 4.18840932 3.04296875 6.33203125 C11.16567466 23.93584782 30.22139366 31.76945489 47.47729492 38.34106445 C93.52013264 55.29331379 144.98190852 61.47578818 193.87432861 61.97784424 C196.20777794 62.00216566 198.54112597 62.03222961 200.87451172 62.06201172 C236.24547114 62.47967771 270.96068903 60.92096546 306 56 C307.0842627 55.84805176 308.16852539 55.69610352 309.28564453 55.53955078 C341.080008 50.951144 374.87147004 44.13497537 403 28 C404.56427734 27.10474609 404.56427734 27.10474609 406.16015625 26.19140625 C415.92098825 20.29286847 421.35024462 14.39664406 426 4 C426.66283549 2.66475795 427.32892038 1.33111771 428 0 C428.09362145 16.64676617 428.16406613 33.29344636 428.20724869 49.94041252 C428.22783592 57.67065123 428.25588257 65.40072595 428.30175781 73.13085938 C428.34174374 79.87186203 428.36746069 86.61274587 428.37635398 93.35386384 C428.38154898 96.92020075 428.39367768 100.48619785 428.42292023 104.05242538 C428.45537207 108.0427505 428.45595193 112.03249241 428.45410156 116.02294922 C428.46848267 117.19324173 428.48286377 118.36353424 428.49768066 119.56929016 C428.44115448 130.86878026 425.29025146 138.56160667 417.46484375 146.69140625 C378.89588348 182.8154245 307.96035869 186.40319754 258 190 C256.91783203 190.08685059 255.83566406 190.17370117 254.72070312 190.26318359 C183.64498666 195.45316446 71.61396513 196.5623357 13.03125 148.8046875 C5.92886961 142.49449569 0.80743851 135.71960284 -0.35651398 126.03304672 C-0.48938949 122.68946364 -0.49521848 119.3689249 -0.45410156 116.02294922 C-0.45468567 114.76327835 -0.45526978 113.50360748 -0.45587158 112.20576477 C-0.45701006 108.78267816 -0.43364348 105.36016264 -0.40557575 101.9372077 C-0.38041575 98.34847829 -0.37820869 94.75973296 -0.37347412 91.17092896 C-0.36108689 84.38897923 -0.32832363 77.60729022 -0.28807616 70.82545483 C-0.24322519 63.0986838 -0.22133807 55.37189972 -0.20129442 47.64503074 C-0.15958661 31.76320331 -0.08931835 15.8816354 0 0 Z " fill="#468FF0" transform="translate(42,193)"/>
<path d="M0 0 C1.53306609 -0.0070219 3.06613188 -0.01410872 4.59919739 -0.02125549 C9.46978172 -0.04065052 14.34031844 -0.0456892 19.2109375 -0.046875 C20.04024403 -0.04731686 20.86955055 -0.04775871 21.72398758 -0.04821396 C46.45763938 -0.05512732 71.00744277 0.149616 95.5859375 3.203125 C97.07209733 3.38188197 98.55826285 3.5605916 100.04443359 3.73925781 C201.22271379 16.09912757 201.22271379 16.09912757 229.91796875 49.94921875 C233.35605082 54.59505798 234.90158692 58.7742485 234.5859375 64.578125 C232.92589427 74.73059993 227.11517307 82.42026328 218.96484375 88.390625 C165.85373512 125.58002273 84.82596588 128.45127535 22.0859375 128.390625 C21.020336 128.39035309 19.9547345 128.39008118 18.85684204 128.38980103 C-0.29632466 128.36748194 -19.32441784 127.76320723 -38.4140625 126.203125 C-39.6107959 126.10660645 -40.8075293 126.01008789 -42.04052734 125.91064453 C-82.53756282 122.48002906 -125.86019398 115.70264709 -162.4140625 97.203125 C-163.37699219 96.72101563 -164.33992188 96.23890625 -165.33203125 95.7421875 C-177.0957917 89.60880619 -188.22470731 81.64988767 -192.8203125 68.71484375 C-194.28637542 62.51301178 -192.88406052 56.73650222 -189.81640625 51.234375 C-170.51276314 23.27366632 -123.3300681 14.64125529 -92.44085693 8.83203125 C-61.97671046 3.26024623 -30.97097736 0.08824956 0 0 Z " fill="#6CECD4" transform="translate(235.4140625,-0.203125)"/>
<path d="M0 0 C4.43717526 3.27899731 6.8775803 7.8489106 9.3046875 12.703125 C10.11801249 19.75638597 9.2111923 25.7116235 5.3046875 31.703125 C0.30796176 37.35317566 -4.95025968 39.6652585 -12.4453125 40.203125 C-18.58109468 40.07336526 -22.98353628 37.48290153 -27.6953125 33.703125 C-32.11320188 28.40165775 -34.23864455 22.73780972 -34 15.77734375 C-32.98392774 8.86023642 -28.92193755 4.38152739 -23.6328125 0.11328125 C-16.07332254 -5.38868624 -7.9119845 -4.28873926 0 0 Z " fill="#FBFDFE" transform="translate(118.6953125,280.296875)"/>
<path d="M0 0 C4.43717526 3.27899731 6.8775803 7.8489106 9.3046875 12.703125 C10.11801249 19.75638597 9.2111923 25.7116235 5.3046875 31.703125 C0.30796176 37.35317566 -4.95025968 39.6652585 -12.4453125 40.203125 C-18.58109468 40.07336526 -22.98353628 37.48290153 -27.6953125 33.703125 C-32.11320188 28.40165775 -34.23864455 22.73780972 -34 15.77734375 C-32.98392774 8.86023642 -28.92193755 4.38152739 -23.6328125 0.11328125 C-16.07332254 -5.38868624 -7.9119845 -4.28873926 0 0 Z " fill="#FCFEFE" transform="translate(118.6953125,152.296875)"/>
<path d="M0 0 C4.43717526 3.27899731 6.8775803 7.8489106 9.3046875 12.703125 C10.11801249 19.75638597 9.2111923 25.7116235 5.3046875 31.703125 C0.30796176 37.35317566 -4.95025968 39.6652585 -12.4453125 40.203125 C-18.5729236 40.07353806 -22.99667937 37.4912369 -27.6953125 33.703125 C-32.99899855 27.86767096 -33.04633926 21.639279 -32.96875 14.08984375 C-32.48313559 8.07516242 -29.47881515 5.32391346 -25.2578125 1.453125 C-17.21100159 -5.04556795 -8.9552526 -4.85424907 0 0 Z " fill="#FCFCFE" transform="translate(118.6953125,408.296875)"/>
</svg>
