<?xml version="1.0" encoding="UTF-8"?>
<svg version="1.1" xmlns="http://www.w3.org/2000/svg" width="512" height="512">
<path d="M0 0 C1.36765503 0.00456207 1.36765503 0.00456207 2.76293945 0.00921631 C33.87637382 0.16215965 64.11293261 5.49437348 88.25 26.4375 C89.28125 27.22125 90.3125 28.005 91.375 28.8125 C106.6774568 42.78430838 117.31798318 65.30871723 118.75 85.9375 C118.12288252 90.32732238 116.73106571 91.78525946 113.25 94.4375 C112.59 94.4375 111.93 94.4375 111.25 94.4375 C111.26047363 95.22286133 111.27094727 96.00822266 111.28173828 96.81738281 C111.32379584 100.4407215 111.34948245 104.06400854 111.375 107.6875 C111.39175781 108.92242187 111.40851563 110.15734375 111.42578125 111.4296875 C111.46726758 119.31208931 110.83804858 126.71389057 109.25 134.4375 C110.66708252 134.64221924 110.66708252 134.64221924 112.11279297 134.85107422 C117.61205023 135.87902877 121.38788375 139.87108763 124.61328125 144.31640625 C129.61762419 152.7419 129.58105288 162.97521244 127.30859375 172.30078125 C125.68432994 177.20412311 123.86009103 181.97120167 121.875 186.7421875 C118.94034995 193.88666292 117.62567762 200.31560317 116.7578125 207.984375 C115.65603508 215.47646143 112.65982182 220.76897091 107.25 226.00390625 C105.01811911 227.60371149 103.20678947 228.02207847 100.5625 228.6875 C98.13224289 229.49102836 98.13224289 229.49102836 96.25 231.4375 C95.06484933 235.14538296 94.34357805 238.70070281 93.69970703 242.52807617 C92.64689489 248.77041882 91.11494043 254.55418862 88.9375 260.5 C88.67759277 261.24773682 88.41768555 261.99547363 88.14990234 262.76586914 C86.50172269 267.17092411 84.57017349 270.32036081 81.5703125 273.94921875 C77.06091528 280.16201932 77.22380377 286.59983053 77.39233398 293.96142578 C77.43774637 296.19964248 77.41291912 298.4296599 77.38085938 300.66796875 C77.15993998 309.26784202 77.15993998 309.26784202 81.30078125 316.453125 C82.27402344 317.10796875 83.24726563 317.7628125 84.25 318.4375 C84.27578125 317.18195313 84.3015625 315.92640625 84.328125 314.6328125 C84.72981026 301.05015108 86.04117901 291.8473678 95.734375 281.640625 C102.46209769 275.74864426 109.82566496 273.28976582 118.6292572 273.28359985 C119.38697798 273.2792176 120.14469875 273.27483535 120.92538077 273.2703203 C123.47231039 273.25693291 126.0192054 273.25075346 128.56616211 273.24462891 C130.38947709 273.2367276 132.21279052 273.22845863 134.03610229 273.21984863 C140.03316758 273.19362159 146.03023985 273.17831562 152.02734375 273.1640625 C154.09336412 273.15870221 156.15938445 273.1533247 158.22540474 273.14793015 C166.8235854 273.12629624 175.42176418 273.10756214 184.01996517 273.09630775 C196.33048599 273.08008751 208.64069022 273.04696227 220.95109171 272.98990691 C229.61198994 272.9511401 238.27280376 272.93166681 246.93378645 272.92638719 C252.10310075 272.92274164 257.27207744 272.91080588 262.44129753 272.87828445 C267.31119303 272.84808693 272.18054874 272.84193352 277.05051804 272.85366821 C278.83060156 272.853888 280.61071096 272.84566178 282.39070702 272.82801437 C293.98019492 272.71943993 303.51015225 273.54935521 313.25 280.61328125 C320.86714427 288.75112874 324.40008387 295.74643436 324.39717102 306.95046997 C324.40084771 307.7104563 324.4045244 308.47044264 324.4083125 309.25345886 C324.41933196 311.80195469 324.42319024 314.35040971 324.42700195 316.89892578 C324.43326798 318.72563303 324.4399149 320.552339 324.44691467 322.37904358 C324.46794303 328.38029088 324.47831672 334.3815384 324.48828125 340.3828125 C324.49232943 342.45042814 324.49644637 344.51804366 324.50063133 346.58565903 C324.51968123 356.30116248 324.53391203 366.01665836 324.5422433 375.7321769 C324.5520118 386.93808643 324.57832213 398.14379823 324.61874419 409.3496381 C324.64893189 418.01647168 324.66371475 426.68324866 324.66702431 435.35013378 C324.66937199 440.52378609 324.67829562 445.69722711 324.70348549 450.87082291 C324.72681724 455.74149359 324.73097891 460.61181463 324.72072411 465.48252678 C324.72022986 467.26505511 324.72651741 469.04760095 324.74028015 470.83007622 C324.83183322 483.3959522 323.97267782 493.28978154 314.9609375 502.7578125 C304.33588486 513.18880025 293.02409045 513.01688094 278.97906494 512.94543457 C277.00717609 512.95004664 275.03529068 512.9564016 273.06341243 512.96434355 C267.65894488 512.98101729 262.25476044 512.97279933 256.85029197 512.96039867 C251.01660493 512.95134281 245.18296633 512.96532043 239.34928894 512.97631836 C227.92782327 512.99410104 216.50646276 512.99026506 205.08499297 512.9786678 C195.80466702 512.96963456 186.52437053 512.968409 177.24404144 512.97276306 C176.58431217 512.9730686 175.9245829 512.97337414 175.24486184 512.97368894 C172.56674856 512.97493431 169.88863529 512.97620792 167.21052204 512.977528 C142.10000301 512.98975784 116.98954135 512.97867889 91.87903118 512.95714041 C69.56922576 512.9381498 47.25951166 512.93986459 24.94970703 512.95898438 C-0.12136048 512.98039883 -25.19237738 512.98889929 -50.26345277 512.97653532 C-52.93540334 512.97525246 -55.60735392 512.9740011 -58.2793045 512.97276306 C-59.59399095 512.97214596 -60.9086774 512.97152886 -62.26320283 512.97089306 C-71.53642003 512.96743651 -80.80960488 512.97327489 -90.08281708 512.98268127 C-101.3776241 512.99388645 -112.67231989 512.99089201 -123.96711412 512.9695583 C-129.73189776 512.95902929 -135.49649579 512.95495779 -141.26127815 512.96815491 C-146.53502868 512.98004563 -151.80842094 512.97357104 -157.08213881 512.9522447 C-158.99310133 512.94776466 -160.90409392 512.95007617 -162.81503722 512.95974785 C-165.40717883 512.9718642 -167.99808392 512.95948567 -170.59016037 512.94086456 C-171.33681259 512.95022923 -172.08346481 512.95959389 -172.85274285 512.96924233 C-177.94687432 512.89580656 -180.80703289 511.6103283 -184.75 508.4375 C-188.92035107 503.81473164 -188.1789177 498.12662401 -188.15405273 492.24414062 C-188.16434761 490.54798615 -188.16434761 490.54798615 -188.17485046 488.81756592 C-188.19316177 485.07616639 -188.18927228 481.33518479 -188.18359375 477.59375 C-188.18815567 474.98644881 -188.19346127 472.37914882 -188.19947815 469.77185059 C-188.20950836 464.3009849 -188.20621146 458.83023738 -188.19604492 453.359375 C-188.18460527 447.06494722 -188.19856912 440.7709476 -188.2254414 434.47657633 C-188.25041741 428.39556355 -188.25274976 422.31474569 -188.24632454 416.23368835 C-188.24617184 413.65987946 -188.25217373 411.08606215 -188.26461601 408.51228333 C-188.38998116 378.30841934 -188.38998116 378.30841934 -180.3125 366.5 C-179.75691406 365.66597656 -179.20132813 364.83195312 -178.62890625 363.97265625 C-168.30258118 350.03963136 -155.42272645 343.44117552 -138.53125 340.91772461 C-134.47759763 340.40290448 -130.43130787 340.04579918 -126.359375 339.71875 C-124.15172808 339.52458676 -121.94445908 339.3266342 -119.73730469 339.12695312 C-118.23978861 339.00014469 -116.7409361 338.88827407 -115.24121094 338.79101562 C-104.26459462 338.07061622 -104.26459462 338.07061622 -95.64453125 331.58984375 C-94.97341309 330.69313965 -94.30229492 329.79643555 -93.61083984 328.87255859 C-91.85053554 326.56905884 -90.46639244 325.34264118 -88.02734375 323.84765625 C-83.77861575 321.00353728 -80.77352368 318.22394461 -78.75 313.4375 C-77.71801449 307.48972865 -77.53986788 301.65135756 -77.5625 295.625 C-77.55910614 294.84416046 -77.55571228 294.06332092 -77.55221558 293.25881958 C-77.55201203 281.73381836 -77.55201203 281.73381836 -83.25952148 272.0480957 C-91.84542677 262.77025505 -94.88618085 242.53096808 -95.75 230.4375 C-96.31847656 230.29054687 -96.88695313 230.14359375 -97.47265625 229.9921875 C-103.90455716 228.12382229 -109.16739155 225.60327039 -112.79345703 219.75439453 C-115.51813372 214.75565601 -116.42103848 210.29659796 -117 204.6875 C-118.06911315 196.32233337 -120.49990132 189.08184586 -123.88183594 181.37597656 C-128.43023157 170.97038769 -130.75852435 160.73068207 -127.0625 149.6875 C-125.24895965 145.13751441 -123.25823982 141.85341772 -119.75 138.4375 C-119.09 138.4375 -118.43 138.4375 -117.75 138.4375 C-117.89074951 137.5388623 -118.03149902 136.64022461 -118.17651367 135.71435547 C-119.55420266 126.30186774 -120.11455441 117.08802831 -120.0625 107.5625 C-120.06067719 106.86439209 -120.05885437 106.16628418 -120.05697632 105.44702148 C-120.01042053 94.83048119 -119.47688022 84.75126469 -116.75 74.4375 C-116.58371094 73.77975586 -116.41742188 73.12201172 -116.24609375 72.44433594 C-112.29939647 57.13261223 -105.41221731 44.17178669 -94.75 32.4375 C-94.19957031 31.80585938 -93.64914063 31.17421875 -93.08203125 30.5234375 C-82.03728741 18.57875157 -66.43049095 10.96549977 -51.125 6.1875 C-50.39337646 5.95329346 -49.66175293 5.71908691 -48.90795898 5.4777832 C-32.98722879 0.80919772 -16.48802368 -0.11759874 0 0 Z " fill="#373737" transform="translate(187.75,-0.4375)"/>
<path d="M0 0 C0.94074875 0.00007553 1.8814975 0.00015106 2.85075378 0.00022888 C3.86333755 0.00539017 4.87592133 0.01055145 5.91918945 0.01586914 C6.95815872 0.01728409 7.99712799 0.01869904 9.06758118 0.02015686 C12.38924018 0.02575884 15.71083203 0.03831167 19.0324707 0.05102539 C21.28312077 0.05604014 23.5337719 0.06060309 25.78442383 0.06469727 C31.30462907 0.0757289 36.82479509 0.09246896 42.3449707 0.11352539 C42.35083694 1.00000259 42.35670319 1.8864798 42.36274719 2.79981995 C42.4207524 11.17130166 42.49287396 19.5425188 42.58068562 27.91374302 C42.62533262 32.21705296 42.66460106 36.52026947 42.69140625 40.82373047 C42.71749606 44.98010858 42.75793813 49.13612606 42.80815697 53.2922802 C42.82478742 54.8745772 42.83632544 56.45693653 42.84258461 58.03930855 C42.85226773 60.26307733 42.88037496 62.48593143 42.91259766 64.70947266 C42.92925224 66.60476463 42.92925224 66.60476463 42.94624329 68.53834534 C43.53743718 73.83927152 44.90229479 77.77641113 48.9074707 81.48852539 C52.66338144 83.99246588 54.65718985 84.24610902 59.16821289 84.2746582 C60.3899823 84.28426575 61.61175171 84.29387329 62.87054443 84.30377197 C64.21097629 84.30862086 65.55141032 84.31289947 66.8918457 84.31665039 C68.2646688 84.32240334 69.63749188 84.32816105 71.01031494 84.33392334 C73.89205296 84.34443533 76.77376308 84.35027612 79.65551758 84.35375977 C83.33864716 84.35923307 87.02140492 84.3832348 90.70441818 84.41173172 C93.54238947 84.43040977 96.38027232 84.43556652 99.21829987 84.43709564 C101.2334471 84.44157613 103.24854691 84.46020151 105.26361084 84.47906494 C106.49798889 84.47606384 107.73236694 84.47306274 109.00415039 84.4699707 C110.62725128 84.47543915 110.62725128 84.47543915 112.28314209 84.48101807 C117.15939269 83.89575135 120.38368674 82.17873194 123.6574707 78.55102539 C126.47913444 74.47528889 126.49121042 72.0733204 126.55029297 67.09350586 C126.56019257 66.37144958 126.57009216 65.64939331 126.58029175 64.90545654 C126.61193101 62.51390891 126.63667369 60.1223414 126.66137695 57.73071289 C126.68194439 56.07446775 126.70294081 54.41822788 126.72434998 52.76199341 C126.77959238 48.39890815 126.82899207 44.03577535 126.87719727 39.67260742 C126.92739648 35.2218807 126.98309078 30.77122316 127.03833008 26.32055664 C127.14593817 17.58493803 127.24737723 8.8492616 127.3449707 0.11352539 C133.8917961 -0.01376501 140.43829972 -0.10103052 146.98608398 -0.16113281 C149.2111402 -0.18620068 151.43611468 -0.22026405 153.66088867 -0.26367188 C156.86828835 -0.3246627 160.07459478 -0.35276245 163.2824707 -0.37475586 C164.76263672 -0.4134655 164.76263672 -0.4134655 166.27270508 -0.45295715 C172.89441164 -0.45561644 177.22838504 0.82911723 182.3449707 5.11352539 C186.78865757 10.01297501 187.47058106 12.57693534 187.4854126 19.14715576 C187.48838372 19.87967064 187.49135484 20.61218552 187.494416 21.36689782 C187.50312354 23.83420957 187.50461298 26.30147291 187.50610352 28.76879883 C187.51073029 30.53273625 187.51575476 32.29667267 187.52114868 34.06060791 C187.53428951 38.86239171 187.54072109 43.66416152 187.54515934 48.4659605 C187.54808777 51.46477892 187.55219217 54.46359349 187.55666351 57.46240997 C187.5703438 66.84153468 187.58000746 76.22065062 187.5838654 85.59978461 C187.58834554 96.43273667 187.60588916 107.2655625 187.634866 118.09847617 C187.65647523 126.46712114 187.6665693 134.83573059 187.66790652 143.20440316 C187.66895523 148.20465456 187.67487687 153.2047874 187.69272614 158.20500946 C187.70919335 162.90980482 187.71136887 167.61439235 187.70258713 172.31920624 C187.70181599 174.04535478 187.70616958 175.77151443 187.71604538 177.49763489 C187.72874615 179.85599114 187.7228986 182.21360925 187.71246338 184.57196045 C187.71392994 185.89121395 187.7153965 187.21046745 187.7169075 188.56969833 C187.14184371 194.04892657 185.10660318 197.95877616 180.8449707 201.42602539 C180.2571582 201.9171582 179.6693457 202.40829102 179.0637207 202.91430664 C175.28848892 205.54838882 171.64473624 205.246243 167.19108582 205.26069641 C166.45771651 205.2643731 165.72434721 205.26804979 164.96875459 205.27183789 C162.5045533 205.28287531 160.04039418 205.28671864 157.57617188 205.29052734 C155.81208665 205.29679188 154.04800274 205.30343867 152.28392029 205.31044006 C147.48633201 205.32784895 142.68875369 205.33840125 137.89114165 205.34664559 C134.89449563 205.35179537 131.89785271 205.35787108 128.90120888 205.36415672 C119.52742937 205.38320742 110.15365773 205.39743953 100.77986258 205.40576869 C89.95537342 205.41554548 79.1310885 205.44187706 68.30667132 205.48226959 C59.9422533 205.51241266 51.57789389 205.5272358 43.2134226 205.53054971 C38.21649671 205.53290199 33.21978906 205.54188581 28.22292137 205.56701088 C23.52217315 205.59026539 18.82178728 205.59453541 14.12099648 205.5842495 C12.39645305 205.58375341 10.67189195 205.59009533 8.94740295 205.60380554 C6.59110262 205.62148964 4.23610768 205.61443655 1.87980652 205.60127258 C0.56185184 205.60366094 -0.75610285 205.60604929 -2.11399555 205.60851002 C-7.36922938 204.87390534 -10.41263168 202.49396718 -13.9050293 198.61352539 C-17.26464077 193.81408043 -17.90638384 190.83198371 -17.91572571 184.87734985 C-17.91955126 184.14720968 -17.9233768 183.4170695 -17.92731827 182.66480386 C-17.93763959 180.21746209 -17.9336578 177.7703553 -17.9296875 175.32299805 C-17.93403449 173.56861656 -17.93921759 171.81423698 -17.94517517 170.05986023 C-17.95857862 165.29329597 -17.95914229 160.52681093 -17.95661187 155.76023149 C-17.95554296 151.7815793 -17.96042355 147.8029432 -17.96521729 143.82429445 C-17.97631738 134.43761964 -17.97674722 125.05098484 -17.97070312 115.66430664 C-17.96466349 105.98038714 -17.97697295 96.29661293 -17.99827319 86.61271822 C-18.01588688 78.29922739 -18.02189087 69.9857828 -18.01863545 61.67227399 C-18.0168219 56.70671412 -18.01946588 51.74125786 -18.03334999 46.77571487 C-18.04591972 42.10535203 -18.04399231 37.43521568 -18.0309391 32.76485634 C-18.02857181 31.05161144 -18.03131347 29.33835065 -18.03956223 27.62512398 C-18.05001882 25.28437581 -18.04193824 22.9443891 -18.0292511 20.60366821 C-18.02941884 19.29438669 -18.02958658 17.98510517 -18.02975941 16.63614845 C-17.44824619 11.1696759 -15.40712964 7.26051931 -11.1550293 3.80102539 C-10.5672168 3.30989258 -9.9794043 2.81875977 -9.3737793 2.31274414 C-6.30373501 0.17069051 -3.62140265 -0.00970885 0 0 Z " fill="#EEC17F" transform="translate(307.655029296875,289.886474609375)"/>
<path d="M0 0 C0.66 0.680625 1.32 1.36125 2 2.0625 C2.99787327 3.04383394 3.9981001 4.02277743 5 5 C5.78503906 5.79664062 5.78503906 5.79664062 6.5859375 6.609375 C23.48222281 22.69404835 44.04120047 24.62590301 66.30078125 24.3359375 C81.67898945 23.80508122 95.61572563 19.9734332 107.94921875 10.515625 C110 9 110 9 112.19921875 7.921875 C114.55854455 6.71406396 114.95797875 5.38176286 116 3 C116.66 2.34 117.32 1.68 118 1 C122.42413 1.4226303 124.35952311 3.99239902 127.0703125 7.25 C137.09994822 21.54324605 141.78335048 38.49930474 145.12573242 55.41259766 C146.25079386 60.81502904 147.4418183 64.72882387 151 69 C155.53180694 71.48805087 159.90603809 72.52269171 164.984375 73.375 C167.43045934 74.13347577 168.43664433 74.98458968 170 77 C172.81834502 87.56879382 167.42716289 97.75774316 163.3125 107.375 C160.13454698 114.82675192 158.83850046 121.76595837 158.44140625 129.8359375 C157.89090739 132.53484342 157.19370167 133.35835571 155 135 C152.6953125 135.95703125 152.6953125 135.95703125 150.125 136.8125 C145.532791 138.6172983 142.17668719 140.4117963 140 145 C139.093886 148.01136393 138.43178404 151.02057679 137.80078125 154.1015625 C132.13503112 181.6840924 121.41884564 197.45938354 98 213 C68.89723916 232.06992727 68.89723916 232.06992727 53.78515625 229.64453125 C32.77080319 224.29215756 3.93426526 205.32426556 -8 187 C-13.7136681 175.69480872 -17.02419997 164.34851265 -18.82299805 151.88745117 C-19.46640918 147.77574766 -20.26568944 145.14445715 -23 142 C-23 141.34 -23 140.68 -23 140 C-23.9590625 139.62875 -23.9590625 139.62875 -24.9375 139.25 C-25.948125 138.8375 -26.95875 138.425 -28 138 C-28.74765625 137.70867187 -29.4953125 137.41734375 -30.265625 137.1171875 C-31.06484375 136.78976563 -31.8640625 136.46234375 -32.6875 136.125 C-33.83798828 135.66480469 -33.83798828 135.66480469 -35.01171875 135.1953125 C-37.51031762 133.69320787 -38.0649838 132.75336428 -39 130 C-39.30436632 127.75670752 -39.54678606 125.5047071 -39.75 123.25 C-40.8208263 113.5922915 -44.3082659 104.97433665 -48.28125 96.15625 C-50.95723598 90.11616737 -52.1922649 84.61068304 -51 78 C-49.0625 74.875 -49.0625 74.875 -46 73 C-43.73131364 72.60381396 -41.51302676 72.43453654 -39.21484375 72.296875 C-35.01970929 71.73456421 -32.17187377 69.32286485 -29.43676758 66.23535156 C-27.70172211 63.53593333 -27.09947067 61.17425098 -26.38671875 58.046875 C-25.97389648 56.29310547 -25.97389648 56.29310547 -25.55273438 54.50390625 C-25.26720703 53.26511719 -24.98167969 52.02632812 -24.6875 50.75 C-14.88823478 10.10273074 -14.88823478 10.10273074 0 0 Z " fill="#F0C8A7" transform="translate(128,77)"/>
<path d="M0 0 C4.50557558 -0.18954018 7.04406855 -0.19160708 11.03076172 2.06591797 C11.89958984 2.90380859 12.76841797 3.74169922 13.66357422 4.60498047 C14.67029251 5.53206852 15.679493 6.45646705 16.69091797 7.37841797 C17.19864746 7.85375977 17.70637695 8.32910156 18.22949219 8.81884766 C20.77068882 11.11889722 23.49128216 13.16751707 26.22607422 15.22998047 C27.32520417 16.06829717 28.42416225 16.90683927 29.52294922 17.74560547 C30.06628906 18.15875 30.60962891 18.57189453 31.16943359 18.99755859 C33.77816958 20.98321891 36.37700055 22.9816977 38.97607422 24.97998047 C39.49500244 25.37781738 40.01393066 25.7756543 40.54858398 26.18554688 C43.83790804 28.71186567 47.10592858 31.26348823 50.36279297 33.83154297 C51.1572583 34.45577148 51.95172363 35.08 52.77026367 35.72314453 C54.32780978 36.94782732 55.88249574 38.17615932 57.43383789 39.40869141 C65.42659456 46.22190925 65.42659456 46.22190925 75.22607422 48.10498047 C77.49169922 48.25341797 77.49169922 48.25341797 79.78857422 49.22998047 C81.63601784 51.40519635 83.03806271 53.30896439 84.47607422 55.72998047 C84.83950928 56.31763184 85.20294434 56.9052832 85.57739258 57.51074219 C87.99805144 62.02161112 87.89391924 65.0392254 86.52026367 69.91308594 C86.15807739 71.05994873 86.15807739 71.05994873 85.78857422 72.22998047 C85.57612061 72.97779785 85.36366699 73.72561523 85.14477539 74.49609375 C84.47071271 76.85417918 83.75902834 79.19817557 83.03857422 81.54248047 C82.5020285 83.30938102 81.9655727 85.07630888 81.42919922 86.84326172 C81.1565625 87.7373877 80.88392578 88.63151367 80.60302734 89.55273438 C79.31867168 93.77463011 78.05443597 98.0025114 76.78857422 102.22998047 C76.2924938 103.88102614 75.79639999 105.53206779 75.30029297 107.18310547 C74.25367073 110.6704808 73.21593037 114.16036997 72.18310547 117.65185547 C71.91820312 118.54388672 71.65330078 119.43591797 71.38037109 120.35498047 C70.87805217 122.0470021 70.37788658 123.73966523 69.88037109 125.43310547 C69.65027344 126.20654297 69.42017578 126.97998047 69.18310547 127.77685547 C68.98563721 128.44555664 68.78816895 129.11425781 68.5847168 129.80322266 C67.43172984 133.3176938 66.08729844 136.76671587 64.78857422 140.22998047 C21.88857422 140.22998047 -21.01142578 140.22998047 -65.21142578 140.22998047 C-65.31455078 122.82248047 -65.41767578 105.41498047 -65.52392578 87.47998047 C-65.5694458 82.00307617 -65.61496582 76.52617187 -65.66186523 70.88330078 C-65.68444824 64.14550781 -65.68444824 64.14550781 -65.68864441 60.98162842 C-65.69627399 58.79293725 -65.71375843 56.60426584 -65.73930359 54.41571045 C-66.05034124 26.34096381 -66.05034124 26.34096381 -55.08251953 14.97216797 C-44.92575321 5.51513711 -34.46200075 2.77026977 -20.74121094 1.64648438 C-18.71266967 1.48008251 -16.68696354 1.29249503 -14.66064453 1.10107422 C-9.77749224 0.66499291 -4.8896403 0.35016278 0 0 Z " fill="#CFD2D9" transform="translate(82.21142578125,354.77001953125)"/>
<path d="M0 0 C1.12092545 0.00373123 1.12092545 0.00373123 2.26449585 0.00753784 C30.51673214 0.15268017 59.96201293 5.12937735 80.85546875 25.703125 C81.70753906 26.56421875 82.55960938 27.4253125 83.4375 28.3125 C84.03175781 28.88484375 84.62601563 29.4571875 85.23828125 30.046875 C94.8975352 40.14873627 99.85922326 54.98107085 102.4375 68.375 C103.21811809 72.07445093 104.21316156 74.10152507 107.4375 76.3125 C109.09565194 76.68589125 110.76239621 77.02454827 112.4375 77.3125 C112.49628606 81.74994296 112.53135813 86.18728373 112.5625 90.625 C112.57925781 91.86830078 112.59601563 93.11160156 112.61328125 94.39257812 C112.65287695 101.93555909 112.12398288 108.9533884 110.4375 116.3125 C108.1275 116.3125 105.8175 116.3125 103.4375 116.3125 C103.26734375 115.56379639 103.0971875 114.81509277 102.921875 114.04370117 C94.34215924 76.27173862 94.34215924 76.27173862 70.3671875 46.80078125 C64.50578023 43.52528895 59.49536348 43.53413475 53 45.1875 C48.59575748 47.2747714 45.86997325 51.19110417 42.7421875 54.80859375 C34.43327076 63.83573889 22.00931079 67.83879541 9.92651367 68.43676758 C-25.74616005 69.41763704 -25.74616005 69.41763704 -39.12011719 56.84863281 C-41.12255419 54.76430701 -43.04104366 52.6361379 -44.87353516 50.40063477 C-48.19257433 46.3855427 -50.82002006 44.88345999 -55.8515625 43.8359375 C-62.7036567 43.40052014 -66.68542149 45.60855698 -71.96484375 49.86328125 C-87.6406477 64.64332498 -93.94035991 87.1983386 -99.5625 107.3125 C-99.8925 107.3125 -100.2225 107.3125 -100.5625 107.3125 C-104.65580495 83.18529603 -101.19226891 55.85608289 -87.1875 35.375 C-73.00354886 16.11023054 -52.70796802 6.61913131 -29.5625 2.3125 C-28.15713989 2.04433472 -28.15713989 2.04433472 -26.72338867 1.77075195 C-17.80024115 0.2196512 -9.02454119 -0.04806763 0 0 Z " fill="#826857" transform="translate(186.5625,16.6875)"/>
<path d="M0 0 C0.00219984 0.88788774 0.00219984 0.88788774 0.00444412 1.79371262 C0.0416099 16.24359976 0.10075313 30.69327592 0.18390274 45.14297104 C0.22359295 52.13096211 0.25603597 59.1188422 0.27099609 66.10693359 C0.28546721 72.85685193 0.32069253 79.60641351 0.36830902 86.35617828 C0.38309169 88.92519379 0.39103921 91.49425845 0.39188385 94.06331635 C0.39426452 97.67506668 0.42143487 101.28587432 0.45410156 104.89746094 C0.4490712 105.94835403 0.44404083 106.99924713 0.43885803 108.08198547 C0.55228577 116.24250193 2.2244638 120.6733914 5 129 C-11.5 129 -28 129 -45 129 C-50.53055915 111.06244916 -50.53055915 111.06244916 -52.86914062 103.39257812 C-54.46319636 98.16482429 -56.06029627 92.93814341 -57.67602539 87.71704102 C-58.97887986 83.50627456 -60.26764671 79.29142937 -61.54687309 75.0734272 C-62.03667246 73.46720724 -62.53147686 71.86250449 -63.03141975 70.25941277 C-63.73237083 68.00873927 -64.41511536 65.75326305 -65.09399414 63.49584961 C-65.30330566 62.83841263 -65.51261719 62.18097565 -65.72827148 61.50361633 C-67.39498725 55.8444839 -67.00436562 51.33754141 -64.6875 45.9453125 C-60.165562 38.38781426 -60.165562 38.38781426 -56.8515625 37.28515625 C-55.3357708 37.21867416 -53.81802804 37.18885626 -52.30078125 37.19140625 C-47.74298722 36.81223493 -44.50914815 33.72335731 -41 31 C-39.99453125 30.22398437 -38.9890625 29.44796875 -37.953125 28.6484375 C-35.61300982 26.82704843 -33.28599022 24.99002029 -30.96484375 23.14453125 C-26.54164068 19.62870962 -22.0850577 16.15638256 -17.625 12.6875 C-16.88838135 12.11322266 -16.1517627 11.53894531 -15.39282227 10.94726562 C-11.78439841 8.13958409 -8.16451027 5.34726965 -4.5234375 2.58203125 C-3.87036621 2.08550049 -3.21729492 1.58896973 -2.54443359 1.07739258 C-1 0 -1 0 0 0 Z " fill="#CFD2D9" transform="translate(273,366)"/>
<path d="M0 0 C16.83 0 33.66 0 51 0 C51 22.44 51 44.88 51 68 C34.17 68 17.34 68 0 68 C0 45.56 0 23.12 0 0 Z " fill="#F5D1B7" transform="translate(367,290)"/>
<path d="M0 0 C1.54197452 0.97868179 3.08355071 1.95799116 4.625 2.9375 C5.63433594 3.576875 6.64367187 4.21625 7.68359375 4.875 C9.89669603 6.29305376 12.09736165 7.73070455 14.28515625 9.1875 C22.85206802 14.87890057 31.65517248 19.70314967 41 24 C41.97839844 24.45761719 42.95679688 24.91523438 43.96484375 25.38671875 C55.57241219 30.24451171 66.82727116 28.53658213 78.2409668 24.13598633 C80.45857721 23.2035391 82.6371124 22.21455582 84.8125 21.1875 C86.00552734 20.62675781 86.00552734 20.62675781 87.22265625 20.0546875 C96.74777157 15.3956637 105.38489396 9.35392993 114.03320312 3.25585938 C116 2 116 2 119 1 C119.77584107 6.34468295 120.43057229 11.71508327 119 17 C115.92478456 20.80285709 112.18230645 23.1253295 108.07128906 25.65722656 C104.18610422 28.17591075 100.62314241 31.12333995 97 34 C95.45452377 35.20622141 93.9076664 36.41067549 92.359375 37.61328125 C91.61751953 38.19029785 90.87566406 38.76731445 90.11132812 39.36181641 C86.14719561 42.43759453 82.16627451 45.49099184 78.171875 48.52734375 C75.81758214 50.33622047 73.53575996 52.21558994 71.265625 54.12890625 C70.6375293 54.64880127 70.00943359 55.16869629 69.36230469 55.7043457 C68.14732528 56.71274039 66.94409995 57.73551819 65.75488281 58.77416992 C64.09375 60.140625 64.09375 60.140625 61 62 C56.51342948 61.28242739 53.19960719 58.00571252 49.75 55.1875 C48.50217702 54.18770911 47.25343902 53.18905943 46.00390625 52.19140625 C45.3505127 51.66820801 44.69711914 51.14500977 44.02392578 50.60595703 C40.61349508 47.89982758 37.15072851 45.26300453 33.6875 42.625 C32.98214111 42.08697754 32.27678223 41.54895508 31.55004883 40.99462891 C30.10453353 39.89214771 28.65881242 38.7899363 27.21289062 37.68798828 C24.94732482 35.95981948 22.68422192 34.22847387 20.421875 32.49609375 C19.67075439 31.92101074 18.91963379 31.34592773 18.14575195 30.75341797 C16.72486151 29.66540391 15.30411421 28.57720287 13.88354492 27.48876953 C13.22974854 26.98845215 12.57595215 26.48813477 11.90234375 25.97265625 C11.26731934 25.47668945 10.63229492 24.98072266 9.97802734 24.46972656 C7.99390616 22.95270467 7.99390616 22.95270467 5.74462891 21.60058594 C0.33973352 18.11517494 0.33973352 18.11517494 -0.62915039 14.93481445 C-0.78687772 12.61245047 -0.7042901 10.44290695 -0.5 8.125 C-0.46390625 7.34125 -0.4278125 6.5575 -0.390625 5.75 C-0.29702486 3.83119716 -0.15353632 1.91493914 0 0 Z " fill="#E3B795" transform="translate(128,295)"/>
<path d="M0 0 C1.65 0 3.3 0 5 0 C7.68433142 6.86374678 9.86673 13.84183063 12.01171875 20.890625 C12.57135063 22.72388336 12.57135063 22.72388336 13.14228821 24.59417725 C13.92608164 27.16556451 14.7086766 29.73728358 15.48950195 32.30957031 C16.4893179 35.60195134 17.49666485 38.89197632 18.50586224 42.18149185 C19.47111828 45.33302429 20.42842021 48.48697129 21.38671875 51.640625 C21.74916183 52.81981506 22.11160492 53.99900513 22.48503113 55.21392822 C22.81570084 56.30896667 23.14637054 57.40400513 23.48706055 58.53222656 C23.78001511 59.49404846 24.07296967 60.45587036 24.37480164 61.44683838 C25 64 25 64 25 68 C10.15 68 -4.7 68 -20 68 C-18.11275807 60.4510323 -16.18055078 53.16470731 -13.75 45.8125 C-10.71158522 36.46258801 -7.98578877 27.04758516 -5.39746094 17.5637207 C-3.77335001 11.63784516 -1.99910859 5.81066201 0 0 Z " fill="#DC4D5C" transform="translate(185,427)"/>
<path d="M0 0 C3.14756649 1.38082898 5.13883972 2.94799155 7.453125 5.4765625 C8.38125 6.48203125 8.38125 6.48203125 9.328125 7.5078125 C9.96234375 8.20648438 10.5965625 8.90515625 11.25 9.625 C11.8996875 10.33140625 12.549375 11.0378125 13.21875 11.765625 C14.81775785 13.50572178 16.41122239 15.25056662 18 17 C14.1326567 21.01523406 10.02489426 24.564704 5.6875 28.0625 C4.98890869 28.62831787 4.29031738 29.19413574 3.57055664 29.77709961 C-1.87120304 34.15598227 -7.41843927 38.37744995 -13.04125977 42.52050781 C-16.50270834 45.08188578 -19.88666659 47.70099301 -23.19921875 50.453125 C-23.87911865 51.01507568 -24.55901855 51.57702637 -25.25952148 52.15600586 C-26.55854635 53.23706605 -27.84892199 54.3286296 -29.12915039 55.43188477 C-33.47668562 59.04187555 -33.47668562 59.04187555 -35.96484375 58.84277344 C-38.44484702 57.81578552 -39.79969795 56.54168917 -41.671875 54.62109375 C-42.33574219 53.94755859 -42.99960938 53.27402344 -43.68359375 52.58007812 C-44.36550781 51.87302734 -45.04742187 51.16597656 -45.75 50.4375 C-46.44738281 49.72658203 -47.14476562 49.01566406 -47.86328125 48.28320312 C-49.5824658 46.52869286 -51.29425872 44.76756648 -53 43 C-51.9199984 39.7599952 -51.43404625 39.29885196 -48.81640625 37.35546875 C-48.14512695 36.85055908 -47.47384766 36.34564941 -46.78222656 35.82543945 C-46.0497168 35.28491943 -45.31720703 34.74439941 -44.5625 34.1875 C-43.00589323 33.01905092 -41.44992452 31.84975144 -39.89453125 30.6796875 C-39.08709473 30.07479492 -38.2796582 29.46990234 -37.44775391 28.84667969 C-33.51429837 25.87912955 -29.63275971 22.84589301 -25.75 19.8125 C-7.82292545 5.83938748 -7.82292545 5.83938748 0 0 Z " fill="#BCC0C9" transform="translate(254,327)"/>
<path d="M0 0 C6.35375264 3.99209639 12.17313683 8.47349504 17.99414062 13.19018555 C22.60975166 16.91839856 27.30092638 20.52295383 32.0625 24.0625 C39.48019496 29.57777865 46.76039258 35.25356161 54 41 C52.6415798 44.04332765 51.11536976 46.12309151 48.7421875 48.453125 C48.11699219 49.071875 47.49179688 49.690625 46.84765625 50.328125 C46.19667969 50.96234375 45.54570312 51.5965625 44.875 52.25 C44.21628906 52.8996875 43.55757812 53.549375 42.87890625 54.21875 C41.25703357 55.81711727 39.6306719 57.41061897 38 59 C33.33145228 57.49939538 29.96347224 54.77484065 26.25 51.6875 C24.91282358 50.59598161 23.57422789 49.50620008 22.234375 48.41796875 C21.19313477 47.57177979 21.19313477 47.57177979 20.13085938 46.70849609 C16.63689055 43.90707608 13.06886235 41.20492084 9.5 38.5 C3.13118145 33.66548442 -3.14697008 28.73223253 -9.35546875 23.69335938 C-12.51109004 21.09746587 -12.51109004 21.09746587 -16 19 C-15.42118732 15.45177554 -14.17307641 13.81577197 -11.62109375 11.328125 C-10.94755859 10.66425781 -10.27402344 10.00039063 -9.58007812 9.31640625 C-8.87302734 8.63449219 -8.16597656 7.95257813 -7.4375 7.25 C-6.72658203 6.55261719 -6.01566406 5.85523438 -5.28320312 5.13671875 C-3.52869286 3.4175342 -1.76756648 1.70574128 0 0 Z " fill="#BCC0CA" transform="translate(120,327)"/>
<path d="M0 0 C3.5512847 2.51990377 6.5616864 5.45185579 9.57568359 8.58764648 C10.99891495 10.06137645 12.45799635 11.49071117 13.92578125 12.91992188 C20.90015677 19.99787723 20.90015677 19.99787723 21.36328125 24.64624023 C20.91454916 28.78886978 20.22007072 30.34344165 17 33 C14.23056225 33.59588312 11.75931721 33.64671497 9 33 C6.75 31.46875 6.75 31.46875 5 30 C4.99742187 31.09699219 4.99484375 32.19398438 4.9921875 33.32421875 C4.95465286 34.77868607 4.91550514 36.23311238 4.875 37.6875 C4.87886719 38.7693457 4.87886719 38.7693457 4.8828125 39.87304688 C4.77053462 42.94665375 4.65498173 45.15258497 2.73608398 47.63525391 C-0.21788373 50.25597006 -1.69168336 51 -5.6875 51 C-10.16697248 49.64770642 -10.16697248 49.64770642 -12 47 C-13.18681726 43.43954823 -13.09689832 40.56191663 -13.0625 36.8125 C-13.05347656 35.54019531 -13.04445313 34.26789063 -13.03515625 32.95703125 C-13.02355469 31.98121094 -13.01195312 31.00539063 -13 30 C-13.5775 30.48597656 -14.155 30.97195313 -14.75 31.47265625 C-18.12630395 33.76455702 -21.05202674 33.71339147 -25 33 C-28.13991972 30.98723095 -28.87269444 29.30310847 -30.3125 25.875 C-29.79933871 19.51180002 -25.40759344 16.32031436 -21 12 C-20.00430779 10.98522945 -19.01085897 9.96825339 -18.01953125 8.94921875 C-7.29031782 -2.0048374 -7.29031782 -2.0048374 0 0 Z " fill="#393938" transform="translate(337,393)"/>
<path d="M0 0 C0.89110474 -0.00336868 1.78220947 -0.00673737 2.70031738 -0.01020813 C4.57973009 -0.00990983 6.45919204 0.0052879 8.33837891 0.03442383 C11.21017369 0.07410026 14.07734801 0.05512748 16.94921875 0.02929688 C18.77866369 0.03685648 20.60809841 0.04781045 22.4375 0.0625 C23.29283325 0.0555159 24.1481665 0.0485318 25.02941895 0.04133606 C29.37406723 0.14390322 31.20491307 0.37003757 34.76367188 3.08276367 C36.71875 5.76171875 36.71875 5.76171875 37.28125 9.32421875 C36.64003811 13.24273586 35.82375781 14.38730101 32.71875 16.76171875 C29.4319762 18.40510565 25.78246706 17.96771728 22.16796875 18 C21.31701126 18.00807175 20.46605377 18.01614349 19.58930969 18.02445984 C17.78620441 18.03830169 15.98307291 18.0490234 14.17993164 18.05688477 C11.42738933 18.07408664 8.67605162 18.11796924 5.92382812 18.16210938 C4.17188383 18.17223738 2.41992933 18.18075315 0.66796875 18.1875 C-0.15302811 18.20500809 -0.97402496 18.22251617 -1.81990051 18.24055481 C-5.77897612 18.22558982 -7.81163598 18.04698539 -11.27026367 15.94604492 C-14.10559645 12.86631658 -14.42465092 10.92034538 -14.28125 6.76171875 C-10.41481561 0.38572557 -7.18937786 -0.1284543 0 0 Z " fill="#393838" transform="translate(321.28125,460.23828125)"/>
<path d="M0 0 C2.36067291 1.9695555 4.68573187 3.97616791 7 6 C7.60585937 6.51433594 8.21171875 7.02867187 8.8359375 7.55859375 C10.5 9.0625 10.5 9.0625 13 12 C12.76897206 16.45113826 10.59654125 20.05264623 8.375 23.8125 C7.89740234 24.7087207 7.89740234 24.7087207 7.41015625 25.62304688 C6.3984375 27.33203125 6.3984375 27.33203125 4 30 C0.2265625 30.38671875 0.2265625 30.38671875 -3 30 C-4.5617377 27.42702218 -6.09906742 24.84408538 -7.625 22.25 C-8.07101563 21.52039063 -8.51703125 20.79078125 -8.9765625 20.0390625 C-9.3890625 19.33007812 -9.8015625 18.62109375 -10.2265625 17.890625 C-10.61408691 17.24125977 -11.00161133 16.59189453 -11.40087891 15.92285156 C-12 14 -12 14 -11.25976562 11.91796875 C-9.45581567 9.1714899 -7.22517652 7.03991558 -4.875 4.75 C-3.96492187 3.85796875 -3.05484375 2.9659375 -2.1171875 2.046875 C-1.41851562 1.37140625 -0.71984375 0.6959375 0 0 Z " fill="#ED5D6C" transform="translate(187,380)"/>
<path d="M0 0 C2.86133707 2.75951013 3.90881999 4.42073876 4.53125 8.375 C4.5209375 9.57125 4.510625 10.7675 4.5 12 C4.5103125 13.19625 4.520625 14.3925 4.53125 15.625 C3.9134188 19.55004528 2.76037697 21.19842337 0 24 C-2.88861709 25.44430855 -4.79647701 25.37688506 -8 25 C-11.66946574 22.21830823 -12.87739846 20.75007772 -13.62890625 16.15234375 C-13.63285691 14.74722702 -13.61012571 13.34181493 -13.5625 11.9375 C-13.57345703 11.23044922 -13.58441406 10.52339844 -13.59570312 9.79492188 C-13.54636144 6.29166212 -13.2759658 4.35158833 -11.08984375 1.56640625 C-7.09666382 -1.42661273 -4.87326617 -1.17630563 0 0 Z " fill="#3D3C39" transform="translate(440,453)"/>
<path d="M0 0 C4.07522823 1.35840941 5.09410466 2.53234511 7.375 6.125 C7.90625 9.5 7.90625 9.5 7.875 13.125 C7.8853125 14.32125 7.895625 15.5175 7.90625 16.75 C7.2884188 20.67504528 6.13537697 22.32342337 3.375 25.125 C0.48638291 26.56930855 -1.42147701 26.50188506 -4.625 26.125 C-8.25441691 23.3602383 -9.49215052 21.84936365 -10.32421875 17.3125 C-10.34660197 15.91684068 -10.34210984 14.52052471 -10.3125 13.125 C-10.34021484 12.42632812 -10.36792969 11.72765625 -10.39648438 11.0078125 C-10.38294571 8.13761649 -10.16823931 5.82040541 -8.36816406 3.51611328 C-5.47191525 0.94721131 -3.9075959 0.13474469 0 0 Z " fill="#3C3B39" transform="translate(470.625,451.875)"/>
</svg>
