<?xml version="1.0" encoding="UTF-8"?>
<svg version="1.1" xmlns="http://www.w3.org/2000/svg" width="491" height="512">
<path d="M0 0 C25.82520661 -0.25694251 51.65022174 -0.45092816 77.47644901 -0.56993389 C89.46805099 -0.62665897 101.45885889 -0.70399535 113.44995117 -0.82983398 C123.90124695 -0.9394612 134.35196771 -1.01043702 144.80382246 -1.03497344 C150.3385727 -1.04931735 155.87167795 -1.08302951 161.40590096 -1.16303062 C166.61599906 -1.23773563 171.82377617 -1.26072176 177.03435898 -1.24418449 C178.9456526 -1.24720925 180.85702429 -1.26907443 182.76785469 -1.31126022 C197.1937211 -1.61410366 197.1937211 -1.61410366 201.6229229 2.34386253 C203.46522745 5.17665441 204.7538569 7.86580239 206 11 C206.96043677 12.80177635 207.93714952 14.59507424 208.9375 16.375 C209.41703125 17.27347656 209.8965625 18.17195313 210.390625 19.09765625 C212.82303347 23.48425696 215.49578982 27.71422249 218.16796875 31.95703125 C219.94545681 34.90940481 221.48170074 37.90826771 223 41 C223.71720224 42.25690293 224.44421475 43.50834342 225.1875 44.75 C227 48 227 48 227 50 C227.66 50 228.32 50 229 50 C229.67154933 51.28913487 230.33708859 52.58140204 231 53.875 C231.37125 54.59429687 231.7425 55.31359375 232.125 56.0546875 C233 58 233 58 233 60 C233.66 60 234.32 60 235 60 C235.38478516 60.82177734 235.38478516 60.82177734 235.77734375 61.66015625 C239.38893291 69.13869946 243.61871785 76.17807231 247.93945312 83.25927734 C249.36749055 85.60317856 250.77811635 87.95734574 252.1875 90.3125 C253.64222486 92.73838467 255.09843515 95.16331847 256.55859375 97.5859375 C259.06617284 101.75064492 261.54285587 105.92571204 263.9375 110.15625 C265.2624632 112.45545085 266.63068967 114.72694485 268 117 C270.0250304 120.36155046 272.00450623 123.74129434 273.9375 127.15625 C275.2624632 129.45545085 276.63068967 131.72694485 278 134 C280.02804387 137.36655283 282.01103413 140.75091987 283.9453125 144.171875 C285.2221975 146.38514233 286.54927665 148.56564753 287.875 150.75 C290.05893425 154.36783047 292.12274038 158.02862859 294.125 161.75 C295.65666443 164.59508652 297.17957798 167.26375516 299 169.9375 C300.90368811 172.85252241 302.40540305 175.75232913 303.9375 178.875 C306.01518193 183.10866846 308.21698119 187.11315849 310.78125 191.06640625 C312.13177498 193.20906608 313.34924448 195.4019312 314.5625 197.625 C316.53228191 201.21985199 318.70823925 204.59932276 321 208 C322.93271173 211.20654447 324.73041313 214.44857232 326.375 217.8125 C328.68728451 222.348135 331.35350734 226.65310384 334 231 C337.20045586 236.25678741 340.29496733 241.46697864 343 247 C345.9467845 252.21853466 348.96747359 257.39342088 352 262.5625 C352.42539062 263.29146484 352.85078125 264.02042969 353.2890625 264.77148438 C355.1991697 268.02628361 357.12034558 271.20427517 359.3125 274.27734375 C361 277 361 277 361 281 C361.66 281 362.32 281 363 281 C363.67154933 282.28913487 364.33708859 283.58140204 365 284.875 C365.37125 285.59429687 365.7425 286.31359375 366.125 287.0546875 C367 289 367 289 367 291 C367.66 291 368.32 291 369 291 C369.54527344 292.01707031 369.54527344 292.01707031 370.1015625 293.0546875 C372.63676483 297.74806208 375.20643192 302.39240908 378 306.9375 C380.22073566 310.58460895 382.18180657 314.29146377 384.0625 318.125 C387.00970643 324.12714363 390.22816413 329.70140212 394.3125 335 C396.43339028 338.77047162 396.90964754 341.82353128 396 346 C394.6329212 348.88540886 392.82748419 351.38998995 391 354 C389.96590795 355.67940781 388.94541553 357.36725275 387.9375 359.0625 C387.4321875 359.908125 386.926875 360.75375 386.40625 361.625 C384.13781441 365.45613567 381.92364117 369.31309265 379.78515625 373.21875 C377.36758577 377.62769312 374.81235645 381.82682591 372 386 C371.03417981 387.67408833 370.06955489 389.34897819 369.125 391.03515625 C367.83820292 393.2825831 366.48068827 395.48097613 365.125 397.6875 C362.86936004 401.42038528 360.85822097 405.20949426 358.9375 409.125 C356.01554929 415.07570902 352.6887429 420.5436467 348.9375 426 C346.65266354 429.5378113 344.81144843 433.20366658 343 437 C342.34 437 341.68 437 341 437 C340.83564453 438.09248047 340.83564453 438.09248047 340.66796875 439.20703125 C339.95868989 442.1727294 338.93180504 444.1161626 337.3125 446.6875 C336.77625 447.55246094 336.24 448.41742188 335.6875 449.30859375 C335.130625 450.19675781 334.57375 451.08492188 334 452 C330.79204293 457.25148742 327.70456291 462.4679395 325 468 C323.18007075 471.35573453 321.27643667 474.59455955 319.125 477.75 C317.36407668 480.44317684 315.83029715 483.10678741 314.3125 485.9375 C310.45672503 493.1080611 306.21938881 500.0400177 302 507 C301.62392923 507.88028744 301.24785847 508.76057487 300.86039162 509.66753769 C299 512 299 512 295.56375694 512.65713882 C294.1039768 512.69776295 292.64327417 512.71058334 291.18295288 512.70220947 C290.37819633 512.71706508 289.57343978 512.7319207 288.74429667 512.74722648 C286.03809186 512.79070765 283.33299158 512.79820482 280.62646484 512.80566406 C278.68988678 512.82880272 276.75333155 512.85392574 274.81680298 512.88088989 C269.54795822 512.94655585 264.27943211 512.97874389 259.01024199 513.00094318 C255.71804349 513.01559338 252.42593225 513.03611685 249.13377762 513.05846405 C238.83254659 513.12685919 228.53151477 513.17517863 218.23007238 513.19447351 C206.33983499 513.21686631 194.45247498 513.30453344 182.56311262 513.44947648 C173.37311888 513.55761871 164.18393374 513.60799773 154.99331057 513.6146791 C149.50397184 513.61991738 144.0173359 513.64938335 138.52866745 513.73877716 C133.36120308 513.82129847 128.19846398 513.83192638 123.0305748 513.78808212 C121.13785623 513.78423478 119.24488172 513.80589374 117.35280609 513.85537338 C103.4499154 514.19751942 103.4499154 514.19751942 99.38071108 510.54753399 C96.52667822 506.98659783 94.6121888 503.08735127 92.84313512 498.90246534 C91.53274881 495.94568595 89.86706632 493.26208433 88.1875 490.5 C86.42371636 487.46596851 84.66948873 484.42727522 82.9375 481.375 C81.30796618 478.53645721 79.63408037 475.73602595 77.9375 472.9375 C75.77983296 469.35932398 73.86872474 465.73744947 72 462 C70.45362038 459.47588301 68.89162438 456.9636772 67.3046875 454.46484375 C65.96856557 451.9406134 65.41102926 449.81204162 65 447 C64.34 447 63.68 447 63 447 C62.69449219 446.42636719 62.38898438 445.85273438 62.07421875 445.26171875 C58.65902003 438.92195548 55.10776505 432.66931567 51.5 426.4375 C51.02216064 425.6112915 50.54432129 424.78508301 50.05200195 423.93383789 C47.13154456 418.90128641 44.15477518 413.91297153 41.0234375 409.0078125 C39.84487278 406.69566645 39.4004205 404.55379297 39 402 C38.34 402 37.68 402 37 402 C36.63648438 401.32195312 36.27296875 400.64390625 35.8984375 399.9453125 C33.36323517 395.25193792 30.79356808 390.60759092 28 386.0625 C25.77926434 382.41539105 23.81819343 378.70853623 21.9375 374.875 C19.96615061 370.86625086 17.89808465 367.06195365 15.4765625 363.3125 C10.06284237 354.83386952 5.00763895 346.14115688 0.26171875 337.2734375 C-1.04352868 334.84032782 -1.04352868 334.84032782 -3 332.0625 C-4.90368811 329.14747759 -6.40540305 326.24767087 -7.9375 323.125 C-10.00274803 318.92203909 -12.17391425 314.92595578 -14.71484375 310.99609375 C-16.21204171 308.67065862 -17.63955813 306.30906978 -19.0625 303.9375 C-19.76052734 302.77541016 -19.76052734 302.77541016 -20.47265625 301.58984375 C-21.98008837 299.0337632 -23.45304708 296.45936844 -24.92211914 293.88110352 C-26.81809687 290.5722681 -28.75304232 287.28644053 -30.6875 284 C-31.3367041 282.89567627 -31.3367041 282.89567627 -31.99902344 281.76904297 C-34.88487957 276.86855239 -37.80861002 271.9922926 -40.75 267.125 C-43.77333145 262.11709944 -46.63534067 257.04634758 -49.3984375 251.890625 C-51.74317868 247.65865312 -54.24519499 243.52500723 -56.75390625 239.38867188 C-58.57002526 236.39304497 -60.36137101 233.38873607 -62.09375 230.34375 C-63.64797401 227.61748822 -65.24038098 224.92818935 -66.875 222.25 C-68.9465882 218.81457319 -70.91628176 215.34755505 -72.8125 211.8125 C-75.63682837 206.57370621 -78.66758919 201.47733455 -81.75317383 196.38989258 C-83.56545559 193.4005743 -85.34968172 190.40255564 -87.0703125 187.359375 C-88.71216305 184.50109266 -90.45220717 181.76024759 -92.25 179 C-94.76777845 174.75885666 -96.02014131 172.00796644 -95 167 C-93.89033522 164.84977045 -92.67179351 162.87968015 -91.2890625 160.89453125 C-89.99673007 158.99519419 -88.98369898 157.07312262 -88 155 C-87.34 155 -86.68 155 -86 155 C-85.79375 154.05125 -85.5875 153.1025 -85.375 152.125 C-83.87533658 146.89190875 -80.86015546 142.58148471 -78 138 C-74.60095869 132.28655528 -71.2707643 126.54453077 -68.125 120.6875 C-65.33458275 115.51172607 -62.32569302 110.48501394 -59.24658203 105.47729492 C-56.9679591 101.7391983 -54.93691754 97.94523975 -53.00927734 94.01538086 C-51.32682513 90.65576716 -49.47694081 87.39336673 -47.625 84.125 C-47.2336084 83.43100098 -46.8422168 82.73700195 -46.43896484 82.02197266 C-43.80388165 77.36756083 -41.09889237 72.76253325 -38.2890625 68.2109375 C-37.32321026 66.55435456 -36.43412319 64.85261442 -35.5859375 63.1328125 C-33.31644308 58.64972254 -30.60974189 54.47004391 -27.9375 50.21875 C-26.1221448 47.20291797 -24.54657246 44.15984347 -23 41 C-21.94661157 39.03675052 -20.88438484 37.07821238 -19.8125 35.125 C-19.28269531 34.15820312 -18.75289063 33.19140625 -18.20703125 32.1953125 C-17.80871094 31.47085937 -17.41039063 30.74640625 -17 30 C-16.34 30 -15.68 30 -15 30 C-14.88011719 29.26007812 -14.76023437 28.52015625 -14.63671875 27.7578125 C-14.01373558 25.05949277 -13.20591716 23.24696579 -11.8125 20.875 C-11.37164062 20.11058594 -10.93078125 19.34617187 -10.4765625 18.55859375 C-9.98929687 17.71425781 -9.50203125 16.86992187 -9 16 C-7.89073068 13.98196309 -6.78655602 11.96111737 -5.6875 9.9375 C-5.17574219 8.99777344 -4.66398437 8.05804688 -4.13671875 7.08984375 C-3.76160156 6.40019531 -3.38648437 5.71054688 -3 5 C-2.34 5 -1.68 5 -1 5 C-0.67 3.35 -0.34 1.7 0 0 Z M101 171 C99.68 173.64 98.36 176.28 97 179 C96.00240633 180.72200765 94.98471061 182.43270765 93.9375 184.125 C92.34509871 186.70156443 90.87500731 189.24998537 89.51953125 191.9609375 C88.05020415 194.8995917 86.44218833 197.68495773 84.75 200.5 C82.15596755 204.89952255 79.79919251 209.34639433 77.5625 213.9375 C74.64335802 219.90787184 71.3405183 225.42062538 67.69921875 230.96484375 C65.8137095 234.33275338 64.92004772 237.26843589 64 241 C63.34 241 62.68 241 62 241 C61.70867187 241.60585937 61.41734375 242.21171875 61.1171875 242.8359375 C58.95312305 247.25933967 56.71442134 251.55959234 54.125 255.75 C51.35859489 260.26398072 49.00831722 264.92292303 46.68066406 269.67553711 C44.25735768 274.58146623 41.58256153 279.29498867 38.7734375 283.98828125 C35.00664941 290.3851835 31.49113397 296.92371459 27.95214844 303.44848633 C22.4185983 313.64759698 16.77208431 323.77611459 11.01367188 333.85009766 C10.48837891 334.77226074 9.96308594 335.69442383 9.421875 336.64453125 C8.95362305 337.46284424 8.48537109 338.28115723 8.00292969 339.12426758 C6.92141378 340.79247178 6.92141378 340.79247178 7 342 C70.69 342 134.38 342 200 342 C201.98 338.37 203.96 334.74 206 331 C207.663261 327.99801673 209.32920195 324.99776627 211 322 C211.83355518 320.50012327 212.66688704 319.00012241 213.5 317.5 C213.91121094 316.76136719 214.32242188 316.02273438 214.74609375 315.26171875 C215.59773722 313.72557678 216.44390925 312.18639125 217.28515625 310.64453125 C219.06618703 307.39292459 220.83242395 304.24325555 222.9375 301.1875 C225.48164787 297.25563511 227.4346658 293.13115401 229.4375 288.90234375 C231 286 231 286 232.96875 283.55859375 C235.33213735 280.58163469 236.85239776 277.5475192 238.5 274.125 C241.33944399 268.30885338 244.16324837 262.63267734 247.875 257.3125 C249.80492252 254.30409137 251.36546719 251.32937379 252.9375 248.125 C254.96388945 244.00147433 257.09430588 240.10163401 259.58984375 236.25 C261.83983835 232.65998091 263.89849359 228.96002133 265.9855957 225.27392578 C267.95178406 221.80962308 269.97058825 218.38956823 272.0625 215 C274.80578097 210.48253188 277.13513292 205.78768448 279.45849609 201.04663086 C281.39929941 197.11588313 283.49838984 193.39070846 285.88671875 189.71875 C287.72052169 186.88761564 289.35376538 183.94233724 291 181 C291.67289062 179.81083984 291.67289062 179.81083984 292.359375 178.59765625 C292.81828125 177.78167969 293.2771875 176.96570313 293.75 176.125 C294.17796875 175.36445313 294.6059375 174.60390625 295.046875 173.8203125 C296.07731082 172.19480683 296.07731082 172.19480683 296 171 C231.65 171 167.3 171 101 171 Z " fill="#59666C" transform="translate(95,0)"/>
<path d="M0 0 C2.8937956 2.50852695 4.24624447 5.24950522 5.875 8.6875 C7.96994943 12.99119859 10.1790019 17.0546071 12.78125 21.06640625 C14.13177498 23.20906608 15.34924448 25.4019312 16.5625 27.625 C18.53228191 31.21985199 20.70823925 34.59932276 23 38 C24.93271173 41.20654447 26.73041313 44.44857232 28.375 47.8125 C30.68728451 52.348135 33.35350734 56.65310384 36 61 C39.20045586 66.25678741 42.29496733 71.46697864 45 77 C47.9467845 82.21853466 50.96747359 87.39342088 54 92.5625 C54.63808594 93.65594727 54.63808594 93.65594727 55.2890625 94.77148438 C57.1991697 98.02628361 59.12034558 101.20427517 61.3125 104.27734375 C63 107 63 107 63 111 C63.66 111 64.32 111 65 111 C65.67154933 112.28913487 66.33708859 113.58140204 67 114.875 C67.37125 115.59429687 67.7425 116.31359375 68.125 117.0546875 C69 119 69 119 69 121 C69.66 121 70.32 121 71 121 C71.36351562 121.67804688 71.72703125 122.35609375 72.1015625 123.0546875 C74.63676483 127.74806208 77.20643192 132.39240908 80 136.9375 C82.22073566 140.58460895 84.18180657 144.29146377 86.0625 148.125 C89.00970643 154.12714363 92.22816413 159.70140212 96.3125 165 C98.43339028 168.77047162 98.90964754 171.82353128 98 176 C96.6329212 178.88540886 94.82748419 181.38998995 93 184 C91.96590795 185.67940781 90.94541553 187.36725275 89.9375 189.0625 C89.4321875 189.908125 88.926875 190.75375 88.40625 191.625 C86.13781441 195.45613567 83.92364117 199.31309265 81.78515625 203.21875 C79.36758577 207.62769312 76.81235645 211.82682591 74 216 C73.03417981 217.67408833 72.06955489 219.34897819 71.125 221.03515625 C69.83820292 223.2825831 68.48068827 225.48097613 67.125 227.6875 C64.86936004 231.42038528 62.85822097 235.20949426 60.9375 239.125 C58.01554929 245.07570902 54.6887429 250.5436467 50.9375 256 C48.65266354 259.5378113 46.81144843 263.20366658 45 267 C44.34 267 43.68 267 43 267 C42.89042969 267.72832031 42.78085937 268.45664062 42.66796875 269.20703125 C41.95868989 272.1727294 40.93180504 274.1161626 39.3125 276.6875 C38.77625 277.55246094 38.24 278.41742188 37.6875 279.30859375 C37.130625 280.19675781 36.57375 281.08492188 36 282 C32.79204293 287.25148742 29.70456291 292.4679395 27 298 C25.18007075 301.35573453 23.27643667 304.59455955 21.125 307.75 C19.36407668 310.44317684 17.83029715 313.10678741 16.3125 315.9375 C12.45672503 323.1080611 8.21938881 330.0400177 4 337 C2.99902532 338.66608147 1.99860105 340.33249476 1 342 C-3.33899368 338.29909363 -5.63682963 334.25379489 -8.265625 329.2265625 C-10.22860398 325.57471421 -12.34594866 322.04113325 -14.5 318.5 C-17.6382935 313.31970622 -20.63411301 308.09298368 -23.50390625 302.7578125 C-31.54782781 287.93011375 -40.29342274 273.46672618 -48.80859375 258.90771484 C-55.41345922 247.61476789 -61.98579578 236.30610703 -68.45922852 224.93725586 C-72.28612136 218.22577678 -76.16608759 211.54632279 -80.0625 204.875 C-80.64531738 203.87428467 -81.22813477 202.87356934 -81.82861328 201.8425293 C-84.63734843 197.02368258 -87.46308938 192.21686972 -90.33203125 187.43359375 C-90.84693115 186.56686035 -91.36183105 185.70012695 -91.89233398 184.80712891 C-92.8529893 183.19079827 -93.82205491 181.57942485 -94.80102539 179.97412109 C-98.83670156 173.14805435 -98.83670156 173.14805435 -98 169 C-96.828125 166.5703125 -96.828125 166.5703125 -95.25 164.125 C-94.69957031 163.25230469 -94.14914062 162.37960937 -93.58203125 161.48046875 C-93.05996094 160.66191406 -92.53789062 159.84335937 -92 159 C-88.43560711 152.95929204 -85.06941173 146.79392151 -81.7109375 140.63671875 C-79.93093154 137.38793486 -78.16590175 134.24082512 -76.0625 131.1875 C-73.51835213 127.25563511 -71.5653342 123.13115401 -69.5625 118.90234375 C-68 116 -68 116 -66.03125 113.55859375 C-63.66786265 110.58163469 -62.14760224 107.5475192 -60.5 104.125 C-57.66055601 98.30885338 -54.83675163 92.63267734 -51.125 87.3125 C-49.19507748 84.30409137 -47.63453281 81.32937379 -46.0625 78.125 C-44.03611055 74.00147433 -41.90569412 70.10163401 -39.41015625 66.25 C-37.16016165 62.65998091 -35.10150641 58.96002133 -33.0144043 55.27392578 C-31.04821594 51.80962308 -29.02941175 48.38956823 -26.9375 45 C-24.19421903 40.48253188 -21.86486708 35.78768448 -19.54150391 31.04663086 C-17.599864 27.11418877 -15.5006744 23.3871964 -13.109375 19.71484375 C-11.68192346 17.50832534 -10.40154756 15.2228308 -9.10546875 12.9375 C-7.70973284 10.49126321 -6.30012138 8.05426259 -4.875 5.625 C-4.37742187 4.77164063 -3.87984375 3.91828125 -3.3671875 3.0390625 C-2 1 -2 1 0 0 Z " fill="#59666C" transform="translate(393,170)"/>
<path d="M0 0 C25.56443616 -0.25694676 51.12867888 -0.4509302 76.69414616 -0.56993389 C88.56468427 -0.62665809 100.43442017 -0.70399271 112.30444336 -0.82983398 C122.65026376 -0.939464 132.99550326 -1.01043766 143.34188837 -1.03497344 C148.82075469 -1.04931691 154.29795915 -1.08302596 159.7762928 -1.16303062 C164.93386747 -1.23774023 170.08909749 -1.26072094 175.24716187 -1.24418449 C177.13910612 -1.24720905 179.03112928 -1.26907176 180.92260551 -1.31126022 C195.20143667 -1.61410122 195.20143667 -1.61410122 199.61172295 2.34386253 C201.4532212 5.17582728 202.7481762 7.86911835 204 11 C204.96078645 12.80158991 205.93753797 14.59485598 206.9375 16.375 C207.41703125 17.27347656 207.8965625 18.17195313 208.390625 19.09765625 C210.82303347 23.48425696 213.49578982 27.71422249 216.16796875 31.95703125 C217.94545681 34.90940481 219.48170074 37.90826771 221 41 C221.71720224 42.25690293 222.44421475 43.50834342 223.1875 44.75 C225 48 225 48 225 50 C225.66 50 226.32 50 227 50 C227.67154933 51.28913487 228.33708859 52.58140204 229 53.875 C229.37125 54.59429687 229.7425 55.31359375 230.125 56.0546875 C231 58 231 58 231 60 C231.66 60 232.32 60 233 60 C233.38478516 60.82177734 233.38478516 60.82177734 233.77734375 61.66015625 C237.38893291 69.13869946 241.61871785 76.17807231 245.93945312 83.25927734 C247.36749055 85.60317856 248.77811635 87.95734574 250.1875 90.3125 C251.64222486 92.73838467 253.09843515 95.16331847 254.55859375 97.5859375 C257.06617284 101.75064492 259.54285587 105.92571204 261.9375 110.15625 C263.2624632 112.45545085 264.63068967 114.72694485 266 117 C268.0250304 120.36155046 270.00450623 123.74129434 271.9375 127.15625 C273.2624632 129.45545085 274.63068967 131.72694485 276 134 C278.02804387 137.36655283 280.01103413 140.75091987 281.9453125 144.171875 C283.2221975 146.38514233 284.54927665 148.56564753 285.875 150.75 C294.54411765 165.17647059 294.54411765 165.17647059 296 171 C230.66 171 165.32 171 98 171 C94.7 165.06 91.4 159.12 88 153 C85.70188891 149.0108724 83.39651484 145.03018635 81.0625 141.0625 C79.85257015 138.99756833 78.64293784 136.93246228 77.43359375 134.8671875 C76.55743408 133.37203613 76.55743408 133.37203613 75.66357422 131.84667969 C73.30062622 127.80324357 70.96317726 123.74528911 68.625 119.6875 C64.25196954 112.10714638 59.78761238 104.58294381 55.3125 97.0625 C49.46171854 87.228119 43.7299052 77.33408955 38.0737915 67.38604736 C32.14696734 56.96474832 26.11094742 46.61077211 20.03491211 36.27587891 C15.42878272 28.44110807 10.84955538 20.59166265 6.30932617 12.71850586 C5.91076416 12.02764893 5.51220215 11.33679199 5.1015625 10.625 C4.7396582 9.9959375 4.37775391 9.366875 4.00488281 8.71875 C3.10030202 7.17155642 2.15784017 5.64666019 1.2109375 4.125 C0 2 0 2 0 0 Z " fill="#BBAD78" transform="translate(97,0)"/>
<path d="M0 0 C64.02 0 128.04 0 194 0 C198.29 7.59 202.58 15.18 207 23 C210.72820742 29.35244373 210.72820742 29.35244373 214.47265625 35.6953125 C217.36626864 40.60102427 220.18241414 45.55035599 223 50.5 C227.10730607 57.71415651 231.26813285 64.89270588 235.4921875 72.0390625 C238.70105045 77.47342718 241.83270198 82.94789007 244.953125 88.43359375 C247.18094578 92.33228011 249.4652003 96.19702126 251.75 100.0625 C256.08279926 107.39596458 260.31494225 114.78400297 264.52929688 122.18603516 C267.7274939 127.7952282 270.96567248 133.3783274 274.25 138.9375 C279.48493725 147.79838129 284.62250927 156.71038463 289.61791992 165.70898438 C290.06495773 166.51412476 290.51199554 167.31926514 290.97257996 168.14880371 C291.31162857 168.75969849 291.65067719 169.37059326 292 170 C266.47034659 170.35054582 240.94105423 170.61498267 215.40947819 170.77718258 C203.55431186 170.85450078 191.70064153 170.95988775 179.84643555 171.1315918 C169.51304309 171.28119592 159.18073394 171.37789372 148.84628862 171.41132742 C143.37455045 171.43087055 137.90591099 171.47671468 132.43516731 171.58595085 C127.28197967 171.68800972 122.13315579 171.71913447 116.9790535 171.69661522 C115.09106244 171.70073219 113.20292119 171.73045131 111.31580544 171.78808212 C97.44532752 172.19078986 97.44532752 172.19078986 93.38250041 168.55086827 C90.52761429 164.98980188 88.61349361 161.0890038 86.84384716 156.90374386 C85.53306375 153.94657817 83.86734665 151.26252089 82.1875 148.5 C80.42371636 145.46596851 78.66948873 142.42727522 76.9375 139.375 C75.30796618 136.53645721 73.63408037 133.73602595 71.9375 130.9375 C69.77983296 127.35932398 67.86872474 123.73744947 66 120 C64.45362038 117.47588301 62.89162438 114.9636772 61.3046875 112.46484375 C59.96856557 109.9406134 59.41102926 107.81204162 59 105 C58.34 105 57.68 105 57 105 C56.54173828 104.13955078 56.54173828 104.13955078 56.07421875 103.26171875 C52.65902003 96.92195548 49.10776505 90.66931567 45.5 84.4375 C45.02216064 83.6112915 44.54432129 82.78508301 44.05200195 81.93383789 C41.13154456 76.90128641 38.15477518 71.91297153 35.0234375 67.0078125 C33.84487278 64.69566645 33.4004205 62.55379297 33 60 C32.34 60 31.68 60 31 60 C30.63648438 59.32195312 30.27296875 58.64390625 29.8984375 57.9453125 C27.36323517 53.25193792 24.79356808 48.60759092 22 44.0625 C19.77926434 40.41539105 17.81819343 36.70853623 15.9375 32.875 C13.55486756 28.02990465 10.91486336 23.53507313 8 19 C6.35438199 16.4291291 4.73472966 13.84347055 3.125 11.25 C2.70694092 10.59926514 2.28888184 9.94853027 1.8581543 9.27807617 C0.6953125 7.390625 0.6953125 7.390625 -1 4 C-0.67 2.68 -0.34 1.36 0 0 Z " fill="#BBAD78" transform="translate(101,342)"/>
</svg>
