<?xml version="1.0" encoding="UTF-8"?>
<svg version="1.1" xmlns="http://www.w3.org/2000/svg" width="512" height="512">
<path d="M0 0 C-0.63424716 3.24257144 -1.79400942 5.5337572 -3.58203125 8.30078125 C-4.36223633 9.51991211 -4.36223633 9.51991211 -5.15820312 10.76367188 C-5.70412109 11.60478516 -6.25003906 12.44589844 -6.8125 13.3125 C-10.3506091 18.80531835 -13.81845441 24.29170634 -17 30 C-22.89528549 29.1279701 -28.51352173 27.5367406 -34.24609375 25.9375 C-59.8143914 19.55207707 -88.54306116 24.9883802 -111 38.375 C-117.44227973 42.37682866 -123.35875338 46.92731996 -129 52 C-129.76699219 52.68449219 -130.53398437 53.36898437 -131.32421875 54.07421875 C-152.4874608 74.05556944 -162.59223686 102.01244303 -163.53125 130.65234375 C-163.5621875 131.83957031 -163.593125 133.02679688 -163.625 134.25 C-163.66367188 135.48363281 -163.70234375 136.71726563 -163.7421875 137.98828125 C-163.8353276 140.99204937 -163.92114531 143.99582878 -164 147 C-165.29292969 147.23074219 -166.58585937 147.46148437 -167.91796875 147.69921875 C-182.76356018 150.4417261 -195.55922439 154.08511249 -208 163 C-208.64582031 163.46019531 -209.29164063 163.92039062 -209.95703125 164.39453125 C-221.68613897 173.58189102 -229.76188215 189.42736601 -232 204 C-233.76527759 222.68221143 -230.51347441 239.53345825 -218.8984375 254.75390625 C-207.16021701 268.33788933 -192.11571093 277.6180972 -173.95244026 279.27861285 C-170.73962456 279.38282156 -167.53890942 279.40022029 -164.32446289 279.38095093 C-163.10577798 279.3856309 -161.88709307 279.39031087 -160.63147831 279.39513266 C-157.28390741 279.40495662 -153.93684884 279.40151883 -150.58931017 279.39217401 C-146.96551878 279.38534227 -143.34176982 279.39588503 -139.71798706 279.40411377 C-132.63289364 279.41740961 -125.5478959 279.41459196 -118.46279883 279.40587585 C-112.70135705 279.3990833 -106.93994196 279.39818935 -101.17849731 279.4014473 C-100.35653022 279.401907 -99.53456312 279.40236669 -98.68768793 279.40284032 C-97.01754911 279.40379956 -95.34741029 279.4047722 -93.67727149 279.4057581 C-78.03951274 279.41429983 -62.40180687 279.40449699 -46.7640568 279.388357 C-33.36448797 279.37495492 -19.96499712 279.37728336 -6.56542969 279.39111328 C9.0187804 279.40719062 24.60294422 279.41347597 40.18716145 279.40427649 C41.85094006 279.40332091 43.51471868 279.40237779 45.17849731 279.4014473 C45.99697378 279.40098447 46.81545024 279.40052164 47.65872902 279.40004479 C53.40904319 279.39746136 59.15932785 279.40181191 64.90963745 279.40888596 C71.92337554 279.41732514 78.93701297 279.41497022 85.95073962 279.39904372 C89.52493623 279.39119339 93.09896542 279.38801363 96.67316055 279.39799118 C100.55702138 279.4086687 104.44061181 279.39586562 108.32446289 279.38095093 C109.44082595 279.38764309 110.55718901 279.39433526 111.70738125 279.40123022 C122.14459054 279.32380072 131.83164324 277.17304381 141.125 272.375 C141.80240234 272.02872559 142.47980469 271.68245117 143.17773438 271.32568359 C149.30327112 268.06291557 154.25917481 264.08250628 159 259 C160.05767578 257.89591797 160.05767578 257.89591797 161.13671875 256.76953125 C165.30077 252.03441011 168.2213273 247.01695252 170.8125 241.3125 C171.09053467 240.71429443 171.36856934 240.11608887 171.6550293 239.49975586 C174.56698476 232.65023384 175.67384981 225.28400931 177 218 C181.30436972 217.42537085 185.60937981 216.85588123 189.91503906 216.29101562 C191.37778793 216.09839558 192.84035705 215.9044052 194.30273438 215.70898438 C196.41229511 215.4273264 198.52246643 215.15070443 200.6328125 214.875 C201.90012207 214.70742188 203.16743164 214.53984375 204.47314453 214.3671875 C207.68307056 214.03299612 210.77637247 213.93058137 214 214 C210.84434801 245.37574783 201.78488703 274.54236974 176.45410156 295.26464844 C157.35327984 310.34664814 135.57656341 318.3333386 111.18138123 318.26742554 C109.31198296 318.27422221 109.31198296 318.27422221 107.40481907 318.28115618 C103.97547125 318.2915643 100.54633454 318.29313675 97.11698616 318.29076743 C93.40649242 318.2903569 89.6960292 318.30142093 85.98554993 318.31088257 C78.7265452 318.32744355 71.46757297 318.33298992 64.20855092 318.33410732 C58.30221249 318.33506028 52.3958847 318.33918289 46.48954964 318.34550858 C29.7124321 318.36310882 12.93534008 318.37234953 -3.84178675 318.37084763 C-4.74485894 318.37076772 -5.64793113 318.3706878 -6.57836914 318.37060547 C-7.48255516 318.37052371 -8.38674117 318.37044195 -9.31832676 318.37035771 C-23.95866049 318.3695455 -38.59889117 318.38866987 -53.23919512 318.4168822 C-68.30270289 318.44567894 -83.36616053 318.45941872 -98.4296965 318.45769465 C-106.8742168 318.45703301 -115.3186291 318.46242528 -123.76312447 318.48405075 C-130.95532301 318.50235234 -138.14736462 318.50653693 -145.33957649 318.4930319 C-149.00164961 318.48654671 -152.66342247 318.48622135 -156.32546616 318.5037384 C-174.56338546 318.58557179 -191.99058061 318.19831802 -208.9375 310.6875 C-209.63439941 310.38827637 -210.33129883 310.08905273 -211.04931641 309.78076172 C-221.56165306 305.1337399 -230.3642595 298.52407532 -239 291 C-239.62519531 290.45988281 -240.25039062 289.91976563 -240.89453125 289.36328125 C-257.04892599 274.34385569 -268.90788573 249.9636229 -270.17700195 227.92651367 C-270.73573398 198.21577146 -266.06875773 173.22698853 -246 150 C-245.15308594 148.95392578 -245.15308594 148.95392578 -244.2890625 147.88671875 C-233.37899771 134.69732118 -217.90219086 125.85519998 -202 120 C-201.34 120 -200.68 120 -200 120 C-199.98582031 119.36578125 -199.97164063 118.7315625 -199.95703125 118.078125 C-198.1441605 82.60465408 -178.55277024 48.20353977 -152.79296875 24.56787109 C-111.22764372 -11.77914924 -51.02093918 -21.94110347 0 0 Z " fill="#FE6900" transform="translate(282,113)"/>
<path d="M0 0 C7.28269141 5.2404552 12.15544394 11.40108902 14.25 20.25 C15.52094606 32.28508102 13.60570046 41.9190895 6.02734375 51.42578125 C1.79334423 55.77144669 -2.87733695 58.78183424 -8.75 60.25 C-8.75 67.18 -8.75 74.11 -8.75 81.25 C-6.44 81.25 -4.13 81.25 -1.75 81.25 C9.31510089 83.87131757 19.23439249 88.43514058 27.5625 96.3125 C28.449375 96.951875 29.33625 97.59125 30.25 98.25 C34.63795897 97.1916825 38.29203148 95.24688342 42.171875 92.984375 C43.28046875 92.34113281 44.3890625 91.69789063 45.53125 91.03515625 C46.68754362 90.35684518 47.84379342 89.67845942 49 89 C50.12921875 88.34386719 51.2584375 87.68773437 52.421875 87.01171875 C54.6485029 85.71542959 56.86984958 84.41002038 59.08544922 83.0949707 C61.13061698 81.9026136 63.19935857 80.74942773 65.29345703 79.64526367 C67.77449626 78.3038353 70.0586232 77.0252547 72.25 75.25 C73.30253149 72.21665361 73.30253149 72.21665361 72.625 69.0625 C71.90901953 59.81792865 74.60278357 52.21266613 80.50390625 45.03125 C87.54882344 37.84448884 96.060705 34.67289971 106.0390625 34.0859375 C115.16218801 34.42772606 123.59557457 38.42557802 130.25 44.625 C136.52906546 51.57627685 139.80790244 60.74849135 139.49609375 70.12109375 C138.38347155 79.7461588 134.03833011 87.93916577 127 94.5625 C118.01002895 101.56336682 108.24855641 102.36547225 97.25 101.25 C91.10428396 99.70172192 86.47784101 96.75901323 81.25 93.25 C77.62354394 95.25631399 73.9981149 97.26446906 70.37353516 99.27416992 C69.14626129 99.95433616 67.9187316 100.63404105 66.69091797 101.31323242 C58.48085726 105.8553258 50.33324868 110.48459971 42.25 115.25 C42.54720947 116.04575439 42.84441895 116.84150879 43.15063477 117.66137695 C45.88349707 124.97839539 47.43002133 131.09237726 47.4375 138.9375 C47.44974609 139.59427734 47.46199219 140.25105469 47.47460938 140.92773438 C47.49087802 146.54041574 46.49170221 151.78862081 45.25 157.25 C48.94657355 159.45904042 52.6453802 161.66428088 56.34619141 163.86621094 C57.60167619 164.61389898 58.85657314 165.36257508 60.11083984 166.11230469 C66.71528184 170.05918237 73.2929045 173.94537964 80.25 177.25 C80.79527344 176.79109375 81.34054687 176.3321875 81.90234375 175.859375 C92.1528722 167.51877407 100.17633502 165.07104817 113.28369141 166.02246094 C120.79398029 166.89154329 127.30587251 170.59266096 132.25 176.25 C138.54883466 184.9199895 141.50339383 193.50889082 140.25 204.25 C138.41564161 212.12565847 135.04501308 217.68323689 129.25 223.25 C128.75371094 223.74371094 128.25742187 224.23742187 127.74609375 224.74609375 C120.27356236 231.60779151 111.95528247 231.91846899 102.3203125 231.59765625 C97.30071166 231.27806049 93.46422407 230.00214633 89.25 227.25 C88.55648437 226.8375 87.86296875 226.425 87.1484375 226 C80.31878829 221.49805895 76.73216598 215.15752849 73.875 207.625 C73.32979159 204.68087457 73.3675625 203.05609214 73.6875 200.1875 C73.69596675 196.34650694 73.69596675 196.34650694 71.69116211 194.81005859 C70.97710205 194.36484863 70.26304199 193.91963867 69.52734375 193.4609375 C68.70854736 192.94813232 67.88975098 192.43532715 67.04614258 191.90698242 C61.86572443 188.83708825 56.63898615 185.86159511 51.375 182.9375 C50.24835938 182.30521484 49.12171875 181.67292969 47.9609375 181.02148438 C42.27590602 177.75872652 42.27590602 177.75872652 36.25 175.25 C36.00507813 175.82234375 35.76015625 176.3946875 35.5078125 176.984375 C29.93577022 187.0209729 16.86575166 193.59364711 6.19433594 196.88378906 C1.6566585 198.07814624 -3.03726042 199.25 -7.75 199.25 C-7.42 205.85 -7.09 212.45 -6.75 219.25 C-4.11 220.57 -1.47 221.89 1.25 223.25 C8.5426466 228.20899969 12.95249268 235.78716341 15.25 244.25 C16.32388706 255.48835293 15.25756972 264.61492553 8.0625 273.5 C0.51417928 281.46767187 -7.21123297 285.13246022 -18.0625 285.625 C-27.4048922 285.41796638 -36.07971423 281.81789104 -42.75 275.25 C-48.94258067 267.91742153 -52.43974718 259.19901665 -52.03125 249.53125 C-50.76198925 239.23613502 -46.32120027 230.91592577 -38.3125 224.3125 C-34.32560693 221.20668827 -32.09494106 220.77712602 -26.75 219.25 C-27.08 212.98 -27.41 206.71 -27.75 200.25 C-30.18375 199.095 -32.6175 197.94 -35.125 196.75 C-50.50463163 189.16752736 -61.29706626 178.33207786 -67.75 162.25 C-72.94604406 146.56382926 -72.06268942 130.01658313 -65.0625 115.0625 C-57.34139927 100.61164975 -46.69235974 91.56970771 -31.75 85.25 C-29.275 84.755 -29.275 84.755 -26.75 84.25 C-26.75 76.66 -26.75 69.07 -26.75 61.25 C-29.72 60.26 -29.72 60.26 -32.75 59.25 C-41.68378884 54.77554738 -47.52508512 47.64532683 -50.6875 38.1875 C-53.23583515 27.930451 -51.55706466 18.16579202 -46.4296875 8.8515625 C-35.38887305 -6.89517286 -16.0811059 -10.09116377 0 0 Z " fill="#FE6900" transform="translate(349.75,77.75)"/>
</svg>
