<?xml version="1.0" encoding="UTF-8"?>
<svg version="1.1" xmlns="http://www.w3.org/2000/svg" width="1055" height="1025">
<path d="M0 0 C0.95535645 0.45697266 1.91071289 0.91394531 2.89501953 1.38476562 C7.35740136 3.52471051 11.81600805 5.6722261 16.26928711 7.83105469 C24.22332075 11.68393404 32.22001127 15.43279574 40.25 19.125 C52.60635542 24.81667927 64.82976463 30.76406422 77.04699707 36.74737549 C87.31691994 41.77473645 97.60744149 46.73005043 108 51.5 C120.11208831 57.0591749 132.0823607 62.88764669 144.05029297 68.74902344 C154.31911662 73.77583079 164.60856015 78.73056387 175 83.5 C186.25181685 88.66432973 197.38202733 94.05492132 208.5 99.5 C220.7487583 105.49881405 233.03058393 111.38660244 245.42578125 117.078125 C255.18660462 121.57876016 264.84509611 126.27738882 274.5 131 C285.36943157 136.31647069 296.25789339 141.56569803 307.25 146.625 C316.9611096 151.11210388 326.66666825 155.6107189 336.32263184 160.21551514 C337.74492097 160.89125597 339.16940328 161.56240509 340.59631348 162.22833252 C361.41423832 171.95510737 376.54350751 185.07492259 385 207 C386.79065992 212.86173544 388.06216142 218.8695282 389.4140625 224.84375 C389.83123866 226.64724168 390.24943015 228.45049874 390.66854858 230.25354004 C391.77958746 235.04600336 392.87658806 239.84157445 393.97064209 244.63793945 C395.00847044 249.17724054 396.05946073 253.71348225 397.109375 258.25 C399.93756368 270.48747811 402.73735666 282.73142741 405.53703213 294.97545433 C408.45229916 307.72383621 411.3695282 320.47176965 414.28661537 333.21973515 C414.89344746 335.87170969 415.50022856 338.5236959 416.10700989 341.17568207 C425.40476546 381.81005304 434.75878765 422.43142225 444.12030709 463.05114269 C446.37612066 472.83927271 448.63115356 482.62758254 450.88617539 492.41589499 C454.04945414 506.14648318 457.21274261 519.87706927 460.37722588 533.60737991 C461.128481 536.86711737 461.87923099 540.12697056 462.6295948 543.3869133 C464.3770017 550.97602964 466.12937157 558.56392496 467.8957268 566.14865661 C468.73428483 569.75021824 469.57075702 573.35226302 470.40712905 576.95433283 C470.80507832 578.66537561 471.20408796 580.37617216 471.60423684 582.08670187 C472.15758821 584.45231283 472.7073115 586.81874109 473.25631714 589.18536377 C473.41884436 589.87572739 473.58137159 590.56609101 473.74882388 591.27737474 C478.21454415 610.61820975 476.71928461 629.95107497 466.51953125 647.19140625 C462.25367344 653.89838941 456.98590826 659.86505814 451.8125 665.87695312 C448.91960467 669.26550617 446.11542897 672.72446552 443.3125 676.1875 C442.77536377 676.8487085 442.23822754 677.50991699 441.68481445 678.19116211 C437.79270123 682.99153389 433.96689974 687.84101661 430.16333008 692.71166992 C426.12058384 697.87671116 421.98130847 702.96026079 417.83374023 708.04125977 C414.36106518 712.30310909 410.94173694 716.60131101 407.5625 720.9375 C402.88286684 726.93844134 398.05641321 732.80963637 393.20263672 738.67016602 C388.99738913 743.75887383 384.88862044 748.91349234 380.82763672 754.11767578 C377.42484539 758.47440345 373.94879057 762.76517612 370.4375 767.03515625 C362.91595501 776.18395857 355.45398396 785.3751997 348.16455078 794.71020508 C344.12127491 799.87563967 339.98171171 804.9597668 335.83374023 810.04125977 C332.36106518 814.30310909 328.94173694 818.60131101 325.5625 822.9375 C320.88286684 828.93844134 316.05641321 834.80963637 311.20263672 840.67016602 C306.99738913 845.75887383 302.88862044 850.91349234 298.82763672 856.11767578 C295.42484539 860.47440345 291.94879057 864.76517612 288.4375 869.03515625 C280.91595501 878.18395857 273.45398396 887.3751997 266.16455078 896.71020508 C262.12127491 901.87563967 257.98171171 906.9597668 253.83374023 912.04125977 C250.36106518 916.30310909 246.94173694 920.60131101 243.5625 924.9375 C238.88361079 930.93748735 234.06152019 936.8109555 229.20263672 942.66577148 C225.91966385 946.63213318 222.7037382 950.6364712 219.56298828 954.71630859 C206.97910261 971.03470914 192.02433024 983.0826624 171 986 C168.59034545 986.0901608 166.17851139 986.12904416 163.76717186 986.13142776 C163.05810375 986.1334804 162.34903564 986.13553303 161.61848062 986.13764787 C159.24241148 986.14330245 156.86640059 986.14186253 154.49032593 986.14044189 C152.76953268 986.14302642 151.04874003 986.14603982 149.32794821 986.1494453 C144.59881081 986.15750834 139.86968859 986.15930448 135.14054513 986.16004276 C130.04016479 986.16189453 124.9397923 986.16944249 119.8394165 986.17617798 C108.68643028 986.18975691 97.53344765 986.19578534 86.38045454 986.20018864 C79.4156089 986.20295181 72.45076465 986.20718931 65.48591995 986.21169281 C46.19983444 986.22388493 26.91375004 986.23418434 7.62766075 986.2375679 C6.39342872 986.23778747 5.15919669 986.23800703 3.88756368 986.23823325 C2.03180246 986.23856067 2.03180246 986.23856067 0.13855112 986.2388947 C-2.36840733 986.23933817 -4.87536577 986.23978473 -7.38232422 986.24023438 C-8.62586046 986.2404558 -9.8693967 986.24067723 -11.15061586 986.24090537 C-31.2983073 986.24485301 -51.44596257 986.26230625 -71.59364004 986.2855939 C-92.28215641 986.30931353 -112.97065463 986.32177003 -133.65918481 986.32293582 C-145.27372163 986.32385224 -156.88821131 986.32959621 -168.50273514 986.34775543 C-178.39318588 986.36316465 -188.28357492 986.36827201 -198.17403539 986.36001733 C-203.21852398 986.35611376 -208.26288834 986.35702621 -213.3073616 986.37107468 C-217.93017911 986.38383091 -222.55277924 986.38260092 -227.17559652 986.37048396 C-228.84318566 986.36852996 -230.51079028 986.37159164 -232.17835768 986.38032833 C-251.24164246 986.47383807 -267.53486091 981.93951895 -282 969 C-282.639375 968.43023438 -283.27875 967.86046875 -283.9375 967.2734375 C-289.20811331 962.27910634 -293.57628885 956.59117686 -298 950.859375 C-301.16220116 946.76785674 -304.41784508 942.75585921 -307.6875 938.75 C-311.76897176 933.74374131 -315.82971579 928.72313555 -319.85546875 923.671875 C-322.09870916 920.8770181 -324.36064636 918.09806375 -326.625 915.3203125 C-331.29994375 909.5848491 -335.94530641 903.83154637 -340.5 898 C-346.5592227 890.24569677 -352.77732677 882.62332184 -359 875 C-365.68230682 866.81358661 -372.33391277 858.61093609 -378.84082031 850.28417969 C-384.46049385 843.10866286 -390.23685878 836.06035472 -396 829 C-402.68230682 820.81358661 -409.33391277 812.61093609 -415.84082031 804.28417969 C-421.46049385 797.10866286 -427.23685878 790.06035472 -433 783 C-439.68230682 774.81358661 -446.33391277 766.61093609 -452.84082031 758.28417969 C-458.46049385 751.10866286 -464.23685878 744.06035472 -470 737 C-476.68230682 728.81358661 -483.33391277 720.61093609 -489.84082031 712.28417969 C-495.46049385 705.10866286 -501.23685878 698.06035472 -507 691 C-514.20007238 682.17927827 -521.38744778 673.35315432 -528.37109375 664.359375 C-530.10144921 662.13270608 -531.8643953 659.93982326 -533.66015625 657.765625 C-546.34403548 642.22100527 -552.9324339 624.35058527 -551 604 C-550.52038612 600.89607628 -549.90000364 597.82893608 -549.25708008 594.75512695 C-549.07872777 593.88468152 -548.90037546 593.01423609 -548.71661854 592.11741352 C-546.77226365 582.72602076 -544.62440743 573.38304805 -542.44921875 564.04296875 C-542.00240699 562.11377026 -541.55589423 560.1845025 -541.10964966 558.25517273 C-540.14693718 554.09509592 -539.18250437 549.93542332 -538.21670532 545.77606201 C-535.80592023 535.39253455 -533.40509016 525.00670212 -531.00315666 514.62112427 C-530.1381153 510.88115364 -529.27274225 507.14125985 -528.40736389 503.40136719 C-522.16006917 476.39598162 -515.95921473 449.37996112 -509.76031494 422.36343384 C-507.80955314 413.86150041 -505.85776904 405.35980184 -503.90576172 396.8581543 C-503.57851685 395.43286937 -503.25127241 394.00758435 -502.9240284 392.58229923 C-502.2677246 389.72383024 -501.61141588 386.86536239 -500.95510483 384.00689507 C-499.30723465 376.8298092 -497.65944644 369.65270452 -496.01171875 362.47558594 C-495.84768799 361.76111231 -495.68365722 361.04663868 -495.51465583 360.31051433 C-493.6545423 352.20828376 -491.79473822 344.10598228 -489.93554688 336.00354004 C-489.76415465 335.25660617 -489.59276243 334.50967231 -489.4161765 333.74010408 C-489.24459344 332.99233662 -489.07301038 332.24456916 -488.89622784 331.47414207 C-485.50344405 316.68822583 -482.10901773 301.90268871 -478.71134472 287.11789513 C-476.95839386 279.48973683 -475.20698203 271.86122886 -473.45772588 264.23222244 C-472.13081152 258.44590928 -470.80111523 252.66023765 -469.47039795 246.87479782 C-468.92942817 244.5209061 -468.38934555 242.16681028 -467.85025024 239.81248856 C-455.61182769 186.37566592 -455.61182769 186.37566592 -428.79971313 169.10198975 C-423.56607726 165.89736066 -417.98886927 163.34429704 -412.4375 160.75 C-411.06988402 160.10018487 -409.70270549 159.44944838 -408.3359375 158.79785156 C-398.63546364 154.18603233 -388.88148524 149.68756037 -379.12475586 145.19628906 C-367.98645754 140.04633153 -356.97205572 134.64917245 -345.9519043 129.2520752 C-334.59872801 123.69444276 -323.20350216 118.26522215 -311.71484375 112.9921875 C-300.70832824 107.91618151 -289.83236413 102.58089972 -278.94769287 97.24996948 C-268.72130582 92.2438354 -258.47468806 87.30972219 -248.125 82.5625 C-236.4913088 77.22517931 -224.99193646 71.63450223 -213.5 66 C-200.9320598 59.8379326 -188.33660367 53.7773733 -175.61328125 47.94140625 C-165.49978835 43.28091946 -155.50023574 38.39769861 -145.5 33.5 C-133.16899811 27.46108007 -120.80929973 21.52029987 -108.32592773 15.80102539 C-101.97410894 12.88022505 -95.6731039 9.87938956 -89.40234375 6.7890625 C-88.29922852 6.24704445 -88.29922852 6.24704445 -87.17382812 5.69407654 C-83.59304457 3.93396171 -80.01734452 2.16478306 -76.44970703 0.37817383 C-50.18248183 -12.64615301 -26.39354725 -12.63756646 0 0 Z " fill="#326CE5" transform="translate(565,24)"/>
<path d="M0 0 C7.07526391 2.44418208 11.19771533 7.75338947 15 14 C18.62265061 24.86795183 15.93021634 38.51543549 14 49.5 C12.33558227 59.14204429 11.58793467 68.525238 11.5625 78.3125 C11.55283203 79.50488281 11.54316406 80.69726562 11.53320312 81.92578125 C11.58927323 87.62514258 11.63151 91.22406292 15 96 C15.55300781 96.49113281 16.10601563 96.98226562 16.67578125 97.48828125 C18.59713338 99.68168324 18.29880984 101.33054741 18.1875 104.1875 C18.16042969 105.08855469 18.13335938 105.98960937 18.10546875 106.91796875 C18.05326172 107.94857422 18.05326172 107.94857422 18 109 C19.88912109 108.95166016 19.88912109 108.95166016 21.81640625 108.90234375 C27.29522065 108.90982117 32.54370859 109.64954571 37.9375 110.5625 C38.9694751 110.73668457 40.0014502 110.91086914 41.06469727 111.09033203 C101.05313538 121.75955285 151.19768157 151.69316597 195 193 C196.04671875 192.34644531 197.0934375 191.69289063 198.171875 191.01953125 C201.34461252 189.20596898 203.54996328 188.61372626 207.25 188.6875 C217.70753722 188.02943336 224.76430993 180.63248929 231.6640625 173.40625 C233.71578844 171.29276642 235.80748885 169.38957456 238.0625 167.5 C243.57671475 162.77992165 248.50564985 157.32057095 252.86328125 151.51953125 C255.43971925 148.48150107 258.27089791 146.20464169 261.4375 143.8125 C261.99759766 143.37486328 262.55769531 142.93722656 263.13476562 142.48632812 C270.49683483 136.85954245 276.85970815 135.92792224 286 137 C291.71943916 139.12540562 295.50511638 143.12834404 299 148 C301.05261083 154.15783248 301.11793143 161.50989488 298.3125 167.4375 C296.3187436 170.81852047 293.94936289 173.39358629 291 176 C290.50234131 176.45745605 290.00468262 176.91491211 289.49194336 177.38623047 C285.24988735 181.18884784 280.91523539 183.88543444 275.875 186.5 C251.31907151 198.40295987 251.31907151 198.40295987 234.21875 217.55859375 C233.95530468 219.26338893 233.73262635 220.97517704 233.55859375 222.69140625 C232.5702357 226.77615876 229.37906434 228.77740688 226 231 C228.29681141 235.21082092 230.60870838 239.39195857 233.13671875 243.46875 C244.57558615 262.06841923 253.57399493 282.13623935 260 303 C260.25974609 303.82790039 260.51949219 304.65580078 260.78710938 305.50878906 C268.49717279 330.47606849 272.1952484 356.41549953 272.13037109 382.50366211 C272.12506171 385.03310281 272.13031699 387.56236191 272.13671875 390.09179688 C272.14073352 401.09267996 271.72694593 412.02377887 271 423 C271.55284668 423.18175781 272.10569336 423.36351562 272.67529297 423.55078125 C273.39861816 423.80214844 274.12194336 424.05351563 274.8671875 424.3125 C275.58503418 424.55613281 276.30288086 424.79976562 277.04248047 425.05078125 C280.09161328 426.52933306 281.2405669 429.18490704 283 432 C287.86482328 434.99835025 292.77026137 436.01978547 298.3125 437 C299.24167236 437.16878662 300.17084473 437.33757324 301.12817383 437.51147461 C311.48745643 439.27176123 321.94073892 440.10950474 332.41333008 440.87304688 C344.23577779 441.77475378 357.1994061 443.1994061 366 452 C369.15194603 456.87512531 371.94184233 461.98666382 371.47265625 467.9296875 C369.93381598 474.67006225 367.12888197 479.64835843 361.375 483.5625 C354.13144757 487.92593687 346.82099856 487.9764754 338.625 486.31640625 C330.48820366 484.08803362 322.73017141 480.99820332 314.94287109 477.79541016 C295.12954878 469.56646788 295.12954878 469.56646788 274 468 C273.21625 468.515625 272.4325 469.03125 271.625 469.5625 C267.29239174 471.93511881 262.75573641 470.69128918 258 470 C257.91363281 470.57758057 257.82726562 471.15516113 257.73828125 471.75024414 C256.47087571 479.10977159 253.96252424 485.60548367 251 492.4375 C250.51015625 493.57695068 250.0203125 494.71640137 249.515625 495.89038086 C237.1439822 524.27062654 220.41330641 550.57035008 199 573 C197.78287157 574.38817092 196.57354608 575.78325379 195.375 577.1875 C189.0976136 584.38715644 182.31196289 590.74810732 174.84765625 596.703125 C172.99305286 598.19901909 171.16541286 599.72917866 169.37109375 601.296875 C160.51745004 609.00445672 150.80917224 615.28466415 140.96435547 621.64648438 C138.89295786 622.9863335 138.89295786 622.9863335 137 625 C137.350625 625.68835938 137.70125 626.37671875 138.0625 627.0859375 C139.22471316 630.6984834 138.65997461 632.90439313 138 636.625 C136.77457415 647.22460237 142.64316215 655.30518714 148 664 C148.85992428 665.4358691 149.71932074 666.87205448 150.578125 668.30859375 C154.05947362 674.0499922 157.71157911 679.6477958 161.59765625 685.12304688 C169.63674777 696.47315405 175.17915155 705.61432288 173 720 C170.75829549 726.18596942 165.86723884 731.06638058 160 734 C152.05363019 734.83368289 145.33302826 735.00485023 138.890625 729.88671875 C129.53347156 720.54889828 125.88222291 707.13855577 122.125 694.8125 C116.70050758 674.5214485 116.70050758 674.5214485 106 657 C103.74189071 655.84449903 101.4728388 654.95051646 99.09375 654.07421875 C95.544401 652.25319081 94.57585392 649.56280017 93 646 C92.04480469 646.31130859 92.04480469 646.31130859 91.0703125 646.62890625 C27.6937902 666.71775085 -35.89815409 668.84039905 -99.1184082 646.53759766 C-101.15461447 645.86263944 -101.15461447 645.86263944 -104 646 C-104.7115625 647.60875 -104.7115625 647.60875 -105.4375 649.25 C-107.29601222 652.57680301 -108.80742001 653.56715589 -112.375 654.8125 C-118.37211946 657.16219107 -120.43993111 661.29598685 -123 667 C-124.37881797 670.52364593 -125.64627162 674.06307204 -126.85546875 677.6484375 C-127.78599704 680.37332923 -128.80299091 682.98248089 -129.9375 685.625 C-131.62500828 689.71552007 -132.85207999 693.86816507 -134.06005859 698.11767578 C-137.90338118 711.56306974 -141.78612543 724.81243031 -154 733 C-159.34227269 735.67113634 -165.38736684 735.98047785 -171.14453125 734.41796875 C-177.74514758 731.65403954 -180.89816521 726.20366958 -184 720 C-186.15590048 704.6642131 -179.06536592 693.74359808 -170.15063477 681.86914062 C-165.8322685 676.01850368 -162.20860351 669.78489208 -158.5625 663.5 C-157.95905762 662.46037109 -157.35561523 661.42074219 -156.73388672 660.34960938 C-150.83218231 650.0953355 -148.07694223 643.9964614 -149.9765625 632.11328125 C-150.00488254 629.55975781 -149.18822342 628.22678512 -148 626 C-148 625.01 -148 624.02 -148 623 C-150.36682732 621.34413236 -152.69574383 619.88217193 -155.1875 618.4375 C-162.91904344 613.78450255 -169.97784598 608.65242307 -177 603 C-177.89847656 602.29488281 -178.79695312 601.58976563 -179.72265625 600.86328125 C-218.64634361 569.8504464 -259.38514387 520.17753041 -269 470 C-269.7528125 470.15984375 -270.505625 470.3196875 -271.28125 470.484375 C-275.69690628 471.32182705 -279.50088015 471.92253529 -283.4375 469.5 C-287.96517926 466.84965117 -292.78498415 467.73093682 -297.71533203 468.82275391 C-298.96685059 469.20351074 -300.21836914 469.58426758 -301.5078125 469.9765625 C-302.19575897 470.18429291 -302.88370544 470.39202332 -303.59249878 470.60604858 C-305.0411681 471.04630291 -306.48819589 471.49199229 -307.93359375 471.94287109 C-310.09485836 472.61561768 -312.26145198 473.26809024 -314.4296875 473.91796875 C-322.53674695 476.38461055 -330.31537289 479.2399418 -338.0546875 482.69335938 C-347.66318954 486.95601711 -359.33525479 489.66500799 -369.62890625 486.0859375 C-374.72659284 483.08729833 -378.4069311 478.80683569 -381.3125 473.6875 C-382.93860528 467.33090663 -382.65640427 461.67907936 -379.390625 455.91796875 C-373.09174437 447.23046766 -365.02574074 444.43561615 -354.92626953 442.45288086 C-349.44313817 441.60429011 -343.91091659 441.4607232 -338.375 441.1875 C-328.62162441 440.60727616 -319.13650144 439.60059945 -309.5625 437.625 C-308.5813623 437.42801514 -307.60022461 437.23103027 -306.58935547 437.02807617 C-299.97931953 435.56441704 -295.23920807 433.84990118 -290.9375 428.375 C-288.75530114 425.70004655 -287.28697157 424.92709454 -284 424 C-283.01 424 -282.02 424 -281 424 C-281.144375 423.00871094 -281.28875 422.01742188 -281.4375 420.99609375 C-284.86233494 394.51374787 -284.58037951 366.29209969 -280 340 C-279.83371094 339.02675781 -279.66742188 338.05351562 -279.49609375 337.05078125 C-273.05535871 300.55328272 -259.84664841 263.23475984 -238 233 C-239.14458139 230.52177691 -239.88190987 229.09963855 -242 227.3125 C-244.17650869 224.79591183 -244.3841481 223.74559092 -244.9375 220.5625 C-245.83898603 215.9111351 -247.24198104 214.05339041 -251 211 C-251.62132812 210.4534375 -252.24265625 209.906875 -252.8828125 209.34375 C-263.39827109 200.40377824 -275.60154817 193.38852153 -287.625 186.6875 C-297.06373961 181.36308278 -307.51437703 174.85117015 -311 164 C-311.6085181 158.41012446 -312.10299684 152.21090526 -309.5 147.0625 C-305.79001769 142.51777167 -301.61514649 138.8717155 -296 137 C-286.16807786 136.09190062 -280.09677497 138.12466702 -272.4375 144.25 C-266.8727696 149.00112844 -261.74218464 153.93152561 -257 159.5 C-242.23988983 177.61021546 -242.23988983 177.61021546 -222.8359375 188.62109375 C-220.79816843 188.74497797 -218.75634685 188.81739437 -216.71484375 188.828125 C-212.63173136 189.0866242 -210.29906654 190.67565766 -207 193 C-206.3709375 192.35933594 -205.741875 191.71867188 -205.09375 191.05859375 C-199.89765596 185.80772161 -194.62885757 180.77959134 -189 176 C-188.07960938 175.19046875 -187.15921875 174.3809375 -186.2109375 173.546875 C-168.4774127 158.05892047 -148.41568349 145.0294024 -127.11767578 134.99902344 C-125.66180032 134.31220739 -124.20983247 133.61706603 -122.76123047 132.91503906 C-95.29294453 119.62746462 -60.06345544 107.11525102 -29 109 C-29.05800781 108.34773438 -29.11601562 107.69546875 -29.17578125 107.0234375 C-29.59002643 98.9989165 -29.59002643 98.9989165 -26.5625 95.5625 C-25.716875 94.716875 -24.87125 93.87125 -24 93 C-19.0149559 78.0448677 -22.64424794 53.91964544 -26.53222656 38.95092773 C-27.45057508 35.12080091 -27.26963791 31.17045273 -27.3125 27.25 C-27.34150391 26.38117188 -27.37050781 25.51234375 -27.40039062 24.6171875 C-27.47399502 17.07556774 -25.5510411 11.95383707 -20.625 6.25 C-19.75875 5.5075 -18.8925 4.765 -18 4 C-17.154375 3.236875 -16.30875 2.47375 -15.4375 1.6875 C-10.32470466 -0.82241771 -5.59424058 -0.63098725 0 0 Z " fill="#FDFDFE" transform="translate(533,145)"/>
<path d="M0 0 C0.97292685 0.13926092 1.94585369 0.27852184 2.94826317 0.42200279 C13.1592182 1.90458449 23.33486011 3.59307803 33.50634766 5.32275391 C35.46068054 5.65263114 37.41505774 5.9822459 39.36947632 6.31161499 C43.41155756 6.99353624 47.45324763 7.67771239 51.49462891 8.36376953 C56.67204478 9.2426115 61.85021548 10.11690927 67.02865028 10.98972511 C71.04023034 11.66614039 75.05152611 12.34422838 79.06272507 13.02289963 C80.97404235 13.34620717 82.8854213 13.66915038 84.79686356 13.99171829 C87.44981176 14.4398138 90.10239624 14.8900013 92.75488281 15.34082031 C93.53815445 15.47277298 94.32142609 15.60472565 95.12843323 15.74067688 C98.46619204 16.31001507 101.75260151 16.93445817 105.02978516 17.78369141 C104.49053513 24.02207408 101.80986051 29.30070771 99.21728516 34.90869141 C98.72881104 35.96677002 98.24033691 37.02484863 97.73706055 38.11499023 C90.50734362 53.45845213 81.86899065 67.73002458 71.02978516 80.78369141 C70.35810303 81.60546875 70.35810303 81.60546875 69.67285156 82.44384766 C54.6753777 100.75150432 37.96311399 116.04242444 18.02978516 128.78369141 C15.02598859 125.25616178 13.40763132 121.28738551 11.68603516 117.04150391 C11.20358086 115.87189873 11.20358086 115.87189873 10.71138 114.67866516 C9.64540044 112.09087672 8.58757471 109.4998372 7.52978516 106.90869141 C6.7825252 105.08953931 6.03471221 103.27061431 5.28637695 101.4519043 C3.6963232 97.58610693 2.1091729 93.71913303 0.5234375 89.8515625 C-2.00408502 83.69339696 -4.55385061 77.54457629 -7.10693359 71.39697266 C-8.37812164 68.3328229 -9.64905953 65.26856951 -10.91992188 62.20428467 C-11.73483397 60.24033849 -12.55040913 58.27666729 -13.36669922 56.31329346 C-17.16802333 47.16557192 -20.95237909 38.01307838 -24.48193359 28.75634766 C-24.72912643 28.11733017 -24.97631927 27.47831268 -25.23100281 26.81993103 C-27.71663928 20.19042541 -28.16754759 15.09477106 -25.47021484 8.53369141 C-22.69863162 3.59218537 -18.29356068 0.83119918 -12.96224976 -0.84921265 C-8.52879938 -1.39315739 -4.39833828 -0.65588717 0 0 Z " fill="#326CE5" transform="translate(629.97021484375,587.21630859375)"/>
<path d="M0 0 C0.18510101 11.02026103 -0.39478274 21.95935337 -1.0234375 32.95703125 C-1.13090844 34.8730938 -1.23821524 36.78916557 -1.34536743 38.70524597 C-1.56987524 42.7034638 -1.79718533 46.70151037 -2.02636719 50.69946289 C-2.31719114 55.77868036 -2.59973411 60.85831971 -2.87998009 65.93813038 C-3.09921856 69.89102628 -3.3235792 73.84361977 -3.54933548 77.7961483 C-3.65546686 79.66681066 -3.75992808 81.53756868 -3.86256027 83.40842628 C-5.80768046 118.70833844 -5.80768046 118.70833844 -12 125 C-17.05053808 129.12288823 -21.50076682 129.76792313 -27.98046875 129.48828125 C-33.26047337 128.6344642 -36.74074671 126.1261097 -41 123 C-42.30648693 122.06528042 -43.61385348 121.13178965 -44.921875 120.19921875 C-47.98810815 118.00251953 -51.03999354 115.78723052 -54.0859375 113.5625 C-59.01157035 109.97520436 -63.9987828 106.48081613 -69 103 C-75.40093425 98.54135868 -81.75478071 94.02701236 -88.0625 89.4375 C-95.06876629 84.34252763 -102.17978312 79.41977571 -109.34521484 74.55175781 C-115.32083882 70.48607619 -121.20012901 66.31406134 -127 62 C-119.51310378 44.11238849 -90.06010608 30.51111613 -74 22 C-72.94643311 21.43224854 -72.94643311 21.43224854 -71.87158203 20.85302734 C-51.12167316 9.8145436 -23.68083336 0 0 0 Z " fill="#326CE5" transform="translate(500,311)"/>
<path d="M0 0 C3.45105456 1.50491192 5.86724097 3.51583979 8.625 6.0625 C9.93984375 7.26712891 9.93984375 7.26712891 11.28125 8.49609375 C12.62703125 9.73552734 12.62703125 9.73552734 14 11 C15.70605611 12.54418633 17.41433079 14.08592569 19.125 15.625 C19.95386719 16.37136719 20.78273438 17.11773437 21.63671875 17.88671875 C23.72376429 19.75298592 25.82491075 21.6002788 27.9375 23.4375 C32.13303221 27.09057956 36.23373553 30.84505549 40.34375 34.59375 C42.54352741 36.58648953 44.75955218 38.5533814 47 40.5 C51.17729083 44.12944941 55.25537239 47.8647902 59.34375 51.59375 C61.54352741 53.58648953 63.75955218 55.5533814 66 57.5 C90.35877775 78.69464785 90.35877775 78.69464785 91.375 88.6875 C91.29624975 94.79626939 87.93185773 99.01294634 83.8125 103.25 C74.60416563 108.97963028 63.46046983 111.31282284 53.12109375 114.24609375 C51.3823561 114.74358939 49.64375694 115.24156926 47.9052887 115.74000549 C43.34459165 117.04630014 38.78216497 118.34644517 34.21929932 119.6451416 C28.7214173 121.2111399 23.22556174 122.78423117 17.72943974 124.35639286 C13.44241588 125.58256537 9.15511341 126.80772683 4.86680603 128.02940369 C4.07517594 128.25516618 3.28354586 128.48092867 2.46792698 128.71353245 C0.91699272 129.15581373 -0.63408851 129.59757997 -2.18532658 130.03879452 C-6.068631 131.14698506 -9.94331649 132.27820684 -13.80905151 133.44631958 C-14.58485282 133.67950677 -15.36065413 133.91269396 -16.15996456 134.15294743 C-17.62867146 134.59586893 -19.09602615 135.04330933 -20.56172276 135.4960928 C-23.90527394 136.50288253 -26.46612921 137 -30 137 C-31.01024855 132.78715678 -31.19146449 128.67809313 -31.23828125 124.3671875 C-31.25297203 123.25563545 -31.25297203 123.25563545 -31.26795959 122.12162781 C-31.54314064 95.7941484 -28.93883985 71.24803098 -21 46 C-20.76555176 45.2457373 -20.53110352 44.49147461 -20.28955078 43.71435547 C-15.4570906 28.43941604 -8.79531006 13.41715926 0 0 Z " fill="#326CE5" transform="translate(338,415)"/>
<path d="M0 0 C5.818452 1.939484 8.35140097 9.70280195 11 15 C19.9226333 33.72583488 25.90896017 52.40517681 30.45068359 72.59716797 C30.80029288 74.12643666 31.16608219 75.65216209 31.55322266 77.17236328 C34.52835032 89.23495385 34.16105423 101.76331897 34.13037109 114.10620117 C34.12492978 116.72124822 34.13039105 119.33612948 34.13671875 121.95117188 C34.13605927 123.61718788 34.13478082 125.28320378 34.1328125 126.94921875 C34.13483673 127.72931808 34.13686096 128.50941742 34.13894653 129.31315613 C34.11501262 134.76997477 34.11501262 134.76997477 33 137 C20.15591918 133.92645907 7.4886282 130.32428819 -5.1875 126.625 C-9.01406892 125.51214647 -12.84104776 124.40070466 -16.66796875 123.2890625 C-18.07897102 122.87892159 -18.07897102 122.87892159 -19.51847839 122.460495 C-37.83813333 117.11590428 -37.83813333 117.11590428 -56.23828125 112.05859375 C-57.26244141 111.78466797 -58.28660156 111.51074219 -59.34179688 111.22851562 C-61.37067594 110.68828155 -63.40207353 110.15744076 -65.43554688 109.63476562 C-73.69099379 107.40056598 -81.24189521 104.50316524 -86 97 C-88.0173588 92.46094271 -88.87449068 87.92133587 -88 83 C-84.26023132 73.83212047 -75.40807101 67.09401548 -68.08984375 60.8046875 C-63.9990372 57.27206577 -60.01129268 53.62231885 -56 50 C-46.51127959 41.43139793 -46.51127959 41.43139793 -42.0625 37.5625 C-37.86696779 33.90942044 -33.76626447 30.15494451 -29.65625 26.40625 C-26.83277331 23.84851229 -23.96943998 21.34230031 -21.09375 18.84375 C-18.53580973 16.59123543 -16.0182102 14.29682908 -13.5 12 C-12.571875 11.15824219 -11.64375 10.31648438 -10.6875 9.44921875 C-8.98899755 7.90131026 -7.30012135 6.34271265 -5.625 4.76953125 C-4.92375 4.12371094 -4.2225 3.47789062 -3.5 2.8125 C-2.8915625 2.24144531 -2.283125 1.67039062 -1.65625 1.08203125 C-1.1096875 0.72496094 -0.563125 0.36789062 0 0 Z " fill="#326CE5" transform="translate(714,415)"/>
<path d="M0 0 C7.86895872 6.52547796 12.45298135 16.43884638 17.11920166 25.32897949 C18.75402513 28.44164952 20.40581153 31.54527495 22.05859375 34.6484375 C22.39149414 35.27375366 22.72439453 35.89906982 23.06738281 36.54333496 C26.15915401 42.33265763 29.37222617 48.04966842 32.625 53.75 C37.69335682 62.63520021 42.60412977 71.59582193 47.44848633 80.60498047 C51.0776642 87.3416034 54.8186714 93.99576885 58.70703125 100.5859375 C60 103 60 103 60 105 C35.03347776 112.12368747 35.03347776 112.12368747 23.6875 113.875 C22.99229248 113.98239502 22.29708496 114.08979004 21.58081055 114.20043945 C-13.38778294 119.13111429 -47.3287119 114.86998487 -81 105 C-79.67977581 101.54935291 -78.17793551 98.31759724 -76.41796875 95.0703125 C-75.90492188 94.12220703 -75.391875 93.17410156 -74.86328125 92.19726562 C-74.31027344 91.18341797 -73.75726563 90.16957031 -73.1875 89.125 C-72.61 88.06216797 -72.0325 86.99933594 -71.4375 85.90429688 C-67.00453606 77.773991 -62.46319318 69.70864706 -57.88427734 61.65991211 C-53.94236852 54.71382511 -50.10418923 47.71660973 -46.3125 40.6875 C-24.6648368 0.57993682 -24.6648368 0.57993682 -16.0625 -2.75 C-9.87562358 -3.49992441 -5.54350311 -2.97706648 0 0 Z " fill="#326CE5" transform="translate(538,635)"/>
<path d="M0 0 C4.6784247 3.80185711 7.43071192 8.28349028 8.41796875 14.20703125 C7.44966355 25.34118489 1.93281987 36.30029943 -2.43313599 46.45083618 C-4.2192138 50.60458103 -5.98321759 54.76770781 -7.75 58.9296875 C-8.29883095 60.2204142 -8.29883095 60.2204142 -8.85874939 61.53721619 C-12.91043331 71.08123573 -16.84582806 80.67233997 -20.76953125 90.26953125 C-21.09433472 91.06357361 -21.41913818 91.85761597 -21.75378418 92.67572021 C-22.99965569 95.72165032 -24.24527535 98.76768264 -25.48983765 101.81414795 C-28.71284544 109.70172105 -31.95883788 117.57980322 -35.20703125 125.45703125 C-39.35324571 124.58479058 -42.26782464 122.54785135 -45.64453125 120.08203125 C-46.26287842 119.63287354 -46.88122559 119.18371582 -47.51831055 118.72094727 C-65.2709487 105.66613917 -81.20362918 90.2699108 -94.20703125 72.45703125 C-94.83609375 71.61140625 -95.46515625 70.76578125 -96.11328125 69.89453125 C-124.20703125 31.0740767 -124.20703125 31.0740767 -124.20703125 15.45703125 C-123.03269531 15.27527344 -121.85835938 15.09351563 -120.6484375 14.90625 C-112.21600499 13.59290814 -103.79839208 12.23276783 -95.39868164 10.72338867 C-88.01203476 9.40485416 -80.60936987 8.18379248 -73.20703125 6.95703125 C-65.24257797 5.63661289 -57.27920325 4.31574084 -49.33203125 2.89453125 C-47.38154172 2.54962761 -45.43104947 2.20473911 -43.48046875 1.86035156 C-41.77174344 1.5572143 -40.06348767 1.25142838 -38.35546875 0.94433594 C-35.18256207 0.37675144 -32.00753685 -0.17762733 -28.83203125 -0.73046875 C-27.35114014 -0.99935913 -27.35114014 -0.99935913 -25.84033203 -1.27368164 C-7.56704539 -4.41540999 -7.56704539 -4.41540999 0 0 Z " fill="#326CE5" transform="translate(444.20703125,589.54296875)"/>
<path d="M0 0 C41.02383351 3.86891438 79.1062881 21.36013203 111 47 C111.63921387 47.51208008 112.27842773 48.02416016 112.93701172 48.55175781 C114.90880484 50.14404466 116.86294903 51.75558689 118.8125 53.375 C119.4297998 53.87483398 120.04709961 54.37466797 120.68310547 54.88964844 C122.39453125 56.3359375 122.39453125 56.3359375 125 59 C125 60.32 125 61.64 125 63 C123.44970703 64.53295898 123.44970703 64.53295898 121.2578125 65.99609375 C120.44828125 66.5478125 119.63875 67.09953125 118.8046875 67.66796875 C117.92039062 68.25191406 117.03609375 68.83585937 116.125 69.4375 C114.27253278 70.69528314 112.42098785 71.95442558 110.5703125 73.21484375 C109.63219727 73.84890137 108.69408203 74.48295898 107.72753906 75.13623047 C103.76107626 77.84657571 99.87940267 80.66711561 96 83.5 C88.03164218 89.28762771 79.97551141 94.94359725 71.8984375 100.578125 C67.27355503 103.80478719 62.66601165 107.0554514 58.0625 110.3125 C52.96935625 113.91171032 47.87078232 117.50268867 42.75 121.0625 C41.25726562 122.10083984 41.25726562 122.10083984 39.734375 123.16015625 C33.13306519 127.60189471 28.15638404 130.03620124 20 129 C14.46994594 127.30941257 11.10292549 124.54334649 7.91015625 119.78125 C5.73036054 115.51521205 5.71055101 110.93047552 5.44335938 106.22827148 C5.39605179 105.44866058 5.3487442 104.66904968 5.30000305 103.86581421 C5.14429037 101.28444368 4.99398097 98.70278865 4.84375 96.12109375 C4.73578447 94.31142857 4.62750296 92.50178222 4.5189209 90.69215393 C4.23316141 85.91402509 3.95206033 81.13563265 3.67181396 76.35717773 C3.44547381 72.51092277 3.21588053 68.66486551 2.98607635 64.81881618 C2.70835014 60.16964168 2.43208672 55.5203807 2.15625 50.87109375 C2.10506516 50.00873045 2.05388031 49.14636715 2.00114441 48.25787163 C1.45747222 39.07548738 0.92901331 29.89229259 0.43164062 20.70727539 C0.38891273 19.93784575 0.34618484 19.16841612 0.30216217 18.37567043 C-0.02398011 12.24834964 -0.11022415 6.13581074 0 0 Z " fill="#326CE5" transform="translate(555,311)"/>
<path d="M0 0 C6.13661893 3.41812689 9.60884842 8.64747782 12.75244141 14.78515625 C14.07074432 17.12559539 15.6174604 18.9235947 17.38671875 20.9375 C19.76870719 24.04008677 20.34621663 25.83696304 19.953125 29.734375 C19.640537 31.49050245 19.32253329 33.24567188 19 35 C18.86294892 36.98391415 18.73302629 38.96833063 18.609375 40.953125 C17.65632803 49.2345502 16.66227601 56.9572047 9.95458984 62.53027344 C6.28826936 64.92851031 2.43246525 66.84018034 -1.5625 68.625 C-2.22423218 68.92071899 -2.88596436 69.21643799 -3.56774902 69.52111816 C-15.60535345 74.73664733 -15.60535345 74.73664733 -21 73 C-25.00816226 71.40997985 -28.90266193 69.59236984 -32.80297852 67.75488281 C-34.05966519 67.16813599 -35.32148149 66.59225321 -36.58813477 66.02734375 C-38.42787117 65.20660802 -40.25136587 64.34976815 -42.07421875 63.4921875 C-43.16307373 62.99058105 -44.25192871 62.48897461 -45.3737793 61.97216797 C-48.88315541 59.33679191 -49.14102539 57.23847289 -50 53 C-50.30381592 51.97745117 -50.60763184 50.95490234 -50.9206543 49.90136719 C-56.98755121 29.05655195 -56.98755121 29.05655195 -54.80859375 22.3125 C-52.625 19.75 -52.625 19.75 -49.875 17.49609375 C-47.19462808 15.16897737 -46.3929139 14.08938513 -44.9375 11.03515625 C-36.92160388 -4.46176748 -15.30232013 -4.71136657 0 0 Z " fill="#326CE5" transform="translate(545,495)"/>
</svg>
