<?xml version="1.0" encoding="UTF-8"?>
<svg version="1.1" xmlns="http://www.w3.org/2000/svg" width="512" height="512">
<path d="M0 0 C1.01790619 0.00215515 2.03581238 0.0043103 3.08456421 0.00653076 C17.69363523 0.05620146 32.02575853 0.30709809 46.375 3.3125 C47.34985352 3.51117676 48.32470703 3.70985352 49.32910156 3.91455078 C86.24061921 11.63577862 120.90178362 25.97314294 151.375 48.3125 C152.2424585 48.94454346 152.2424585 48.94454346 153.12744141 49.58935547 C160.37723416 54.90780842 167.10620794 60.63229802 173.65625 66.78125 C175.95412963 68.92065518 178.29158807 70.9726899 180.6875 73 C183.94952617 75.83245894 186.76563412 78.88522849 189.55078125 82.18359375 C190.78419972 83.62302216 192.05413567 85.03182121 193.35546875 86.41015625 C205.65985595 99.47656379 215.47661398 114.78779807 224.375 130.3125 C224.80409668 131.06080078 225.23319336 131.80910156 225.67529297 132.58007812 C238.71070917 155.62033667 247.38567422 180.84839856 252.6875 206.75 C252.83485596 207.46889404 252.98221191 208.18778809 253.1340332 208.9284668 C256.10789088 224.57475609 256.74800362 240.04818046 256.6875 255.9375 C256.68534485 256.95540619 256.6831897 257.97331238 256.68096924 259.02206421 C256.63129854 273.63113523 256.38040191 287.96325853 253.375 302.3125 C253.07698486 303.77478027 253.07698486 303.77478027 252.77294922 305.26660156 C245.05172138 342.17811921 230.71435706 376.83928362 208.375 407.3125 C207.9536377 407.89080566 207.53227539 408.46911133 207.09814453 409.06494141 C201.77969158 416.31473416 196.05520198 423.04370794 189.90625 429.59375 C187.76684482 431.89162963 185.7148101 434.22908807 183.6875 436.625 C180.85504106 439.88702617 177.80227151 442.70313412 174.50390625 445.48828125 C173.06447784 446.72169972 171.65567879 447.99163567 170.27734375 449.29296875 C157.21093621 461.59735595 141.89970193 471.41411398 126.375 480.3125 C125.62669922 480.74159668 124.87839844 481.17069336 124.10742188 481.61279297 C101.06716333 494.64820917 75.83910144 503.32317422 49.9375 508.625 C49.21860596 508.77235596 48.49971191 508.91971191 47.7590332 509.0715332 C32.11274391 512.04539088 16.63931954 512.68550362 0.75 512.625 C-0.77685928 512.62176727 -0.77685928 512.62176727 -2.33456421 512.61846924 C-16.94363523 512.56879854 -31.27575853 512.31790191 -45.625 509.3125 C-47.08728027 509.01448486 -47.08728027 509.01448486 -48.57910156 508.71044922 C-85.49061921 500.98922138 -120.15178362 486.65185706 -150.625 464.3125 C-151.20330566 463.8911377 -151.78161133 463.46977539 -152.37744141 463.03564453 C-159.62723416 457.71719158 -166.35620794 451.99270198 -172.90625 445.84375 C-175.20412963 443.70434482 -177.54158807 441.6523101 -179.9375 439.625 C-183.19952617 436.79254106 -186.01563412 433.73977151 -188.80078125 430.44140625 C-190.03419972 429.00197784 -191.30413567 427.59317879 -192.60546875 426.21484375 C-204.90985595 413.14843621 -214.72661398 397.83720193 -223.625 382.3125 C-224.26864502 381.19004883 -224.26864502 381.19004883 -224.92529297 380.04492188 C-237.96070917 357.00466333 -246.63567422 331.77660144 -251.9375 305.875 C-252.08485596 305.15610596 -252.23221191 304.43721191 -252.3840332 303.6965332 C-255.35789088 288.05024391 -255.99800362 272.57681954 -255.9375 256.6875 C-255.93534485 255.66959381 -255.9331897 254.65168762 -255.93096924 253.60293579 C-255.88129854 238.99386477 -255.63040191 224.66174147 -252.625 210.3125 C-252.42632324 209.33764648 -252.22764648 208.36279297 -252.02294922 207.35839844 C-244.30172138 170.44688079 -229.96435706 135.78571638 -207.625 105.3125 C-206.99295654 104.4450415 -206.99295654 104.4450415 -206.34814453 103.56005859 C-201.02969158 96.31026584 -195.30520198 89.58129206 -189.15625 83.03125 C-187.01684482 80.73337037 -184.9648101 78.39591193 -182.9375 76 C-180.10504106 72.73797383 -177.05227151 69.92186588 -173.75390625 67.13671875 C-172.31447784 65.90330028 -170.90567879 64.63336433 -169.52734375 63.33203125 C-156.46093621 51.02764405 -141.14970193 41.21088602 -125.625 32.3125 C-124.87669922 31.88340332 -124.12839844 31.45430664 -123.35742188 31.01220703 C-100.31716333 17.97679083 -75.08910144 9.30182578 -49.1875 4 C-48.46860596 3.85264404 -47.74971191 3.70528809 -47.0090332 3.5534668 C-31.36274391 0.57960912 -15.88931954 -0.06050362 0 0 Z " fill="#A9A900" transform="translate(255.625,-0.3125)"/>
<path d="M0 0 C7.27512083 3.23338703 10.71342277 7.03004833 13.8125 14.25 C16.3765576 21.34630027 16.21750494 28.41199371 16.37890625 35.88867188 C16.5349753 41.08305709 16.88119333 45.36320887 18.8125 50.25 C20.31612273 57.04762777 21.01032428 63.95704271 21.6875 70.875 C22.78024338 81.87439762 24.4922625 92.76095961 26.24169922 103.67236328 C26.82872296 107.35168147 27.40149668 111.03303199 27.97265625 114.71484375 C29.20027215 122.56888637 30.4788233 130.41335704 31.8125 138.25 C31.9800882 139.23474304 31.9800882 139.23474304 32.15106201 140.23937988 C40.1844297 191.85969989 40.1844297 191.85969989 69 233.5625 C73.2540952 235.7666474 77.12436784 236.26471317 81.8125 235.25 C93.12589384 230.21971583 98.45860798 219.51029433 103.79296875 209.0144043 C104.15648437 208.29937744 104.52 207.58435059 104.89453125 206.84765625 C105.21655518 206.20320557 105.5385791 205.55875488 105.87036133 204.89477539 C106.8125 203.25 106.8125 203.25 108.8125 201.25 C109.8025 201.25 110.7925 201.25 111.8125 201.25 C113.04785157 206.15528489 112.70836725 208.48280057 110.125 212.8125 C103.77669091 222.98753432 95.46478677 232.50775167 84.8125 238.25 C83.719375 238.86875 82.62625 239.4875 81.5 240.125 C74.51673462 242.25548774 67.5398114 242.39756283 60.75 239.5 C44.50912685 230.2568021 33.98217131 209.47526108 28.8125 192.25 C27.48214922 187.09243318 26.39093793 181.88385105 25.31689453 176.66796875 C24.82396742 174.30497257 24.30344062 171.94955538 23.77734375 169.59375 C21.7758057 160.41349583 20.34295375 151.2466159 19.32421875 141.90625 C19.19616852 140.74110367 19.06811829 139.57595734 18.93618774 138.37550354 C17.51137185 125.0041844 16.58680096 111.60252146 15.6875 98.1875 C15.43419137 94.47723091 15.17925598 90.76708062 14.92288208 87.05702209 C14.76606374 84.78099151 14.61119264 82.50482551 14.45870972 80.22850037 C14.02716037 73.88785208 13.49003919 67.5692144 12.8125 61.25 C12.59223145 61.98710205 12.37196289 62.7242041 12.14501953 63.48364258 C2.42467637 95.83564332 -9.43020841 126.92382566 -24.5 157.1875 C-25.36189941 158.91987915 -25.36189941 158.91987915 -26.24121094 160.68725586 C-29.62049225 167.38753813 -33.21737093 173.88141997 -37.1875 180.25 C-36.32922607 180.06091064 -35.47095215 179.87182129 -34.58666992 179.67700195 C-23.82767892 177.31722326 -13.01499381 175.26746518 -2.1875 173.25 C-1.18299805 173.06228027 -0.17849609 172.87456055 0.85644531 172.68115234 C3.88280147 172.11711916 6.90996437 171.55766446 9.9375 171 C10.87980469 170.82476807 11.82210938 170.64953613 12.79296875 170.46899414 C13.66824219 170.30906982 14.54351562 170.14914551 15.4453125 169.984375 C16.21762207 169.84225586 16.98993164 169.70013672 17.78564453 169.55371094 C19.8125 169.25 19.8125 169.25 22.8125 169.25 C22.75 171.0625 22.75 171.0625 21.8125 173.25 C15.98713862 176.29416969 9.98417284 177.37551995 3.5625 178.5625 C1.34200902 178.99122263 -0.87802823 179.42230053 -3.09765625 179.85546875 C-4.25152832 180.08024902 -5.40540039 180.3050293 -6.59423828 180.53662109 C-12.70250404 181.74930981 -18.79048767 183.04883516 -24.875 184.375 C-26.01420898 184.61645752 -27.15341797 184.85791504 -28.32714844 185.10668945 C-37.28590239 186.66100733 -37.28590239 186.66100733 -44.37866211 191.77392578 C-45.62150104 193.72303611 -46.72355776 195.71100179 -47.8125 197.75 C-48.67675944 199.29070866 -49.54406876 200.82970956 -50.4140625 202.3671875 C-50.86426758 203.16866211 -51.31447266 203.97013672 -51.77832031 204.79589844 C-54.13220289 208.89521023 -56.65300641 212.88561702 -59.1875 216.875 C-59.69273193 217.67043213 -60.19796387 218.46586426 -60.71850586 219.28540039 C-73.68434563 239.61208799 -87.71049274 258.60266325 -104.1875 276.25 C-93.50308789 278.50907118 -83.10051484 279.82915235 -72.1875 280.25 C-71.8575 281.24 -71.5275 282.23 -71.1875 283.25 C-74.64575936 283.30898369 -78.1038862 283.34392131 -81.5625 283.375 C-82.52800781 283.39175781 -83.49351562 283.40851563 -84.48828125 283.42578125 C-90.22198591 283.46426249 -95.39818465 282.91998051 -100.99633789 281.71191406 C-103.93199664 281.0930543 -106.20660557 280.75528053 -109.1875 281.25 C-111.55323992 282.97322983 -113.52558978 284.62442467 -115.625 286.625 C-125.09255412 295.14327065 -135.01824014 302.12782419 -146.6875 307.3125 C-147.65695557 307.74332886 -147.65695557 307.74332886 -148.64599609 308.18286133 C-156.03276921 311.27742375 -164.23564225 312.17035391 -172.1875 311.25 C-175.18947464 309.44881522 -176.63916366 308.34667268 -178.1875 305.25 C-178.2827699 303.77331663 -178.31735959 302.29224543 -178.3125 300.8125 C-178.31507813 300.03003906 -178.31765625 299.24757813 -178.3203125 298.44140625 C-178.1875 296.25 -178.1875 296.25 -177.1875 293.25 C-176.5275 293.25 -175.8675 293.25 -175.1875 293.25 C-174.5275 297.21 -173.8675 301.17 -173.1875 305.25 C-162.71165378 308.74194874 -152.66501977 304.81460346 -143.1875 300.25 C-132.91733874 294.60705425 -123.46797613 286.53047613 -115.1875 278.25 C-119.8075 275.94 -124.4275 273.63 -129.1875 271.25 C-129.8475 273.23 -130.5075 275.21 -131.1875 277.25 C-134.4821381 283.3827902 -138.13630139 288.72313665 -145.07421875 290.8203125 C-152.31998871 292.29357441 -157.89416453 291.62327913 -164.1640625 287.65234375 C-164.83179688 287.18957031 -165.49953125 286.72679687 -166.1875 286.25 C-167.21875 285.54875 -168.25 284.8475 -169.3125 284.125 C-186.4369076 268.75087715 -190.52917464 237.56561229 -191.875 215.875 C-192.20285932 209.33092792 -192.29916426 202.80096994 -192.1875 196.25 C-193.18265625 196.01925781 -194.1778125 195.78851563 -195.203125 195.55078125 C-196.6146076 195.22145814 -198.02606364 194.89202123 -199.4375 194.5625 C-200.19530762 194.38678467 -200.95311523 194.21106934 -201.73388672 194.0300293 C-205.92151298 193.05024579 -210.08879491 192.02280513 -214.2421875 190.90625 C-224.34926537 188.21219633 -233.71996233 186.53001421 -244.1875 186.25 C-244.58690796 187.28386841 -244.58690796 187.28386841 -244.99438477 188.33862305 C-253.40110776 209.99855299 -262.11515055 228.14737174 -278.1875 245.25 C-278.72632813 245.86488281 -279.26515625 246.47976563 -279.8203125 247.11328125 C-288.78007033 256.9059814 -304.3264142 266.58606376 -317.7265625 267.48828125 C-332.03275057 267.87895967 -341.84394872 263.88552946 -352.53515625 254.1015625 C-369.41272729 236.67395055 -374.58797385 213.31676839 -374.55834961 189.83520508 C-374.18659136 168.9591908 -368.02875943 149.44801965 -356.1875 132.25 C-355.46304687 131.19683594 -354.73859375 130.14367187 -353.9921875 129.05859375 C-349.42907678 122.70680722 -344.58146921 116.84608781 -338.1875 112.25 C-337.5275 112.25 -336.8675 112.25 -336.1875 112.25 C-337.76781683 115.96634947 -340.12105761 118.51691524 -342.8125 121.5 C-348.75555157 128.37374771 -352.54227651 135.98003898 -356.1875 144.25 C-356.59742188 145.14976562 -357.00734375 146.04953125 -357.4296875 146.9765625 C-368.47382221 173.94479842 -366.7359411 206.08681728 -355.75 232.6953125 C-350.27900284 245.14183104 -344.14959627 255.4444969 -331.328125 261.2109375 C-322.75676882 264.04673444 -315.26414314 262.66476659 -307.203125 258.9296875 C-278.98081183 243.21000529 -266.77450578 213.19263355 -256.1875 184.25 C-260.3400298 183.24958173 -264.2346901 183.11642651 -268.5 183.125 C-269.53265991 183.12681274 -269.53265991 183.12681274 -270.58618164 183.12866211 C-276.48185171 183.1720568 -282.34609492 183.5071606 -288.22192383 183.98193359 C-289.87474266 184.10777107 -291.53121546 184.18391915 -293.1875 184.25 C-294.1875 183.25 -294.1875 183.25 -294.4375 179.9375 C-294.17896951 176.12417526 -293.94246951 174.80818597 -291.1875 172.25 C-287.02804896 170.93003264 -282.82284865 171.05904068 -278.5 171.0625 C-277.25416138 171.0615332 -277.25416138 171.0615332 -275.9831543 171.06054688 C-267.6283952 171.13020285 -259.44849192 172.0653251 -251.1875 173.25 C-251.08824219 172.31929687 -250.98898438 171.38859375 -250.88671875 170.4296875 C-250.14494921 165.25930787 -248.52121046 160.35929677 -247 155.375 C-243.26030718 142.76245685 -239.91876831 130.12063423 -237.1875 117.25 C-236.94193359 116.10273438 -236.69636719 114.95546875 -236.44335938 113.7734375 C-233.0813481 97.4867549 -231.71470441 81.73137887 -231.6875 65.125 C-231.68300842 64.27646454 -231.67851685 63.42792908 -231.67388916 62.55368042 C-231.64763366 50.40785434 -231.88559371 37.94879766 -238.125 27.125 C-238.60839844 26.25617188 -239.09179688 25.38734375 -239.58984375 24.4921875 C-241.2672912 22.13801919 -242.71155428 20.73075977 -245.1875 19.25 C-249.65612288 19.07812989 -252.61286456 20.18357347 -256.125 22.8125 C-262.00744914 28.3522822 -264.99760678 35.96741359 -268.1875 43.25 C-268.6 44.1678125 -269.0125 45.085625 -269.4375 46.03125 C-277.11601185 64.98757613 -282.38736125 95.85354106 -274.1875 115.25 C-272.18407789 118.59297199 -272.18407789 118.59297199 -269.1875 120.25 C-265.47749282 120.66831404 -265.47749282 120.66831404 -262.1875 120.25 C-262.1875 120.91 -262.1875 121.57 -262.1875 122.25 C-266.33002247 124.25849574 -269.6025158 124.73262992 -274.1875 124.25 C-279.66932936 121.4553419 -282.772809 117.89152727 -285.00317383 112.15039062 C-287.15690214 105.49228945 -287.73112661 99.35198563 -287.6875 92.375 C-287.68105469 91.28364746 -287.67460937 90.19229492 -287.66796875 89.06787109 C-287.17068508 66.6279456 -278.53193423 40.66784393 -263.05078125 23.94140625 C-257.50007814 18.85590492 -252.19359818 15.53331148 -244.484375 15.84375 C-236.94180668 17.1778097 -231.45849342 23.26843014 -227.1875 29.25 C-210.17183635 57.0095282 -221.35015872 102.68555342 -228.18212891 132.17089844 C-235.69081135 163.18216618 -235.69081135 163.18216618 -241.1875 176.25 C-240.38425293 176.33491699 -239.58100586 176.41983398 -238.75341797 176.50732422 C-228.56018276 177.75568164 -219.1056407 180.37761061 -209.3125 183.375 C-207.73855837 183.84857823 -206.16434066 184.32123994 -204.58984375 184.79296875 C-200.78580813 185.93480825 -196.98568564 187.08885684 -193.1875 188.25 C-193.20127686 187.68909668 -193.21505371 187.12819336 -193.22924805 186.55029297 C-193.88369621 137.5109668 -181.86530872 68.70108152 -147.48828125 31.55078125 C-140.8147796 24.8772796 -135.01521721 21.26592723 -125.4375 20.875 C-110.73972871 21.20121441 -99.79986847 31.0159263 -89.97265625 41.09765625 C-74.1875 58.42365069 -74.1875 58.42365069 -74.1875 66.25 C-77.73468789 64.78893362 -79.48820896 62.95907835 -81.8125 59.9375 C-82.50472656 59.04933594 -83.19695312 58.16117188 -83.91015625 57.24609375 C-85.51067284 55.14043985 -87.10133944 53.0293885 -88.68359375 50.91015625 C-96.91985957 39.9185023 -106.009871 30.73391755 -119.96484375 27.6328125 C-127.5668277 27.22449109 -133.63970159 30.47528604 -139.5 35.05859375 C-171.41732604 64.37155465 -179.54286562 125.73207968 -181.35400391 167.04833984 C-181.70990027 175.78004506 -181.97074629 184.51376816 -182.1875 193.25 C-181.42775879 193.38720459 -180.66801758 193.52440918 -179.88525391 193.66577148 C-163.85831184 197.13658346 -146.82215778 211.17721784 -137.83984375 224.6171875 C-137.29457031 225.48601562 -136.74929687 226.35484375 -136.1875 227.25 C-132.75663965 225.79054716 -130.75942275 223.91848407 -128.25 221.1875 C-122.8081861 215.64819432 -116.72991966 211.36324183 -110.1875 207.25 C-109.5908252 206.87343262 -108.99415039 206.49686523 -108.37939453 206.10888672 C-94.13611358 197.273301 -78.56638258 191.88833156 -62.6875 186.75 C-61.90463623 186.49452393 -61.12177246 186.23904785 -60.31518555 185.97583008 C-56.49842624 184.78243737 -53.23821919 183.92851435 -49.1875 184.25 C-48.79691406 182.95835937 -48.79691406 182.95835937 -48.3984375 181.640625 C-47.15867276 178.16928374 -45.61659874 175.21236147 -43.8125 172 C-21.82822392 131.60980521 12.12615107 63.5690958 3.28125 16.41796875 C1.93418066 12.00338824 0.45045215 9.23386829 -3.1875 6.25 C-6.20438359 5.13522831 -6.20438359 5.13522831 -9.4375 4.5 C-10.51515625 4.25765625 -11.5928125 4.0153125 -12.703125 3.765625 C-13.52296875 3.59546875 -14.3428125 3.4253125 -15.1875 3.25 C-14.8575 2.26 -14.5275 1.27 -14.1875 0.25 C-9.922809 -1.8823455 -4.50596014 -1.06022592 0 0 Z " fill="#050500" transform="translate(387.1875,100.75)"/>
<path d="M0 0 C-10.1335916 27.35035692 -30.97087657 53.25693856 -50 75 C-51.23068642 76.43619911 -52.4601546 77.87344468 -53.6875 79.3125 C-54.450625 80.199375 -55.21375 81.08625 -56 82 C-60.20402145 80.59614364 -62.92189207 78.59912401 -66.1875 75.625 C-67.04730469 74.85414063 -67.90710938 74.08328125 -68.79296875 73.2890625 C-74.03593933 67.85122044 -74.08481716 61.23260998 -75 54 C-75.185625 52.783125 -75.37125 51.56625 -75.5625 50.3125 C-74.11145068 41.76743176 -66.7500968 34.94244376 -60 30 C-16.20535714 0 -16.20535714 0 0 0 Z " fill="#A8A800" transform="translate(333,293)"/>
<path d="M0 0 C14.47900034 2.08349914 27.49565037 15.77486195 37 26 C37.59683594 26.64195312 38.19367188 27.28390625 38.80859375 27.9453125 C40.25 29.6875 40.25 29.6875 42 33 C41.3125 36.0625 41.3125 36.0625 40.64453125 37.79296875 C38.87550781 43.85053387 38.67861168 51.10083459 41.30859375 56.87109375 C43.02702954 59.44668696 44.80976465 61.80976465 47 64 C46.83798554 71.45266501 43.21330247 78.15890578 38.48046875 83.81640625 C36.19227464 85.93555172 34.13042365 86.96597644 31.125 87.75 C23.91648936 86.01995745 19.1400777 79.55302459 15.37109375 73.49609375 C10.25238747 64.17742334 7.47357843 54.28880684 5 44 C4.7215625 42.89011719 4.443125 41.78023438 4.15625 40.63671875 C2.52930142 33.71405255 1.53682454 26.81445644 0.8125 19.75 C0.7285498 18.93442627 0.64459961 18.11885254 0.55810547 17.27856445 C0.0188015 11.50754604 -0.08971579 5.79395305 0 0 Z " fill="#A8A800" transform="translate(206,302)"/>
<path d="M0 0 C0.66 0 1.32 0 2 0 C1.67 0.99 1.34 1.98 1 3 C0.34 2.34 -0.32 1.68 -1 1 C-0.67 0.67 -0.34 0.34 0 0 Z M-3 2 C-2.34 2.33 -1.68 2.66 -1 3 C-3.97 5.97 -6.94 8.94 -10 12 C-10 9 -10 9 -8.46875 7.17578125 C-7.8190625 6.56089844 -7.169375 5.94601563 -6.5 5.3125 C-5.8503125 4.68988281 -5.200625 4.06726563 -4.53125 3.42578125 C-3.77328125 2.72001953 -3.77328125 2.72001953 -3 2 Z " fill="#0F0F00" transform="translate(49,213)"/>
</svg>
