<?xml version="1.0" standalone="no"?>
<!DOCTYPE svg PUBLIC "-//W3C//DTD SVG 20010904//EN"
 "http://www.w3.org/TR/2001/REC-SVG-20010904/DTD/svg10.dtd">
<svg version="1.0" xmlns="http://www.w3.org/2000/svg"
 width="225.000000pt" height="225.000000pt" viewBox="0 0 225.000000 225.000000"
 preserveAspectRatio="xMidYMid meet">

<g transform="translate(0.000000,225.000000) scale(0.100000,-0.100000)"
fill="#000000" stroke="none">
<path d="M916 1768 c-13 -19 -14 -25 -2 -43 18 -27 56 -32 73 -9 17 23 16 39
-3 58 -22 22 -50 20 -68 -6z"/>
<path d="M1258 1764 c-9 -18 -9 -30 -1 -42 14 -24 63 -22 79 3 12 18 11 24 -2
43 -21 31 -61 29 -76 -4z"/>
<path d="M1149 1644 c-19 -23 1 -49 37 -49 20 0 30 6 32 18 8 40 -43 63 -69
31z"/>
<path d="M620 1605 c-17 -20 -5 -62 20 -70 44 -14 80 41 48 73 -17 17 -53 15
-68 -3z"/>
<path d="M896 1601 c-19 -21 -13 -47 13 -54 40 -10 67 33 39 61 -17 17 -32 15
-52 -7z"/>
<path d="M1562 1608 c-32 -32 4 -87 48 -73 25 8 37 50 20 70 -15 18 -51 20
-68 3z"/>
<path d="M1416 1557 c-11 -8 -17 -23 -14 -38 4 -31 46 -39 65 -13 17 23 16 29
-3 48 -19 19 -25 20 -48 3z"/>
<path d="M1107 1523 c-4 -3 -7 -17 -7 -30 0 -18 6 -23 24 -23 28 0 37 17 24
43 -9 17 -29 23 -41 10z"/>
<path d="M912 1463 c-13 -26 -4 -43 23 -43 29 0 39 24 19 45 -20 20 -31 19
-42 -2z"/>
<path d="M1302 1471 c-21 -13 -10 -46 16 -49 27 -4 40 22 22 43 -14 17 -20 18
-38 6z"/>
<path d="M682 1451 c-8 -4 -12 -19 -10 -32 2 -19 9 -24 33 -24 27 0 30 3 30
30 0 22 -5 31 -20 33 -11 1 -26 -2 -33 -7z"/>
<path d="M1094 1386 c-8 -21 3 -36 27 -36 15 0 20 6 17 22 -4 27 -35 37 -44
14z"/>
<path d="M1224 1355 c-4 -9 -2 -21 4 -27 15 -15 44 -1 40 19 -4 23 -36 29 -44
8z"/>
<path d="M970 1335 c0 -29 34 -36 44 -9 8 21 -1 34 -25 34 -14 0 -19 -7 -19
-25z"/>
<path d="M1570 1340 c-15 -28 4 -52 39 -48 22 2 26 8 26 33 0 25 -4 31 -27 33
-19 2 -30 -3 -38 -18z"/>
<path d="M458 1328 c-37 -30 -25 -78 20 -78 52 0 70 46 30 74 -27 19 -30 19
-50 4z"/>
<path d="M764 1325 c-4 -9 0 -23 8 -31 20 -20 50 -7 46 20 -4 26 -45 35 -54
11z"/>
<path d="M1434 1325 c-9 -23 3 -45 26 -45 25 0 37 25 20 45 -16 19 -39 19 -46
0z"/>
<path d="M1730 1315 c-17 -20 -5 -62 20 -70 44 -14 80 41 48 73 -17 17 -53 15
-68 -3z"/>
<path d="M1322 1258 c4 -30 43 -33 43 -3 0 13 -8 21 -23 23 -20 3 -23 0 -20
-20z"/>
<path d="M880 1254 c-11 -12 -10 -18 3 -32 16 -15 18 -15 34 0 13 14 14 20 3
32 -7 9 -16 16 -20 16 -4 0 -13 -7 -20 -16z"/>
<path d="M580 1205 c-14 -17 -5 -51 16 -59 22 -8 54 11 54 32 0 38 -46 56 -70
27z"/>
<path d="M1150 1143 c-12 -52 -19 -69 -34 -71 -17 -4 -18 1 -12 47 4 28 9 58
12 66 5 11 -1 15 -18 15 -22 0 -25 -7 -46 -107 -12 -58 -21 -108 -19 -109 10
-10 46 11 51 30 7 27 54 52 70 36 19 -19 52 -10 82 22 l29 32 -27 -17 c-52
-33 -55 -25 -32 91 6 29 4 32 -18 32 -21 0 -25 -7 -38 -67z"/>
<path d="M1367 1154 c-4 -4 -7 -16 -7 -26 0 -14 6 -19 23 -16 14 2 22 10 22
23 0 20 -25 32 -38 19z"/>
<path d="M1490 1145 c-17 -20 -5 -45 20 -45 11 0 23 7 26 15 6 15 -11 45 -26
45 -4 0 -13 -7 -20 -15z"/>
<path d="M713 1134 c-3 -8 2 -23 11 -32 15 -15 17 -15 32 0 21 21 11 48 -16
48 -11 0 -23 -7 -27 -16z"/>
<path d="M843 1124 c-3 -8 -1 -20 5 -26 16 -16 42 -2 42 22 0 24 -38 28 -47 4z"/>
<path d="M1616 1097 c-21 -16 -18 -45 7 -61 37 -23 77 35 41 61 -10 7 -21 13
-24 13 -3 0 -14 -6 -24 -13z"/>
<path d="M1330 1024 c-11 -12 -10 -18 3 -32 16 -15 18 -15 34 0 13 14 14 20 3
32 -7 9 -16 16 -20 16 -4 0 -13 -7 -20 -16z"/>
<path d="M884 1005 c-4 -9 -2 -21 4 -27 15 -15 44 -1 40 19 -4 23 -36 29 -44
8z"/>
<path d="M458 999 c-36 -21 -16 -79 27 -79 46 0 60 48 23 74 -26 19 -27 19
-50 5z"/>
<path d="M1750 1002 c-37 -12 -41 -67 -6 -83 37 -17 68 4 64 43 -3 32 -29 50
-58 40z"/>
<path d="M627 959 c-22 -13 -22 -58 -1 -66 39 -15 73 46 37 65 -12 7 -25 7
-36 1z"/>
<path d="M764 955 c-4 -9 0 -23 9 -32 21 -21 49 -9 45 19 -4 28 -45 38 -54 13z"/>
<path d="M1442 961 c-21 -13 -10 -46 16 -49 27 -4 40 22 22 43 -14 17 -20 18
-38 6z"/>
<path d="M1236 924 c-8 -21 1 -34 25 -34 14 0 19 7 19 25 0 29 -34 36 -44 9z"/>
<path d="M984 915 c-4 -9 -2 -21 4 -27 15 -15 44 -1 40 19 -4 23 -36 29 -44 8z"/>
<path d="M1123 903 c-15 -5 -17 -39 -4 -47 14 -9 41 4 41 19 0 17 -22 33 -37
28z"/>
<path d="M1503 844 c-9 -24 10 -49 37 -49 27 0 46 25 37 49 -9 22 -65 22 -74
0z"/>
<path d="M907 824 c-12 -13 -8 -42 8 -48 25 -9 46 5 43 28 -3 21 -37 34 -51
20z"/>
<path d="M1286 815 c-5 -14 18 -45 34 -45 17 0 30 36 18 48 -17 17 -45 15 -52
-3z"/>
<path d="M1097 767 c-3 -9 0 -22 6 -32 17 -22 49 -9 45 19 -4 25 -43 34 -51
13z"/>
<path d="M786 744 c-9 -8 -16 -19 -16 -24 0 -13 30 -40 44 -40 33 0 50 62 20
74 -24 9 -31 8 -48 -10z"/>
<path d="M626 704 c-30 -30 -13 -74 29 -74 27 0 45 18 45 45 0 42 -44 59 -74
29z"/>
<path d="M1562 708 c-7 -7 -12 -21 -12 -33 0 -12 5 -26 12 -33 27 -27 78 -7
78 29 0 39 -52 63 -78 37z"/>
<path d="M1304 696 c-20 -15 -15 -45 9 -60 15 -9 22 -7 37 12 11 13 17 29 14
37 -8 19 -40 25 -60 11z"/>
<path d="M1033 644 c-9 -24 10 -49 37 -49 31 0 48 28 31 49 -17 21 -60 21 -68
0z"/>
<path d="M924 542 c-41 -27 -9 -90 40 -78 30 7 45 48 26 71 -13 16 -48 20 -66
7z"/>
<path d="M1260 530 c-27 -51 36 -95 72 -50 16 20 17 25 5 44 -20 29 -63 33
-77 6z"/>
</g>
</svg>
