<?xml version="1.0" encoding="UTF-8"?>
<svg version="1.1" xmlns="http://www.w3.org/2000/svg" width="1465" height="2048">
<path d="M0 0 C1.53964519 0.71509262 3.08008136 1.42848345 4.62109375 2.140625 C6.31009801 2.92664903 7.99889876 3.71311053 9.6875 4.5 C10.48381836 4.86770508 11.28013672 5.23541016 12.10058594 5.61425781 C19.34321801 9.02025236 25.78181682 12.95822986 32 18 C33.11955078 18.65742187 33.11955078 18.65742187 34.26171875 19.328125 C37.3794475 21.23167408 40.24749933 23.38410302 43.125 25.625 C43.68832031 26.06158936 44.25164063 26.49817871 44.83203125 26.94799805 C54.45408103 34.43616909 63.46030064 41.89307066 71.3515625 51.23046875 C73.07423737 53.21611689 73.07423737 53.21611689 76 55 C76 55.66 76 56.32 76 57 C82.26849318 53.53290443 82.26849318 53.53290443 88.5 50 C95.72147289 45.86618456 102.97573836 41.93460176 110.5 38.375 C111.29019531 37.9934375 112.08039062 37.611875 112.89453125 37.21875 C117.52388628 35.02151112 122.1366959 33.19041714 127.02099609 31.64111328 C128.60205998 31.12891568 130.15531948 30.5311747 131.6953125 29.90625 C134.38411547 28.84895798 137.06563561 28.17132863 139.875 27.5 C142.99318576 26.7509841 146.0661789 25.97970074 149.1328125 25.0390625 C186.65295025 14.28977338 232.35667812 17.61545028 269 30 C269.6801416 30.22800293 270.3602832 30.45600586 271.06103516 30.69091797 C280.80487505 34.01802711 289.87889622 38.23963012 299 43 C300.3317914 43.64900704 301.6648685 44.29539226 303 44.9375 C306.79454269 46.8388869 310.49202481 48.91438287 314.1875 51 C314.78240234 51.33249756 315.37730469 51.66499512 315.99023438 52.00756836 C319.60609772 54.06964531 322.79787823 56.34978865 326 59 C327.74279787 60.28069237 329.49304765 61.5512959 331.25 62.8125 C345.34951291 73.03559696 345.34951291 73.03559696 351 79 C351.825 79.825 352.65 80.65 353.5 81.5 C354.325 82.325 355.15 83.15 356 84 C356.78375 84.7425 357.5675 85.485 358.375 86.25 C361.26135798 89.2738036 363.74720464 92.47606715 366.25390625 95.81640625 C368.0370957 98.04639037 369.98064229 99.98464102 372 102 C373.02701465 103.29147093 374.02823318 104.60396129 375 105.9375 C376.66288623 108.20203351 378.33030127 110.39830448 380.125 112.5625 C381.94017218 114.92222384 383.37553014 117.35814978 384.8359375 119.9465332 C386.07859637 122.13864809 387.34722376 124.31416364 388.62109375 126.48828125 C419.49139874 179.29246456 426.46386536 239.22023185 411.69921875 298.42529297 C411 301 411 301 409.75 304.44140625 C408.84334394 307.53442562 408.93987898 308.95974103 410 312 C411.33782654 314.30669461 412.69706817 316.48598659 414.1875 318.6875 C415.01268803 319.94076859 415.83690423 321.19467758 416.66015625 322.44921875 C417.06250488 323.05813965 417.46485352 323.66706055 417.87939453 324.29443359 C425.22553975 335.47529863 431.39161904 347.43646713 436 360 C436.2254248 360.60150879 436.45084961 361.20301758 436.68310547 361.82275391 C452.42604628 403.97122589 456.96896525 453.75694234 443 497 C442.67277346 498.30890614 442.35813262 499.62109814 442.0625 500.9375 C437.0460539 521.13082115 428.10036413 543.22536076 414.95703125 559.53515625 C413.02325159 561.97071506 411.58952693 564.50197571 410.08496094 567.21533203 C408.25342376 570.22805407 405.9520412 572.80058751 403.625 575.4375 C400.53800699 578.99499367 397.53613156 582.52590085 394.8125 586.375 C392.27820233 589.8460438 389.34805291 592.4780919 386.05859375 595.2265625 C383.98129784 597.01611154 382.0923021 598.90397779 380.1875 600.875 C372.5936166 608.55804837 363.96652569 615.01371522 355 621 C353.92878906 621.721875 352.85757813 622.44375 351.75390625 623.1875 C344.74938709 627.83940147 337.64352836 631.86194134 330.05859375 635.4921875 C327.03349818 636.92642777 327.03349818 636.92642777 324.421875 638.57421875 C321.92765667 640.04258922 319.5459561 640.99673889 316.8125 641.9375 C313.27667403 643.16205142 309.8099819 644.48474752 306.3515625 645.91015625 C272.26878415 659.57304528 234.74781307 661.09137056 198.79833984 656.3671875 C196.56147096 656.07367408 194.32209961 655.79925419 192.08203125 655.53125 C170.81284435 652.72770699 145.79592161 644.91978141 127.89453125 632.91796875 C125.26384011 631.17482523 122.92664074 630.11846143 120 629 C118.22974488 628.03631082 116.47924523 627.03547619 114.75 626 C113.87859375 625.484375 113.0071875 624.96875 112.109375 624.4375 C110 623 110 623 109 621 C107.33779419 619.99260254 105.66979326 618.99477045 104 618 C102.65887977 616.98941849 101.32605895 615.96776508 100 614.9375 C97.11235478 612.73348291 94.50496792 611.09530248 91 610 C90.89204102 610.58861816 90.78408203 611.17723633 90.67285156 611.78369141 C89.91476917 614.28074219 88.96256299 615.5226238 87.234375 617.4609375 C86.67363281 618.09773438 86.11289062 618.73453125 85.53515625 619.390625 C84.94605469 620.04546875 84.35695313 620.7003125 83.75 621.375 C82.59846151 622.67403893 81.44741332 623.97351266 80.296875 625.2734375 C79.73935547 625.89702148 79.18183594 626.52060547 78.60742188 627.16308594 C77.08871838 628.89861527 75.64329262 630.67582428 74.203125 632.4765625 C73.11257813 633.72566406 73.11257813 633.72566406 72 635 C71.34 635 70.68 635 70 635 C69.67 635.99 69.34 636.98 69 638 C67.50390625 639.54296875 67.50390625 639.54296875 65.5625 641.1875 C64.8509375 641.79335937 64.139375 642.39921875 63.40625 643.0234375 C59.98124852 645.83683158 56.50368255 648.58110776 53.00390625 651.30078125 C50.91158643 652.8493637 50.91158643 652.8493637 50 655 C48.35274892 656.03166936 46.68252376 657.02691646 45 658 C43.36447014 659.10963601 41.73953155 660.23502725 40.125 661.375 C39.2484375 661.98988281 38.371875 662.60476563 37.46875 663.23828125 C36.03866682 664.25879947 34.61685402 665.29156064 33.21875 666.35546875 C28.73934225 669.74796138 23.91079414 672.13446798 18.86328125 674.5859375 C16.57679726 675.71514242 14.38020883 676.89068349 12.1875 678.1875 C8.88299912 680.06652991 5.49492477 681.52852239 2 683 C0.73163675 683.54916958 -0.53659004 684.09865444 -1.8046875 684.6484375 C-14.09290724 689.89781796 -26.68811783 694.48969746 -39.95996094 696.49707031 C-42.09871092 696.850895 -44.22770261 697.26648295 -46.34619141 697.72631836 C-58.38902635 700.21232197 -70.18398841 700.49268149 -82.45556641 700.44604492 C-85.86291934 700.43753019 -89.26859236 700.46641255 -92.67578125 700.49804688 C-106.01330341 700.53916802 -118.08083294 699.23438725 -131 696 C-132.82935921 695.68436504 -134.66196258 695.38538239 -136.5 695.125 C-148.92809605 692.88794271 -160.86672339 688.24340002 -172.4375 683.3125 C-173.33130371 682.932146 -174.22510742 682.55179199 -175.14599609 682.15991211 C-179.1605703 680.40522569 -182.4988477 678.64350982 -186 676 C-187.64735997 675.30810881 -189.29543285 674.61779406 -190.94921875 673.94140625 C-195.17145873 672.00319704 -199.0555875 669.44148705 -203 667 C-203.79792969 666.52820312 -204.59585937 666.05640625 -205.41796875 665.5703125 C-206.14628906 665.13460937 -206.87460937 664.69890625 -207.625 664.25 C-208.27726562 663.86328125 -208.92953125 663.4765625 -209.6015625 663.078125 C-210.06304687 662.72234375 -210.52453125 662.3665625 -211 662 C-211 661.34 -211 660.68 -211 660 C-211.8971875 659.8453125 -211.8971875 659.8453125 -212.8125 659.6875 C-215.31537724 658.90088144 -216.21314755 657.86454169 -218 656 C-218.99 655.67 -219.98 655.34 -221 655 C-222.13688546 653.89756561 -223.26677574 652.78713609 -224.36328125 651.64453125 C-226.42190789 649.57607823 -228.57835398 647.63693108 -230.75 645.6875 C-231.62011719 644.90503906 -232.49023438 644.12257813 -233.38671875 643.31640625 C-235.01962342 641.86900345 -236.66607072 640.43657334 -238.33203125 639.02734375 C-244.33388836 633.90842183 -249.13555025 628.19189643 -254 622 C-254.7734375 621.05769531 -255.546875 620.11539063 -256.34375 619.14453125 C-257.0759375 618.25121094 -257.808125 617.35789062 -258.5625 616.4375 C-259.22378906 615.63183594 -259.88507813 614.82617188 -260.56640625 613.99609375 C-262 612 -262 612 -262 610 C-262.99 609.67 -263.98 609.34 -265 609 C-266.5703125 607.109375 -266.5703125 607.109375 -268.125 604.75 C-268.64320313 603.98171875 -269.16140625 603.2134375 -269.6953125 602.421875 C-271.04644403 599.91378654 -271.59217235 597.80505847 -272 595 C-272.66 595 -273.32 595 -274 595 C-274.39832031 594.21753906 -274.79664063 593.43507813 -275.20703125 592.62890625 C-275.73683594 591.61699219 -276.26664062 590.60507813 -276.8125 589.5625 C-277.33457031 588.55316406 -277.85664063 587.54382812 -278.39453125 586.50390625 C-279.81418484 583.71308782 -279.81418484 583.71308782 -283 583 C-285.04032202 583.48414421 -287.08046966 583.96903188 -289.11987305 584.45703125 C-300.08285258 586.52379962 -311.72558963 586.16332684 -322.85449219 586.13037109 C-324.99942076 586.12500145 -327.14414008 586.13036704 -329.2890625 586.13671875 C-343.55908762 586.14719989 -357.4151741 585.59539437 -371.375 582.3125 C-372.5398291 582.0441333 -373.7046582 581.7757666 -374.90478516 581.49926758 C-397.13868119 576.24272588 -418.49807435 567.97201547 -438 556 C-438.79792969 555.52433594 -439.59585938 555.04867187 -440.41796875 554.55859375 C-443.73922898 552.55377857 -447.03212995 550.50842362 -450.3125 548.4375 C-450.95767578 548.03853516 -451.60285156 547.63957031 -452.26757812 547.22851562 C-453.88045829 546.20617148 -455.44524256 545.10873771 -457 544 C-457 543.34 -457 542.68 -457 542 C-458.06541016 541.65775391 -458.06541016 541.65775391 -459.15234375 541.30859375 C-462.600553 539.72402572 -464.81106307 537.66852024 -467.5625 535.0625 C-471.30746676 531.51221662 -471.30746676 531.51221662 -475.33984375 528.30859375 C-475.88769531 527.87675781 -476.43554688 527.44492188 -477 527 C-477 526.34 -477 525.68 -477 525 C-477.639375 524.731875 -478.27875 524.46375 -478.9375 524.1875 C-481 523 -481 523 -482 520 C-482.56976563 519.73445313 -483.13953125 519.46890625 -483.7265625 519.1953125 C-487.02882942 517.45906907 -489.05225341 514.71702891 -491.375 511.875 C-491.85815674 511.29258545 -492.34131348 510.7101709 -492.83911133 510.11010742 C-503 497.79248268 -503 497.79248268 -503 495 C-503.66 495 -504.32 495 -505 495 C-506.38297902 492.98240724 -507.64278005 490.98214192 -508.875 488.875 C-509.5587518 487.725881 -510.24364448 486.57744008 -510.9296875 485.4296875 C-511.27201416 484.85395996 -511.61434082 484.27823242 -511.96704102 483.68505859 C-512.93661748 482.10339546 -513.97606227 480.56516958 -515.01953125 479.03125 C-517.21949345 475.66404948 -519.03698094 472.22821991 -520.8125 468.625 C-521.15579346 467.93092041 -521.49908691 467.23684082 -521.8527832 466.52172852 C-527.81916782 454.34327654 -533.22687381 442.05587414 -537 429 C-537.21398437 428.26281738 -537.42796875 427.52563477 -537.6484375 426.76611328 C-553.30773129 371.21016288 -543.932265 315.3534604 -520 264 C-519.34 264 -518.68 264 -518 264 C-517.79375 263.030625 -517.5875 262.06125 -517.375 261.0625 C-515.94485688 256.05699908 -512.96185457 252.21226016 -510 248 C-508.42650252 245.55439897 -506.85733088 243.10628647 -505.296875 240.65234375 C-504.65492188 239.83443359 -504.65492188 239.83443359 -504 239 C-503.34 239 -502.68 239 -502 239 C-501.88462891 238.40396973 -501.76925781 237.80793945 -501.65039062 237.19384766 C-500.58640014 233.60487676 -497.94263734 231.1230135 -495.5 228.375 C-494.95609619 227.75399414 -494.41219238 227.13298828 -493.85180664 226.49316406 C-492.75095054 225.2390201 -491.64689363 223.98767803 -490.53955078 222.73925781 C-489.21198357 221.2394816 -487.89944631 219.72642571 -486.58984375 218.2109375 C-481.18418492 212.03023866 -475.40949643 206.14950995 -469 201 C-468.34 201 -467.68 201 -467 201 C-467 200.34 -467 199.68 -467 199 C-464.3242226 196.57313212 -461.78894144 194.46910031 -458.6875 192.625 C-456.14406075 191.0871065 -453.94657224 189.41268702 -451.625 187.5625 C-448.47224024 185.07976661 -445.37763685 182.91329111 -441.84765625 181.015625 C-439.6761817 179.82200263 -437.60026417 178.50232765 -435.5 177.1875 C-417.76577081 166.56293927 -397.18068965 158.4427232 -377 154 C-375.9776123 153.77151367 -374.95522461 153.54302734 -373.90185547 153.30761719 C-349.98636105 148.1930027 -326.34166913 148.45549986 -302 149 C-301.94050171 148.39762512 -301.88100342 147.79525024 -301.81970215 147.17462158 C-301.73675903 146.37610779 -301.65381592 145.57759399 -301.56835938 144.75488281 C-301.48823608 143.96688293 -301.40811279 143.17888306 -301.32556152 142.36700439 C-300.81760668 138.67390412 -299.71703745 135.26301453 -298.5 131.75 C-298.24299316 130.99493164 -297.98598633 130.23986328 -297.72119141 129.46191406 C-295.50775005 123.12711453 -292.99457237 116.92656195 -290.375 110.75 C-289.8171582 109.42887207 -289.8171582 109.42887207 -289.24804688 108.08105469 C-287.19857907 103.35781406 -284.96693943 99.2036982 -282 95 C-281.566875 94.0925 -281.13375 93.185 -280.6875 92.25 C-278.68450965 88.39238896 -276.25615065 84.98715649 -273.71875 81.46484375 C-272.57595684 79.82597446 -271.48849905 78.14706567 -270.4609375 76.43359375 C-269.12513713 74.20845035 -267.7037047 72.18158288 -266.125 70.125 C-264.08970571 67.46190349 -262.14255831 64.76604676 -260.25 62 C-259.5075 61.01 -258.765 60.02 -258 59 C-257.34 59 -256.68 59 -256 59 C-255.773125 58.46375 -255.54625 57.9275 -255.3125 57.375 C-252.36533421 52.04203334 -248.28068842 48.22372086 -243.640625 44.390625 C-241.82861194 42.89959099 -241.82861194 42.89959099 -239.6875 40.625 C-238 39 -238 39 -236 39 C-235.7834375 38.43796875 -235.566875 37.8759375 -235.34375 37.296875 C-233.54930872 34.22963235 -231.26107786 32.47339428 -228.5 30.25 C-227.03046875 29.05117187 -227.03046875 29.05117187 -225.53125 27.828125 C-223 26 -223 26 -221 26 C-221 25.34 -221 24.68 -221 24 C-219.36391684 22.95070992 -217.69061277 21.95896102 -216 21 C-214.44998514 19.90758338 -212.90848818 18.80299726 -211.375 17.6875 C-207.10556279 14.68447441 -202.76740444 12.08608427 -198.1484375 9.66015625 C-195.81582154 8.43017885 -193.51979821 7.17044087 -191.2265625 5.87109375 C-180.53715701 -0.10378718 -169.64544239 -4.27203049 -158 -8 C-156.82566406 -8.38929687 -155.65132813 -8.77859375 -154.44140625 -9.1796875 C-105.51238363 -24.93959741 -46.46192227 -22.33856981 0 0 Z " fill="#12BEF9" transform="translate(582,1348)"/>
<path d="M0 0 C21.78 0 43.56 0 66 0 C66 29.04 66 58.08 66 88 C67.98 88.66 69.96 89.32 72 90 C74.125 91.1484375 74.125 91.1484375 76 92.375 C77.02867187 93.03822266 77.02867187 93.03822266 78.078125 93.71484375 C79.65076403 94.76646619 81.20344438 95.84788127 82.75 96.9375 C85.73581361 98.83234325 88.70447439 100.38004882 91.875 101.9375 C97.82639537 104.86163856 103.3335922 108.12139451 108.75 111.9375 C112.7150642 114.45379074 116.85662324 116.4288769 121.09765625 118.4375 C124 120 124 120 126.37109375 121.9375 C129.10157565 124.07969085 131.7617056 125.45162247 134.87207031 126.94628906 C138.48199957 128.73385844 141.91630129 130.81386723 145.375 132.875 C146.11596924 133.31336182 146.85693848 133.75172363 147.62036133 134.20336914 C151.65562292 136.5936721 155.67547869 139.00837025 159.6875 141.4375 C162.10362685 142.89529754 164.47295613 144.23647807 167 145.5 C172.34591957 148.17295979 177.37942095 151.40289119 182.48046875 154.51171875 C188.55880524 158.19350921 194.74601378 161.62675037 201 165 C208.36300076 168.990006 215.56278786 173.25104716 222.7734375 177.5078125 C226.32052284 179.60172169 229.87657345 181.67969387 233.4375 183.75 C237.1047347 185.88293212 240.74721695 188.05069022 244.375 190.25 C246.8934438 191.76906134 249.36722034 193.18361017 252 194.5 C255.37227376 196.18613688 258.53996545 198.1069593 261.76171875 200.0625 C265.98169473 202.58735897 270.2403892 205.04277029 274.5 207.5 C279.52428533 210.39879398 284.54198749 213.30114304 289.5 216.3125 C292.68356554 218.24126948 295.9084546 220.05091065 299.1875 221.8125 C303.70772635 224.24843527 308.11008503 226.83974689 312.5 229.5 C319.84971341 233.95115622 327.29372878 238.19115331 335 242 C335 242.66 335 243.32 335 244 C335.804375 244.226875 336.60875 244.45375 337.4375 244.6875 C344.22850688 247.1894499 350.19644926 251.11131036 356.3125 254.9375 C361.51511589 258.17617414 366.79309554 260.98578638 372.34375 263.578125 C375 265 375 265 377.34375 266.921875 C380.09171453 269.07175313 382.76703673 270.47027486 385.89453125 271.97314453 C389.34102287 273.65402855 392.6637413 275.54955533 396 277.4375 C396.70133057 277.83291992 397.40266113 278.22833984 398.12524414 278.63574219 C402.2238252 280.95816013 406.25634462 283.35157872 410.22265625 285.89453125 C412.9708173 287.60382702 415.81593404 289.13063704 418.65234375 290.6875 C423.66911301 293.49221626 428.56081568 296.51410449 433.46875 299.50390625 C439.55035778 303.18943755 445.74186639 306.62451337 452 310 C460.10693436 314.3931432 468.02160645 319.11192915 475.9609375 323.79833984 C479.69016631 325.99604868 483.43068009 328.17430972 487.171875 330.3515625 C489.12207406 331.48828074 491.06985105 332.62916111 493.015625 333.7734375 C497.70331719 336.5259542 502.3995968 339.23773635 507.1875 341.8125 C512.83864084 344.86362394 518.35543507 348.12792782 523.8815918 351.39770508 C527.39819333 353.47628528 530.91525612 355.54024702 534.5 357.5 C543.14632404 362.24045565 551.6063885 367.34167039 560.046875 372.4375 C560.69253418 372.82711914 561.33819336 373.21673828 562.00341797 373.61816406 C563.75123717 374.67515465 565.49680001 375.73587379 567.2421875 376.796875 C567.84551407 377.13892975 568.44884064 377.4809845 569.07044983 377.83340454 C571 379 571 379 572.89720154 380.49935913 C582.92291663 387.48148768 595.2327649 385.85344026 606.91796875 385.8046875 C609.34606744 385.81594799 611.77415524 385.82983312 614.20222473 385.84622192 C620.56280746 385.88215717 626.92290848 385.88264626 633.28356934 385.87554932 C640.93135587 385.87447321 648.57900646 385.91778314 656.2266922 385.95358276 C667.81804373 386.00290908 679.40814285 385.99613926 691 386 C691 407.78 691 429.56 691 452 C520.72 452 350.44 452 175 452 C175 765.83 175 1079.66 175 1403 C169.47573657 1399.68544194 169.47573657 1399.68544194 167.3125 1396.8125 C164.03670651 1392.77149491 160.12112439 1389.81069663 155.9765625 1386.69921875 C155.32429687 1386.13847656 154.67203125 1385.57773438 154 1385 C154 1384.34 154 1383.68 154 1383 C153.28585937 1382.74992187 152.57171875 1382.49984375 151.8359375 1382.2421875 C148.71681957 1380.87596229 146.33455542 1379.18239882 143.625 1377.125 C139.51212716 1374.07191949 135.48955721 1371.44884939 131 1369 C129.35151365 1368.00437953 127.70588729 1367.00401473 126.0625 1366 C121.802527 1363.42843093 117.46432911 1361.19300377 113 1359 C112.01 1358.34 111.02 1357.68 110 1357 C109.62598651 1354.36989155 109.62598651 1354.36989155 109.62740451 1350.94871652 C109.61729169 1348.99611079 109.61729169 1348.99611079 109.60697457 1347.00405848 C109.61467307 1345.54276556 109.62264387 1344.08147406 109.63085651 1342.62018394 C109.62863971 1341.07443827 109.62510623 1339.52869402 109.62036702 1337.98295403 C109.6111071 1333.70038865 109.62072859 1329.41803487 109.63320142 1325.13548516 C109.64345915 1320.48971059 109.63640025 1315.84395861 109.63146895 1311.19817984 C109.62523168 1303.04437594 109.63020629 1294.89063752 109.64238358 1286.7368412 C109.66044081 1274.6123339 109.66139546 1262.48786816 109.65875761 1250.36334987 C109.65480976 1229.97096396 109.6648634 1209.57860714 109.68280983 1189.18622971 C109.70054172 1168.98599479 109.71210379 1148.78577197 109.71536827 1128.58552933 C109.71557449 1127.33102297 109.71578071 1126.07651661 109.71599318 1124.78399491 C109.71700813 1118.4133722 109.7179123 1112.04274947 109.7187738 1105.67212673 C109.72508034 1060.51187754 109.74530486 1015.35164561 109.77368164 970.19140625 C109.78055651 959.24062099 109.78738255 948.28983571 109.79400635 937.33905029 C109.7944172 936.65989826 109.79482804 935.98074624 109.79525134 935.28101384 C109.81427721 903.71964696 109.82545829 872.15827871 109.83461073 840.5969076 C109.83520493 838.54837624 109.8358025 836.49984489 109.83640077 834.45131354 C109.84036005 820.87579588 109.84418401 807.30027819 109.84791735 793.72476046 C109.85552427 766.06818521 109.86399039 738.41161024 109.87297058 710.7550354 C109.87338245 709.4833425 109.87379432 708.21164961 109.87421867 706.90142057 C109.9018354 621.93427368 109.94960274 536.96713601 110 452 C95.48 452 80.96 452 66 452 C66 747.68 66 1043.36 66 1348 C58.62569719 1346.52513944 51.29580415 1344.82395104 44 1343 C29.48 1342.34 14.96 1341.68 0 1341 C0 1047.63 0 754.26 0 452 C-49.5 452 -99 452 -150 452 C-150 554.3 -150 656.6 -150 762 C-205.44 762 -260.88 762 -318 762 C-318 659.7 -318 557.4 -318 452 C-468.48 452 -618.96 452 -774 452 C-774 430.22 -774 408.44 -774 386 C-766.389375 386.01683838 -758.77875 386.03367676 -750.9375 386.05102539 C-726.53919685 386.09864662 -702.14107966 386.10186356 -677.74274862 386.07740569 C-673.9479655 386.07364213 -670.15318213 386.07026951 -666.35839844 386.06713867 C-665.60297925 386.06650885 -664.84756007 386.06587903 -664.06924939 386.06523012 C-651.86468728 386.05598532 -639.66037994 386.07835461 -627.45587111 386.11256976 C-614.9170686 386.14701225 -602.37859887 386.14710414 -589.83978653 386.11582941 C-582.1129781 386.09762394 -574.38713848 386.10567187 -566.66042149 386.14815276 C-560.71859723 386.17793792 -554.77750114 386.15974809 -548.83568954 386.12437057 C-546.41066887 386.11726804 -543.98554535 386.12531203 -541.56064224 386.15022469 C-526.48839458 386.29444185 -516.37868949 384.79612161 -504 376 C-502.45485894 375.10906355 -500.90006922 374.23385591 -499.32421875 373.3984375 C-493.53049257 370.17843352 -487.80379204 366.93800269 -482.25 363.3125 C-477.59791164 360.28339585 -472.78081171 357.83241941 -467.79296875 355.40625 C-463.01892638 353.00253636 -458.61440369 350.13742078 -454.25 347.0625 C-451.26418639 345.16765675 -448.29552561 343.61995118 -445.125 342.0625 C-440.91937188 339.99594136 -436.9216497 337.82205944 -432.98828125 335.28125 C-426.16799639 330.88625307 -419.10506524 326.91043703 -412 323 C-408.66957233 321.1505207 -405.40061959 319.27314972 -402.25 317.125 C-399.55682316 315.36407668 -396.89321259 313.83029715 -394.0625 312.3125 C-389.45631959 309.83706971 -384.96942265 307.21077624 -380.5 304.5 C-375.36129161 301.38565076 -370.17269405 298.43180038 -364.875 295.59375 C-361.36338671 293.64709481 -357.93339073 291.58063478 -354.5 289.5 C-349.36115975 286.38586281 -344.17270594 283.43180675 -338.875 280.59375 C-335.36338312 278.64709282 -331.93343312 276.58056951 -328.5 274.5 C-323.40573576 271.41408813 -318.26635536 268.47807667 -313.015625 265.6640625 C-309.08977428 263.49772518 -305.23402745 261.22022274 -301.375 258.9375 C-295.62815022 255.53850208 -289.86386555 252.19423293 -284 249 C-276.78640514 245.0512343 -269.72770447 240.88333594 -262.70703125 236.6015625 C-256.83971357 233.04382548 -250.88076936 229.67062268 -244.89306641 226.3215332 C-240.35342985 223.77691073 -235.86823888 221.15942625 -231.41796875 218.4609375 C-224.73836108 214.42511639 -217.99585365 210.51362469 -211.125 206.8125 C-208.32123952 205.30094207 -205.69862023 203.79480527 -203.0625 202 C-200.14747759 200.09631189 -197.24767087 198.59459695 -194.125 197.0625 C-188.17360463 194.13836144 -182.6664078 190.87860549 -177.25 187.0625 C-173.2849358 184.54620926 -169.14337676 182.5711231 -164.90234375 180.5625 C-161.97604951 179.10569887 -161.97604951 179.10569887 -159.62890625 177.0625 C-156.89842435 174.92030915 -154.2382944 173.54837753 -151.12792969 172.05371094 C-147.51800096 170.26614182 -144.08369443 168.18613828 -140.625 166.125 C-139.88040527 165.68446289 -139.13581055 165.24392578 -138.36865234 164.79003906 C-134.44162456 162.46373447 -130.52893049 160.11488097 -126.625 157.75 C-122.30927791 155.14289143 -117.88806112 152.75685717 -113.44921875 150.3671875 C-110.86926482 148.97441275 -110.86926482 148.97441275 -108.0625 147 C-105.14747759 145.09631189 -102.24767087 143.59459695 -99.125 142.0625 C-93.17360463 139.13836144 -87.6664078 135.87860549 -82.25 132.0625 C-78.2849358 129.54620926 -74.14337676 127.5711231 -69.90234375 125.5625 C-66.95933612 124.09081689 -66.95933612 124.09081689 -64.50390625 122 C-61.78575199 119.82886899 -59.13020357 118.51642637 -56 117 C-52.89272751 115.27043943 -49.82264322 113.47770141 -46.75 111.6875 C-45.90679199 111.19910645 -45.06358398 110.71071289 -44.19482422 110.20751953 C-39.07524559 107.23533892 -33.99828406 104.20923669 -29.0078125 101.0234375 C-26.69566645 99.84487278 -24.55379297 99.4004205 -22 99 C-22 98.34 -22 97.68 -22 97 C-21.32195313 96.63648437 -20.64390625 96.27296875 -19.9453125 95.8984375 C-19.01460937 95.39570312 -18.08390625 94.89296875 -17.125 94.375 C-15.76761719 93.64410156 -15.76761719 93.64410156 -14.3828125 92.8984375 C-13.26648438 92.27195312 -12.15015625 91.64546875 -11 91 C-10.18297607 90.72820923 -9.36595215 90.45641846 -8.52416992 90.1763916 C-5.25648357 88.83007124 -3.36754999 87.65222548 -1 85 C0.5288205 78.63430381 0.30494138 72.3344163 0.1953125 65.8203125 C0.19910134 63.92315328 0.2072919 62.02599818 0.21969604 60.12887573 C0.24048051 55.14683565 0.20161309 50.16699022 0.15020752 45.1852417 C0.10092471 39.20221362 0.12591935 33.21908808 0.13842773 27.2359314 C0.14911164 18.15594472 0.06561002 9.08119833 0 0 Z M-27.0625 177.0625 C-30.39342874 179.07163162 -33.76034687 180.97255348 -37.1875 182.8125 C-41.70772109 185.24843244 -46.1101259 187.83968771 -50.5 190.5 C-55.72145431 193.66314759 -60.99173337 196.67705548 -66.37109375 199.56640625 C-69.02922194 201.01593529 -71.64068838 202.52694827 -74.25 204.0625 C-81.29665148 208.2054132 -88.42378325 212.20430952 -95.55175781 216.20532227 C-103.96900763 220.94307657 -112.2443246 225.88592432 -120.4375 231 C-125.23220701 233.95962662 -130.08800569 236.71399138 -135.0546875 239.37109375 C-138.59155864 241.32716174 -142.0441912 243.40503231 -145.5 245.5 C-150.7073936 248.65474893 -155.9628793 251.66192705 -161.328125 254.54296875 C-166.2851939 257.24616568 -171.13474561 260.13587852 -176 263 C-181.83381853 266.43430448 -187.66803788 269.84523776 -193.625 273.0625 C-198.02602705 275.44006634 -202.31432665 277.96347006 -206.58984375 280.55859375 C-209.66225287 282.39606371 -212.78631185 284.12871632 -215.921875 285.85546875 C-223.44657722 289.99971264 -230.83521553 294.38392936 -238.109375 298.953125 C-244.36245943 302.87252242 -250.64133298 306.40270339 -257.27734375 309.62890625 C-262.02621629 312.02037578 -266.40852104 314.87873073 -270.75 317.9375 C-273.73581361 319.83234325 -276.70447439 321.38004882 -279.875 322.9375 C-285.82639537 325.86163856 -291.3335922 329.12139451 -296.75 332.9375 C-300.62906973 335.39921733 -304.66369565 337.35768899 -308.8046875 339.33984375 C-311.96501497 340.98182318 -314.93016202 342.79198397 -317.93359375 344.69946289 C-321.26352171 346.7952245 -324.66460481 348.76706175 -328.0625 350.75 C-334.40726351 354.46334007 -340.72529677 358.21683472 -347.00219727 362.04394531 C-350.59075069 364.21563098 -354.24290851 366.13934517 -358 368 C-359.59461065 368.9181871 -361.17847111 369.85534398 -362.75 370.8125 C-364.03970703 371.59367187 -364.03970703 371.59367187 -365.35546875 372.390625 C-366.66451172 373.18726563 -366.66451172 373.18726563 -368 374 C-374.26486344 377.79921275 -380.56850644 381.48908806 -387 385 C-387 385.33 -387 385.66 -387 386 C-259.29 386 -131.58 386 0 386 C0 312.08 0 238.16 0 162 C-7.78814742 162 -20.46761826 173.06369869 -27.0625 177.0625 Z M66 164 C66 237.26 66 310.52 66 386 C192.39 386 318.78 386 449 386 C445.75386611 382.75386611 444.52600208 381.54280923 440.6875 379.8125 C436.26214228 377.6937709 432.0608443 375.30235737 427.875 372.75 C421.21602952 368.6974555 414.46415972 364.8390437 407.65625 361.04296875 C401.38896241 357.54819565 395.18378645 353.95238731 389 350.3125 C388.26378418 349.87969727 387.52756836 349.44689453 386.76904297 349.00097656 C381.86855239 346.11512043 376.9922926 343.19138998 372.125 340.25 C367.11208827 337.22364324 362.03635148 334.35875972 356.875 331.59375 C352.69842082 329.27847241 348.63037855 326.7910094 344.546875 324.31640625 C340.90852888 322.12008756 337.24736178 320.00751524 333.5 318 C329.0803342 315.63232189 324.78659716 313.09748269 320.5 310.5 C314.42396914 306.82043034 308.26352346 303.35230833 302 300 C296.8318429 297.19887523 291.87872843 294.28783872 287 291 C282.90801574 288.63199943 278.78794432 286.31615745 274.66210938 284.0078125 C267.0964186 279.77288038 259.58158315 275.45568813 252.08691406 271.09643555 C246.91927843 268.09565242 241.72131375 265.15616155 236.5 262.25 C231.06127823 259.21916019 225.79416165 256.00488481 220.5703125 252.61328125 C217.0657782 250.41362674 213.44347657 248.47159621 209.796875 246.51953125 C205.90061978 244.40271103 202.09164742 242.14558667 198.26953125 239.8984375 C195.35273871 238.20481602 192.41868287 236.55103086 189.47192383 234.91064453 C180.80231837 230.08262852 172.28304502 225.02443136 163.7890625 219.89453125 C163.0043457 219.42096191 162.21962891 218.94739258 161.41113281 218.45947266 C159.75688545 217.45814714 158.10532356 216.45237559 156.45605469 215.44287109 C152.03348042 212.75200737 147.60707034 210.24662941 142.95214844 207.98339844 C139.41264549 206.20036719 136.02810638 204.15301172 132.625 202.125 C131.50810791 201.46419434 131.50810791 201.46419434 130.36865234 200.79003906 C126.44162456 198.46373447 122.52893049 196.11488097 118.625 193.75 C115.39866077 191.80335162 112.1317272 189.9710379 108.8125 188.1875 C103.62596377 185.3924925 98.59592765 182.37624899 93.55908203 179.32373047 C88.96873273 176.55266268 84.30991768 173.94848667 79.58203125 171.41796875 C75.95186307 169.42439681 72.42548098 167.27119493 68.8984375 165.1015625 C67.22165717 163.91635369 67.22165717 163.91635369 66 164 Z M-284 452 C-284 498.86 -284 545.72 -284 594 C-250.67 594 -217.34 594 -183 594 C-183 547.14 -183 500.28 -183 452 C-216.33 452 -249.66 452 -284 452 Z " fill="#12BEF9" transform="translate(774,0)"/>
<path d="M0 0 C2.26360686 -0.00881244 4.52719836 -0.02288142 6.79074365 -0.04176039 C13.01611457 -0.078347 19.23912663 -0.0399278 25.4643172 0.01061714 C31.48633979 0.04784208 37.50801241 0.02873009 43.53005864 0.01110741 C55.84902478 -0.02289439 68.16728766 -0.0003605 80.48615074 0.05511284 C92.68584893 0.11001004 104.88523522 0.14224608 117.08506203 0.1434803 C118.22304657 0.14362918 118.22304657 0.14362918 119.38402069 0.14378106 C122.46354365 0.14411737 125.54306657 0.14429489 128.62258955 0.1442599 C157.513579 0.14403545 186.40409334 0.20811288 215.29490391 0.30507377 C240.97426359 0.39097636 266.65333732 0.4354619 292.33283997 0.44032288 C293.55787452 0.44056737 293.55787452 0.44056737 294.80765725 0.44081681 C296.45557811 0.44114529 298.10349897 0.44147004 299.75141983 0.44179106 C303.85565078 0.44259096 307.95988173 0.44342329 312.06411266 0.44429684 C313.2786134 0.44454245 313.2786134 0.44454245 314.51764951 0.44479302 C339.80220004 0.45032271 365.08669788 0.49187743 390.37119985 0.53935707 C398.76371146 0.55508152 407.15621363 0.56839303 415.54873824 0.57455134 C416.6830628 0.5753869 416.6830628 0.5753869 417.840303 0.57623933 C419.36326846 0.57735061 420.88623393 0.57846132 422.40919939 0.57957147 C436.16776106 0.58982012 449.92611711 0.61757022 463.68456813 0.67503458 C470.32194392 0.70236399 476.95914353 0.72136457 483.59659576 0.71917343 C489.66552172 0.71746808 495.73390658 0.73869947 501.80269662 0.778758 C504.00507691 0.789255 506.2075165 0.79124318 508.40991034 0.78413855 C511.39058016 0.77580603 514.36948598 0.79785681 517.34997845 0.82794094 C518.64998692 0.81338359 518.64998692 0.81338359 519.97625819 0.79853216 C525.79025007 0.90349514 525.79025007 0.90349514 528.86379701 3.88608271 C529.36445277 4.74098636 529.86510852 5.59589001 530.38093567 6.47669983 C530.81164368 7.16924866 531.24235168 7.86179749 531.68611145 8.57533264 C541.86622121 27.36602775 550.194439 47.00501993 556.38093567 67.47669983 C556.6794342 68.44107971 556.6794342 68.44107971 556.98396301 69.42494202 C578.50485094 139.53111857 576.47158696 229.29539725 543.38093567 295.47669983 C540.43137039 294.10725881 537.85624756 292.59839574 535.38093567 290.47669983 C535.38093567 289.81669983 535.38093567 289.15669983 535.38093567 288.47669983 C534.61781067 288.20857483 533.85468567 287.94044983 533.06843567 287.66419983 C530.47212444 286.51699254 529.25590087 285.53023315 527.38093567 283.47669983 C526.72093567 283.14669983 526.06093567 282.81669983 525.38093567 282.47669983 C525.38093567 281.81669983 525.38093567 281.15669983 525.38093567 280.47669983 C524.65906067 280.22919983 523.93718567 279.98169983 523.19343567 279.72669983 C520.12479363 278.36285892 517.9939999 276.56715122 515.38093567 274.47669983 C512.70147117 273.23653314 512.70147117 273.23653314 510.38093567 272.47669983 C510.38093567 271.81669983 510.38093567 271.15669983 510.38093567 270.47669983 C509.53659973 270.22533264 508.69226379 269.97396545 507.82234192 269.71498108 C504.09360356 268.37331245 500.75986515 266.59634114 497.31843567 264.66419983 C490.53096163 260.95966882 483.67731499 258.05824018 476.38093567 255.47669983 C475.03799617 254.97932722 473.69557269 254.4805597 472.35359192 253.98060608 C447.85531615 244.9476434 420.16491177 239.50612574 394.00593567 239.20326233 C393.01592056 239.19073425 392.02590546 239.17820618 391.00588989 239.16529846 C349.53747696 238.74287187 312.39787311 244.36605276 274.38093567 261.47669983 C273.61708557 261.81717346 272.85323547 262.15764709 272.0662384 262.50843811 C263.07634598 266.53926549 254.53329791 270.46549716 246.80281067 276.65248108 C244.37331136 278.48244266 241.84069341 279.92900325 239.18757629 281.40760803 C236.19791405 283.17676086 233.49017261 285.27848605 230.75593567 287.41419983 C230.20937317 287.83121155 229.66281067 288.24822327 229.09968567 288.6778717 C225.59612516 291.38935932 222.47133674 294.30865049 219.38093567 297.47669983 C218.16729973 298.59791459 216.94019622 299.7049384 215.69343567 300.78919983 C215.11206848 301.30095764 214.53070129 301.81271545 213.93171692 302.33998108 C212.38093567 303.47669983 212.38093567 303.47669983 210.38093567 303.47669983 C210.04062317 304.31201233 210.04062317 304.31201233 209.69343567 305.16419983 C208.01376849 308.12361343 205.81341715 310.10078769 203.38093567 312.47669983 C202.49324169 313.50757026 201.61810284 314.54938703 200.75593567 315.60169983 C198.38093567 318.47669983 198.38093567 318.47669983 196.99031067 319.83998108 C194.91399786 321.95157105 193.10310796 324.22512237 191.25593567 326.53919983 C190.55210754 327.41705139 189.84827942 328.29490295 189.12312317 329.19935608 C187.36821311 331.34526176 187.36821311 331.34526176 186.38093567 333.47669983 C185.72093567 333.47669983 185.06093567 333.47669983 184.38093567 333.47669983 C184.27007629 334.05419983 184.15921692 334.63169983 184.04499817 335.22669983 C183.30476185 337.73479466 182.26504744 339.34618909 180.75593567 341.47669983 C172.83467747 353.04515605 166.2799134 365.34327018 161.38093567 378.47669983 C161.14729309 379.09996155 160.91365051 379.72322327 160.67292786 380.3653717 C157.22145451 389.63654661 154.30838499 398.75491597 152.38093567 408.47669983 C151.67452942 408.40451233 150.96812317 408.33232483 150.24031067 408.25794983 C125.51220147 406.02123643 100.81941285 407.92894917 76.71369934 413.93836975 C67.9003149 416.08055105 67.9003149 416.08055105 63.38093567 414.47669983 C60.65520603 412.72425622 58.21727446 410.70453345 55.75593567 408.60169983 C55.05009338 408.01163147 54.3442511 407.42156311 53.61701965 406.81361389 C51.52351433 405.05111162 49.44840571 403.26963612 47.38093567 401.47669983 C46.84130188 401.00909241 46.30166809 400.54148499 45.74568176 400.05970764 C39.07447172 394.21936849 32.79007199 387.97650396 26.50593567 381.72669983 C25.79187561 381.01739319 25.07781555 380.30808655 24.34211731 379.57728577 C12.38093567 367.5781678 12.38093567 367.5781678 12.38093567 364.47669983 C11.06093567 363.81669983 9.74093567 363.15669983 8.38093567 362.47669983 C8.38093567 361.48669983 8.38093567 360.49669983 8.38093567 359.47669983 C7.51468567 359.16732483 7.51468567 359.16732483 6.63093567 358.85169983 C4.16211454 357.3429758 3.08655726 355.75306335 1.58406067 353.32044983 C-0.38665026 350.30039931 -2.6837058 347.53624579 -4.93547058 344.72279358 C-6.68257638 342.39196798 -8.13203698 339.97973278 -9.61906433 337.47669983 C-10.71148095 335.92668497 -11.81606707 334.38518801 -12.93156433 332.85169983 C-15.94357021 328.57578334 -18.5097147 324.21483881 -20.95109558 319.59388733 C-22.57977654 316.55012291 -24.27673019 313.5554833 -25.99162292 310.55995178 C-29.92515589 303.67344445 -33.46735536 296.76089433 -36.61906433 289.47669983 C-37.87796092 286.77421823 -39.13992237 284.07326359 -40.40812683 281.37513733 C-41.71246466 278.25314163 -42.77127986 275.10081062 -43.82023621 271.88587952 C-44.61007454 269.50381207 -45.44677325 267.14436286 -46.30265808 264.78529358 C-50.03850411 254.44903148 -53.28544833 244.22928431 -55.61906433 233.47669983 C-55.92457214 232.09804749 -55.92457214 232.09804749 -56.23625183 230.69154358 C-59.19670207 217.19537339 -61.45037085 203.84710906 -62.43034363 190.06019592 C-62.56641236 188.19748008 -62.71826087 186.33589322 -62.88005066 184.47523499 C-65.26447317 156.42695237 -64.41625797 127.25820222 -58.1158905 99.78236389 C-57.56514579 97.2264754 -57.115078 94.66237117 -56.66984558 92.08607483 C-55.67920763 86.54158901 -54.31635797 81.15028703 -52.80656433 75.72669983 C-52.54158142 74.77005432 -52.27659851 73.81340881 -52.00358582 72.82777405 C-48.56207339 60.54565085 -44.48361709 48.76971406 -39.24797058 37.13685608 C-37.90809234 34.15637308 -36.67248947 31.15033814 -35.49406433 28.10169983 C-33.88896014 24.03814492 -32.1317393 20.10879823 -30.03217345 16.27415413 C-28.54188873 13.48940113 -28.54188873 13.48940113 -27.58540839 10.40312678 C-22.43281051 -2.26410151 -11.80031612 -0.18224823 0 0 Z " fill="#12BEF9" transform="translate(101.61906433105469,1058.5233001708984)"/>
<path d="M0 0 C55.44 0 110.88 0 168 0 C168 55.77 168 111.54 168 169 C126.6984375 169.0309375 126.6984375 169.0309375 84.5625 169.0625 C75.85302979 169.071604 67.14355957 169.08070801 58.17016602 169.09008789 C47.57409668 169.09460449 47.57409668 169.09460449 42.62120056 169.09544373 C39.14540474 169.09637928 35.66962404 169.10014218 32.1938324 169.10557556 C27.76885021 169.11240178 23.3438902 169.11449729 18.91890323 169.11307228 C17.28955934 169.11337053 15.66021472 169.11537279 14.03087533 169.11921513 C11.84062834 169.12414284 9.65046907 169.12300704 7.46022034 169.12025452 C5.61432989 169.12163721 5.61432989 169.12163721 3.73114872 169.12304783 C1 169 1 169 0 168 C-0.09695318 165.83573826 -0.12186765 163.66824747 -0.12025452 161.5018158 C-0.12153854 160.47397476 -0.12153854 160.47397476 -0.12284851 159.42536926 C-0.12451339 157.10508687 -0.11896446 154.78487549 -0.11352539 152.46459961 C-0.11321929 150.78241001 -0.11335214 149.10022028 -0.11389065 147.41803074 C-0.11411719 142.89726001 -0.10830497 138.37651555 -0.10128021 133.85575104 C-0.09560171 129.61969415 -0.09531799 125.38364377 -0.09460449 121.14758301 C-0.08934901 108.7442185 -0.07538797 96.34085892 -0.0625 83.9375 C-0.041875 56.238125 -0.02125 28.53875 0 0 Z " fill="#12BEF9" transform="translate(456,868)"/>
<path d="M0 0 C1.84589045 0.00138269 1.84589045 0.00138269 3.72907162 0.00279331 C4.75080219 0.00150928 4.75080219 0.00150928 5.79317379 0.00019932 C8.09962679 -0.00146554 10.40600835 0.00408333 12.7124548 0.00952244 C14.38463209 0.00982854 16.05680951 0.00969568 17.72898674 0.00915718 C22.22282323 0.00893064 26.71663329 0.01474283 31.21046352 0.02176762 C35.42129255 0.02744615 39.63211503 0.02772984 43.84294796 0.02844334 C56.17241926 0.03369881 68.5018856 0.04765985 80.83135128 0.06054783 C122.13291378 0.09148533 122.13291378 0.09148533 164.26885128 0.12304783 C164.26885128 55.89304783 164.26885128 111.66304783 164.26885128 169.12304783 C122.96728878 169.15398533 122.96728878 169.15398533 80.83135128 169.18554783 C72.12188107 169.19465183 63.41241085 169.20375584 54.4390173 169.21313572 C43.84294796 169.21765232 43.84294796 169.21765232 38.89005184 169.21849155 C35.41425602 169.21942711 31.93847532 169.22319001 28.46268368 169.22862339 C24.03770149 169.23544961 19.61274148 169.23754512 15.18775451 169.2361201 C13.55841062 169.23641836 11.929066 169.23842062 10.29972661 169.24226296 C8.10947962 169.24719067 5.91932035 169.24605487 3.72907162 169.24330235 C1.88318117 169.24468503 1.88318117 169.24468503 0 169.24609566 C-2.73114872 169.12304783 -2.73114872 169.12304783 -3.73114872 168.12304783 C-3.83028161 165.97375266 -3.85747247 163.82113665 -3.85813236 161.66955662 C-3.86047235 160.64640346 -3.86047235 160.64640346 -3.86285961 159.60258055 C-3.86687168 157.30013668 -3.86367918 154.9977579 -3.86054325 152.69531345 C-3.8618972 151.0514888 -3.8636771 149.40766445 -3.86585331 147.76384068 C-3.8704284 143.28669529 -3.86863777 138.80957284 -3.86547422 134.33242702 C-3.86295101 129.65769353 -3.86528805 124.98296206 -3.86686039 120.30822849 C-3.8686822 112.45629618 -3.86627548 104.60437325 -3.86151981 96.75244236 C-3.85607717 87.66099784 -3.85783982 78.56957575 -3.86334622 69.47813177 C-3.86787703 61.68707572 -3.86852806 53.89602644 -3.86590755 46.1049695 C-3.8643446 41.44528651 -3.86415151 36.78561407 -3.86744404 32.12593174 C-3.87032228 27.74624482 -3.86834793 23.36658695 -3.86254978 18.98690319 C-3.86122193 17.37476557 -3.86161672 15.76262553 -3.86381245 14.15048885 C-3.86652299 11.95913869 -3.86314404 9.76788309 -3.85813236 7.57653904 C-3.85756682 5.73259682 -3.85756682 5.73259682 -3.85698986 3.85140324 C-3.6877084 0.18122045 -3.67084955 0.16538465 0 0 Z " fill="#12BEF9" transform="translate(273.7311487197876,867.8769521713257)"/>
<path d="M0 0 C1.84589045 0.00138269 1.84589045 0.00138269 3.72907162 0.00279331 C4.75080219 0.00150928 4.75080219 0.00150928 5.79317379 0.00019932 C8.09962679 -0.00146554 10.40600835 0.00408333 12.7124548 0.00952244 C14.38463209 0.00982854 16.05680951 0.00969568 17.72898674 0.00915718 C22.22282323 0.00893064 26.71663329 0.01474283 31.21046352 0.02176762 C35.42129255 0.02744615 39.63211503 0.02772984 43.84294796 0.02844334 C56.17241926 0.03369881 68.5018856 0.04765985 80.83135128 0.06054783 C122.13291378 0.09148533 122.13291378 0.09148533 164.26885128 0.12304783 C164.26885128 55.89304783 164.26885128 111.66304783 164.26885128 169.12304783 C109.15885128 169.12304783 54.04885128 169.12304783 -2.73114872 169.12304783 C-4.16682357 166.25169814 -3.85714105 163.79762994 -3.85813236 160.58726597 C-3.85969235 159.90839299 -3.86125234 159.22952002 -3.86285961 158.53007513 C-3.86686329 156.24455663 -3.86368241 153.95910399 -3.86054325 151.67358494 C-3.86189756 150.03946487 -3.86367766 148.40534511 -3.86585331 146.77122593 C-3.87042377 142.32513044 -3.86863976 137.87905808 -3.86547422 133.43296218 C-3.86294906 128.78893104 -3.86528856 124.14490192 -3.86686039 119.5008707 C-3.86868144 111.70199317 -3.86627726 103.9031251 -3.86151981 96.104249 C-3.85607541 87.07469962 -3.8578414 78.04517282 -3.86334622 69.01562399 C-3.8678769 61.27550276 -3.86852818 53.53538834 -3.86590755 45.79526621 C-3.86434477 41.16689723 -3.86415107 36.53853887 -3.86744404 31.91017056 C-3.87032216 27.56083902 -3.86834816 23.21153673 -3.86254978 18.86220837 C-3.86122195 17.2613578 -3.86161669 15.6605048 -3.86381245 14.05965519 C-3.866523 11.88368501 -3.86314405 9.70781007 -3.85813236 7.53184605 C-3.85775534 6.31122439 -3.85737831 5.09060274 -3.85698986 3.83299255 C-3.68717434 0.17607492 -3.65979141 0.16488644 0 0 Z " fill="#12BEF9" transform="translate(273.7311487197876,682.8769521713257)"/>
<path d="M0 0 C55.11 0 110.22 0 167 0 C167 55.77 167 111.54 167 169 C111.89 169 56.78 169 0 169 C0 113.23 0 57.46 0 0 Z " fill="#12BEF9" transform="translate(84,868)"/>
<path d="M0 0 C55.11 0 110.22 0 167 0 C167 55.77 167 111.54 167 169 C139.630625 169.020625 112.26125 169.04125 84.0625 169.0625 C75.40523682 169.071604 66.74797363 169.08070801 57.82836914 169.09008789 C47.29577637 169.09460449 47.29577637 169.09460449 42.37254333 169.09544373 C38.91758081 169.09637928 35.4626335 169.10014216 32.00767517 169.10557556 C27.60920477 169.11240182 23.21075669 169.11449728 18.81228149 169.11307228 C17.19270639 169.11337053 15.57313056 169.11537277 13.95355999 169.11921513 C11.77642999 169.1241429 9.59938823 169.12300702 7.42225647 169.12025452 C6.19903718 169.12117631 4.97581789 169.1220981 3.71553135 169.12304783 C1 169 1 169 0 168 C-0.09695318 165.83573826 -0.12186765 163.66824747 -0.12025452 161.5018158 C-0.12110894 160.81492457 -0.12196337 160.12803335 -0.12284368 159.42032725 C-0.12450045 157.10172545 -0.11897393 154.78319483 -0.11352539 152.46459961 C-0.11324354 150.80930076 -0.11340122 149.15400178 -0.1139679 147.498703 C-0.11425594 142.99063067 -0.10835819 138.48258471 -0.10139394 133.97451854 C-0.09516145 129.26862263 -0.09455668 124.56272618 -0.09336853 119.85682678 C-0.0902549 110.93911366 -0.08204109 102.02141273 -0.07201904 93.10370499 C-0.05877392 81.05774094 -0.05335825 69.01177359 -0.04751682 56.9658041 C-0.03810122 37.97719359 -0.01818252 18.98860882 0 0 Z " fill="#12BEF9" transform="translate(84,683)"/>
</svg>
