<?xml version="1.0" encoding="UTF-8"?>
<svg version="1.1" xmlns="http://www.w3.org/2000/svg" width="512" height="512">
<path d="M0 0 C14.09328718 10.81306486 23.05738011 24.31615524 26 42 C26.45898898 47.60836931 26.43277102 53.23049947 26.39111328 58.85375977 C26.3750484 61.42973963 26.39102622 64.00414606 26.41015625 66.58007812 C26.43570203 85.63184364 22.41555016 101.75887752 9 116 C7.70229286 116.97827154 6.39078507 117.9386679 5.0625 118.875 C2.51230261 120.86879068 2.04490727 121.79257117 1.34375 125.03125 C1.09088356 128.03755099 0.96584122 130.98426813 1 134 C1.58628174 134.10231934 2.17256348 134.20463867 2.77661133 134.31005859 C10.63868696 135.77144529 18.10645865 138.12672301 25.69726562 140.609375 C26.66728516 140.91617188 27.63730469 141.22296875 28.63671875 141.5390625 C29.49998779 141.81959473 30.36325684 142.10012695 31.25268555 142.38916016 C37.31048378 143.73605531 42.29173122 142.86736637 48.140625 141.03125 C48.78948669 140.8314856 49.43834839 140.63172119 50.10687256 140.42590332 C52.15757844 139.7931395 54.20388445 139.14743769 56.25 138.5 C58.31094217 137.85457183 60.37269304 137.2120091 62.43597412 136.57409668 C64.29804187 135.99742258 66.1574007 135.41202294 68.01660156 134.82617188 C71 134 71 134 74 134 C74.3939221 125.99790318 74.3939221 125.99790318 71.3984375 118.89453125 C70.02575038 117.77889172 68.6214066 116.7013193 67.19140625 115.66015625 C57.21579696 108.10287649 51.92446779 94.99050346 50 83 C49.53032953 76.80413276 49.56759344 70.59219811 49.60888672 64.38232422 C49.62496812 61.5057025 49.6089719 58.63048538 49.58984375 55.75390625 C49.56629909 36.8127422 53.05100952 21.36206018 66.625 7.21484375 C79.2894663 -4.59560426 94.68609356 -9.79826516 111.8046875 -9.30859375 C127.93600065 -8.40992374 142.16336935 -0.79446109 153 11 C161.97731655 22.92380624 166.31659333 35.00420558 166.30078125 49.86328125 C166.30506638 50.77651657 166.3093515 51.68975189 166.31376648 52.63066101 C166.31947372 54.55088477 166.32003688 56.47113014 166.31567383 58.39135742 C166.31251957 61.29449226 166.33599903 64.19660045 166.36132812 67.09960938 C166.42325922 85.07419391 163.6088689 100.35973078 151 114 C149.55193403 115.09701967 148.09365108 116.18069591 146.625 117.25 C143.76797994 119.57201824 143.07394794 120.66166832 142.2734375 124.32421875 C142.02774967 127.57080798 141.92171235 130.74616974 142 134 C143.23492187 134.25523437 144.46984375 134.51046875 145.7421875 134.7734375 C152.70437835 136.31847163 159.48664086 138.49446177 166.29296875 140.609375 C167.82244141 141.06957031 167.82244141 141.06957031 169.3828125 141.5390625 C170.29434082 141.81959473 171.20586914 142.10012695 172.14501953 142.38916016 C178.26111907 143.69773558 183.2357679 142.88493468 189.140625 141.03125 C190.11391754 140.73160339 190.11391754 140.73160339 191.10687256 140.42590332 C193.15757844 139.7931395 195.20388445 139.14743769 197.25 138.5 C199.31094217 137.85457183 201.37269304 137.2120091 203.43597412 136.57409668 C205.29804187 135.99742258 207.1574007 135.41202294 209.01660156 134.82617188 C212 134 212 134 215 134 C215.44511996 126.29573921 215.44511996 126.29573921 212.0234375 119.69140625 C210.2852373 118.2680194 208.53439082 116.85998298 206.7734375 115.46484375 C197.00350413 106.78198747 191.77657087 93.70634383 190 81 C189.84092227 78.10162185 189.81259856 75.2070249 189.796875 72.3046875 C189.79117493 71.47599152 189.78547485 70.64729553 189.77960205 69.79348755 C189.7701887 68.04365296 189.76363271 66.29380094 189.75976562 64.54394531 C189.750106 61.90397068 189.71906701 59.26479085 189.6875 56.625 C189.56899717 38.07876016 193.4002427 21.89008368 206.68359375 8.1796875 C219.86104066 -4.22000116 234.17041051 -9.74364983 252.375 -9.27734375 C267.65688144 -8.10814808 281.6364721 -1.26470424 292 10 C304.95960356 25.19953504 307.42143859 41.34527777 307.3125 60.75 C307.31001251 61.45654724 307.30752502 62.16309448 307.30496216 62.89105225 C307.19563934 82.94568492 304.60929854 99.82584557 290.11328125 114.9140625 C289.41589844 115.60242188 288.71851563 116.29078125 288 117 C287.29230469 117.75023437 286.58460938 118.50046875 285.85546875 119.2734375 C284 121 284 121 282 121 C282 125.29 282 129.58 282 134 C284.14544312 134.4007373 284.14544312 134.4007373 286.33422852 134.80957031 C291.87473165 135.92023776 297.24457673 137.41827947 302.65234375 139.046875 C303.63312393 139.34055969 304.61390411 139.63424438 305.62440491 139.93682861 C307.68486964 140.55621685 309.74454923 141.17822245 311.8034668 141.80273438 C314.92208862 142.74534189 318.04574635 143.66974308 321.16992188 144.59375 C336.19457501 149.10042509 349.54599004 153.27879304 358.75 166.8125 C373.82034076 194.86007864 364 241.3252847 364 264 C195.04 264 26.08 264 -148 264 C-148 171.86680761 -148 171.86680761 -136.15234375 158.9921875 C-128.13401069 151.38547318 -117.48061832 148.2863732 -107.09375 145.23046875 C-106.0066272 144.90460281 -104.91950439 144.57873688 -103.79943848 144.24299622 C-101.52495345 143.56298067 -99.2493414 142.88672415 -96.97265625 142.21411133 C-93.47894748 141.18127631 -89.98930022 140.13551194 -86.5 139.08789062 C-84.28147531 138.4263273 -82.06273294 137.76549341 -79.84375 137.10546875 C-78.27820374 136.63683662 -78.27820374 136.63683662 -76.68103027 136.15873718 C-75.71572388 135.87456436 -74.75041748 135.59039154 -73.75585938 135.29760742 C-72.90745483 135.04621506 -72.05905029 134.79482269 -71.18493652 134.53581238 C-69 134 -69 134 -66 134 C-66 129.71 -66 125.42 -66 121 C-67.98 120.01 -67.98 120.01 -70 119 C-82.24713066 109.14704526 -88.9706016 95.01676283 -90.80151367 79.58349609 C-91.21562034 74.19348782 -91.18592378 68.78686615 -91.18530273 63.38378906 C-91.18748077 61.26867273 -91.20566372 59.15408643 -91.22460938 57.0390625 C-91.30236004 38.72971888 -87.78165917 24.38458387 -76 10 C-75.47921875 9.35289062 -74.9584375 8.70578125 -74.421875 8.0390625 C-56.08425063 -12.42868995 -22.32522743 -14.41655209 0 0 Z " fill="#020201" transform="translate(148,248)"/>
<path d="M0 0 C9.9 0 19.8 0 30 0 C31.98 4.95 31.98 4.95 34 10 C36.72289991 12.23686727 36.72289991 12.23686727 39.9375 13.1875 C41.46697266 13.76564453 41.46697266 13.76564453 43.02734375 14.35546875 C48.9853136 15.64727562 52.26983252 13.45578606 58 11 C64.6 17.6 71.2 24.2 78 31 C76 37 76 37 74.734375 39.43359375 C73.36539745 44.21773338 75.87652109 48.48875415 77.9296875 52.79296875 C80.68610874 57.06282127 83.23358637 58.27489883 88.0234375 59.6171875 C88.67570312 59.74351563 89.32796875 59.86984375 90 60 C90 61.98 90 63.96 90 66 C91.23202652 65.99111755 92.46405304 65.98223511 93.7334137 65.9730835 C105.39859224 65.89165861 117.0637124 65.83187269 128.72911167 65.79275131 C134.72504675 65.77196184 140.72075065 65.74380331 146.71655273 65.69824219 C152.51321085 65.65447479 158.30964794 65.63079808 164.10645866 65.62049103 C166.3074281 65.61315477 168.50838675 65.59883035 170.70926094 65.57707977 C193.42707269 65.36169116 210.82392658 68.94979725 228 85 C233.28820588 90.41096781 236.96812876 96.42675782 240.375 103.125 C240.70910889 103.78185791 241.04321777 104.43871582 241.38745117 105.11547852 C244.93710212 112.43132283 246.41289475 119.92031351 247 128 C247.08121094 128.99386719 247.08121094 128.99386719 247.1640625 130.0078125 C247.86053848 146.65991994 241.62938385 163.34173735 230.87890625 175.9921875 C230.25886719 176.65476563 229.63882812 177.31734375 229 178 C228.30777344 178.74507812 227.61554688 179.49015625 226.90234375 180.2578125 C216.4689533 190.53444082 201.62654292 197.51481329 187.01464844 198.34619141 C180.36641225 198.79058594 180.36641225 198.79058594 174.6171875 201.9375 C172.93078591 204.25189214 171.46254479 206.592357 170.08251953 209.10009766 C168.30204393 212.22496484 166.31031571 215.20803768 164.32714844 218.20703125 C163.24332137 219.84665052 162.17459956 221.49636608 161.12207031 223.15625 C160.6319043 223.91292969 160.14173828 224.66960937 159.63671875 225.44921875 C158.98255981 226.47535278 158.98255981 226.47535278 158.31518555 227.5222168 C157.88117432 228.00988525 157.44716309 228.49755371 157 229 C156.01 229 155.02 229 154 229 C152.38161247 227.00174785 150.98392012 225.0559296 149.5859375 222.91015625 C148.96327499 221.98147987 148.96327499 221.98147987 148.32803345 221.03404236 C147.00057423 219.04985118 145.68758066 217.05655757 144.375 215.0625 C143.05219051 213.07420894 141.72656149 211.08782135 140.40054321 209.10166931 C139.57553521 207.86359429 138.75302178 206.6238528 137.93319702 205.38233948 C136.14399845 202.55210207 136.14399845 202.55210207 134 200 C131.0242659 199.85673242 128.07100499 199.77883464 125.09326172 199.74365234 C123.69076424 199.72174835 123.69076424 199.72174835 122.25993347 199.69940186 C113.62013201 199.57326433 104.97939532 199.50463434 96.33886528 199.45155907 C90.53056651 199.41579377 84.72365232 199.36249373 78.91601562 199.26611328 C73.30612901 199.17328552 67.697468 199.1246361 62.08685684 199.10716629 C59.94892701 199.09306992 57.81104043 199.06342543 55.67354965 199.01786423 C44.44785092 198.30853502 44.44785092 198.30853502 34.22401428 201.87333679 C32.39129725 204.17952688 31.18453571 206.31272685 30 209 C28.98619263 210.45998413 28.98619263 210.45998413 27.9519043 211.94946289 C27.41476807 212.7821167 26.87763184 213.61477051 26.32421875 214.47265625 C25.72416016 215.39111328 25.12410156 216.30957031 24.50585938 217.25585938 C23.27180154 219.16062963 22.04010849 221.06693365 20.81054688 222.97460938 C20.21693359 223.88146484 19.62332031 224.78832031 19.01171875 225.72265625 C18.21447388 226.95640991 18.21447388 226.95640991 17.40112305 228.21508789 C16.93875244 228.80410889 16.47638184 229.39312988 16 230 C15.34 230 14.68 230 14 230 C12.44140625 227.9375 12.44140625 227.9375 10.5625 225 C9.50869141 223.37964844 9.50869141 223.37964844 8.43359375 221.7265625 C8.04800293 221.13262695 7.66241211 220.53869141 7.26513672 219.92675781 C4.93386485 216.37631443 2.52877088 212.8765841 0.125 209.375 C-0.35122803 208.67632812 -0.82745605 207.97765625 -1.31811523 207.2578125 C-1.76743408 206.60296875 -2.21675293 205.948125 -2.6796875 205.2734375 C-3.07913574 204.68997559 -3.47858398 204.10651367 -3.89013672 203.50537109 C-5.05932731 201.84098473 -5.05932731 201.84098473 -7 200 C-10.02940807 199.7537359 -12.97045792 199.63289399 -16.00439453 199.59838867 C-16.93793259 199.5804274 -17.87147064 199.56246613 -18.83329773 199.54396057 C-21.93309406 199.48908792 -25.03271178 199.45123011 -28.1328125 199.41796875 C-29.1911517 199.40607325 -30.24949089 199.39417774 -31.33990097 199.38192177 C-36.94465811 199.32256072 -42.54933174 199.27875086 -48.15429688 199.24487305 C-52.79164984 199.21374224 -57.42691492 199.15112594 -62.06347656 199.06030273 C-67.66168229 198.95070686 -73.25797456 198.89526939 -78.85720444 198.87847328 C-80.98878473 198.86321204 -83.12031822 198.82918376 -85.25128555 198.77583885 C-96.80300518 198.06774102 -96.80300518 198.06774102 -107.01622009 202.35032654 C-109.09291656 205.16165639 -110.55404514 207.82733223 -112 211 C-113.07532107 212.68673396 -114.17190092 214.36035082 -115.30078125 216.01171875 C-116.83217976 218.38057011 -118.3545614 220.75406627 -119.86132812 223.13867188 C-120.35697266 223.90115234 -120.85261719 224.66363281 -121.36328125 225.44921875 C-121.79938721 226.13330811 -122.23549316 226.81739746 -122.68481445 227.5222168 C-123.11882568 228.00988525 -123.55283691 228.49755371 -124 229 C-124.99 229 -125.98 229 -127 229 C-128.61838753 227.00174785 -130.01607988 225.0559296 -131.4140625 222.91015625 C-132.03672501 221.98147987 -132.03672501 221.98147987 -132.67196655 221.03404236 C-133.99942577 219.04985118 -135.31241934 217.05655757 -136.625 215.0625 C-137.94780949 213.07420894 -139.27343851 211.08782135 -140.59945679 209.10166931 C-141.42446479 207.86359429 -142.24697822 206.6238528 -143.06680298 205.38233948 C-144.85600155 202.55210207 -144.85600155 202.55210207 -147 200 C-148.33150857 199.76353601 -149.67262812 199.58058757 -151.015625 199.421875 C-171.43856188 196.82011374 -188.41687882 190.5411221 -202.1953125 174.43359375 C-212.23833948 161.31656041 -218.62615403 144.75519424 -217 128 C-216.9071875 127.01902344 -216.814375 126.03804688 -216.71875 125.02734375 C-214.52674342 107.34375222 -206.03291842 90.83212629 -192.0234375 79.6171875 C-179.4068223 70.28180955 -166.34558901 65.64965608 -150.70678711 65.77294922 C-149.72036224 65.77265717 -148.73393738 65.77236511 -147.71762085 65.77206421 C-144.48743607 65.77344716 -141.25748777 65.78895938 -138.02734375 65.8046875 C-135.7757632 65.80842131 -133.52418102 65.81126654 -131.27259827 65.81326294 C-125.36910453 65.8208704 -119.46571044 65.84049398 -113.56225586 65.8626709 C-107.52914782 65.88319167 -101.49602356 65.89227795 -95.46289062 65.90234375 C-83.6418835 65.92374269 -71.82095006 65.9578436 -60 66 C-60 64.02 -60 62.04 -60 60 C-59.34773437 59.88527344 -58.69546875 59.77054688 -58.0234375 59.65234375 C-53.12995636 58.33153689 -50.65708672 57.02040292 -47.859375 52.67578125 C-44.58111642 45.78599955 -44.58111642 45.78599955 -44.6015625 38.37890625 C-45.68004268 36.3031662 -45.68004268 36.3031662 -47.109375 34.61328125 C-47.40328125 34.08089844 -47.6971875 33.54851563 -48 33 C-46.68549168 29.49292922 -44.50593696 27.27345898 -41.8671875 24.671875 C-41.06152344 23.87265625 -40.25585938 23.0734375 -39.42578125 22.25 C-38.58402344 21.425 -37.74226562 20.6 -36.875 19.75 C-35.60076172 18.48929688 -35.60076172 18.48929688 -34.30078125 17.203125 C-32.20495077 15.13084317 -30.10459287 13.06337607 -28 11 C-27.40832031 11.30035156 -26.81664062 11.60070313 -26.20703125 11.91015625 C-21.44242394 14.31374034 -21.44242394 14.31374034 -16.25390625 14.83984375 C-15.51011719 14.56269531 -14.76632813 14.28554687 -14 14 C-12.74509766 13.69255859 -12.74509766 13.69255859 -11.46484375 13.37890625 C-10.63082031 13.10949219 -9.79679688 12.84007812 -8.9375 12.5625 C-8.10089844 12.31628906 -7.26429688 12.07007813 -6.40234375 11.81640625 C-2.7545798 9.38344282 -2.7545798 9.38344282 0 0 Z " fill="#E4E7EB" transform="translate(241,0)"/>
<path d="M0 0 C9.9 0 19.8 0 30 0 C31.98 4.95 31.98 4.95 34 10 C36.72289991 12.23686727 36.72289991 12.23686727 39.9375 13.1875 C41.46697266 13.76564453 41.46697266 13.76564453 43.02734375 14.35546875 C48.9853136 15.64727562 52.26983252 13.45578606 58 11 C64.6 17.6 71.2 24.2 78 31 C76 37 76 37 74.734375 39.43359375 C73.36539745 44.21773338 75.87652109 48.48875415 77.9296875 52.79296875 C80.68610874 57.06282127 83.23358637 58.27489883 88.0234375 59.6171875 C88.67570312 59.74351563 89.32796875 59.86984375 90 60 C90 61.98 90 63.96 90 66 C91.23202652 65.99111755 92.46405304 65.98223511 93.7334137 65.9730835 C105.39859224 65.89165861 117.0637124 65.83187269 128.72911167 65.79275131 C134.72504675 65.77196184 140.72075065 65.74380331 146.71655273 65.69824219 C152.51321085 65.65447479 158.30964794 65.63079808 164.10645866 65.62049103 C166.3074281 65.61315477 168.50838675 65.59883035 170.70926094 65.57707977 C193.42707269 65.36169116 210.82392658 68.94979725 228 85 C233.28820588 90.41096781 236.96812876 96.42675782 240.375 103.125 C240.70910889 103.78185791 241.04321777 104.43871582 241.38745117 105.11547852 C244.93710212 112.43132283 246.41289475 119.92031351 247 128 C247.08121094 128.99386719 247.08121094 128.99386719 247.1640625 130.0078125 C247.86053848 146.65991994 241.62938385 163.34173735 230.87890625 175.9921875 C230.25886719 176.65476563 229.63882812 177.31734375 229 178 C228.30777344 178.74507812 227.61554688 179.49015625 226.90234375 180.2578125 C216.4689533 190.53444082 201.62654292 197.51481329 187.01464844 198.34619141 C180.36641225 198.79058594 180.36641225 198.79058594 174.6171875 201.9375 C172.93078591 204.25189214 171.46254479 206.592357 170.08251953 209.10009766 C168.30204393 212.22496484 166.31031571 215.20803768 164.32714844 218.20703125 C163.24332137 219.84665052 162.17459956 221.49636608 161.12207031 223.15625 C160.6319043 223.91292969 160.14173828 224.66960937 159.63671875 225.44921875 C158.98255981 226.47535278 158.98255981 226.47535278 158.31518555 227.5222168 C157.88117432 228.00988525 157.44716309 228.49755371 157 229 C156.01 229 155.02 229 154 229 C152.38161247 227.00174785 150.98392012 225.0559296 149.5859375 222.91015625 C148.96327499 221.98147987 148.96327499 221.98147987 148.32803345 221.03404236 C147.00057423 219.04985118 145.68758066 217.05655757 144.375 215.0625 C143.05219051 213.07420894 141.72656149 211.08782135 140.40054321 209.10166931 C139.57553521 207.86359429 138.75302178 206.6238528 137.93319702 205.38233948 C136.14399845 202.55210207 136.14399845 202.55210207 134 200 C131.0242659 199.85673242 128.07100499 199.77883464 125.09326172 199.74365234 C123.69076424 199.72174835 123.69076424 199.72174835 122.25993347 199.69940186 C113.62013201 199.57326433 104.97939532 199.50463434 96.33886528 199.45155907 C90.53056651 199.41579377 84.72365232 199.36249373 78.91601562 199.26611328 C73.30612901 199.17328552 67.697468 199.1246361 62.08685684 199.10716629 C59.94892701 199.09306992 57.81104043 199.06342543 55.67354965 199.01786423 C44.44785092 198.30853502 44.44785092 198.30853502 34.22401428 201.87333679 C32.39129725 204.17952688 31.18453571 206.31272685 30 209 C28.98619263 210.45998413 28.98619263 210.45998413 27.9519043 211.94946289 C27.41476807 212.7821167 26.87763184 213.61477051 26.32421875 214.47265625 C25.72416016 215.39111328 25.12410156 216.30957031 24.50585938 217.25585938 C23.27180154 219.16062963 22.04010849 221.06693365 20.81054688 222.97460938 C20.21693359 223.88146484 19.62332031 224.78832031 19.01171875 225.72265625 C18.21447388 226.95640991 18.21447388 226.95640991 17.40112305 228.21508789 C16.93875244 228.80410889 16.47638184 229.39312988 16 230 C15.34 230 14.68 230 14 230 C12.44140625 227.9375 12.44140625 227.9375 10.5625 225 C9.50869141 223.37964844 9.50869141 223.37964844 8.43359375 221.7265625 C8.04800293 221.13262695 7.66241211 220.53869141 7.26513672 219.92675781 C4.93386485 216.37631443 2.52877088 212.8765841 0.125 209.375 C-0.35122803 208.67632812 -0.82745605 207.97765625 -1.31811523 207.2578125 C-1.76743408 206.60296875 -2.21675293 205.948125 -2.6796875 205.2734375 C-3.07913574 204.68997559 -3.47858398 204.10651367 -3.89013672 203.50537109 C-5.05932731 201.84098473 -5.05932731 201.84098473 -7 200 C-10.02940807 199.7537359 -12.97045792 199.63289399 -16.00439453 199.59838867 C-16.93793259 199.5804274 -17.87147064 199.56246613 -18.83329773 199.54396057 C-21.93309406 199.48908792 -25.03271178 199.45123011 -28.1328125 199.41796875 C-29.1911517 199.40607325 -30.24949089 199.39417774 -31.33990097 199.38192177 C-36.94465811 199.32256072 -42.54933174 199.27875086 -48.15429688 199.24487305 C-52.79164984 199.21374224 -57.42691492 199.15112594 -62.06347656 199.06030273 C-67.66168229 198.95070686 -73.25797456 198.89526939 -78.85720444 198.87847328 C-80.98878473 198.86321204 -83.12031822 198.82918376 -85.25128555 198.77583885 C-96.80300518 198.06774102 -96.80300518 198.06774102 -107.01622009 202.35032654 C-109.09291656 205.16165639 -110.55404514 207.82733223 -112 211 C-113.07532107 212.68673396 -114.17190092 214.36035082 -115.30078125 216.01171875 C-116.83217976 218.38057011 -118.3545614 220.75406627 -119.86132812 223.13867188 C-120.35697266 223.90115234 -120.85261719 224.66363281 -121.36328125 225.44921875 C-121.79938721 226.13330811 -122.23549316 226.81739746 -122.68481445 227.5222168 C-123.11882568 228.00988525 -123.55283691 228.49755371 -124 229 C-124.99 229 -125.98 229 -127 229 C-128.61838753 227.00174785 -130.01607988 225.0559296 -131.4140625 222.91015625 C-132.03672501 221.98147987 -132.03672501 221.98147987 -132.67196655 221.03404236 C-133.99942577 219.04985118 -135.31241934 217.05655757 -136.625 215.0625 C-137.94780949 213.07420894 -139.27343851 211.08782135 -140.59945679 209.10166931 C-141.42446479 207.86359429 -142.24697822 206.6238528 -143.06680298 205.38233948 C-144.85600155 202.55210207 -144.85600155 202.55210207 -147 200 C-148.33150857 199.76353601 -149.67262812 199.58058757 -151.015625 199.421875 C-171.43856188 196.82011374 -188.41687882 190.5411221 -202.1953125 174.43359375 C-212.23833948 161.31656041 -218.62615403 144.75519424 -217 128 C-216.9071875 127.01902344 -216.814375 126.03804688 -216.71875 125.02734375 C-214.52674342 107.34375222 -206.03291842 90.83212629 -192.0234375 79.6171875 C-179.4068223 70.28180955 -166.34558901 65.64965608 -150.70678711 65.77294922 C-149.72036224 65.77265717 -148.73393738 65.77236511 -147.71762085 65.77206421 C-144.48743607 65.77344716 -141.25748777 65.78895938 -138.02734375 65.8046875 C-135.7757632 65.80842131 -133.52418102 65.81126654 -131.27259827 65.81326294 C-125.36910453 65.8208704 -119.46571044 65.84049398 -113.56225586 65.8626709 C-107.52914782 65.88319167 -101.49602356 65.89227795 -95.46289062 65.90234375 C-83.6418835 65.92374269 -71.82095006 65.9578436 -60 66 C-60 64.02 -60 62.04 -60 60 C-59.34773437 59.88527344 -58.69546875 59.77054688 -58.0234375 59.65234375 C-53.12995636 58.33153689 -50.65708672 57.02040292 -47.859375 52.67578125 C-44.58111642 45.78599955 -44.58111642 45.78599955 -44.6015625 38.37890625 C-45.68004268 36.3031662 -45.68004268 36.3031662 -47.109375 34.61328125 C-47.40328125 34.08089844 -47.6971875 33.54851563 -48 33 C-46.68549168 29.49292922 -44.50593696 27.27345898 -41.8671875 24.671875 C-41.06152344 23.87265625 -40.25585938 23.0734375 -39.42578125 22.25 C-38.58402344 21.425 -37.74226562 20.6 -36.875 19.75 C-35.60076172 18.48929688 -35.60076172 18.48929688 -34.30078125 17.203125 C-32.20495077 15.13084317 -30.10459287 13.06337607 -28 11 C-27.40832031 11.30035156 -26.81664062 11.60070313 -26.20703125 11.91015625 C-21.44242394 14.31374034 -21.44242394 14.31374034 -16.25390625 14.83984375 C-15.51011719 14.56269531 -14.76632813 14.28554687 -14 14 C-12.74509766 13.69255859 -12.74509766 13.69255859 -11.46484375 13.37890625 C-10.63082031 13.10949219 -9.79679688 12.84007812 -8.9375 12.5625 C-8.10089844 12.31628906 -7.26429688 12.07007813 -6.40234375 11.81640625 C-2.7545798 9.38344282 -2.7545798 9.38344282 0 0 Z M-181 93 C-181.886875 93.5775 -182.77375 94.155 -183.6875 94.75 C-193.48566403 104.28334879 -199.98316537 117.6299792 -200.5625 131.3125 C-200.15879102 142.7973245 -196.18747281 154.03498015 -189 163 C-187.88625 164.546875 -187.88625 164.546875 -186.75 166.125 C-178.33077768 174.92691424 -167.21519588 180.48021863 -155.09716797 181.59423828 C-145.50041362 182.51104726 -138.86003576 183.59830054 -132.1875 191 C-130.51229757 193.03730081 -128.93808367 195.08849579 -127.42578125 197.25 C-126.95527344 197.8275 -126.48476562 198.405 -126 199 C-125.34 199 -124.68 199 -124 199 C-122.69292339 197.17397457 -122.69292339 197.17397457 -121.375 194.875 C-117.78346995 189.28033158 -113.37448617 185.12482872 -107 183 C-105.58864796 182.89960507 -104.17314461 182.85231262 -102.75828552 182.83937073 C-101.89354111 182.8293251 -101.02879669 182.81927948 -100.1378479 182.80892944 C-98.71887711 182.80018295 -98.71887711 182.80018295 -97.27124023 182.79125977 C-96.27249374 182.78147598 -95.27374725 182.7716922 -94.24473572 182.76161194 C-90.93270194 182.73165027 -87.6207087 182.71026692 -84.30859375 182.69140625 C-83.17643999 182.68483442 -82.04428623 182.6782626 -80.87782478 182.67149162 C-74.88169733 182.63889013 -68.88558768 182.61444455 -62.8894043 182.5949707 C-57.93373636 182.57717817 -52.97863962 182.54239085 -48.02319336 182.49243164 C-42.03501098 182.43213224 -36.0473571 182.4014808 -30.05888557 182.39179802 C-27.78118811 182.38325662 -25.50350426 182.36447128 -23.22598076 182.3350544 C-20.02820789 182.29598509 -16.83247788 182.29512622 -13.63452148 182.30297852 C-12.23680511 182.2729776 -12.23680511 182.2729776 -10.81085205 182.24237061 C-3.6205332 182.32117008 1.29196847 184.67755368 7 189 C9.5078125 191.7734375 9.5078125 191.7734375 11.125 194.375 C11.96417969 195.68597656 11.96417969 195.68597656 12.8203125 197.0234375 C13.20960938 197.67570312 13.59890625 198.32796875 14 199 C18.34714882 197.55095039 19.3957852 194.46173006 21.6953125 190.640625 C25.35003937 186.45317523 29.93947452 183.57521145 35.45982552 182.5376873 C38.13225442 182.36155898 40.76364368 182.335139 43.44165039 182.36889648 C44.44448563 182.36174118 45.44732086 182.35458588 46.48054504 182.34721375 C49.77005641 182.33041094 53.05818882 182.34967954 56.34765625 182.37109375 C58.64733492 182.37026435 60.94701353 182.36780228 63.24668884 182.36378479 C68.05567362 182.36093261 72.86419116 182.37557312 77.6730957 182.40307617 C83.82549843 182.43717645 89.97706713 182.43112841 96.12950993 182.4124136 C100.87457689 182.4018271 105.619451 182.41079624 110.36450005 182.42579842 C112.63261784 182.43096723 114.90075588 182.43051429 117.16887093 182.42425346 C120.34226681 182.41878073 123.51448283 182.43924285 126.68774414 182.46655273 C128.08210693 182.45676392 128.08210693 182.45676392 129.50463867 182.44677734 C136.39254899 182.54716521 141.75001095 184.14588388 146.98828125 188.74609375 C147.42527344 189.30425781 147.86226563 189.86242187 148.3125 190.4375 C148.78558594 191.035625 149.25867188 191.63375 149.74609375 192.25 C151.30599958 194.42706483 152.71749428 196.64873952 154 199 C157.3285198 197.61014698 158.8312441 196.17365803 160.8125 193.1875 C164.31539402 188.29767333 168.19180069 184.93606644 174 183 C175.88175284 182.80975686 177.76387534 182.62222896 179.64794922 182.45654297 C194.15705368 181.11092771 206.77825911 176.62659935 217.0625 165.8359375 C225.83103464 155.13983706 230.78992039 142.35100197 230.41015625 128.46484375 C228.63262974 113.44897695 221.06951644 101.39356696 209.375 92 C199.87890023 85.02658328 190.76841715 82.84132975 179.25268555 82.88647461 C178.27659836 82.88632858 177.30051117 82.88618256 176.29484558 82.8860321 C173.0754472 82.88672758 169.856107 82.8945029 166.63671875 82.90234375 C164.40184053 82.90420923 162.1669619 82.90563252 159.93208313 82.90663147 C154.05486926 82.91044643 148.17768017 82.92026802 142.30047607 82.93133545 C136.30123225 82.94157151 130.30198442 82.9461338 124.30273438 82.95117188 C112.53514537 82.96189118 100.76757475 82.97895537 89 83 C89 84.98 89 86.96 89 89 C88.37351562 89.13277344 87.74703125 89.26554687 87.1015625 89.40234375 C85.87566406 89.66724609 85.87566406 89.66724609 84.625 89.9375 C83.81289063 90.11152344 83.00078125 90.28554687 82.1640625 90.46484375 C79.970537 90.92330693 79.970537 90.92330693 78 92 C76.59106002 94.81723507 76.59106002 94.81723507 75.3125 98.1875 C74.85488281 99.31542969 74.39726562 100.44335938 73.92578125 101.60546875 C72.73648117 105.96623571 73.00863789 109.12742712 75.125 113.125 C76 115 76 115 75.79321289 116.86035156 C74.7669324 119.62868711 73.29167174 121.04814319 71.18359375 123.109375 C70.41982422 123.86347656 69.65605469 124.61757812 68.86914062 125.39453125 C67.66547852 126.56048828 67.66547852 126.56048828 66.4375 127.75 C65.63119141 128.54277344 64.82488281 129.33554688 63.99414062 130.15234375 C62.00266222 132.10847046 60.00452279 134.05725719 58 136 C53.25 134.1484375 53.25 134.1484375 51 132.8125 C46.73350489 131.07923636 41.88990169 133.62238556 37.8125 135.1875 C36.76707031 135.57292969 35.72164062 135.95835937 34.64453125 136.35546875 C31.77428614 137.81049258 31.77428614 137.81049258 30.63671875 140.86328125 C29.83422356 144.28322949 29.83422356 144.28322949 30 149 C20.1 149 10.2 149 0 149 C-0.33 146.36 -0.66 143.72 -1 141 C-1.71763376 137.71542724 -1.71763376 137.71542724 -4.984375 136.359375 C-6.23460026 135.81140393 -7.4901136 135.27537773 -8.75 134.75 C-9.37132812 134.46898437 -9.99265625 134.18796875 -10.6328125 133.8984375 C-15.4726911 131.8358732 -18.08310159 131.83293472 -22.86230469 133.74511719 C-24.58717491 134.46805979 -26.29510774 135.23112702 -28 136 C-31.04504849 133.12875056 -34.05632456 130.22438166 -37.0625 127.3125 C-37.92939453 126.49587891 -38.79628906 125.67925781 -39.68945312 124.83789062 C-40.91245117 123.64389648 -40.91245117 123.64389648 -42.16015625 122.42578125 C-42.91949463 121.69786377 -43.67883301 120.96994629 -44.46118164 120.2199707 C-46 118 -46 118 -45.81030273 115.34448242 C-45 113 -45 113 -43.875 111.0625 C-42.5645075 107.97348196 -43.16899496 106.26466267 -44 103 C-44.19078125 102.10023437 -44.3815625 101.20046875 -44.578125 100.2734375 C-45.42006668 97.14504635 -46.22921126 94.72160634 -48 92 C-51.57414264 90.18717837 -55.03776421 89.47136943 -59 89 C-59 87.02 -59 85.04 -59 83 C-72.12638019 82.90714478 -85.25268169 82.83615604 -98.37932396 82.79275131 C-104.47516899 82.77191471 -110.57078859 82.74366846 -116.66650391 82.69824219 C-122.55391264 82.65464494 -128.44110511 82.63083337 -134.32866287 82.62049103 C-136.57004829 82.61312459 -138.81142244 82.59873982 -141.0527153 82.57707977 C-144.20255467 82.54786184 -147.35151084 82.54405174 -150.50146484 82.54589844 C-151.41928741 82.53151733 -152.33710999 82.51713623 -153.28274536 82.50231934 C-163.89213388 82.56922075 -172.29140756 87.31912608 -181 93 Z " fill="#020201" transform="translate(241,0)"/>
<path d="M0 0 C1.71456401 1.078705 3.38697076 2.22557158 5.02734375 3.4140625 C5.98447266 4.09210938 6.94160156 4.77015625 7.92773438 5.46875 C9.93537434 6.90705923 11.93799717 8.35239729 13.93554688 9.8046875 C15.37317383 10.81789063 15.37317383 10.81789063 16.83984375 11.8515625 C17.70988037 12.47885254 18.57991699 13.10614258 19.47631836 13.75244141 C21.90713944 15.20595069 21.90713944 15.20595069 24.51367188 14.89208984 C27.33518093 13.87973772 29.4785897 12.58476349 31.94140625 10.875 C32.85470703 10.25109375 33.76800781 9.6271875 34.70898438 8.984375 C35.65064453 8.32953125 36.59230469 7.6746875 37.5625 7 C39.43515693 5.70305423 41.31132588 4.41116099 43.19140625 3.125 C44.43192749 2.26261719 44.43192749 2.26261719 45.69750977 1.3828125 C48.77067303 -0.46284509 50.67067426 -1.2760739 54.2253418 -0.5378418 C55.04172119 -0.26109619 55.85810059 0.01564941 56.69921875 0.30078125 C57.64539063 0.61337891 58.5915625 0.92597656 59.56640625 1.24804688 C61.11134766 1.77495117 61.11134766 1.77495117 62.6875 2.3125 C70.31424685 4.86235137 77.93587886 7.30212251 85.67578125 9.48046875 C87.89030922 10.11370634 90.1044163 10.74840095 92.31851196 11.38314819 C93.75734261 11.79000135 95.19856633 12.18849697 96.6421814 12.57803345 C105.42526637 14.95384561 113.21347519 17.48810665 119 25 C129.749677 46.499354 123 72.9629915 123 97 C57.66 97 -7.68 97 -75 97 C-75 30.37556561 -75 30.37556561 -69.2734375 22.6796875 C-62.0572181 15.81982461 -53.33864287 13.67681767 -44 11 C-42.58538143 10.57868551 -41.17129647 10.15557422 -39.7578125 9.73046875 C-36.99860725 8.90556848 -34.23572873 8.09530187 -31.46875 7.296875 C-26.34373941 5.8160069 -21.23426791 4.28416001 -16.125 2.75 C-15.26213379 2.49154297 -14.39926758 2.23308594 -13.51025391 1.96679688 C-12.70507324 1.72509766 -11.89989258 1.48339844 -11.0703125 1.234375 C-10.35633301 1.02006836 -9.64235352 0.80576172 -8.90673828 0.58496094 C-3.19753428 -1.1665439 -3.19753428 -1.1665439 0 0 Z " fill="#FE816D" transform="translate(232,398)"/>
<path d="M0 0 C0.90878906 0.62970703 1.81757812 1.25941406 2.75390625 1.90820312 C4.65265569 3.23628303 6.54588499 4.57228897 8.43359375 5.91601562 C9.34238281 6.54185547 10.25117187 7.16769531 11.1875 7.8125 C12.00927734 8.39153076 12.83105469 8.97056152 13.67773438 9.56713867 C16.02594511 10.90296676 16.02594511 10.90296676 18.59326172 10.60571289 C21.53441475 9.54865525 23.54133372 8.14172407 26.0078125 6.22265625 C26.93464844 5.53558594 27.86148438 4.84851563 28.81640625 4.140625 C30.74395953 2.69042005 32.65577362 1.21904437 34.55078125 -0.2734375 C41.55268926 -5.38241589 41.55268926 -5.38241589 46.10961914 -5.11791992 C48.89258181 -4.36120423 51.4426014 -3.42037016 54.09375 -2.29296875 C55.4835061 -1.87630016 56.87879372 -1.47715559 58.28125 -1.10546875 C59.209375 -0.83734375 60.1375 -0.56921875 61.09375 -0.29296875 C59.06904141 2.3316535 57.06439715 4.73487882 54.65625 7.01953125 C44.668236 17.49476545 42.49081035 29.73127143 42.484375 43.78125 C42.46874512 45.02829712 42.45311523 46.27534424 42.43701172 47.56018066 C42.38482942 52.1714404 42.36621772 56.783031 42.34375 61.39453125 C42.26125 71.72765625 42.17875 82.06078125 42.09375 92.70703125 C1.50375 92.70703125 -39.08625 92.70703125 -80.90625 92.70703125 C-81.009375 82.16765625 -81.1125 71.62828125 -81.21875 60.76953125 C-81.26427002 57.45801025 -81.30979004 54.14648926 -81.35668945 50.73461914 C-81.37130118 48.09131888 -81.38404022 45.44800732 -81.39453125 42.8046875 C-81.40759811 42.12909286 -81.42066498 41.45349823 -81.43412781 40.75743103 C-81.58927788 32.30334402 -81.40203099 25.47389661 -75.90625 18.70703125 C-67.44679175 10.46170646 -55.61789388 8.24784619 -44.59375 5.06640625 C-39.54124797 3.60746401 -34.50460727 2.0972784 -29.46875 0.58203125 C-28.6651001 0.34049316 -27.8614502 0.09895508 -27.03344727 -0.14990234 C-25.85866821 -0.5030249 -25.85866821 -0.5030249 -24.66015625 -0.86328125 C-23.88559082 -1.09176758 -23.11102539 -1.32025391 -22.31298828 -1.55566406 C-20.61879695 -2.07467987 -18.93538408 -2.62955472 -17.26123047 -3.20996094 C-16.38998535 -3.50290039 -15.51874023 -3.79583984 -14.62109375 -4.09765625 C-13.4453479 -4.51120361 -13.4453479 -4.51120361 -12.24584961 -4.93310547 C-7.40279309 -5.67803559 -3.79587564 -2.69023382 0 0 Z " fill="#B3DC7E" transform="translate(97.90625,402.29296875)"/>
<path d="M0 0 C1.79585682 1.08122918 3.55298747 2.2277797 5.28125 3.4140625 C6.28800781 4.09210938 7.29476563 4.77015625 8.33203125 5.46875 C10.44765114 6.90872802 12.55963115 8.35406804 14.66796875 9.8046875 C16.17810547 10.81789063 16.17810547 10.81789063 17.71875 11.8515625 C18.63591797 12.47885254 19.55308594 13.10614258 20.49804688 13.75244141 C22.83533068 15.16976183 22.83533068 15.16976183 25.01538086 14.91455078 C27.60308836 13.72208525 29.73954184 12.20527859 32.03515625 10.515625 C33.01033203 9.82855469 33.98550781 9.14148438 34.99023438 8.43359375 C37.02775611 6.98543781 39.0490309 5.51412914 41.05273438 4.01953125 C42.03693359 3.33761719 43.02113281 2.65570313 44.03515625 1.953125 C45.35592163 0.99647949 45.35592163 0.99647949 46.70336914 0.02050781 C51.89419742 -1.58636934 55.97387973 0.32463536 61 2 C62.77985124 2.52633977 64.56133745 3.04718501 66.34448242 3.56225586 C71.24741205 5.02689852 76.14610298 6.50567232 81.04370117 7.98803711 C83.14399601 8.62234996 85.24524159 9.25352308 87.34741211 9.8815918 C90.41476506 10.79814294 93.47910837 11.72419352 96.54296875 12.65234375 C97.47336472 12.92852036 98.40376068 13.20469696 99.36235046 13.48924255 C114.37025405 18.07390195 114.37025405 18.07390195 118.375 24 C119.06722656 24.99 119.06722656 24.99 119.7734375 26 C120.17820312 26.66 120.58296875 27.32 121 28 C121.52592239 28.85322845 121.52592239 28.85322845 122.06246948 29.72369385 C123.29907452 32.72614721 123.23963138 35.17510386 123.22705078 38.42089844 C123.22680908 39.74009277 123.22656738 41.05928711 123.22631836 42.41845703 C123.21624821 43.81543162 123.20591511 45.21240435 123.1953125 46.609375 C123.19329834 47.88312988 123.19128418 49.15688477 123.18920898 50.46923828 C123.17874121 55.22952879 123.15081867 59.989768 123.125 64.75 C123.08375 75.3925 123.0425 86.035 123 97 C82.41 97 41.82 97 0 97 C-0.25 65.6875 -0.25 65.6875 -0.29785156 55.8659668 C-0.32724296 53.26869965 -0.35807259 50.67144821 -0.390625 48.07421875 C-0.39092712 47.41460648 -0.39122925 46.7549942 -0.39154053 46.07539368 C-0.40827081 32.58293097 -3.34611831 21.30304088 -12.5625 11.1875 C-14.91415756 9.00308998 -14.91415756 9.00308998 -17.3125 7.3125 C-18.1478125 6.6628125 -18.1478125 6.6628125 -19 6 C-19 5.34 -19 4.68 -19 4 C-16.58732675 3.132758 -14.17095531 2.28103064 -11.75 1.4375 C-11.06808594 1.19064453 -10.38617188 0.94378906 -9.68359375 0.68945312 C-5.99666217 -0.58128543 -3.67282249 -1.35617818 0 0 Z " fill="#FBD66F" transform="translate(372,398)"/>
<path d="M0 0 C1.98 0 3.96 0 6 0 C6.66 2.64 7.32 5.28 8 8 C8.928125 8.0825 9.85625 8.165 10.8125 8.25 C17.51477315 9.21523609 24.11289481 11.67284081 29.8125 15.3125 C34.23081567 17.6516083 36.6783312 16.7093988 41.25 15.3125 C41.8275 15.209375 42.405 15.10625 43 15 C43.99 15.99 43.99 15.99 45 17 C44.65913813 19.52237786 44.07588108 21.78791237 43.21875 24.18359375 C42.89625756 28.33568397 44.85093541 31.2324979 46.8125 34.75 C51.34908396 43.18125281 51.34908396 43.18125281 52 48.3125 C52.56088369 52.01653628 52.56088369 52.01653628 54.8828125 53.203125 C57.35647078 54.20619588 57.35647078 54.20619588 61 55 C61 56.65 61 58.3 61 60 C58.03 60.66 55.06 61.32 52 62 C52.04640625 62.8559375 52.0928125 63.711875 52.140625 64.59375 C51.8560195 71.48752755 48.7503822 78.9610253 44.625 84.5 C42.7351167 86.85477197 42.7351167 86.85477197 43.1875 89.5 C43.5896875 90.7375 43.5896875 90.7375 44 92 C44.33944795 93.99897128 44.67421616 95.99875639 45 98 C43.4375 99.1875 43.4375 99.1875 41 100 C39.93265625 99.45859375 38.8653125 98.9171875 37.765625 98.359375 C34.59484266 96.92223409 34.22855254 96.924532 30.67578125 98.09765625 C29.56589844 98.74605469 28.45601563 99.39445312 27.3125 100.0625 C22.6744976 102.6834349 18.43629079 104.59576964 13.25 106 C9.41314063 107.04568857 9.41314063 107.04568857 6.8125 109.796875 C6.12563134 111.9342936 6.12563134 111.9342936 6 115 C4.02 115 2.04 115 0 115 C-0.2475 113.741875 -0.495 112.48375 -0.75 111.1875 C-1.48537275 108.89987653 -1.48537275 108.89987653 -3 107 C-5.88110842 105.85389869 -8.67148557 105.34336674 -11.71875 104.78125 C-16.18412333 103.71806587 -19.7115223 101.64578577 -23.625 99.3046875 C-25.81817436 98.09988448 -27.53195513 97.35181633 -30 97 C-30.639375 97.33 -31.27875 97.66 -31.9375 98 C-34.64021335 99.31040647 -36.17002588 98.78610392 -39 98 C-38.0477747 92.15061604 -38.0477747 92.15061604 -37.2578125 89.66015625 C-36.89507959 85.91741211 -38.29093004 84.24445665 -40.3125 81.125 C-44.34068232 74.57719767 -46.38215934 69.83426648 -46 62 C-47.11375 61.855625 -48.2275 61.71125 -49.375 61.5625 C-53 61 -53 61 -55 60 C-55 58.35 -55 56.7 -55 55 C-52.03 54.01 -49.06 53.02 -46 52 C-45.896875 51.030625 -45.79375 50.06125 -45.6875 49.0625 C-44.59759696 41.64220125 -41.9393353 35.4231065 -37.890625 29.140625 C-36.73669709 26.36714914 -37.20076427 24.85045346 -38 22 C-38.5 19.5 -38.5 19.5 -39 17 C-37.4375 15.8125 -37.4375 15.8125 -35 15 C-34.01 15.598125 -33.02 16.19625 -32 16.8125 C-30.18138791 17.83220201 -30.18138791 17.83220201 -28 18 C-24.83629163 16.5582529 -22.06120258 14.75269727 -19.14453125 12.86328125 C-13.90925903 9.76113858 -8.1027289 8 -2 8 C-1.34 5.36 -0.68 2.72 0 0 Z " fill="#F7D36E" transform="translate(253,17)"/>
<path d="M0 0 C1.33772623 0.65780753 2.67062882 1.32546721 4 2 C10.04153338 4.86014273 16.41672508 4.81270911 23 5 C23.08837761 8.62484173 23.14084706 12.24940017 23.1875 15.875 C23.21263672 16.88820313 23.23777344 17.90140625 23.26367188 18.9453125 C23.39023808 32.10819793 19.20015974 42.81233283 10.0625 52.375 C8.19955187 54.23399282 6.65806086 55.74390037 4.18701172 56.70556641 C2.01937047 57.59279969 0.61994787 58.29405456 -1 60 C-1.66848558 63.88470973 -1.2512381 67.70692409 -1 71.625 C-0.80785279 82.20805889 -0.80785279 82.20805889 -3.40820312 86.11669922 C-7.35489985 89.90557102 -11.8410816 92.27856175 -17 94 C-19.5625 93.90625 -19.5625 93.90625 -22 93 C-23.63195312 92.39478516 -23.63195312 92.39478516 -25.296875 91.77734375 C-32.65773267 87.85543882 -32.65773267 87.85543882 -35 84 C-36.01592599 78.89980855 -35.72804059 73.7802656 -35.61791992 68.60498047 C-35.43505898 62.52322753 -35.43505898 62.52322753 -37.9609375 57.19921875 C-40.56844147 55.55876205 -43.21293002 54.30492872 -46 53 C-53.55632243 46.48592894 -57.98723757 37.72361154 -60 28 C-60.07991104 26.19418245 -60.10769823 24.38568191 -60.09765625 22.578125 C-60.09443359 21.55332031 -60.09121094 20.52851563 -60.08789062 19.47265625 C-60.07951172 18.40917969 -60.07113281 17.34570312 -60.0625 16.25 C-60.05798828 15.17105469 -60.05347656 14.09210938 -60.04882812 12.98046875 C-60.03705727 10.32025617 -60.02061399 7.66015635 -60 5 C-59.04859131 4.98541748 -58.09718262 4.97083496 -57.11694336 4.95581055 C-53.51015792 4.89684113 -49.90393442 4.81963859 -46.29760742 4.73754883 C-44.75115227 4.70475444 -43.20459044 4.67658917 -41.65795898 4.65356445 C-30.43180848 4.48208929 -18.81086722 4.14753855 -8.25366211 -0.10668945 C-5.06037378 -1.37245069 -3.31322171 -0.89202123 0 0 Z " fill="#EDCDB2" transform="translate(134,300)"/>
<path d="M0 0 C6.21928419 1.62088993 12.58233589 1.88301971 18.9765625 2.03515625 C19.71990845 2.05593735 20.46325439 2.07671844 21.22912598 2.09812927 C23.57193998 2.16280128 25.91485274 2.22212092 28.2578125 2.28125 C29.85938466 2.32451384 31.46094732 2.36813044 33.0625 2.41210938 C36.96083983 2.51839636 40.8592776 2.61988794 44.7578125 2.71875 C45.78017486 33.65700782 45.78017486 33.65700782 34.7578125 46.71875 C27.404966 54.12356008 27.404966 54.12356008 22.96875 55.7265625 C20.52031942 57.48379 20.52031942 57.48379 20.52661133 60.02490234 C20.58680675 62.00439924 20.67141147 63.98324427 20.77514648 65.9609375 C21.47443137 79.34868136 21.47443137 79.34868136 18.16210938 83.921875 C13.88834593 87.80183871 8.99146073 90.35859296 3.7578125 92.71875 C2.04894271 91.63626309 0.34074379 90.55271706 -1.3671875 89.46875 C-2.31851563 88.86546875 -3.26984375 88.2621875 -4.25 87.640625 C-5.23742187 87.00640625 -6.22484375 86.3721875 -7.2421875 85.71875 C-8.34691406 85.22632813 -9.45164062 84.73390625 -10.58984375 84.2265625 C-13.2421875 81.71875 -13.2421875 81.71875 -13.66308594 79.25 C-13.75949097 75.01376736 -13.60401 70.81279199 -13.38867188 66.58203125 C-13.17665254 60.60403704 -13.17665254 60.60403704 -16.16308594 55.72949219 C-18.46231846 54.21197998 -20.79356317 52.97492159 -23.2421875 51.71875 C-31.11730502 45.64544399 -36.68413654 35.51389646 -38.2421875 25.71875 C-38.32009637 23.88026832 -38.35012365 22.03932173 -38.33984375 20.19921875 C-38.33662109 19.17763672 -38.33339844 18.15605469 -38.33007812 17.10351562 C-38.32169922 16.04841797 -38.31332031 14.99332031 -38.3046875 13.90625 C-38.30017578 12.83181641 -38.29566406 11.75738281 -38.29101562 10.65039062 C-38.27926479 8.00645317 -38.26283537 5.36263048 -38.2421875 2.71875 C-37.33597656 2.69296875 -36.42976563 2.6671875 -35.49609375 2.640625 C-27.88832158 2.28640069 -21.90996119 1.45768852 -15.2421875 -2.28125 C-10.64303589 -4.58082581 -4.61681863 -1.52370252 0 0 Z " fill="#EDCDB2" transform="translate(393.2421875,302.28125)"/>
<path d="M0 0 C15.91441897 4.49773419 31.48329749 4.76234199 47.91015625 4.84375 C49.12589056 35.43910675 49.12589056 35.43910675 37.8125 48.90625 C34.79712372 51.97735192 31.48982666 54.47027288 27.91015625 56.84375 C26.92015625 57.50375 25.93015625 58.16375 24.91015625 58.84375 C24.64742372 61.20627841 24.64742372 61.20627841 24.92578125 63.9375 C25.59955105 80.32527891 25.59955105 80.32527891 22.484375 84.96923828 C18.54225967 88.75568729 14.06454009 91.12382485 8.91015625 92.84375 C6.37890625 92.75 6.37890625 92.75 3.91015625 91.84375 C2.16992188 91.23853516 2.16992188 91.23853516 0.39453125 90.62109375 C-3.77900334 88.71301915 -7.520131 86.75802345 -10.08984375 82.84375 C-11.16659278 77.76965203 -10.83037855 72.67603881 -10.68603516 67.51904297 C-10.50235244 61.24243462 -10.50235244 61.24243462 -13.3046875 55.8203125 C-16.15468964 53.94581445 -19.06500025 52.41402395 -22.08984375 50.84375 C-29.03741306 44.3078885 -33.64832054 35.33581514 -34.29589844 25.81396484 C-34.5107099 18.48591623 -34.36809861 11.16827413 -34.08984375 3.84375 C-33.02765625 3.74578125 -31.96546875 3.6478125 -30.87109375 3.546875 C-21.83708406 2.81932415 -21.83708406 2.81932415 -13.46484375 -0.34375 C-8.57850344 -2.96789572 -5.09589943 -1.46303505 0 0 Z " fill="#EDCEB2" transform="translate(249.08984375,301.15625)"/>
<path d="M0 0 C6.8655456 4.97838888 11.91197767 11.05020174 13.81640625 19.4296875 C14.06267185 21.11207042 14.27144227 22.80039222 14.44140625 24.4921875 C14.53550781 25.29527344 14.62960937 26.09835938 14.7265625 26.92578125 C15.24354947 35.21082887 12.42933048 42.45544089 7.52734375 49.078125 C0.18738302 57.11204566 -8.24584102 60.67111222 -19.05859375 61.1796875 C-28.62439039 60.81742089 -35.90990815 57.18658436 -42.99609375 50.8671875 C-48.41602909 44.93807243 -51.78031804 37.4397377 -51.99609375 29.3671875 C-51.8896341 27.73913384 -51.74392211 26.11315812 -51.55859375 24.4921875 C-51.49800781 23.68136719 -51.43742188 22.87054688 -51.375 22.03515625 C-50.30538245 13.64988284 -45.64267826 7.09967327 -39.3828125 1.5703125 C-27.0107952 -7.30765373 -13.08339899 -7.71021681 0 0 Z " fill="#040301" transform="translate(274.55859375,46.5078125)"/>
<path d="M0 0 C9.49592783 6.73642743 14.53723433 15.46318986 17.47265625 26.49609375 C13.13512415 26.57126428 8.79795522 26.62516738 4.45996094 26.66088867 C2.98984152 26.67580804 1.51976525 26.69615102 0.04980469 26.72241211 C-12.41887444 26.93929568 -23.24467041 25.20453998 -34.77734375 20.30859375 C-35.43863281 20.03595703 -36.09992188 19.76332031 -36.78125 19.48242188 C-38.36635476 18.82770469 -39.94735276 18.16305716 -41.52734375 17.49609375 C-41.95144531 17.89441406 -42.37554687 18.29273438 -42.8125 18.703125 C-47.98490218 23.37533884 -52.76287785 26.6455552 -59.96484375 26.68359375 C-61.72828125 26.59078125 -61.72828125 26.59078125 -63.52734375 26.49609375 C-61.37221 14.8583715 -55.05840216 6.40917903 -45.52734375 -0.50390625 C-30.37449023 -8.91323821 -14.98097819 -8.91449243 0 0 Z " fill="#AF7644" transform="translate(419.52734375,262.50390625)"/>
<path d="M0 0 C10.55327859 -0.58288457 20.33453707 3.56672885 28.31640625 10.34765625 C34.58032868 16.43996436 38.75903624 22.89911014 41.3125 31.2890625 C41.3125 31.9490625 41.3125 32.6090625 41.3125 33.2890625 C32.31620078 34.0030545 27.32849725 31.32155022 20.25 25.9765625 C19.610625 25.4196875 18.97125 24.8628125 18.3125 24.2890625 C17.7040625 24.60359375 17.095625 24.918125 16.46875 25.2421875 C-2.01067985 34.26449737 -19.64146014 33.78001675 -39.6875 33.2890625 C-36.18809033 20.35700984 -29.88638821 11.56729459 -18.4375 4.5390625 C-12.51134508 1.41527575 -6.57711425 0.70742217 0 0 Z " fill="#AF7744" transform="translate(114.6875,255.7109375)"/>
<path d="M0 0 C8.95191147 6.08248879 16.5094642 14.00160812 20.03515625 24.3828125 C20.03515625 25.7028125 20.03515625 27.0228125 20.03515625 28.3828125 C15.73427019 28.4833547 11.43404631 28.5550482 7.13232422 28.60253906 C5.6758225 28.62238154 4.21939738 28.64946486 2.76318359 28.68457031 C-10.99155513 29.00731781 -22.32880519 26.69985429 -34.66015625 20.140625 C-36.9356479 19.13784953 -36.9356479 19.13784953 -39.0859375 20.09375 C-41.20575663 21.50037877 -41.20575663 21.50037877 -43.90234375 23.8828125 C-49.33521574 28.31781005 -53.17421431 28.61300333 -59.96484375 28.3828125 C-59.54615545 18.75298171 -53.71347221 11.46132845 -46.890625 5.0625 C-34.11193806 -6.08321072 -15.04938309 -8.34360048 0 0 Z " fill="#AF7744" transform="translate(275.96484375,260.6171875)"/>
<path d="M0 0 C3.71366317 2.5583013 6.68548092 4.89543281 8.8125 8.9375 C9.72743958 14.06264938 9.31918171 18.4707898 7.625 23.375 C5.61980102 26.20993649 3.67560346 27.98220983 0.8125 29.9375 C0.214375 30.35 -0.38375 30.7625 -1 31.1875 C-5.08056171 32.58654973 -9.09252864 32.72046909 -13.12109375 31.21484375 C-18.12527192 28.5567104 -21.39640312 25.31079064 -23.1875 19.9375 C-23.86750726 15.15426711 -24.26756946 10.7831132 -21.765625 6.5078125 C-15.56469778 -0.72660258 -9.25614523 -3.08538174 0 0 Z " fill="#FBC428" transform="translate(263.1875,59.0625)"/>
<path d="M0 0 C5.61 0 11.22 0 17 0 C17 5.61 17 11.22 17 17 C11.39 17 5.78 17 0 17 C0 11.39 0 5.78 0 0 Z " fill="#0E0E0E" transform="translate(388,124)"/>
<path d="M0 0 C5.61 0 11.22 0 17 0 C17 5.61 17 11.22 17 17 C11.39 17 5.78 17 0 17 C0 11.39 0 5.78 0 0 Z " fill="#0E0E0E" transform="translate(107,124)"/>
<path d="M0 0 C5.61 0 11.22 0 17 0 C17 5.28 17 10.56 17 16 C11.39 16 5.78 16 0 16 C0 10.72 0 5.44 0 0 Z " fill="#060606" transform="translate(421,124)"/>
<path d="M0 0 C5.61 0 11.22 0 17 0 C17 5.28 17 10.56 17 16 C11.39 16 5.78 16 0 16 C0 10.72 0 5.44 0 0 Z " fill="#060606" transform="translate(74,124)"/>
<path d="M0 0 C5.28 0 10.56 0 16 0 C16 5.28 16 10.56 16 16 C10.72 16 5.44 16 0 16 C0 10.72 0 5.44 0 0 Z " fill="#010101" transform="translate(355,124)"/>
<path d="M0 0 C5.28 0 10.56 0 16 0 C16 5.28 16 10.56 16 16 C10.72 16 5.44 16 0 16 C0 10.72 0 5.44 0 0 Z " fill="#010101" transform="translate(141,124)"/>
</svg>
