<?xml version="1.0" encoding="UTF-8"?>
<!DOCTYPE svg PUBLIC "-//W3C//DTD SVG 1.1//EN" "http://www.w3.org/Graphics/SVG/1.1/DTD/svg11.dtd">
<svg xmlns="http://www.w3.org/2000/svg" version="1.1" width="512px" height="512px" style="shape-rendering:geometricPrecision; text-rendering:geometricPrecision; image-rendering:optimizeQuality; fill-rule:evenodd; clip-rule:evenodd" xmlns:xlink="http://www.w3.org/1999/xlink">
<g><path style="opacity:0.961" fill="#040302" d="M 279.5,5.5 C 303.257,5.02017 326.924,5.52017 350.5,7C 352.049,8.21398 353.215,9.71398 354,11.5C 360.217,33.0974 352.383,42.4307 330.5,39.5C 330.5,44.5 330.5,49.5 330.5,54.5C 336.176,54.3339 341.843,54.5006 347.5,55C 349.96,61.6189 351.793,68.4523 353,75.5C 362.818,80.5464 372.985,84.3797 383.5,87C 387.833,84 392.167,81 396.5,78C 399.303,77.245 401.97,77.5783 404.5,79C 418.333,92.8333 432.167,106.667 446,120.5C 446.402,121.872 446.902,123.205 447.5,124.5C 444.348,130.801 440.682,136.801 436.5,142.5C 440.431,151.793 444.264,161.126 448,170.5C 455.03,172.373 462.03,174.373 469,176.5C 470.146,187.573 470.646,198.74 470.5,210C 470.646,221.26 470.146,232.427 469,243.5C 462.684,245.631 456.184,247.131 449.5,248C 444.505,257.494 440.172,267.327 436.5,277.5C 440.631,282.772 443.965,288.439 446.5,294.5C 461.804,291.905 473.304,297.238 481,310.5C 485.114,324.77 480.947,335.936 468.5,344C 420.5,366.667 372.5,389.333 324.5,412C 309.299,419.734 293.299,425.067 276.5,428C 262.828,428.557 249.161,428.391 235.5,427.5C 212.529,426.327 191.862,432.494 173.5,446C 168.667,450.167 163.833,454.333 159,458.5C 159.418,463.465 159.418,468.465 159,473.5C 158.529,475.246 157.862,476.913 157,478.5C 147.379,488.461 136.879,497.295 125.5,505C 118.751,506.331 112.418,505.331 106.5,502C 81.2154,473.26 56.0488,444.427 31,415.5C 27.7179,408.473 27.7179,401.473 31,394.5C 40.5249,384.978 50.6915,376.145 61.5,368C 63.9528,367.262 66.4528,366.762 69,366.5C 73.2761,367.282 77.4428,368.115 81.5,369C 110.472,351.699 137.472,331.699 162.5,309C 168.111,304.902 174.111,301.402 180.5,298.5C 183.258,291.235 187.092,284.569 192,278.5C 188.762,268.801 185.095,259.134 181,249.5C 174.313,247.293 167.48,245.46 160.5,244C 159.874,243.25 159.374,242.416 159,241.5C 158.333,220.5 158.333,199.5 159,178.5C 159.5,176.667 160.667,175.5 162.5,175C 168.827,174.003 174.994,172.503 181,170.5C 184.736,161.126 188.569,151.793 192.5,142.5C 188.803,137.302 185.303,131.969 182,126.5C 181.365,124.365 181.699,122.365 183,120.5C 197.167,106.333 211.333,92.1667 225.5,78C 227.833,77.3333 230.167,77.3333 232.5,78C 236.833,81 241.167,84 245.5,87C 255.75,84.3575 265.75,80.6908 275.5,76C 277.371,69.6194 278.871,63.1194 280,56.5C 280.5,56 281,55.5 281.5,55C 287.157,54.5006 292.824,54.3339 298.5,54.5C 298.5,49.5 298.5,44.5 298.5,39.5C 276.617,42.4307 268.783,33.0974 275,11.5C 276.332,9.34004 277.832,7.34004 279.5,5.5 Z"/></g>
<g><path style="opacity:1" fill="#5c679c" d="M 284.5,15.5 C 304.5,15.5 324.5,15.5 344.5,15.5C 344.5,19.8333 344.5,24.1667 344.5,28.5C 324.5,28.5 304.5,28.5 284.5,28.5C 284.5,24.1667 284.5,19.8333 284.5,15.5 Z"/></g>
<g><path style="opacity:1" fill="#a1a1ca" d="M 309.5,38.5 C 312.833,38.5 316.167,38.5 319.5,38.5C 319.5,43.8333 319.5,49.1667 319.5,54.5C 316.167,54.5 312.833,54.5 309.5,54.5C 309.5,49.1667 309.5,43.8333 309.5,38.5 Z"/></g>
<g><path style="opacity:1" fill="#f6a900" d="M 210.5,294.5 C 206.979,293.834 203.313,293.167 199.5,292.5C 203.151,288.023 206.151,283.19 208.5,278C 204.227,266.745 199.727,255.578 195,244.5C 193.275,243.536 191.441,242.869 189.5,242.5C 189.056,240.887 188.056,239.72 186.5,239C 182.468,238.227 178.468,237.394 174.5,236.5C 174.5,218.833 174.5,201.167 174.5,183.5C 178.083,182.482 181.75,181.649 185.5,181C 187.324,180.34 188.657,179.173 189.5,177.5C 191.352,176.911 193.185,176.244 195,175.5C 199.614,164.43 204.114,153.263 208.5,142C 205.215,135.93 201.548,130.097 197.5,124.5C 208.653,113.848 219.653,103.014 230.5,92C 231.094,91.5357 231.761,91.369 232.5,91.5C 237.149,94.1592 241.816,96.8258 246.5,99.5C 259.636,94.5106 272.469,88.844 285,82.5C 286.49,76.5513 287.656,70.5513 288.5,64.5C 305.833,64.5 323.167,64.5 340.5,64.5C 341.395,69.812 342.229,75.1454 343,80.5C 343.465,81.9308 344.299,83.0975 345.5,84C 357.798,89.2656 370.132,94.4323 382.5,99.5C 387.877,96.9622 392.877,93.7955 397.5,90C 398.5,89.3333 399.5,89.3333 400.5,90C 411.667,101.167 422.833,112.333 434,123.5C 432.706,129.081 430.039,134.081 426,138.5C 425.333,140.5 425.333,142.5 426,144.5C 430.667,155.833 435.333,167.167 440,178.5C 440.833,179.333 441.667,180.167 442.5,181C 448.117,181.79 453.617,182.956 459,184.5C 459.5,201.497 459.667,218.497 459.5,235.5C 453.861,236.728 448.195,237.894 442.5,239C 440.741,240.008 439.574,241.508 439,243.5C 434.943,253.948 430.609,264.282 426,274.5C 425.333,276.5 425.333,278.5 426,280.5C 428.965,284.932 431.798,289.432 434.5,294C 432.218,297.286 429.551,300.286 426.5,303C 394.155,315.615 361.155,326.115 327.5,334.5C 327.772,328.207 326.772,322.207 324.5,316.5C 367.959,311.542 398.126,288.876 415,248.5C 430.895,200.526 420.062,159.693 382.5,126C 349.149,100.919 312.815,95.5861 273.5,110C 222.892,134.965 201.392,175.465 209,231.5C 214.863,259.412 229.363,281.578 252.5,298C 238.427,297.826 224.427,296.659 210.5,294.5 Z"/></g>
<g><path style="opacity:1" fill="#e79100" d="M 232.5,91.5 C 231.761,91.369 231.094,91.5357 230.5,92C 219.653,103.014 208.653,113.848 197.5,124.5C 201.548,130.097 205.215,135.93 208.5,142C 204.114,153.263 199.614,164.43 195,175.5C 193.185,176.244 191.352,176.911 189.5,177.5C 194.262,165.716 198.928,153.883 203.5,142C 201.526,136.685 198.692,131.852 195,127.5C 194.333,126.167 194.333,124.833 195,123.5C 206.167,112.333 217.333,101.167 228.5,90C 230.352,89.2274 231.686,89.7274 232.5,91.5 Z"/></g>
<g><path style="opacity:1" fill="#e7e7fd" d="M 407.5,180.5 C 408.359,188.015 409.359,195.515 410.5,203C 410.494,205.033 410.161,206.866 409.5,208.5C 407.749,205.088 404.916,203.755 401,204.5C 393.44,204.356 391.273,207.523 394.5,214C 398.833,214.667 403.167,214.667 407.5,214C 408.381,213.292 409.047,212.458 409.5,211.5C 410.158,212.793 410.492,214.293 410.5,216C 409.796,222.171 409.129,228.338 408.5,234.5C 400.078,266.095 380.744,288.261 350.5,301C 338.858,305.329 326.858,307.329 314.5,307C 310.729,304.781 306.729,303.115 302.5,302C 293.537,300.902 284.537,300.235 275.5,300C 231.496,277.164 212.329,240.998 218,191.5C 225.723,157.439 245.557,133.272 277.5,119C 324.011,103.84 362.844,115.007 394,152.5C 399.847,161.194 404.347,170.528 407.5,180.5 Z"/></g>
<g><path style="opacity:1" fill="#09090a" d="M 312.5,114.5 C 315.325,114.081 317.491,115.081 319,117.5C 319.667,121.5 319.667,125.5 319,129.5C 316,133.5 313,133.5 310,129.5C 309.333,125.5 309.333,121.5 310,117.5C 311.045,116.627 311.878,115.627 312.5,114.5 Z"/></g>
<g><path style="opacity:1" fill="#0c0c0d" d="M 267.5,126.5 C 272.67,127.164 275.837,130.164 277,135.5C 278.539,139.74 277.206,142.407 273,143.5C 271.527,143.097 270.194,142.43 269,141.5C 267.341,138.351 265.841,135.184 264.5,132C 264.863,129.808 265.863,127.974 267.5,126.5 Z"/></g>
<g><path style="opacity:1" fill="#0f0f10" d="M 357.5,126.5 C 361.223,126.223 363.556,127.89 364.5,131.5C 363.396,137.091 360.396,141.091 355.5,143.5C 352.833,142.833 351.167,141.167 350.5,138.5C 352.324,134.182 354.658,130.182 357.5,126.5 Z"/></g>
<g><path style="opacity:1" fill="#040404" d="M 312.5,151.5 C 315.368,151.085 317.535,152.085 319,154.5C 319.5,168.496 319.667,182.496 319.5,196.5C 327.607,199.708 330.774,205.708 329,214.5C 324.81,223.177 317.976,226.343 308.5,224C 299.643,218.429 297.476,210.929 302,201.5C 304.039,199.126 306.372,197.126 309,195.5C 309.333,181.833 309.667,168.167 310,154.5C 310.698,153.309 311.531,152.309 312.5,151.5 Z"/></g>
<g><path style="opacity:1" fill="#0c0c0d" d="M 234.5,159.5 C 239.059,160.528 243.225,162.528 247,165.5C 248.668,171.493 246.502,173.993 240.5,173C 237.582,171.291 234.748,169.458 232,167.5C 231.018,164.225 231.851,161.559 234.5,159.5 Z"/></g>
<g><path style="opacity:1" fill="#0c0c0d" d="M 390.5,159.5 C 395.813,159.644 397.979,162.31 397,167.5C 393.22,171.321 388.72,173.155 383.5,173C 381.556,170.847 381.056,168.347 382,165.5C 384.988,163.601 387.821,161.601 390.5,159.5 Z"/></g>
<g><path style="opacity:1" fill="#f59900" d="M 174.5,183.5 C 174.5,201.167 174.5,218.833 174.5,236.5C 173.07,236.579 171.736,236.246 170.5,235.5C 169.334,218.51 169.167,201.51 170,184.5C 171.356,183.62 172.856,183.286 174.5,183.5 Z"/></g>
<g><path style="opacity:1" fill="#bbbbd6" d="M 407.5,180.5 C 412.108,193.34 413.608,206.673 412,220.5C 411.355,225.431 410.189,230.097 408.5,234.5C 409.129,228.338 409.796,222.171 410.5,216C 410.492,214.293 410.158,212.793 409.5,211.5C 409.5,210.5 409.5,209.5 409.5,208.5C 410.161,206.866 410.494,205.033 410.5,203C 409.359,195.515 408.359,188.015 407.5,180.5 Z"/></g>
<g><path style="opacity:1" fill="#0c0c0d" d="M 222.5,204.5 C 226.182,204.335 229.848,204.501 233.5,205C 236.978,207.706 237.311,210.706 234.5,214C 230.167,214.667 225.833,214.667 221.5,214C 218.753,210.553 219.087,207.386 222.5,204.5 Z"/></g>
<g><path style="opacity:1" fill="#eba200" d="M 312.5,204.5 C 319.297,205.107 320.964,208.274 317.5,214C 309.03,214.531 307.364,211.364 312.5,204.5 Z"/></g>
<g><path style="opacity:1" fill="#0c0c0d" d="M 409.5,208.5 C 409.5,209.5 409.5,210.5 409.5,211.5C 409.047,212.458 408.381,213.292 407.5,214C 403.167,214.667 398.833,214.667 394.5,214C 391.273,207.523 393.44,204.356 401,204.5C 404.916,203.755 407.749,205.088 409.5,208.5 Z"/></g>
<g><path style="opacity:1" fill="#e99200" d="M 189.5,242.5 C 191.441,242.869 193.275,243.536 195,244.5C 199.727,255.578 204.227,266.745 208.5,278C 206.151,283.19 203.151,288.023 199.5,292.5C 203.313,293.167 206.979,293.834 210.5,294.5C 205.125,294.828 199.792,294.495 194.5,293.5C 198.16,288.683 201.16,283.517 203.5,278C 199.241,265.985 194.574,254.152 189.5,242.5 Z"/></g>
<g><path style="opacity:1" fill="#060607" d="M 240.5,246.5 C 246,245.831 248.167,248.165 247,253.5C 243.529,257.989 239.029,259.822 233.5,259C 231.604,257.192 231.104,255.025 232,252.5C 234.736,250.248 237.569,248.248 240.5,246.5 Z"/></g>
<g><path style="opacity:1" fill="#080809" d="M 383.5,246.5 C 388.776,246.721 393.276,248.721 397,252.5C 397.993,258.502 395.493,260.668 389.5,259C 387.33,257.414 384.996,256.08 382.5,255C 381.041,251.929 381.374,249.096 383.5,246.5 Z"/></g>
<g><path style="opacity:1" fill="#09090a" d="M 270.5,276.5 C 274.841,275.52 277.174,277.187 277.5,281.5C 276.967,286.964 274.3,290.63 269.5,292.5C 266.404,292.571 264.738,291.071 264.5,288C 266.102,283.963 268.102,280.13 270.5,276.5 Z"/></g>
<g><path style="opacity:1" fill="#0b0b0c" d="M 353.5,276.5 C 355.936,276.317 358.103,276.984 360,278.5C 361.659,281.649 363.159,284.816 364.5,288C 363.472,292.206 360.805,293.539 356.5,292C 354.104,288.707 352.104,285.207 350.5,281.5C 351.092,279.577 352.092,277.911 353.5,276.5 Z"/></g>
<g><path style="opacity:1" fill="#050506" d="M 312.5,287.5 C 315.325,287.081 317.491,288.081 319,290.5C 319.667,294.5 319.667,298.5 319,302.5C 316,305.167 313,305.167 310,302.5C 309.333,298.5 309.333,294.5 310,290.5C 311.045,289.627 311.878,288.627 312.5,287.5 Z"/></g>
<g><path style="opacity:1" fill="#fbd5ac" d="M 307.5,314.5 C 309.215,321.037 308.715,327.371 306,333.5C 299.999,338.417 293.165,341.583 285.5,343C 279.87,343.966 274.204,344.633 268.5,345C 249.164,345.125 229.831,345.125 210.5,345C 205.244,349.924 205.244,354.924 210.5,360C 212.134,360.494 213.801,360.66 215.5,360.5C 215.859,362.371 216.859,363.871 218.5,365C 244.593,367.489 270.593,366.822 296.5,363C 308.536,360.595 318.203,354.595 325.5,345C 367.356,335.27 408.022,321.937 447.5,305C 456.001,302.768 463.001,304.934 468.5,311.5C 467.259,317.914 463.592,322.414 457.5,325C 405.5,349 353.5,373 301.5,397C 293.384,400.112 285.051,402.446 276.5,404C 258.969,404.447 241.469,403.947 224,402.5C 201.851,401.09 181.018,405.59 161.5,416C 152.707,421.637 144.374,427.804 136.5,434.5C 120.218,415.878 103.885,397.212 87.5,378.5C 116.648,360.532 143.981,340.032 169.5,317C 179.452,309.071 190.785,304.571 203.5,303.5C 234.673,307.98 266.006,310.48 297.5,311C 301.039,311.679 304.372,312.846 307.5,314.5 Z"/></g>
<g><path style="opacity:1" fill="#e3af7b" d="M 468.5,311.5 C 474.114,319.284 473.114,326.451 465.5,333C 410.044,360.393 354.044,386.727 297.5,412C 291.833,413.667 286.167,415.333 280.5,417C 259.167,417.333 237.833,417.667 216.5,418C 200.875,419.313 186.541,424.313 173.5,433C 165.54,438.569 158.04,444.736 151,451.5C 145.956,445.961 141.123,440.294 136.5,434.5C 144.374,427.804 152.707,421.637 161.5,416C 181.018,405.59 201.851,401.09 224,402.5C 241.469,403.947 258.969,404.447 276.5,404C 285.051,402.446 293.384,400.112 301.5,397C 353.5,373 405.5,349 457.5,325C 463.592,322.414 467.259,317.914 468.5,311.5 Z"/></g>
<g><path style="opacity:1" fill="#e2ae7a" d="M 307.5,314.5 C 317.779,321.171 320.279,330.171 315,341.5C 310.039,347.731 303.539,351.565 295.5,353C 281.119,355.491 266.619,356.658 252,356.5C 240.494,356.045 228.994,355.878 217.5,356C 215.963,357.11 215.297,358.61 215.5,360.5C 213.801,360.66 212.134,360.494 210.5,360C 205.244,354.924 205.244,349.924 210.5,345C 229.831,345.125 249.164,345.125 268.5,345C 274.204,344.633 279.87,343.966 285.5,343C 293.165,341.583 299.999,338.417 306,333.5C 308.715,327.371 309.215,321.037 307.5,314.5 Z"/></g>
<g><path style="opacity:1" fill="#2990f8" d="M 129.5,442.5 C 118.833,453.5 108.167,464.5 97.5,475.5C 79.0173,454.572 60.5173,433.572 42,412.5C 37.9156,408.027 37.5823,403.36 41,398.5C 48.7954,392.373 56.2954,385.873 63.5,379C 69.2667,376.3 74.1,377.467 78,382.5C 95.3765,402.372 112.543,422.372 129.5,442.5 Z"/></g>
<g><path style="opacity:1" fill="#0d80f2" d="M 129.5,442.5 C 136.506,449.342 143.006,456.675 149,464.5C 149.755,467.303 149.422,469.97 148,472.5C 140.5,479.333 133,486.167 125.5,493C 121.667,495.753 117.667,496.086 113.5,494C 107.957,487.961 102.624,481.795 97.5,475.5C 108.167,464.5 118.833,453.5 129.5,442.5 Z"/></g>
</svg>
