<?xml version="1.0" encoding="UTF-8"?>
<svg version="1.1" xmlns="http://www.w3.org/2000/svg" width="874" height="784">
<path d="M0 0 C1.69660767 -0.01401855 1.69660767 -0.01401855 3.42749023 -0.02832031 C8.87990049 -0.00711264 13.31484974 0.21328363 18.4375 2.25 C20.41164722 2.53695545 22.39166267 2.78558515 24.375 3 C43.31108396 5.78535328 60.33109956 16.86900368 72.26171875 31.65625 C80.65496631 43.0331437 78.68527646 59.08493461 78.5625 72.5 C78.55244806 74.42056824 78.54332614 76.34114158 78.53515625 78.26171875 C78.51332288 82.92460722 78.47891555 87.58724603 78.4375 92.25 C79.55286133 92.2288916 80.66822266 92.2077832 81.81738281 92.18603516 C85.4375 92.25 85.4375 92.25 87.359375 93.2734375 C89.04440969 96.36266776 88.78878835 99.45306526 88.6875 102.875 C88.67654297 103.61613037 88.66558594 104.35726074 88.65429688 105.12084961 C88.49837941 113.17517315 88.00063074 121.21533111 87.4375 129.25 C88.57638672 129.30607422 88.57638672 129.30607422 89.73828125 129.36328125 C90.73214844 129.42902344 91.72601563 129.49476563 92.75 129.5625 C93.73613281 129.62050781 94.72226562 129.67851562 95.73828125 129.73828125 C98.733769 130.30616677 99.7297663 130.75408152 101.4375 133.25 C101.8359375 135.1875 101.8359375 135.1875 101.8125 137.25 C101.82023437 137.930625 101.82796875 138.61125 101.8359375 139.3125 C101.31069433 141.86662364 100.4795929 142.64751849 98.4375 144.25 C96.16918945 144.59057617 96.16918945 144.59057617 93.55078125 144.54296875 C92.61298828 144.53330078 91.67519531 144.52363281 90.70898438 144.51367188 C89.73251953 144.48853516 88.75605469 144.46339844 87.75 144.4375 C86.76193359 144.42396484 85.77386719 144.41042969 84.75585938 144.39648438 C82.31585769 144.36112203 79.87695281 144.31177033 77.4375 144.25 C77.40011719 145.22195312 77.36273438 146.19390625 77.32421875 147.1953125 C76.18602639 172.57012287 73.04533529 195.90940641 56.140625 215.9765625 C54.07932493 218.28629155 54.07932493 218.28629155 54.25 222.0625 C55.70358819 231.13595048 60.56794693 240.54236386 65.4375 248.25 C66.4275 247.92 67.4175 247.59 68.4375 247.25 C68.1075 249.56 67.7775 251.87 67.4375 254.25 C68.09959473 254.41725586 68.76168945 254.58451172 69.44384766 254.75683594 C77.4331952 256.84564588 85.03584254 259.62276719 92.71484375 262.640625 C93.64167969 262.99125 94.56851562 263.341875 95.5234375 263.703125 C96.3489209 264.02442383 97.1744043 264.34572266 98.02490234 264.67675781 C100.88767928 265.35696427 102.64033077 265.11827764 105.4375 264.25 C107.99085511 262.14328229 107.99085511 262.14328229 110.375 259.5 C111.68404297 258.15035156 111.68404297 258.15035156 113.01953125 256.7734375 C114.3919439 255.34116194 115.76434684 253.90887709 117.13671875 252.4765625 C119.86087942 249.89420746 121.95067716 248.92338003 125.625 248.75 C129.4375 249.25 129.4375 249.25 131.4375 250.25 C133.19811923 253.77123845 133.63925632 256.55181172 132.4375 260.25 C128.70009623 264.93886736 124.42456317 268.92529122 119.4375 272.25 C120.29279297 272.60191406 121.14808594 272.95382812 122.02929688 273.31640625 C174.02691941 294.76507553 174.02691941 294.76507553 179.4375 303.25 C180.59201665 310.43637696 178.94490974 318.24144997 177.9375 325.375 C177.79441406 326.426875 177.65132813 327.47875 177.50390625 328.5625 C177.15435503 331.12587562 176.79879594 333.68825808 176.4375 336.25 C177.14543701 336.66660889 177.85337402 337.08321777 178.58276367 337.51245117 C190.57489864 344.5763911 202.55816027 351.64512992 214.375 359 C215.21095703 359.51675293 216.04691406 360.03350586 216.90820312 360.56591797 C221.24076706 363.24641838 225.54648746 365.96147783 229.828125 368.72265625 C231.59343236 369.8364411 233.35904686 370.94973935 235.125 372.0625 C235.91447021 372.58489258 236.70394043 373.10728516 237.51733398 373.64550781 C242.18137102 376.54985684 246.16028447 378.22948492 251.72045898 377.90209961 C257.64793654 376.47948369 262.57550903 372.91250218 267.625 369.625 C268.84798636 368.85258218 270.07245555 368.08250754 271.29833984 367.31469727 C273.79556721 365.74721685 276.28552146 364.16911892 278.77001953 362.58154297 C284.32118239 359.0413176 289.94155074 355.61559955 295.5625 352.1875 C296.53340576 351.58663574 297.50431152 350.98577148 298.50463867 350.36669922 C299.39256104 349.82158691 300.2804834 349.27647461 301.1953125 348.71484375 C302.35764404 347.99735962 302.35764404 347.99735962 303.54345703 347.26538086 C305.4375 346.25 305.4375 346.25 307.4375 346.25 C307.31632812 345.50016846 307.19515625 344.75033691 307.0703125 343.9777832 C306.51563717 340.5075957 305.9765169 337.03515277 305.4375 333.5625 C305.15132813 331.79422852 305.15132813 331.79422852 304.859375 329.99023438 C301.6479606 309.05869412 301.6479606 309.05869412 304.68969727 304.28466797 C306.50701128 302.63781743 308.3044812 301.45777056 310.4375 300.25 C311.10765137 299.83218262 311.77780273 299.41436523 312.46826172 298.98388672 C314.73170666 297.6299872 317.03271937 296.39980376 319.375 295.1875 C320.25454346 294.72851318 321.13408691 294.26952637 322.0402832 293.79663086 C334.30585729 287.57914973 347.16364125 282.64757262 359.95068359 277.62158203 C364.45397793 275.85015593 368.94652275 274.05237444 373.4375 272.25 C373.66420798 270.17943384 373.66420798 270.17943384 372.15234375 268.86474609 C371.27255859 268.07704834 371.27255859 268.07704834 370.375 267.2734375 C369.74335937 266.68433594 369.11171875 266.09523438 368.4609375 265.48828125 C367.12359805 264.25679299 365.77471776 263.0377084 364.4140625 261.83203125 C359.67809226 257.35702263 359.67809226 257.35702263 358.96484375 254.07519531 C358.92858848 251.20973376 359.1467666 248.83146679 360.4375 246.25 C362.96752782 244.98498609 365.22361731 244.35269117 368.0625 244.44140625 C372.5885512 245.98234803 375.58468196 249.90485153 378.75390625 253.34375 C381.03850664 255.81790239 383.34848147 258.09179843 385.875 260.3125 C386.47183594 260.83972656 387.06867187 261.36695313 387.68359375 261.91015625 C389.63407666 263.4001688 391.11395127 264.41825225 393.4375 265.25 C396.24065946 264.69844188 396.24065946 264.69844188 399.19140625 263.4765625 C400.29291016 263.0640625 401.39441406 262.6515625 402.52929688 262.2265625 C403.67462891 261.78054688 404.81996094 261.33453125 406 260.875 C408.27061828 260.00903229 410.54269148 259.14686702 412.81640625 258.2890625 C414.32569702 257.70439209 414.32569702 257.70439209 415.86547852 257.10791016 C418.4375 256.25 418.4375 256.25 421.4375 256.25 C422.9225 251.795 422.9225 251.795 424.4375 247.25 C425.0975 247.25 425.7575 247.25 426.4375 247.25 C426.70433594 246.41210938 426.97117187 245.57421875 427.24609375 244.7109375 C428.73482698 240.3862895 430.49939993 236.18813782 432.31445312 231.9921875 C434.2289835 227.37057802 435.31432123 223.27979958 435.4375 218.25 C434.08797775 215.54349574 434.08797775 215.54349574 431.875 213.375 C415.00161891 194.03234363 413.72891846 169.82937691 411.4375 145.25 C410.46167969 145.21261719 409.48585938 145.17523438 408.48046875 145.13671875 C407.20816406 145.07097656 405.93585937 145.00523437 404.625 144.9375 C403.36042969 144.87949219 402.09585938 144.82148438 400.79296875 144.76171875 C397.4375 144.25 397.4375 144.25 395.51171875 142.95703125 C393.57959404 139.88670944 393.90635478 136.74246173 394.4375 133.25 C395.625 131.25 395.625 131.25 397.4375 130.25 C399.10369021 130.21015091 400.77140449 130.20637066 402.4375 130.25 C402.3653125 129.56679687 402.293125 128.88359375 402.21875 128.1796875 C401.52669229 120.66317181 401.27132881 113.17082569 401.1875 105.625 C401.16623047 104.65288574 401.14496094 103.68077148 401.12304688 102.67919922 C401.1162793 101.30272217 401.1162793 101.30272217 401.109375 99.8984375 C401.1000293 99.07520996 401.09068359 98.25198242 401.08105469 97.40380859 C401.52481 94.72243231 402.2640523 93.84356525 404.4375 92.25 C407.53251208 91.99734595 409.63879973 91.85064987 412.4375 93.25 C412.1075 92.26 411.7775 91.27 411.4375 90.25 C411.33766206 88.91744987 411.2893405 87.58060674 411.27636719 86.24438477 C411.26675964 85.44247208 411.2571521 84.64055939 411.24725342 83.81434631 C411.24300354 82.94877609 411.23875366 82.08320587 411.234375 81.19140625 C411.22867493 80.29187729 411.22297485 79.39234833 411.21710205 78.46556091 C411.20765028 76.55656102 411.20111737 74.6475448 411.19726562 72.73852539 C411.18764077 69.85467795 411.15665344 66.97156833 411.125 64.08789062 C410.97788878 38.93214489 410.97788878 38.93214489 419.1953125 29.453125 C433.31988046 15.57462965 450.86150679 5.34916622 470.4375 2.25 C471.58605469 2.02957031 472.73460937 1.80914062 473.91796875 1.58203125 C482.26199121 0.17721843 490.55362518 0.0489476 499 0 C500.69660767 -0.01401855 500.69660767 -0.01401855 502.42749023 -0.02832031 C507.87990049 -0.00711264 512.31484974 0.21328363 517.4375 2.25 C519.41164722 2.53695545 521.39166267 2.78558515 523.375 3 C542.31108396 5.78535328 559.33109956 16.86900368 571.26171875 31.65625 C579.65496631 43.0331437 577.68527646 59.08493461 577.5625 72.5 C577.55244806 74.42056824 577.54332614 76.34114158 577.53515625 78.26171875 C577.51332288 82.92460722 577.47891555 87.58724603 577.4375 92.25 C578.55286133 92.2288916 579.66822266 92.2077832 580.81738281 92.18603516 C584.4375 92.25 584.4375 92.25 586.359375 93.2734375 C588.04420251 96.36228794 587.78986276 99.45332358 587.6875 102.875 C587.66780151 103.99322144 587.66780151 103.99322144 587.64770508 105.1340332 C587.59675196 107.50695705 587.51909512 109.87794781 587.4375 112.25 C587.41671387 113.03004395 587.39592773 113.81008789 587.37451172 114.61376953 C587.31006389 116.88949394 587.22242971 119.16296821 587.125 121.4375 C587.09164551 122.47801514 587.09164551 122.47801514 587.05761719 123.53955078 C586.80998217 128.11633679 585.9116931 131.38851098 583.4375 135.25 C582.18235596 136.1464624 582.18235596 136.1464624 580.90185547 137.06103516 C577.87497342 139.74966449 577.67058258 141.0686898 577.23828125 145.03515625 C577.09986816 146.18902832 576.96145508 147.34290039 576.81884766 148.53173828 C576.69300293 149.75876465 576.5671582 150.98579102 576.4375 152.25 C576.14092675 154.76972054 575.84271448 157.28924864 575.54296875 159.80859375 C575.08153518 163.7494328 574.62476794 167.68966127 574.20117188 171.63476562 C572.70821049 184.08024038 569.3804883 195.34216432 562.375 205.8125 C561.74368164 206.79959961 561.74368164 206.79959961 561.09960938 207.80664062 C559.23621027 210.68696452 557.3553111 213.34756438 555.140625 215.9765625 C553.07932493 218.28629155 553.07932493 218.28629155 553.25 222.0625 C554.70358819 231.13595048 559.56794693 240.54236386 564.4375 248.25 C565.4275 247.92 566.4175 247.59 567.4375 247.25 C567.1075 249.56 566.7775 251.87 566.4375 254.25 C567.02273438 254.39115234 567.60796875 254.53230469 568.2109375 254.67773438 C577.51952615 257.06078898 586.44269309 260.40525321 595.4375 263.75 C596.2735376 264.05957642 597.1095752 264.36915283 597.97094727 264.68811035 C671.05960699 291.77513675 671.05960699 291.77513675 678.4375 303.25 C679.77680687 310.93423964 677.68029655 319.36995879 676.375 326.9375 C676.26490601 327.58416626 676.15481201 328.23083252 676.04138184 328.89709473 C673.43335303 344.14538838 670.11913349 359.22711163 666.4375 374.25 C666.2735675 374.92011108 666.10963501 375.59022217 665.94073486 376.28063965 C636.47071863 496.24296142 636.47071863 496.24296142 598.58227539 519.34130859 C571.12369068 535.37933421 537.49987742 540.24685022 506.13671875 540.48828125 C505.09844437 540.496353 504.06016998 540.50442474 502.99043274 540.51274109 C500.80475475 540.52646831 498.61905634 540.53724034 496.43334961 540.54516602 C494.24741102 540.55661917 492.06149889 540.57696342 489.87573242 540.60668945 C474.29510645 540.8175409 459.68819155 539.49251177 444.4375 536.25 C442.44347345 541.48586673 440.57226519 546.73630459 438.8359375 552.0625 C438.34602752 553.5530038 437.85578 555.04339669 437.36523438 556.53369141 C437.11217529 557.30336243 436.85911621 558.07303345 436.59838867 558.86602783 C411.0913506 636.24094242 411.0913506 636.24094242 386.4375 660.25 C385.45910156 661.24193359 385.45910156 661.24193359 384.4609375 662.25390625 C346.73686695 698.13190526 277.98868735 697.71561839 229.86994934 696.65733337 C214.73066282 696.18683161 200.15766049 693.6911542 185.4375 690.25 C184.32197754 689.99911621 183.20645508 689.74823242 182.05712891 689.48974609 C141.418986 680.22641158 105.02690239 662.84898359 82.26586914 626.8203125 C68.99170267 605.2722185 59.11572583 582.61494581 50.4375 558.875 C50.06359131 557.85970215 49.68968262 556.8444043 49.30444336 555.79833984 C47.11480919 549.67912604 45.507595 543.66176987 44.4375 537.25 C42.49230469 537.57484375 42.49230469 537.57484375 40.5078125 537.90625 C5.96819903 543.04475147 -30.65788114 542.94546949 -64.5625 534.25 C-65.6443457 533.97736328 -66.72619141 533.70472656 -67.84082031 533.42382812 C-95.02133614 526.36417375 -120.21129794 514.88583213 -137.5625 492.25 C-138.27277344 491.32832031 -138.98304688 490.40664063 -139.71484375 489.45703125 C-171.24871543 446.29041124 -185.39314474 387.34961664 -193.5625 335.25 C-193.69092285 334.43692383 -193.8193457 333.62384766 -193.95166016 332.78613281 C-194.64173182 328.28281202 -195.17209393 323.79103905 -195.5625 319.25 C-195.68109375 318.04859375 -195.7996875 316.8471875 -195.921875 315.609375 C-195.98890625 314.45953125 -196.0559375 313.3096875 -196.125 312.125 C-196.18816406 311.13242187 -196.25132812 310.13984375 -196.31640625 309.1171875 C-194.80768839 303.37936931 -189.29695556 300.57086027 -184.41015625 297.71484375 C-182.82299384 296.85762433 -181.2272908 296.01609751 -179.625 295.1875 C-178.72515381 294.72126221 -177.82530762 294.25502441 -176.89819336 293.7746582 C-152.26181248 281.34662141 -125.72789518 272.3868434 -99.80596924 263.05841064 C-98.26145236 262.50186016 -96.71766949 261.94326984 -95.17449951 261.38299561 C-92.82506132 260.53048569 -90.47340304 259.68439439 -88.12109375 258.83984375 C-87.04698997 258.44847984 -87.04698997 258.44847984 -85.95118713 258.04920959 C-83.01711317 257.00299017 -80.70315161 256.25 -77.5625 256.25 C-77.5625 253.28 -77.5625 250.31 -77.5625 247.25 C-76.2425 247.25 -74.9225 247.25 -73.5625 247.25 C-72.26293899 244.39936461 -70.97432847 241.54390298 -69.6875 238.6875 C-69.32269531 237.88763672 -68.95789063 237.08777344 -68.58203125 236.26367188 C-64.02725188 227.05387583 -64.02725188 227.05387583 -64.5625 217.25 C-66.39196214 214.54234344 -66.39196214 214.54234344 -68.6875 211.8125 C-79.97195389 197.40527573 -83.52138895 181.98783667 -85.49780273 164.14794922 C-85.75203682 161.85664299 -86.01863917 159.56702153 -86.28710938 157.27734375 C-86.4564438 155.80216519 -86.62508869 154.32690728 -86.79296875 152.8515625 C-86.8710527 152.17646637 -86.94913666 151.50137024 -87.02958679 150.80581665 C-87.45444115 146.93432711 -87.63666973 143.14372241 -87.5625 139.25 C-88.7071875 138.87875 -88.7071875 138.87875 -89.875 138.5 C-92.84857889 137.11694005 -93.88373929 136.01995517 -95.5625 133.25 C-98.41619238 124.68892285 -97.70671895 114.57553563 -97.8125 105.625 C-97.8338501 104.65264404 -97.8552002 103.68028809 -97.87719727 102.6784668 C-97.88162842 101.76105713 -97.88605957 100.84364746 -97.890625 99.8984375 C-97.8999707 99.07520996 -97.90931641 98.25198242 -97.91894531 97.40380859 C-97.47519 94.72243231 -96.7359477 93.84356525 -94.5625 92.25 C-91.46748792 91.99734595 -89.36120027 91.85064987 -86.5625 93.25 C-86.8925 92.26 -87.2225 91.27 -87.5625 90.25 C-87.66233794 88.91744987 -87.7106595 87.58060674 -87.72363281 86.24438477 C-87.73324036 85.44247208 -87.7428479 84.64055939 -87.75274658 83.81434631 C-87.75699646 82.94877609 -87.76124634 82.08320587 -87.765625 81.19140625 C-87.77132507 80.29187729 -87.77702515 79.39234833 -87.78289795 78.46556091 C-87.79234972 76.55656102 -87.79888263 74.6475448 -87.80273438 72.73852539 C-87.81235923 69.85467795 -87.84334656 66.97156833 -87.875 64.08789062 C-88.02211122 38.93214489 -88.02211122 38.93214489 -79.8046875 29.453125 C-65.68011954 15.57462965 -48.13849321 5.34916622 -28.5625 2.25 C-27.41394531 2.02957031 -26.26539063 1.80914062 -25.08203125 1.58203125 C-16.73800879 0.17721843 -8.44637482 0.0489476 0 0 Z M423.4375 258.25 C424.0975 259.57 424.7575 260.89 425.4375 262.25 C425.4375 260.93 425.4375 259.61 425.4375 258.25 C424.7775 258.25 424.1175 258.25 423.4375 258.25 Z " fill="#000000" transform="translate(195.5625,87.75)"/>
<path d="M0 0 C0.721875 0.65613281 1.44375 1.31226562 2.1875 1.98828125 C3.0125 2.69597656 3.8375 3.40367187 4.6875 4.1328125 C24.39627633 21.28786019 46.40819194 51.16632023 48.36450195 78.45751953 C49.12170274 110.59782723 39.29510332 138.3383724 25.1875 166.98828125 C24.77773926 167.82166016 24.36797852 168.65503906 23.94580078 169.51367188 C18.54973133 180.36328633 12.45055473 190.72591272 6.00854492 200.98657227 C0.53327177 209.77359661 -3.1456773 218.34805791 -5.87890625 228.30078125 C-7.15251918 232.65299497 -8.65644293 235.71800497 -11.8125 238.98828125 C-19.46541796 243.03133225 -27.17328092 243.13783079 -35.61572266 243.13354492 C-37.05361397 243.13858284 -37.05361397 243.13858284 -38.52055359 243.14372253 C-41.67256992 243.15318128 -44.82453289 243.15517271 -47.9765625 243.15625 C-50.17418438 243.15946477 -52.37180605 243.16282901 -54.56942749 243.16633606 C-59.1673838 243.17231364 -63.76532133 243.17417723 -68.36328125 243.17358398 C-74.25574924 243.17348213 -80.14809735 243.18716431 -86.04053688 243.20435619 C-90.57525181 243.21546797 -95.10993761 243.21750349 -99.64466476 243.21697426 C-101.81758413 243.21815446 -103.99050424 243.22257847 -106.16341019 243.23030663 C-109.19838168 243.24009511 -112.23309076 243.23723352 -115.26806641 243.23120117 C-116.16481583 243.23682068 -117.06156525 243.24244019 -117.98548889 243.24822998 C-122.3413363 243.22621086 -125.90233982 243.14780039 -129.8125 240.98828125 C-136.23773497 234.27204831 -138.42474793 224.63363034 -140.75 215.86328125 C-143.99692676 204.28894232 -150.57026369 195.34910881 -157.46484375 185.69921875 C-171.05517862 166.63338094 -184.79544082 146.91403839 -190.8125 123.98828125 C-191.12832031 122.79332031 -191.44414062 121.59835938 -191.76953125 120.3671875 C-198.31739354 92.11271323 -191.65629283 60.866348 -176.78369141 36.28808594 C-167.28486622 21.16750707 -154.05632289 8.22424453 -138.8125 -1.01171875 C-138.2153418 -1.38345215 -137.61818359 -1.75518555 -137.00292969 -2.13818359 C-96.29458556 -27.32001532 -38.29108478 -33.17231129 0 0 Z " fill="#FBB03B" transform="translate(513.8125,126.01171875)"/>
<path d="M0 0 C3.69333099 1.60655532 6.48694984 3.92239605 9.5625 6.5 C12.32911711 8.81239639 14.99876548 10.99917699 18 13 C16.47272653 18.05248959 13.39417992 21.28805589 9.9375 25.125 C8.75011496 26.46770113 7.56392174 27.81145714 6.37890625 29.15625 C5.79898926 29.81238281 5.21907227 30.46851563 4.62158203 31.14453125 C1.73897022 34.44291272 -1.00090193 37.85459322 -3.7578125 41.2578125 C-6.30253683 44.37000148 -8.89618225 47.43726497 -11.5 50.5 C-14.87288602 54.46899152 -18.21176774 58.4601718 -21.5 62.5 C-25.24787798 67.1045358 -29.06983444 71.64019191 -32.9140625 76.1640625 C-36.54780235 80.44740948 -40.10662437 84.787994 -43.65234375 89.14453125 C-48.04003634 94.48130877 -52.52385012 99.73738641 -57 105 C-61.77460498 101.94218971 -66.13090452 98.54573062 -70.5 94.9375 C-75.60275343 90.75473247 -80.73053165 86.61480081 -85.9375 82.5625 C-91.24595559 78.42648748 -96.44672208 74.1726145 -101.625 69.875 C-108.266801 64.36517073 -115.02401869 59.08077251 -122 54 C-120.46473873 48.91809087 -117.32630342 45.57522114 -113.875 41.6875 C-113.31167969 41.04232422 -112.74835938 40.39714844 -112.16796875 39.73242188 C-110.78458492 38.14973699 -109.39308955 36.57414859 -108 35 C-97.73500073 42.59609946 -87.74283983 50.53467153 -77.88671875 58.65234375 C-72.31990504 63.17961715 -66.65480596 67.58347272 -61 72 C-57.36738772 68.45885637 -54.00547227 64.76751432 -50.75 60.875 C-50.27111328 60.30587891 -49.79222656 59.73675781 -49.29882812 59.15039062 C-45.59502231 54.73828729 -41.94899602 50.28019511 -38.3125 45.8125 C-35.2756723 42.1190609 -32.18039045 38.47701514 -29.08374023 34.83374023 C-26.2045468 31.44045891 -23.36795763 28.01732214 -20.5625 24.5625 C-16.51393204 19.58583072 -12.35454021 14.71160337 -8.16040039 9.85766602 C-5.37028156 6.62373881 -2.64511403 3.35508526 0 0 Z " fill="#FEFEFC" transform="translate(496,197)"/>
<path d="M0 0 C1.05695068 1.19568604 1.05695068 1.19568604 2.13525391 2.41552734 C2.757146 3.0885791 3.37903809 3.76163086 4.01977539 4.45507812 C5.9032345 6.79318356 7.74532224 9.15837277 9.57275391 11.54052734 C10.5656543 12.74708984 10.5656543 12.74708984 11.57861328 13.97802734 C16.09869804 19.9038348 16.09869804 19.9038348 16.19335938 23.81835938 C15.68116081 26.42768275 14.94056265 28.88176806 14.13525391 31.41552734 C13.6852644 33.42466607 13.25388684 35.43803781 12.83837891 37.45458984 C10.2010413 49.46103285 7.43013102 61.41562451 4.39282227 73.32714844 C2.15474039 82.17251687 0.16453655 91.06634869 -1.77294922 99.98193359 C-3.33792979 107.16243271 -5.04176966 114.2960977 -6.86474609 121.41552734 C-8.86474609 120.41552734 -8.86474609 120.41552734 -10.13891602 117.06884766 C-10.63201625 115.54624434 -11.11675245 114.02091868 -11.59521484 112.49365234 C-11.86252411 111.66245377 -12.12983337 110.83125519 -12.40524292 109.97486877 C-12.98761373 108.16158304 -13.56658319 106.3472023 -14.14260864 104.53189087 C-15.69400187 99.64328721 -17.26940703 94.76241067 -18.84130859 89.88037109 C-19.16811111 88.86299362 -19.49491364 87.84561615 -19.83161926 86.79740906 C-23.74569953 74.63292904 -27.80884754 62.51846344 -31.87509155 50.4041748 C-42.62895527 18.35914247 -42.62895527 18.35914247 -43.86474609 11.41552734 C-38.12765017 9.45842908 -32.38079196 7.53486577 -26.62231445 5.64160156 C-24.66484153 4.99284282 -22.71035321 4.33500577 -20.7590332 3.66796875 C-17.95396659 2.71083694 -15.13979649 1.78683475 -12.32177734 0.86865234 C-11.45075882 0.56364807 -10.5797403 0.2586438 -9.68232727 -0.05560303 C-3.59556249 -1.98868251 -3.59556249 -1.98868251 0 0 Z " fill="#FDFDFD" transform="translate(422.86474609375,479.58447265625)"/>
<path d="M0 0 C8.49917899 2.02759133 16.8549696 4.37231406 25.1875 7 C26.31736328 7.34289062 27.44722656 7.68578125 28.61132812 8.0390625 C29.68189453 8.37679688 30.75246094 8.71453125 31.85546875 9.0625 C33.30409302 9.51302734 33.30409302 9.51302734 34.78198242 9.97265625 C35.51392822 10.31167969 36.24587402 10.65070313 37 11 C38.39332383 15.1799715 36.88677048 18.14189511 35.53125 22.15625 C34.96619347 23.88500715 34.40245466 25.6141954 33.83984375 27.34375 C33.53868652 28.26349609 33.2375293 29.18324219 32.92724609 30.13085938 C31.34130945 35.0381599 29.84502789 39.97252284 28.34375 44.90625 C27.70707828 46.99089978 27.07035901 49.07553504 26.43359375 51.16015625 C25.78895663 53.27340521 25.14442573 55.38668657 24.5 57.5 C23.21980487 61.6982395 21.93878278 65.896224 20.65625 70.09375 C20.34657288 71.10732574 20.03689575 72.12090149 19.71783447 73.16519165 C17.50620787 80.38720375 15.24095988 87.5910835 12.95318604 94.78927612 C11.06175151 100.75770307 9.30111615 106.75466505 7.66015625 112.796875 C7.16398064 114.54847479 6.5897832 116.2776621 6 118 C5.01 118.495 5.01 118.495 4 119 C0.07900022 99.57429779 -3.69207742 80.12147127 -7.42407227 60.65869141 C-8.13969589 56.92850027 -8.8568854 53.19861267 -9.57421875 49.46875 C-9.89612434 47.78585876 -9.89612434 47.78585876 -10.22453308 46.06896973 C-11.27053073 40.63322202 -12.36103351 35.21718362 -13.60314941 29.82260132 C-14.93972704 23.68414966 -13.45120077 20.42877947 -10.23632812 15.26953125 C-9.4696582 14.08423828 -9.4696582 14.08423828 -8.6875 12.875 C-8.18798828 12.07707031 -7.68847656 11.27914063 -7.17382812 10.45703125 C-4.90739919 6.86076389 -2.58163206 3.37936726 0 0 Z " fill="#FCFCFC" transform="translate(464,478)"/>
<path d="M0 0 C0.0766944 7.81687933 -0.11490293 15.5633576 -0.62109375 23.36328125 C-0.71741844 24.91585884 -0.71741844 24.91585884 -0.81568909 26.49980164 C-1.01949052 29.77092945 -1.22842691 33.04170536 -1.4375 36.3125 C-1.57390135 38.4915156 -1.70997142 40.67055196 -1.84570312 42.84960938 C-2.53666506 53.90154388 -3.25004854 64.95190727 -4 76 C-14.70827604 73.31748821 -25.14431459 69.75534451 -35.625 66.3125 C-39.46706433 65.05481582 -43.30972673 63.7989631 -47.15234375 62.54296875 C-48.09058487 62.23601074 -49.02882599 61.92905273 -49.99549866 61.61279297 C-60.97970959 58.02104778 -71.98576049 54.49854269 -83 51 C-83 50.34 -83 49.68 -83 49 C-81.44970703 47.84594727 -81.44970703 47.84594727 -79.2578125 46.56640625 C-78.44852295 46.0883252 -77.6392334 45.61024414 -76.80541992 45.11767578 C-75.92088135 44.60446777 -75.03634277 44.09125977 -74.125 43.5625 C-72.26912338 42.46813931 -70.41366228 41.37307369 -68.55859375 40.27734375 C-67.61999512 39.72546387 -66.68139648 39.17358398 -65.71435547 38.60498047 C-61.84725104 36.31838715 -58.01545319 33.97635699 -54.1875 31.625 C-52.70974415 30.71987454 -51.23187672 29.81493122 -49.75390625 28.91015625 C-48.61139404 28.21043701 -48.61139404 28.21043701 -47.44580078 27.49658203 C-39.94143917 22.9046738 -32.42625725 18.33056453 -24.90576172 13.76513672 C-22.95598232 12.58072191 -21.0070994 11.39483014 -19.05908203 10.20751953 C-16.27115034 8.50902721 -13.47979565 6.81630574 -10.6875 5.125 C-9.83945801 4.60687744 -8.99141602 4.08875488 -8.11767578 3.55493164 C-7.34020996 3.08563232 -6.56274414 2.61633301 -5.76171875 2.1328125 C-5.08069092 1.71918457 -4.39966309 1.30555664 -3.69799805 0.87939453 C-2 0 -2 0 0 0 Z " fill="#FCFCFC" transform="translate(530,420)"/>
<path d="M0 0 C9.13451471 5.16570782 18.1691182 10.46583497 27.125 15.9375 C28.32687459 16.67010414 29.52886303 17.40252155 30.73095703 18.13476562 C32.5971633 19.2715799 34.46328085 20.40853686 36.32894897 21.54623413 C40.72928087 24.22900172 45.13632609 26.90047446 49.546875 29.56640625 C73.11700922 43.8196809 73.11700922 43.8196809 84 51 C81.78858664 53.21141336 80.5215048 53.63850255 77.57983398 54.56884766 C76.65963974 54.86320709 75.7394455 55.15756653 74.79136658 55.46084595 C73.78642654 55.77540741 72.78148651 56.08996887 71.74609375 56.4140625 C70.69841324 56.74739594 69.65073273 57.08072937 68.57130432 57.42416382 C65.19517539 58.49690284 61.81642853 59.56111595 58.4375 60.625 C56.24916775 61.31843882 54.06101471 62.01244348 51.87304688 62.70703125 C47.48666882 64.09905934 43.09892229 65.48666285 38.71044922 66.87207031 C34.08217849 68.33567149 29.45958518 69.81580255 24.84033203 71.30761719 C23.68815689 71.6791391 22.53598175 72.05066101 21.34889221 72.43344116 C19.13858593 73.14702451 16.92903037 73.86293846 14.72032166 74.58145142 C13.73503983 74.89923553 12.749758 75.21701965 11.73461914 75.54443359 C10.43168663 75.96721085 10.43168663 75.96721085 9.10243225 76.39852905 C7 77 7 77 5 77 C2.82208616 51.35168198 1.17455485 25.7136838 0 0 Z " fill="#FCFCFC" transform="translate(358,418)"/>
<path d="M0 0 C1.8215435 1.9021173 3.44143707 3.75396881 5.0625 5.8125 C5.7131543 6.61397461 5.7131543 6.61397461 6.37695312 7.43164062 C7.59854533 8.94329125 8.79985425 10.47126677 10 12 C10.81549316 12.95555786 10.81549316 12.95555786 11.64746094 13.93041992 C14.16428191 17.78151945 12.82846831 21.66868658 12 26 C10.80164986 31.34827013 9.40063291 36.64478915 7.99267578 41.940979 C6.84020882 46.27689809 5.71088724 50.61882129 4.58203125 54.9609375 C4.35818756 55.82032928 4.13434387 56.67972107 3.90371704 57.56515503 C1.6918137 66.10213469 -0.30152773 74.68220042 -2.19799805 83.29492188 C-2.41109619 84.25205078 -2.62419434 85.20917969 -2.84375 86.1953125 C-3.02099609 87.01016113 -3.19824219 87.82500977 -3.38085938 88.66455078 C-4.05594901 91.21104426 -4.97705054 93.57453298 -6 96 C-7.82552028 93.26171958 -8.73218189 91.19147883 -9.76831055 88.11157227 C-10.10593918 87.11525284 -10.44356781 86.11893341 -10.79142761 85.09242249 C-11.15287369 84.01133713 -11.51431976 82.93025177 -11.88671875 81.81640625 C-12.26681595 80.69169418 -12.64691315 79.56698212 -13.03852844 78.40818787 C-14.25900199 74.79434266 -15.47348987 71.17852104 -16.6875 67.5625 C-18.27299766 62.85488061 -19.86078897 58.14803702 -21.44921875 53.44140625 C-22.03024857 51.71864975 -22.03024857 51.71864975 -22.62301636 49.96109009 C-25.01241332 42.88765997 -27.42954984 35.82480198 -29.89453125 28.77734375 C-30.16738449 27.99662003 -30.44023773 27.2158963 -30.72135925 26.41151428 C-31.99186596 22.79692926 -33.30473674 19.20960675 -34.6940918 15.63891602 C-36 12 -36 12 -36 9 C-31.52008372 7.54436971 -27.03610931 6.10231136 -22.54785156 4.67260742 C-21.02192303 4.18444648 -19.49716502 3.69261063 -17.97363281 3.19702148 C-15.78228051 2.48490341 -13.58704529 1.7861491 -11.390625 1.08984375 C-10.7113092 0.86594467 -10.03199341 0.64204559 -9.33209229 0.41136169 C-3.21183823 -1.50284194 -3.21183823 -1.50284194 0 0 Z " fill="#FCFCFC" transform="translate(173,386)"/>
<path d="M0 0 C2.50071945 1.97644517 4.37611531 4.46418123 6.375 6.9375 C6.93316406 7.56462891 7.49132812 8.19175781 8.06640625 8.83789062 C10.85965397 12.26220542 12.43464927 14.85784982 12.14453125 19.34765625 C10.91120051 26.63166873 8.8893389 33.80646631 6.99267578 40.940979 C5.84020882 45.27689809 4.71088724 49.61882129 3.58203125 53.9609375 C3.35818756 54.82032928 3.13434387 55.67972107 2.90371704 56.56515503 C0.6918137 65.10213469 -1.30152773 73.68220042 -3.19799805 82.29492188 C-3.41109619 83.25205078 -3.62419434 84.20917969 -3.84375 85.1953125 C-4.02099609 86.01016113 -4.19824219 86.82500977 -4.38085938 87.66455078 C-5.05594901 90.21104426 -5.97705054 92.57453298 -7 95 C-8.82552028 92.26171958 -9.73218189 90.19147883 -10.76831055 87.11157227 C-11.10593918 86.11525284 -11.44356781 85.11893341 -11.79142761 84.09242249 C-12.15287369 83.01133713 -12.51431976 81.93025177 -12.88671875 80.81640625 C-13.26681595 79.69169418 -13.64691315 78.56698212 -14.03852844 77.40818787 C-15.25900199 73.79434266 -16.47348987 70.17852104 -17.6875 66.5625 C-19.27299768 61.85488054 -20.86098834 57.14810434 -22.44921875 52.44140625 C-22.83657196 51.29145172 -23.22392517 50.14149719 -23.62301636 48.95669556 C-26.25938978 41.14433443 -28.94809911 33.3521885 -31.72135925 25.58729553 C-33.66385317 20.10943766 -35.3717843 14.57902184 -37 9 C-32.53899464 7.54246643 -28.07335998 6.10051436 -23.6027832 4.67260742 C-22.08351661 4.18497159 -20.56558736 3.69314815 -19.04907227 3.19702148 C-16.86554939 2.48349401 -14.67761699 1.78529973 -12.48828125 1.08984375 C-11.81412674 0.86594467 -11.13997223 0.64204559 -10.44538879 0.41136169 C-6.61290181 -0.78744899 -3.82118903 -1.40558142 0 0 Z " fill="#FCFCFC" transform="translate(673,387)"/>
<path d="M0 0 C6.50333987 0.53143636 12.64326146 2.45929596 18.875 4.3125 C19.93203125 4.60833984 20.9890625 4.90417969 22.078125 5.20898438 C23.08101562 5.50740234 24.08390625 5.80582031 25.1171875 6.11328125 C26.03097168 6.37923096 26.94475586 6.64518066 27.88623047 6.91918945 C30 8 30 8 30.70689392 9.78305054 C31.05666505 12.42859413 30.62950352 14.01920025 29.8034668 16.55200195 C29.51501389 17.45367599 29.22656097 18.35535004 28.92936707 19.28434753 C28.60591812 20.25914566 28.28246918 21.23394379 27.94921875 22.23828125 C27.61928421 23.25992874 27.28934967 24.28157623 26.94941711 25.33418274 C25.87175966 28.6635091 24.77974122 31.9879327 23.6875 35.3125 C22.9488973 37.58545896 22.21126909 39.8587348 21.47460938 42.13232422 C20.00835599 46.65293873 18.53673999 51.17174612 17.06005859 55.68896484 C15.26222361 61.19068196 13.47904518 66.69694846 11.70703125 72.20703125 C11.46901291 72.94711929 11.23099457 73.68720734 10.98576355 74.44972229 C10.53655667 75.84678104 10.08741111 77.24385952 9.63833618 78.64096069 C8.09781733 83.42911157 6.54850771 88.21442802 5 93 C2.544439 90.544439 2.40522173 89.09206223 1.703125 85.71508789 C1.46948242 84.6095607 1.23583984 83.50403351 0.99511719 82.36500549 C0.74922852 81.16303024 0.50333984 79.96105499 0.25 78.72265625 C-0.0087793 77.48639999 -0.26755859 76.25014374 -0.53417969 74.97642517 C-1.22276537 71.67897244 -1.90461876 68.38026607 -2.58349609 65.08081055 C-3.13298548 62.41807389 -3.68905911 59.75673428 -4.24554443 57.09545231 C-12.43050457 17.94303713 -12.43050457 17.94303713 -8.84765625 12.0703125 C-7.93566828 10.74378455 -7.00679871 9.42872482 -6.0625 8.125 C-5.59392578 7.44953125 -5.12535156 6.7740625 -4.64257812 6.078125 C-1.32794331 1.32794331 -1.32794331 1.32794331 0 0 Z " fill="#FCFCFC" transform="translate(706,385)"/>
<path d="M0 0 C6.50333987 0.53143636 12.64326146 2.45929596 18.875 4.3125 C19.93203125 4.60833984 20.9890625 4.90417969 22.078125 5.20898438 C23.08101562 5.50740234 24.08390625 5.80582031 25.1171875 6.11328125 C26.03097168 6.37923096 26.94475586 6.64518066 27.88623047 6.91918945 C30 8 30 8 30.70689392 9.78305054 C31.05666505 12.42859413 30.62950352 14.01920025 29.8034668 16.55200195 C29.51501389 17.45367599 29.22656097 18.35535004 28.92936707 19.28434753 C28.60591812 20.25914566 28.28246918 21.23394379 27.94921875 22.23828125 C27.61928421 23.25992874 27.28934967 24.28157623 26.94941711 25.33418274 C25.87175966 28.6635091 24.77974122 31.9879327 23.6875 35.3125 C22.9488973 37.58545896 22.21126909 39.8587348 21.47460938 42.13232422 C20.00835599 46.65293873 18.53673999 51.17174612 17.06005859 55.68896484 C15.26222361 61.19068196 13.47904518 66.69694846 11.70703125 72.20703125 C11.46901291 72.94711929 11.23099457 73.68720734 10.98576355 74.44972229 C10.53655667 75.84678104 10.08741111 77.24385952 9.63833618 78.64096069 C8.09781733 83.42911157 6.54850771 88.21442802 5 93 C2.544439 90.544439 2.40522173 89.09206223 1.703125 85.71508789 C1.46948242 84.6095607 1.23583984 83.50403351 0.99511719 82.36500549 C0.74922852 81.16303024 0.50333984 79.96105499 0.25 78.72265625 C-0.0087793 77.48639999 -0.26755859 76.25014374 -0.53417969 74.97642517 C-1.22276537 71.67897244 -1.90461876 68.38026607 -2.58349609 65.08081055 C-3.13298548 62.41807389 -3.68905911 59.75673428 -4.24554443 57.09545231 C-12.43050457 17.94303713 -12.43050457 17.94303713 -8.84765625 12.0703125 C-7.93566828 10.74378455 -7.00679871 9.42872482 -6.0625 8.125 C-5.59392578 7.44953125 -5.12535156 6.7740625 -4.64257812 6.078125 C-1.32794331 1.32794331 -1.32794331 1.32794331 0 0 Z " fill="#FCFCFC" transform="translate(207,385)"/>
<path d="M0 0 C-0.41024027 14.5218384 -0.97251381 29.0084416 -2 43.5 C-2.0829834 44.69141602 -2.1659668 45.88283203 -2.25146484 47.11035156 C-2.92444594 56.20419048 -2.92444594 56.20419048 -4 60 C-10.26881275 59.36617267 -15.91159962 57.54535575 -21.875 55.5625 C-32.56464053 52.07067562 -43.2964575 48.74714017 -54.0625 45.5 C-54.80812195 45.27490753 -55.5537439 45.04981506 -56.32196045 44.81790161 C-60.5471774 43.54261423 -64.7732018 42.27003859 -69 41 C-69 40.34 -69 39.68 -69 39 C-68.42636719 38.69449219 -67.85273438 38.38898438 -67.26171875 38.07421875 C-54.1265862 30.99838862 -41.29843955 23.36751969 -28.44848633 15.7902832 C-22.83353839 12.48228767 -17.20154751 9.20422919 -11.5625 5.9375 C-10.73878906 5.45990234 -9.91507813 4.98230469 -9.06640625 4.49023438 C-8.30328125 4.04873047 -7.54015625 3.60722656 -6.75390625 3.15234375 C-6.07658447 2.76038818 -5.3992627 2.36843262 -4.70141602 1.96459961 C-1.23614275 0 -1.23614275 0 0 0 Z " fill="#FCFCFC" transform="translate(262,338)"/>
<path d="M0 0 C3.8069193 1.17883745 7.14394262 2.48865404 10.5546875 4.546875 C11.40458252 5.05500732 12.25447754 5.56313965 13.13012695 6.08666992 C14.48883911 6.91001831 14.48883911 6.91001831 15.875 7.75 C17.84461528 8.92911537 19.81468366 10.10747414 21.78515625 11.28515625 C22.80496582 11.89633301 23.82477539 12.50750977 24.87548828 13.13720703 C29.99909712 16.19183552 35.15594972 19.18893013 40.3125 22.1875 C49.89061758 27.76531762 59.45244066 33.37005333 69 39 C66.38330417 41.61669583 64.12297732 42.02132149 60.5703125 43.06640625 C59.91587158 43.26138199 59.26143066 43.45635773 58.5871582 43.65724182 C57.1726946 44.07816517 55.75739527 44.49628806 54.34136963 44.91192627 C50.59875684 46.01050005 46.86186188 47.12814061 43.125 48.24609375 C42.36462433 48.47317017 41.60424866 48.70024658 40.8208313 48.9342041 C32.01472931 51.5757194 23.27678576 54.42308961 14.54736328 57.30688477 C12.91903564 57.83946899 12.91903564 57.83946899 11.2578125 58.3828125 C10.3105127 58.69621582 9.36321289 59.00961914 8.38720703 59.33251953 C6 60 6 60 3 60 C2.56609062 53.86641391 2.13915808 47.73239322 1.71826172 41.59790039 C1.57459972 39.51769397 1.42913984 37.4376108 1.28173828 35.35766602 C0.44645066 23.5528359 -0.25405165 11.83810127 0 0 Z " fill="#FCFCFC" transform="translate(120,338)"/>
<path d="M0 0 C-0.41024027 14.5218384 -0.97251381 29.0084416 -2 43.5 C-2.0829834 44.69141602 -2.1659668 45.88283203 -2.25146484 47.11035156 C-2.92444594 56.20419048 -2.92444594 56.20419048 -4 60 C-10.33253066 59.36586619 -16.03986945 57.50276706 -22.0625 55.5 C-33.46348976 51.77257121 -44.92325139 48.28566043 -56.42407227 44.8828125 C-57.64408936 44.52058594 -58.86410645 44.15835938 -60.12109375 43.78515625 C-61.2083374 43.46426025 -62.29558105 43.14336426 -63.41577148 42.81274414 C-66 42 -66 42 -68 41 C-66.81072089 37.43216268 -66.15692111 37.22858923 -62.9765625 35.46875 C-61.7066748 34.755979 -61.7066748 34.755979 -60.41113281 34.02880859 C-59.49170898 33.52430176 -58.57228516 33.01979492 -57.625 32.5 C-55.69499324 31.41984108 -53.76531229 30.33909984 -51.8359375 29.2578125 C-50.8572168 28.71286133 -49.87849609 28.16791016 -48.87011719 27.60644531 C-44.63880499 25.23811984 -40.44276841 22.81072382 -36.25 20.375 C-35.09129395 19.70380127 -35.09129395 19.70380127 -33.90917969 19.01904297 C-28.55027416 15.91159859 -23.21025837 12.77282603 -17.875 9.625 C-1.55141913 0 -1.55141913 0 0 0 Z " fill="#FCFCFC" transform="translate(761,338)"/>
<path d="M0 0 C3.8069193 1.17883745 7.14394262 2.48865404 10.5546875 4.546875 C11.40458252 5.05500732 12.25447754 5.56313965 13.13012695 6.08666992 C14.48883911 6.91001831 14.48883911 6.91001831 15.875 7.75 C17.84461528 8.92911537 19.81468366 10.10747414 21.78515625 11.28515625 C22.80496582 11.89633301 23.82477539 12.50750977 24.87548828 13.13720703 C29.99909712 16.19183552 35.15594972 19.18893013 40.3125 22.1875 C49.89061758 27.76531762 59.45244066 33.37005333 69 39 C65.28334318 41.0786457 61.30605511 42.21992955 57.25 43.4375 C55.87948686 43.85047782 54.5096918 44.26584618 53.140625 44.68359375 C52.53766602 44.86462646 51.93470703 45.04565918 51.31347656 45.23217773 C49.2784073 45.9075991 47.26757235 46.65513396 45.26196289 47.41357422 C41.10546924 48.98389933 36.90526532 50.36482446 32.66796875 51.69921875 C31.90954178 51.9391304 31.15111481 52.17904205 30.3697052 52.42622375 C28.78272068 52.92730517 27.19536962 53.4272271 25.60766602 53.92602539 C23.17507707 54.69140872 20.74475804 55.46372742 18.31445312 56.23632812 C16.76575832 56.72438158 15.2169347 57.21202653 13.66796875 57.69921875 C12.94296677 57.93041916 12.21796478 58.16161957 11.47099304 58.39982605 C8.5330607 59.31665951 6.09770291 60 3 60 C2.56609062 53.86641391 2.13915808 47.73239322 1.71826172 41.59790039 C1.57459972 39.51769397 1.42913984 37.4376108 1.28173828 35.35766602 C0.44645066 23.5528359 -0.25405165 11.83810127 0 0 Z " fill="#FCFCFC" transform="translate(622,338)"/>
<path d="M0 0 C0.900103 -0.00845947 1.80020599 -0.01691895 2.72758484 -0.02563477 C3.7126149 -0.01956207 4.69764496 -0.01348938 5.71252441 -0.00723267 C7.27140129 -0.0151181 7.27140129 -0.0151181 8.86177063 -0.02316284 C12.30501227 -0.03639174 15.7477935 -0.02761429 19.19104004 -0.01748657 C21.57853281 -0.01950647 23.96602497 -0.0224172 26.35351562 -0.02618408 C31.36045193 -0.03061136 36.36722783 -0.02416323 41.37414551 -0.01016235 C47.80060341 0.00692956 54.22668547 -0.00290943 60.65312958 -0.02087975 C65.58411505 -0.03170656 70.51501102 -0.02827627 75.44599915 -0.02049637 C77.81594385 -0.01849132 80.18589661 -0.02096427 82.55583191 -0.02793503 C85.86479295 -0.03553121 89.17314046 -0.02397051 92.48205566 -0.00723267 C93.46708572 -0.01330536 94.45211578 -0.01937805 95.46699524 -0.02563477 C96.36709824 -0.01717529 97.26720123 -0.00871582 98.19458008 0 C99.36816952 0.00169662 99.36816952 0.00169662 100.56546783 0.00342751 C103.12407026 0.47882951 104.01250489 1.35543626 105.59729004 3.38095093 C105.99572754 5.31845093 105.99572754 5.31845093 105.97229004 7.38095093 C105.9838916 8.40188843 105.9838916 8.40188843 105.99572754 9.44345093 C105.4735565 11.9826356 104.60772514 12.76972887 102.59729004 14.38095093 C100.56546783 14.75847435 100.56546783 14.75847435 98.19458008 14.76190186 C97.29447708 14.77036133 96.39437408 14.7788208 95.46699524 14.78753662 C94.48196518 14.78146393 93.49693512 14.77539124 92.48205566 14.76913452 C90.92317879 14.77701996 90.92317879 14.77701996 89.33280945 14.7850647 C85.8895678 14.7982936 82.44678658 14.78951615 79.00354004 14.77938843 C76.61604727 14.78140832 74.2285551 14.78431906 71.84106445 14.78808594 C66.83412815 14.79251322 61.82735225 14.78606509 56.82043457 14.77206421 C50.39397667 14.7549723 43.96789461 14.76481129 37.5414505 14.7827816 C32.61046503 14.79360842 27.67956906 14.79017813 22.74858093 14.78239822 C20.37863623 14.78039317 18.00868347 14.78286613 15.63874817 14.78983688 C12.32978713 14.79743306 9.02143961 14.78587237 5.71252441 14.76913452 C4.72749435 14.77520721 3.74246429 14.78127991 2.72758484 14.78753662 C1.82748184 14.77907715 0.92737885 14.77061768 0 14.76190186 C-0.78239296 14.76077078 -1.56478592 14.7596397 -2.37088776 14.75847435 C-4.92949018 14.28307235 -5.81792481 13.4064656 -7.40270996 11.38095093 C-7.80114746 9.44345093 -7.80114746 9.44345093 -7.77770996 7.38095093 C-7.78544434 6.70032593 -7.79317871 6.01970093 -7.80114746 5.31845093 C-6.90709534 0.97090334 -4.09450912 0.00591928 0 0 Z " fill="#000000" transform="translate(393.4027099609375,376.6190490722656)"/>
<path d="M0 0 C0.9222084 -0.00700928 1.84441681 -0.01401855 2.79457092 -0.02124023 C5.84837802 -0.03887113 8.90126132 -0.0271793 11.95507812 -0.01367188 C14.07352883 -0.01636532 16.19197834 -0.0202465 18.3104248 -0.02526855 C22.75247964 -0.03117052 27.19421297 -0.02257802 31.63623047 -0.00390625 C37.33640889 0.01888348 43.03583403 0.00576416 48.7359848 -0.01819611 C53.11112161 -0.03263511 57.48607917 -0.02805678 61.86122131 -0.01768494 C63.96322213 -0.01501241 66.06523911 -0.01830581 68.16722107 -0.02760315 C71.10280599 -0.03773737 74.03716304 -0.02231132 76.97265625 0 C78.28188805 -0.01214539 78.28188805 -0.01214539 79.61756897 -0.02453613 C85.47836082 0.05818552 85.47836082 0.05818552 88.02624512 2.36242676 C89.33361171 5.29714476 89.38388034 7.33716043 88.98632812 10.51757812 C88.02624512 12.67272949 88.02624512 12.67272949 85.98632812 14.51757812 C82.86580888 14.9191393 80.09593212 15.06413003 76.97265625 15.03515625 C76.05044785 15.04216553 75.12823944 15.0491748 74.17808533 15.05639648 C71.12427823 15.07402738 68.07139493 15.06233555 65.01757812 15.04882812 C62.89912742 15.05152157 60.78067791 15.05540275 58.66223145 15.0604248 C54.22017661 15.06632677 49.77844328 15.05773427 45.33642578 15.0390625 C39.63624736 15.01627277 33.93682222 15.02939209 28.23667145 15.05335236 C23.86153464 15.06779136 19.48657708 15.06321303 15.11143494 15.05284119 C13.00943412 15.05016866 10.90741714 15.05346206 8.80543518 15.0627594 C5.86985026 15.07289362 2.93549321 15.05746757 0 15.03515625 C-1.3092318 15.04730164 -1.3092318 15.04730164 -2.64491272 15.05969238 C-8.50570457 14.97697073 -8.50570457 14.97697073 -11.05358887 12.67272949 C-12.36095546 9.73801149 -12.41122409 7.69799582 -12.01367188 4.51757812 C-9.63967656 -0.8114603 -5.11619751 -0.04746157 0 0 Z " fill="#000000" transform="translate(404.013671875,396.482421875)"/>
<path d="M0 0 C1.11536636 -0.01270432 1.11536636 -0.01270432 2.25326538 -0.02566528 C4.70751114 -0.04903499 7.16112998 -0.05005751 9.61547852 -0.04882812 C11.32414501 -0.05592967 13.03280911 -0.06362866 14.74147034 -0.07189941 C18.3216922 -0.08534407 21.90169355 -0.08691307 25.48193359 -0.08105469 C30.06664911 -0.07515808 34.65030584 -0.10574777 39.23481655 -0.14617157 C42.76334824 -0.17203957 46.29162467 -0.17492685 49.82023811 -0.17127991 C51.51032231 -0.17297197 53.20041818 -0.18262287 54.89040947 -0.20042419 C57.25578246 -0.22259813 59.61900843 -0.21292275 61.984375 -0.1953125 C62.68012131 -0.20857574 63.37586761 -0.22183899 64.09269714 -0.23550415 C67.88699423 -0.16997154 69.4957182 0.37229895 72.52626038 2.73181152 C74.55688477 5.41992188 74.55688477 5.41992188 74.61938477 9.04492188 C73.42378718 12.84270243 72.96296409 13.55229487 69.55688477 15.41992188 C66.99485878 15.71971702 64.67504477 15.85060098 62.11376953 15.83984375 C60.99840317 15.85254807 60.99840317 15.85254807 59.86050415 15.86550903 C57.40625839 15.88887874 54.95263955 15.88990126 52.49829102 15.88867188 C50.78962453 15.89577342 49.08096042 15.90347241 47.37229919 15.91174316 C43.79207733 15.92518782 40.21207598 15.92675682 36.63183594 15.92089844 C32.04712042 15.91500183 27.46346369 15.94559152 22.87895298 15.98601532 C19.35042129 16.01188332 15.82214486 16.0147706 12.29353142 16.01112366 C10.60344723 16.01281572 8.91335135 16.02246662 7.22336006 16.04026794 C4.85798707 16.06244188 2.4947611 16.0527665 0.12939453 16.03515625 C-0.56635178 16.04841949 -1.26209808 16.06168274 -1.97892761 16.0753479 C-5.77322469 16.00981529 -7.38194867 15.4675448 -10.41249084 13.10803223 C-12.44311523 10.41992188 -12.44311523 10.41992188 -12.50561523 6.79492188 C-10.43546692 0.21915663 -6.28779402 -0.02640844 0 0 Z " fill="#000000" transform="translate(413.443115234375,416.580078125)"/>
<path d="M0 0 C2.40557827 1.83124646 4.06386895 3.33116216 6 5.5625 C6.95525233 6.60829136 7.9136408 7.65122594 8.875 8.69140625 C9.37580078 9.23676025 9.87660156 9.78211426 10.39257812 10.34399414 C12.05301442 12.05461677 13.78523164 13.60343657 15.59375 15.15625 C20.86466548 19.69488472 25.88532763 24.48187339 30.85742188 29.3425293 C31.95898082 30.41216137 33.06850666 31.47364526 34.18554688 32.52709961 C35.82044285 34.07066461 37.42749603 35.63902312 39.03125 37.21484375 C39.53112427 37.67656479 40.03099854 38.13828583 40.54602051 38.61399841 C43.31278303 41.39672492 44.31384337 43.40265922 44.37304688 47.23657227 C44 51 44 51 43 53 C39.75392325 54.62303838 36.50236041 54.63701639 33 54 C30.59442173 52.16875354 28.93613105 50.66883784 27 48.4375 C26.04474767 47.39170864 25.0863592 46.34877406 24.125 45.30859375 C23.62419922 44.76323975 23.12339844 44.21788574 22.60742188 43.65600586 C20.94698558 41.94538323 19.21476836 40.39656343 17.40625 38.84375 C12.13533452 34.30511528 7.11467237 29.51812661 2.14257812 24.6574707 C1.04101918 23.58783863 -0.06850666 22.52635474 -1.18554688 21.47290039 C-2.82044285 19.92933539 -4.42749603 18.36097688 -6.03125 16.78515625 C-6.53112427 16.32343521 -7.03099854 15.86171417 -7.54602051 15.38600159 C-10.31278303 12.60327508 -11.31384337 10.59734078 -11.37304688 6.76342773 C-11 3 -11 3 -10 1 C-6.75392325 -0.62303838 -3.50236041 -0.63701639 0 0 Z " fill="#FBB03B" transform="translate(287,62)"/>
<path d="M0 0 C2 1 2 1 3 3 C3.79325987 7.37272261 3.92004711 9.64880227 1.38183594 13.37646484 C-1.02749134 16.08869425 -3.5368875 18.64516859 -6.125 21.1875 C-7.0710774 22.138973 -8.01596507 23.09163032 -8.9597168 24.04541016 C-10.93778696 26.03524454 -12.92952174 28.00996897 -14.93212891 29.97509766 C-17.49070616 32.4880896 -20.01166691 35.03531147 -22.5234375 37.59498596 C-24.46680647 39.56734527 -26.42893224 41.5201524 -28.39715576 43.46768188 C-29.78809922 44.85073759 -31.16302402 46.24984361 -32.53759766 47.64916992 C-39.64413599 54.5473971 -39.64413599 54.5473971 -44.51171875 54.6328125 C-48 54 -48 54 -50 53 C-51.70656111 49.58687777 -51.92269195 46.6324367 -51 43 C-48.39612638 39.17590437 -45.16751791 36.04677659 -41.875 32.8125 C-40.9289226 31.861027 -39.98403493 30.90836968 -39.0402832 29.95458984 C-37.06221304 27.96475546 -35.07047826 25.99003103 -33.06787109 24.02490234 C-30.50929384 21.5119104 -27.98833309 18.96468853 -25.4765625 16.40501404 C-23.53319353 14.43265473 -21.57106776 12.4798476 -19.60284424 10.53231812 C-18.21190078 9.14926241 -16.83697598 7.75015639 -15.46240234 6.35083008 C-10.25791296 1.29889784 -7.36341164 -1.33580368 0 0 Z " fill="#FBB03B" transform="translate(606,62)"/>
<path d="M0 0 C4.54091536 1.54600243 7.54434299 5.48764703 10.71875 8.94140625 C12.85675269 11.24919151 14.95612409 13.25349515 17.375 15.24609375 C21.22038559 18.52988144 24.57474757 22.20361387 27.93286133 25.97094727 C30.51586719 28.84894948 33.1611896 31.60082195 35.96875 34.26171875 C36.5666333 34.83325684 37.1645166 35.40479492 37.78051758 35.99365234 C38.94519774 37.09817571 40.12177538 38.19032238 41.3112793 39.26806641 C44.00146568 41.83439221 45.30311597 43.30842584 45.83984375 47.04296875 C45.375 49.80859375 45.375 49.80859375 43.75 52.18359375 C40.63976014 54.3116526 39.09764281 54.26368456 35.375 53.80859375 C32.65625 51.89453125 32.65625 51.89453125 29.875 49.18359375 C29.3687207 48.69793945 28.86244141 48.21228516 28.34082031 47.71191406 C26.66710368 46.09517501 25.01905446 44.45546659 23.375 42.80859375 C22.78525391 42.22045898 22.19550781 41.63232422 21.58789062 41.02636719 C19.15791583 38.60029911 16.73136493 36.17101251 14.31542969 33.73095703 C11.33606522 30.72918509 8.34220306 27.80878346 5.125 25.05859375 C-8.01547555 13.71779202 -8.01547555 13.71779202 -9.36328125 9.49609375 C-9.46286362 6.64489335 -8.89775741 4.35410856 -7.625 1.80859375 C-5.09497218 0.54357984 -2.83888269 -0.08871508 0 0 Z " fill="#F8AE3A" transform="translate(563.625,332.19140625)"/>
<path d="M0 0 C1.90701439 -0.01407143 1.90701439 -0.01407143 3.85255432 -0.02842712 C5.23626378 -0.01794991 6.61996673 -0.00658104 8.00366211 0.00561523 C9.42565484 0.00546023 10.84764801 0.00397095 12.26963806 0.00120544 C15.24635549 -0.00017777 18.22259062 0.01236706 21.19921875 0.03515625 C25.01494889 0.06356725 28.82987942 0.06079589 32.64566898 0.04806614 C35.58050877 0.04111263 38.51516361 0.0488939 41.44997978 0.06132317 C42.85699187 0.06583909 44.26402379 0.06617322 45.67103767 0.06225777 C47.6361938 0.05934847 49.60134625 0.07800214 51.56640625 0.09765625 C52.68463272 0.10305923 53.80285919 0.10846222 54.95497131 0.11402893 C57.71850586 0.50170898 57.71850586 0.50170898 59.57810974 1.90586853 C61.00010143 3.89576645 61.12112382 5.07132869 61.09350586 7.50170898 C61.10510742 8.52264648 61.10510742 8.52264648 61.11694336 9.56420898 C60.58307736 12.16026325 59.83384264 12.90444929 57.71850586 14.50170898 C54.95497131 14.88938904 54.95497131 14.88938904 51.56640625 14.90576172 C50.29821548 14.91844589 49.03002472 14.93113007 47.72340393 14.94419861 C46.337655 14.94214709 44.95190719 14.939159 43.56616211 14.93530273 C42.14513397 14.93986365 40.72410804 14.94516895 39.30308533 14.95118713 C36.3246871 14.96012317 33.34655692 14.95769004 30.36816406 14.94775391 C26.5535222 14.93626739 22.73980646 14.95646691 18.92528629 14.98567104 C15.99041375 15.00402922 13.05576326 15.00374139 10.1208477 14.99803352 C8.71464171 14.99788024 7.30842074 15.00393079 5.90226936 15.016325 C3.93489793 15.0312216 1.96737427 15.01793478 0 15.00341797 C-1.11902206 15.0032518 -2.23804413 15.00308563 -3.39097595 15.00291443 C-6.94338073 14.38694023 -8.12301039 13.34184034 -10.28149414 10.50170898 C-10.78149414 7.50170898 -10.78149414 7.50170898 -10.28149414 4.50170898 C-7.20150927 0.44906713 -4.98549065 0.00074032 0 0 Z " fill="#FAAF3A" transform="translate(236.281494140625,217.498291015625)"/>
<path d="M0 0 C1.81219276 -0.01902626 1.81219276 -0.01902626 3.66099548 -0.03843689 C4.96726395 -0.03550125 6.27353241 -0.03256561 7.61938477 -0.02954102 C8.97315229 -0.03410223 10.32691749 -0.03940762 11.68067932 -0.04542542 C14.51784674 -0.05436036 17.35473275 -0.05192964 20.19189453 -0.04199219 C23.8249514 -0.03050611 27.45703578 -0.05070475 31.08996487 -0.07990932 C33.88587092 -0.09827118 36.68154397 -0.09797896 39.47749519 -0.0922718 C41.46724204 -0.09204412 43.45696696 -0.10894552 45.44664001 -0.12608337 C46.65792068 -0.11670242 47.86920135 -0.10732147 49.1171875 -0.09765625 C50.18291489 -0.09749008 51.24864227 -0.09732391 52.34666443 -0.09715271 C55.81719373 0.52930826 56.99836963 1.63714541 59.12329102 4.40405273 C59.62329102 7.40405273 59.62329102 7.40405273 59.12329102 10.40405273 C56.99836963 13.17096006 55.81719373 14.27879721 52.34666443 14.90525818 C50.74807335 14.90550743 50.74807335 14.90550743 49.1171875 14.90576172 C47.90590683 14.91514267 46.69462616 14.92452362 45.44664001 14.93418884 C44.14239578 14.92295486 42.83815155 14.91172089 41.49438477 14.90014648 C40.13965274 14.9003015 38.78492026 14.90179097 37.43019104 14.90455627 C34.59469941 14.90593925 31.75971426 14.89339881 28.92431641 14.87060547 C25.29017642 14.84219306 21.656876 14.84496641 18.02267361 14.85769558 C15.22679981 14.86465005 12.43112009 14.85686677 9.63527107 14.84443855 C7.64385706 14.83772894 5.65241577 14.84206695 3.66099548 14.84654236 C2.45286697 14.83385818 1.24473846 14.82117401 0 14.80810547 C-1.06493179 14.80270248 -2.12986359 14.7972995 -3.22706604 14.79173279 C-5.87670898 14.40405273 -5.87670898 14.40405273 -7.71910095 12.99989319 C-9.16245585 11.01013147 -9.27945606 9.84579557 -9.25170898 7.40405273 C-9.25944336 6.72342773 -9.26717773 6.04280273 -9.27514648 5.34155273 C-8.22351312 0.22772776 -4.61113997 0.02339485 0 0 Z " fill="#FAAF3A" transform="translate(598.876708984375,217.595947265625)"/>
<path d="M0 0 C2 1 2 1 3 3 C3.78615155 6.44697216 4.03580861 7.73830482 3 11 C-1.68374273 17.09267347 -7.79985047 21.77517307 -13.9140625 26.35546875 C-16.58348599 28.46001423 -18.89599512 30.81199496 -21.2578125 33.25 C-23.70902776 35.71220726 -26.31470206 37.96875456 -28.95703125 40.22265625 C-30.36151741 41.44453236 -31.73284843 42.70524586 -33.07421875 43.99609375 C-38.17588071 48.82566707 -38.17588071 48.82566707 -42.25 49.6875 C-45.70637112 48.82340722 -46.98668966 47.9425305 -49 45 C-49.51171875 42.2890625 -49.51171875 42.2890625 -49 39 C-47.1173466 36.34370562 -44.8177428 34.20901966 -42.4375 32 C-41.82841797 31.40960938 -41.21933594 30.81921875 -40.59179688 30.2109375 C-37.00880422 26.76823133 -33.3037184 23.49047185 -29.50170898 20.29223633 C-27.20598127 18.31673856 -25.11578525 16.16616109 -23 14 C-20.02704743 10.97168519 -17.02486194 7.97642109 -14 5 C-13.46117187 4.44183594 -12.92234375 3.88367188 -12.3671875 3.30859375 C-8.28881008 -0.60263705 -5.37246169 -0.70458514 0 0 Z " fill="#F8AE3A" transform="translate(325,337)"/>
<path d="M0 0 C1.0209375 -0.01160156 1.0209375 -0.01160156 2.0625 -0.0234375 C4.64948562 0.50856357 5.40176149 1.27534583 7 3.375 C7.38095093 6.03137207 7.38095093 6.03137207 7.38818359 9.26757812 C7.40236832 11.08461243 7.40236832 11.08461243 7.4168396 12.93835449 C7.41076691 14.24776001 7.40469421 15.55716553 7.3984375 16.90625 C7.40045851 18.26241207 7.40337018 19.61857309 7.40713501 20.97473145 C7.41155716 23.81610467 7.40513123 26.65719485 7.39111328 29.49853516 C7.37402097 33.14052103 7.3838628 36.7818437 7.40183067 40.42380524 C7.41267175 43.22394812 7.40922079 46.0239338 7.4014473 48.82408142 C7.39847298 50.8199405 7.4075834 52.81580568 7.4168396 54.81164551 C7.40738312 56.02300171 7.39792664 57.23435791 7.38818359 58.48242188 C7.38579681 59.55036987 7.38341003 60.61831787 7.38095093 61.71862793 C7 64.375 7 64.375 5.59683228 66.21838379 C3.60641349 67.66008225 2.44138309 67.77774299 0 67.75 C-1.0209375 67.76160156 -1.0209375 67.76160156 -2.0625 67.7734375 C-4.64948562 67.24143643 -5.40176149 66.47465417 -7 64.375 C-7.38095093 61.71862793 -7.38095093 61.71862793 -7.38818359 58.48242188 C-7.39764008 57.27106567 -7.40709656 56.05970947 -7.4168396 54.81164551 C-7.41076691 53.50223999 -7.40469421 52.19283447 -7.3984375 50.84375 C-7.40045851 49.48758793 -7.40337018 48.13142691 -7.40713501 46.77526855 C-7.41155716 43.93389533 -7.40513123 41.09280515 -7.39111328 38.25146484 C-7.37402097 34.60947897 -7.3838628 30.9681563 -7.40183067 27.32619476 C-7.41267175 24.52605188 -7.40922079 21.7260662 -7.4014473 18.92591858 C-7.39847298 16.9300595 -7.4075834 14.93419432 -7.4168396 12.93835449 C-7.40738312 11.72699829 -7.39792664 10.51564209 -7.38818359 9.26757812 C-7.38579681 8.19963013 -7.38341003 7.13168213 -7.38095093 6.03137207 C-7 3.375 -7 3.375 -5.59683228 1.53161621 C-3.60641349 0.08991775 -2.44138309 -0.02774299 0 0 Z " fill="#FBB03B" transform="translate(442,-0.375)"/>
<path d="M0 0 C0.87253418 -0.00016617 1.74506836 -0.00033234 2.64404297 -0.00050354 C3.6351709 -0.00988449 4.62629883 -0.01926544 5.64746094 -0.02893066 C6.71625488 -0.01769669 7.78504883 -0.00646271 8.88623047 0.00511169 C9.98467285 0.00365646 11.08311523 0.00220123 12.21484375 0.0007019 C14.53827567 0.00236262 16.86171838 0.013943 19.18505859 0.03465271 C22.74738147 0.06359294 26.3082158 0.05526741 29.87060547 0.04222107 C32.12582106 0.04845864 34.38103193 0.05684971 36.63623047 0.06761169 C37.70502441 0.06467606 38.77381836 0.06174042 39.875 0.05871582 C40.86612793 0.07139999 41.85725586 0.08408417 42.87841797 0.09715271 C43.75095215 0.10255569 44.62348633 0.10795868 45.52246094 0.11352539 C48.22553203 0.58160696 49.11418096 1.34627308 50.76123047 3.50120544 C51.15966797 5.43870544 51.15966797 5.43870544 51.13623047 7.50120544 C51.14783203 8.52214294 51.14783203 8.52214294 51.15966797 9.56370544 C50.63452622 12.11733592 49.7989176 12.89401535 47.76123047 14.50120544 C45.52246094 14.8888855 45.52246094 14.8888855 42.87841797 14.90525818 C41.39172607 14.92428444 41.39172607 14.92428444 39.875 14.94369507 C38.80620605 14.94075943 37.73741211 14.93782379 36.63623047 14.93479919 C34.98856689 14.94266197 34.98856689 14.94266197 33.30761719 14.95068359 C30.98422084 14.95710974 28.66079199 14.95575919 26.33740234 14.94725037 C22.77496675 14.93873827 19.21413263 14.96749902 15.65185547 14.99925232 C13.39664762 15.00086427 11.14143692 15.00028692 8.88623047 14.99729919 C7.28303955 15.01415016 7.28303955 15.01415016 5.64746094 15.03134155 C4.16076904 15.01727013 4.16076904 15.01727013 2.64404297 15.00291443 C1.3352417 15.00266518 1.3352417 15.00266518 0 15.00241089 C-2.23876953 14.50120544 -2.23876953 14.50120544 -4.02050781 12.65734863 C-5.67502709 9.72909403 -5.65318963 7.81656627 -5.23876953 4.50120544 C-3.74392555 1.85555253 -3.01850533 0.67576911 0 0 Z " fill="#000000" transform="translate(419.23876953125,436.49879455566406)"/>
<path d="M0 0 C7.93768421 3.7577216 15.40054567 8.15280089 22.875 12.75 C24.08836417 13.49212265 25.30199257 14.23381344 26.51586914 14.97509766 C29.04789009 16.52178568 31.57876072 18.07033148 34.10888672 19.62011719 C39.92710845 23.18159078 45.76051282 26.71806808 51.59307861 30.25598145 C53.40401505 31.35468454 55.21453468 32.45407096 57.02490234 33.55371094 C58.12914551 34.2243457 59.23338867 34.89498047 60.37109375 35.5859375 C61.8240686 36.46838135 61.8240686 36.46838135 63.30639648 37.36865234 C64.19528564 37.90699707 65.0841748 38.4453418 66 39 C66.84361084 39.55437744 67.68722168 40.10875488 68.55639648 40.67993164 C72.67025354 42.90229403 76.45430018 42.78116077 81 42 C84.39956129 40.51756163 87.3419907 38.55853972 90.375 36.4375 C91.91703849 35.3835613 93.46627109 34.34005013 95.0234375 33.30859375 C95.69294434 32.84251709 96.36245117 32.37644043 97.05224609 31.89624023 C99.46192912 30.78744775 100.55817322 31.10175901 103 32 C99.39859681 34.15049741 95.79342235 36.29459032 92.1875 38.4375 C91.16333984 39.04916016 90.13917969 39.66082031 89.08398438 40.29101562 C88.10107422 40.87431641 87.11816406 41.45761719 86.10546875 42.05859375 C85.19949951 42.59798584 84.29353027 43.13737793 83.36010742 43.69311523 C81 45 81 45 78 46 C77.505 46.99 77.505 46.99 77 48 C77 47.34 77 46.68 77 46 C76.41927734 46.20842529 75.83855469 46.41685059 75.24023438 46.6315918 C72.36995856 47.10361078 71.54791195 46.48808014 69.15625 44.89453125 C68.41576416 44.41218018 67.67527832 43.9298291 66.91235352 43.43286133 C66.11627686 42.89814209 65.3202002 42.36342285 64.5 41.8125 C62.77085901 40.68546028 61.04034884 39.56051888 59.30859375 38.4375 C58.42284668 37.86 57.53709961 37.2825 56.62451172 36.6875 C52.65799447 34.13712165 48.6165888 31.72037042 44.5625 29.3125 C36.69352584 24.61896324 28.84408802 19.89436326 21.00997925 15.14291382 C19.76545412 14.38832463 18.52060762 13.63426518 17.27542114 12.88076782 C15.51874605 11.81766768 13.76314682 10.75281213 12.0078125 9.6875 C10.99348145 9.07261719 9.97915039 8.45773437 8.93408203 7.82421875 C2.69255269 3.94364734 2.69255269 3.94364734 0 2 C0 1.34 0 0.68 0 0 Z " fill="#161616" transform="translate(369,423)"/>
<path d="M0 0 C-3.60140319 2.15049741 -7.20657765 4.29459032 -10.8125 6.4375 C-11.83666016 7.04916016 -12.86082031 7.66082031 -13.91601562 8.29101562 C-14.89892578 8.87431641 -15.88183594 9.45761719 -16.89453125 10.05859375 C-17.80050049 10.59798584 -18.70646973 11.13737793 -19.63989258 11.69311523 C-22 13 -22 13 -25 14 C-25.33 14.66 -25.66 15.32 -26 16 C-26 15.34 -26 14.68 -26 14 C-26.56203125 14.22558594 -27.1240625 14.45117188 -27.703125 14.68359375 C-30.93650956 15.12900897 -32.14567321 13.93914725 -34.75 12.0625 C-35.54921875 11.49660156 -36.3484375 10.93070312 -37.171875 10.34765625 C-37.77515625 9.90292969 -38.3784375 9.45820313 -39 9 C-36 8 -36 8 -34.10400391 8.90795898 C-33.40968262 9.26833252 -32.71536133 9.62870605 -32 10 C-24.04635677 11.382604 -19.02336198 8.91199335 -12.625 4.4375 C-11.08296151 3.3835613 -9.53372891 2.34005013 -7.9765625 1.30859375 C-7.30705566 0.84251709 -6.63754883 0.37644043 -5.94775391 -0.10375977 C-3.53807088 -1.21255225 -2.44182678 -0.89824099 0 0 Z " fill="#1A1A1A" transform="translate(472,455)"/>
<path d="M0 0 C-0.61407715 0.3623877 -1.2281543 0.72477539 -1.86083984 1.09814453 C-4.69911258 2.7733917 -7.53705764 4.44919322 -10.375 6.125 C-11.34050781 6.69476563 -12.30601562 7.26453125 -13.30078125 7.8515625 C-14.26113281 8.41875 -15.22148437 8.9859375 -16.2109375 9.5703125 C-17.65291504 10.41770996 -17.65291504 10.41770996 -19.12402344 11.28222656 C-21.04835034 12.43159533 -22.95805303 13.60579389 -24.85253906 14.80371094 C-26.18236816 15.63950684 -26.18236816 15.63950684 -27.5390625 16.4921875 C-28.32748535 16.99862793 -29.1159082 17.50506836 -29.92822266 18.02685547 C-32 19 -32 19 -35 18 C-34.34515625 17.60208252 -33.6903125 17.20416504 -33.015625 16.79418945 C-30.01010297 14.96747519 -27.00504854 13.13999306 -24 11.3125 C-22.97003906 10.68666016 -21.94007813 10.06082031 -20.87890625 9.41601562 C-19.36103516 8.49272461 -19.36103516 8.49272461 -17.8125 7.55078125 C-16.81863281 6.94959473 -15.82476562 6.3484082 -14.80078125 5.72900391 C-13.04940656 4.64782926 -11.31419225 3.53948513 -9.60546875 2.39208984 C-8.91066406 1.92625488 -8.21585937 1.46041992 -7.5 0.98046875 C-6.9121875 0.57078857 -6.324375 0.1611084 -5.71875 -0.26098633 C-3.47178663 -1.22711674 -2.26104385 -0.79179921 0 0 Z " fill="#181818" transform="translate(505,435)"/>
<path d="M0 0 C7.63661 2.01543714 15.1713943 4.26311304 22.6875 6.6875 C23.68716797 7.00783203 24.68683594 7.32816406 25.71679688 7.65820312 C28.14521772 8.4366921 30.57292982 9.21731242 33 10 C32.34 10.33 31.68 10.66 31 11 C30.67 11.66 30.34 12.32 30 13 C29.67 12.34 29.34 11.68 29 11 C26.80882826 10.19517115 24.58004094 9.4920622 22.33984375 8.8359375 C21.67537735 8.63900299 21.01091095 8.44206848 20.3263092 8.23916626 C18.19878623 7.61044254 16.06826766 6.99262771 13.9375 6.375 C12.49653479 5.95123427 11.05577656 5.52676404 9.61523438 5.1015625 C6.07919025 4.05951587 2.54038019 3.02723113 -1 2 C-0.67 1.34 -0.34 0.68 0 0 Z " fill="#5E5E5E" transform="translate(707,383)"/>
<path d="M0 0 C7.63661 2.01543714 15.1713943 4.26311304 22.6875 6.6875 C23.68716797 7.00783203 24.68683594 7.32816406 25.71679688 7.65820312 C28.14521772 8.4366921 30.57292982 9.21731242 33 10 C32.34 10.33 31.68 10.66 31 11 C30.67 11.66 30.34 12.32 30 13 C29.67 12.34 29.34 11.68 29 11 C26.80882826 10.19517115 24.58004094 9.4920622 22.33984375 8.8359375 C21.67537735 8.63900299 21.01091095 8.44206848 20.3263092 8.23916626 C18.19878623 7.61044254 16.06826766 6.99262771 13.9375 6.375 C12.49653479 5.95123427 11.05577656 5.52676404 9.61523438 5.1015625 C6.07919025 4.05951587 2.54038019 3.02723113 -1 2 C-0.67 1.34 -0.34 0.68 0 0 Z " fill="#5E5E5E" transform="translate(208,383)"/>
<path d="M0 0 C4.75 0.875 4.75 0.875 7 2 C8.53668865 2.22467831 10.07968054 2.40796805 11.625 2.5625 C12.44226563 2.64628906 13.25953125 2.73007812 14.1015625 2.81640625 C14.72804688 2.87699219 15.35453125 2.93757813 16 3 C14.47396631 4.75493875 13.2344384 5.89246834 11.109375 6.8671875 C8.07451075 7.05827155 6.69784077 5.86088708 4.25 4.125 C3.45078125 3.57070313 2.6515625 3.01640625 1.828125 2.4453125 C1.22484375 1.96835937 0.6215625 1.49140625 0 1 C0 0.67 0 0.34 0 0 Z " fill="#7F7F7F" transform="translate(433,463)"/>
<path d="M0 0 C0 0.99 0 1.98 0 3 C-2.51953125 4.859375 -2.51953125 4.859375 -5.8125 6.75 C-6.89144531 7.38421875 -7.97039062 8.0184375 -9.08203125 8.671875 C-12 10 -12 10 -15 9 C-10.05 6.03 -5.1 3.06 0 0 Z " fill="#0E0E0E" transform="translate(485,444)"/>
<path d="M0 0 C5.46864457 1.01591421 10.76390013 2.07091057 16 4 C15.01 4.495 15.01 4.495 14 5 C13.67 5.66 13.34 6.32 13 7 C12.67 6.34 12.34 5.68 12 5 C10.00708223 4.21655744 7.97948177 3.51983635 5.9375 2.875 C4.83277344 2.52179688 3.72804688 2.16859375 2.58984375 1.8046875 C1.73519531 1.53914063 0.88054688 1.27359375 0 1 C0 0.67 0 0.34 0 0 Z " fill="#4F4F4F" transform="translate(724,389)"/>
<path d="M0 0 C5.46864457 1.01591421 10.76390013 2.07091057 16 4 C15.01 4.495 15.01 4.495 14 5 C13.67 5.66 13.34 6.32 13 7 C12.67 6.34 12.34 5.68 12 5 C10.00708223 4.21655744 7.97948177 3.51983635 5.9375 2.875 C4.83277344 2.52179688 3.72804687 2.16859375 2.58984375 1.8046875 C1.73519531 1.53914063 0.88054687 1.27359375 0 1 C0 0.67 0 0.34 0 0 Z " fill="#4F4F4F" transform="translate(225,389)"/>
<path d="M0 0 C3.63 1.98 7.26 3.96 11 6 C7 7 7 7 5.078125 6.07421875 C4.47484375 5.61660156 3.8715625 5.15898437 3.25 4.6875 C2.63640625 4.23761719 2.0228125 3.78773438 1.390625 3.32421875 C0.93171875 2.88722656 0.4728125 2.45023437 0 2 C0 1.34 0 0.68 0 0 Z " fill="#0E0E0E" transform="translate(424,456)"/>
<path d="M0 0 C3.3 1.65 6.6 3.3 10 5 C6 6 6 6 2.75 4.1875 C1.8425 3.465625 0.935 2.74375 0 2 C0 1.34 0 0.68 0 0 Z " fill="#101010" transform="translate(369,423)"/>
<path d="M0 0 C0 1.32 0 2.64 0 4 C-1.1446875 4.2165625 -1.1446875 4.2165625 -2.3125 4.4375 C-5.08172908 4.9632594 -5.08172908 4.9632594 -8 6 C-8 5.34 -8 4.68 -8 4 C-2.58823529 0 -2.58823529 0 0 0 Z " fill="#1A1A1A" transform="translate(763,335)"/>
<path d="M0 0 C0 1.32 0 2.64 0 4 C-1.1446875 4.2165625 -1.1446875 4.2165625 -2.3125 4.4375 C-5.08172908 4.9632594 -5.08172908 4.9632594 -8 6 C-8 5.34 -8 4.68 -8 4 C-2.58823529 0 -2.58823529 0 0 0 Z " fill="#1A1A1A" transform="translate(264,335)"/>
</svg>
